<svg width="100" height="32" viewBox="0 0 100 32" fill="none" xmlns="http://www.w3.org/2000/svg">
<g clip-path="url(#clip0)">
<path d="M77.1792 26.4764C76.5223 25.6986 76.0254 24.8016 75.7164 23.8359C75.6864 23.7559 75.6595 23.676 75.6325 23.5902C75.6055 23.5043 75.5755 23.4007 75.5456 23.2941C75.5156 23.1876 75.5096 23.1698 75.4916 23.1076C75.4616 22.9952 75.4326 22.8827 75.4047 22.7702L75.3597 22.5689C75.3177 22.3715 75.2808 22.1742 75.2488 21.9768C75.2488 21.9058 75.2248 21.8318 75.2158 21.7607C75.1998 21.6443 75.1848 21.5259 75.1709 21.4055C75.1709 21.3285 75.1559 21.2516 75.1469 21.1746C75.1379 21.0976 75.1259 20.9763 75.1199 20.8786L90.03 17.2168C89.9542 16.4277 89.7349 15.6585 89.3825 14.9463C88.8377 13.73 87.9408 12.7001 86.8045 11.9861C85.5526 11.1833 84.1374 10.6618 82.6589 10.4586L82.4101 10.4201C81.5215 10.3127 80.6234 10.3057 79.7332 10.3994C77.3744 10.6649 75.1685 11.6858 73.4526 13.306C71.7367 14.9262 70.6051 17.0567 70.2308 19.3718V19.4636C70.2068 19.6205 70.1828 19.7774 70.1649 19.9343C70.1529 20.031 70.1429 20.1297 70.1349 20.2303C70.1349 20.3132 70.1349 20.3961 70.1139 20.479C70.1139 20.623 70.1069 20.7681 70.0929 20.9141V21.589C70.1379 22.8354 70.4058 24.0641 70.8843 25.2183C72.5809 29.3004 76.6007 31.9942 80.8513 31.9942C82.6526 32.0308 84.4349 31.6253 86.0384 30.8141C87.6419 30.003 89.0165 28.8116 90.039 27.3467L89.7842 26.6895C88.729 28.7646 81.4658 31.3134 77.1792 26.4764V26.4764ZM83.9538 17.4655L75.0989 19.6383C75.0989 19.3699 75.1119 19.1054 75.1379 18.8449V18.7472C75.1379 18.6604 75.1469 18.5736 75.1649 18.4867C75.1649 18.3683 75.1918 18.247 75.2098 18.1315C75.2908 17.5672 75.4161 17.01 75.5845 16.4649C75.8835 15.4591 76.3429 14.5068 76.9454 13.6438C77.485 12.8709 78.1799 12.2159 78.9868 11.7197C79.7625 11.2452 80.6583 10.9968 81.5707 11.0033C82.8397 11.0033 83.769 11.3694 84.3585 12.1015C84.5644 12.3578 84.7357 12.6394 84.8681 12.9393C85.4736 14.446 85.4316 16.9977 83.9538 17.4655V17.4655ZM50.5995 26.6954C49.5383 28.7676 42.2812 31.3163 37.9946 26.4764C37.288 25.6353 36.7636 24.66 36.4538 23.6109C36.0801 22.4147 35.897 21.1683 35.9112 19.9165C35.9023 18.7489 36.07 17.5865 36.4088 16.4679C36.7081 15.4631 37.1675 14.5118 37.7698 13.6497C38.3093 12.8768 39.0042 12.2219 39.8111 11.7256C40.5869 11.2511 41.4826 11.0027 42.3951 11.0092C43.664 11.0092 44.5933 11.3753 45.1828 12.1075C45.7914 12.8964 46.104 13.8694 46.0671 14.8605C46.0791 15.3767 46.0021 15.8913 45.8393 16.382L50.3597 15.3015C48.717 10.9382 43.2674 10.3609 42.2662 10.3609C33.6361 10.2218 28.9058 18.5223 31.6936 25.236C33.3933 29.3063 37.413 32.0001 41.6666 32.0001C43.4679 32.0367 45.2502 31.6312 46.8537 30.8201C48.4572 30.0089 49.8318 28.8175 50.8543 27.3526L50.5995 26.6954Z" fill="#272727"/>
<path d="M70.2278 26.6953C69.1667 28.7674 61.9095 31.3162 57.6229 26.4762C56.9163 25.6351 56.3919 24.6599 56.0821 23.6107C55.7084 22.4145 55.5254 21.1682 55.5396 19.9164C55.5306 18.7488 55.6983 17.5864 56.0372 16.4677C56.3361 15.4619 56.7955 14.5096 57.3981 13.6466C57.9376 12.8737 58.6325 12.2187 59.4394 11.7225C60.2152 11.248 61.1109 10.9996 62.0234 11.0061C63.2924 11.0061 64.2216 11.3722 64.8112 12.1043C65.4198 12.8932 65.7323 13.8663 65.6954 14.8574C65.7074 15.3736 65.6304 15.8882 65.4676 16.3789L69.982 15.2984C68.3453 10.938 62.8987 10.3608 61.9005 10.3608C53.2704 10.2216 48.5402 18.5221 51.3279 25.2359C53.0246 29.3062 57.0444 32 61.295 32C63.0962 32.0365 64.8785 31.631 66.482 30.8199C68.0855 30.0088 69.4601 28.8174 70.4826 27.3525L70.2278 26.6953ZM96.5588 27.6603V0L90.1829 1.58372L90.1379 1.60148V2.19648C90.3627 2.19648 92.2932 2.76189 92.2932 4.09695V27.5626C92.2932 30.5228 90.2398 30.955 88.8519 31.0468V31.5382H100.003V31.0468C98.6211 30.9521 96.6067 30.5199 96.5588 27.6603V27.6603ZM19.4035 0L13.0875 1.5778L13.0426 1.59556V2.07216C13.2674 2.07216 15.1409 2.75005 14.6133 3.97262C12.2452 9.3691 4.45444 27.4353 4.04376 28.2464C2.69784 30.9728 0.788369 30.955 0 31.0438V31.5382H9.89209V31.035C9.89209 31.035 6.13609 31.0823 6.13609 29.0753C6.13609 27.8587 8.07554 23.0779 8.60911 21.7754L21.4988 18.5724C21.5138 18.6494 24.979 27.2163 24.979 29.0102C24.979 30.961 21.8975 31.0231 21.8046 31.0231V31.5175H34.6942V31.0231C33.9988 30.9935 31.6966 30.961 30.3417 28.205C29.976 27.4501 19.4035 0 19.4035 0ZM21.0462 17.4653L9.14868 20.4255C9.21163 20.2686 15.6865 4.79852 15.8693 4.41073C16.1391 5.05606 21.0462 17.4653 21.0462 17.4653V17.4653Z" fill="#272727"/>
</g>
<defs>
<clipPath id="clip0">
<rect width="100" height="32" fill="white"/>
</clipPath>
</defs>
</svg>
