<svg width="44" height="42" fill="none" xmlns="http://www.w3.org/2000/svg">
  <path
    d="m35 28 4-3c1-1 3 0 4 1h0c1 2 0 3-1 4l-8 7-1 1-15 3-3-1-10-6-2-1H1V22l6-1 4 1 5 2h2l10 2c1 0 3 1 3 3l-3 3-11 1M30 4v3c0 2-3 3-6 3s-5-1-5-3V4"
    stroke="#064944"
    stroke-miterlimit="10"
    stroke-lineca="round"
    stroke-linejoin="round"
  />
  <path
    d="M24 14c-3 0-5-1-5-3V8"
    stroke="#064944"
    stroke-miterlimit="10"
    stroke-lineca="round"
    stroke-linejoin="round"
  />
  <path
    d="M24 18c-3 0-5-2-5-3v-4"
    stroke="#064944"
    stroke-miterlimit="10"
    stroke-lineca="round"
    stroke-linejoin="round"
  />
  <path
    d="M24 7c3 0 6-2 6-3 0-2-3-3-6-3s-5 1-5 3c0 1 2 3 5 3Z"
    fill="#DBECE4"
    stroke="#064944"
    stroke-miterlimit="10"
    stroke-lineca="round"
    stroke-linejoin="round"
  />
  <path
    d="M38 13v4c0 1-2 3-5 3-4 0-6-2-6-3v-4"
    stroke="#064944"
    stroke-miterlimit="10"
    stroke-lineca="round"
    stroke-linejoin="round"
  />
  <path
    d="M38 17v4c0 1-2 2-5 2-4 0-6-1-6-2v-4"
    stroke="#064944"
    stroke-miterlimit="10"
    stroke-lineca="round"
    stroke-linejoin="round"
  />
  <path
    d="M33 16c3 0 5-1 5-3 0-1-2-3-5-3s-6 2-6 3c0 2 3 3 6 3Z"
    fill="#DBECE4"
    stroke="#064944"
    stroke-miterlimit="10"
    stroke-lineca="round"
    stroke-linejoin="round"
  />
</svg>