  <svg
    width="203"
    height="211"
    viewBox="0 0 203 211"
    fill="none"
    xmlns="http://www.w3.org/2000/svg"
  >
    <path
      d="M7 206H199"
      stroke="#064843"
      stroke-width="0.5"
      stroke-linecap="round"
      stroke-linejoin="round"
    />
    <path
      d="M172.587 32.0999L99.252 18.543L26.4123 32.0999C26.4123 32.0999 22.7237 100.027 37.4121 134.264C52.084 168.459 99.252 186.543 99.252 186.543C99.252 186.543 146.927 168.452 161.587 134.257C176.28 100.005 172.587 32.0999 172.587 32.0999ZM150.501 128.072C138.453 157.434 99.2974 172.95 99.2974 172.95C99.2974 172.95 60.5505 157.434 48.4986 128.072C36.4466 98.711 39.4627 40.3472 39.4627 40.3472L99.2891 28.7142L159.528 40.3472C159.528 40.3472 162.569 98.6612 150.501 128.072Z"
      fill="#DBECE4"
    />
    <path
      d="M139.496 157.383L137.088 166.59L137.077 166.633L137.081 166.678L137.33 166.653L137.081 166.678L137.081 166.678L137.082 166.68L137.082 166.686L137.085 166.714C137.087 166.739 137.09 166.777 137.095 166.827C137.103 166.927 137.114 167.078 137.127 167.276C137.152 167.673 137.182 168.263 137.201 169.032C137.239 170.568 137.232 172.818 137.052 175.666C136.694 181.321 135.654 189.334 132.928 198.801L127.857 198.24L129.063 157.383H139.496Z"
      stroke="#054742"
      stroke-width="0.5"
    />
    <path
      d="M134.4 197.015L126.65 196.965C126.65 196.965 122.06 199.965 118.22 200.465C114.38 200.965 112.22 203.255 111.93 206.415L136 206.545C135.737 203.329 135.201 200.141 134.4 197.015Z"
      fill="#054742"
    />
    <path
      d="M115 199.805C115 199.805 119.38 199.805 121.09 208.445H111.09C111.09 208.445 112 201.095 115 199.805Z"
      fill="white"
    />
    <path
      d="M111.373 208.437L111.371 208.937L111.871 208.939L135.921 209.035L136.421 209.037L136.423 208.537L136.431 206.547L136.433 206.047L135.933 206.045L111.883 205.949L111.383 205.947L111.381 206.447L111.373 208.437Z"
      fill="#054742"
      stroke="white"
    />
    <path
      d="M121.83 199.215C121.83 199.215 122.59 199.215 124.09 200.535"
      stroke="white"
      stroke-width="0.6"
      stroke-linecap="round"
      stroke-linejoin="round"
    />
    <path
      d="M124.31 198.254C124.31 198.254 125.07 198.254 126.57 199.574"
      stroke="white"
      stroke-width="0.6"
      stroke-linecap="round"
      stroke-linejoin="round"
    />
    <path
      d="M119.61 200.215C120.055 200.265 120.484 200.41 120.867 200.642C121.25 200.873 121.579 201.184 121.83 201.555"
      stroke="white"
      stroke-width="0.6"
      stroke-linecap="round"
      stroke-linejoin="round"
    />
    <path
      d="M171.791 191.463C171.836 191.568 171.873 191.657 171.904 191.728L167.487 194.277L148.066 168.312L148.064 168.308C148.059 168.302 148.052 168.291 148.043 168.276C148.025 168.246 147.998 168.2 147.963 168.138C147.893 168.014 147.792 167.826 147.673 167.574C147.434 167.07 147.118 166.311 146.82 165.298C146.234 163.312 145.712 160.347 145.954 156.414H156.212L156.65 165.566L156.656 165.675L156.739 165.745C159.766 168.295 162.254 171.424 164.057 174.948L164.057 174.948L164.06 174.953C165.786 178.13 167.767 182.373 169.319 185.825C170.095 187.551 170.763 189.078 171.236 190.173C171.473 190.72 171.662 191.16 171.791 191.463Z"
      stroke="#054742"
      stroke-width="0.5"
    />
    <path
      d="M171.33 189.055L164.39 192.545C164.39 192.545 161.67 197.335 158.45 199.475C155.23 201.615 154.38 204.665 155.53 207.625L177 196.825C175.335 194.078 173.438 191.478 171.33 189.055Z"
      fill="#054742"
    />
    <path
      d="M155.29 200.304C155.29 200.304 159.19 198.304 164.62 205.304L155.69 209.774C155.69 209.774 153.21 202.804 155.29 200.304Z"
      fill="white"
    />
    <path
      d="M155.989 209.559L156.213 210.006L156.66 209.782L178.162 199.01L178.609 198.786L178.385 198.339L177.494 196.559L177.27 196.112L176.823 196.336L155.32 207.109L154.873 207.333L155.097 207.78L155.989 209.559Z"
      fill="#054742"
      stroke="white"
    />
    <path
      d="M161.11 196.705C161.11 196.705 161.79 196.355 163.72 196.855"
      stroke="white"
      stroke-width="0.6"
      stroke-linecap="round"
      stroke-linejoin="round"
    />
    <path
      d="M162.89 194.723C162.89 194.723 163.56 194.373 165.49 194.883"
      stroke="white"
      stroke-width="0.6"
      stroke-linecap="round"
      stroke-linejoin="round"
    />
    <path
      d="M159.58 198.593C160 198.438 160.449 198.374 160.896 198.407C161.343 198.44 161.777 198.568 162.17 198.783"
      stroke="white"
      stroke-width="0.6"
      stroke-linecap="round"
      stroke-linejoin="round"
    />
    <path
      d="M123.409 187.131C121.934 168.623 124.939 147.656 128.315 131.298C130.01 123.085 131.797 116.038 133.155 111.056C133.834 108.564 134.406 106.59 134.805 105.243C135.004 104.57 135.161 104.053 135.266 103.708C135.288 103.633 135.309 103.567 135.327 103.508C135.34 103.465 135.351 103.426 135.362 103.392L155.362 105.084C162.267 116.578 161.541 125.474 160.81 134.424C160.777 134.834 160.743 135.245 160.711 135.656C160.52 138.044 161.065 142.18 161.976 147.011C162.889 151.852 164.176 157.422 165.486 162.696C166.796 167.97 168.129 172.949 169.135 176.61C169.638 178.441 170.059 179.942 170.355 180.985C170.502 181.507 170.619 181.914 170.698 182.191L170.737 182.327L123.409 187.131Z"
      fill="#DBECE4"
      stroke="#054742"
      stroke-width="0.5"
    />
    <path
      d="M125.89 81.0854L123.74 99.9954C122.74 103.835 122.69 107.685 126.61 108.305C128.3 108.568 130.027 108.179 131.441 107.218C132.856 106.256 133.853 104.794 134.23 103.125L138.81 84.1754C139.006 83.2966 139.021 82.3871 138.855 81.5021C138.689 80.6172 138.345 79.7751 137.844 79.0271C137.343 78.2791 136.695 77.6406 135.94 77.1504C135.184 76.6602 134.337 76.3285 133.45 76.1754C131.803 75.8901 130.109 76.2375 128.707 77.1479C127.305 78.0584 126.299 79.4647 125.89 81.0854Z"
      fill="#054742"
    />
    <mask id="path-19-inside-1_9545_77414" fill="white">
      <path
        fill-rule="evenodd"
        clip-rule="evenodd"
        d="M108.536 112.353C108.627 112.927 108.604 113.513 108.47 114.077C108.335 114.643 108.09 115.177 107.749 115.648C107.407 116.12 106.977 116.519 106.481 116.824C105.985 117.129 105.435 117.333 104.86 117.425C102.44 117.815 99.54 116.665 99.16 114.245C98.9445 112.873 99.5811 111.388 100.612 110.29C100.48 109.963 100.004 108.484 102.01 108.005C104.037 107.52 106.844 107.905 108.152 111.128C108.33 111.498 108.457 111.892 108.527 112.299C108.531 112.317 108.536 112.336 108.54 112.355L108.536 112.353Z"
      />
    </mask>
    <path
      fill-rule="evenodd"
      clip-rule="evenodd"
      d="M108.536 112.353C108.627 112.927 108.604 113.513 108.47 114.077C108.335 114.643 108.09 115.177 107.749 115.648C107.407 116.12 106.977 116.519 106.481 116.824C105.985 117.129 105.435 117.333 104.86 117.425C102.44 117.815 99.54 116.665 99.16 114.245C98.9445 112.873 99.5811 111.388 100.612 110.29C100.48 109.963 100.004 108.484 102.01 108.005C104.037 107.52 106.844 107.905 108.152 111.128C108.33 111.498 108.457 111.892 108.527 112.299C108.531 112.317 108.536 112.336 108.54 112.355L108.536 112.353Z"
      fill="white"
    />
    <path
      d="M108.47 114.077L108.956 114.193V114.193L108.47 114.077ZM108.536 112.353L108.658 111.869L107.923 111.682L108.042 112.432L108.536 112.353ZM107.749 115.648L108.154 115.942L107.749 115.648ZM104.86 117.425L104.781 116.931L104.78 116.931L104.86 117.425ZM99.16 114.245L99.654 114.167L99.16 114.245ZM100.612 110.29L100.976 110.632L101.196 110.399L101.075 110.103L100.612 110.29ZM102.01 108.005L102.126 108.491L102.01 108.005ZM108.152 111.128L107.689 111.316L107.695 111.331L107.702 111.345L108.152 111.128ZM108.527 112.299L108.034 112.384L108.037 112.401L108.041 112.418L108.527 112.299ZM108.54 112.355L108.417 112.839L109.219 113.042L109.026 112.238L108.54 112.355ZM108.956 114.193C109.106 113.565 109.131 112.913 109.029 112.275L108.042 112.432C108.123 112.941 108.103 113.46 107.983 113.961L108.956 114.193ZM108.154 115.942C108.533 115.417 108.806 114.823 108.956 114.193L107.983 113.961C107.864 114.463 107.646 114.937 107.344 115.355L108.154 115.942ZM106.743 117.25C107.294 116.911 107.774 116.466 108.154 115.942L107.344 115.355C107.041 115.773 106.659 116.128 106.219 116.398L106.743 117.25ZM104.939 117.919C105.578 117.816 106.191 117.589 106.743 117.25L106.219 116.398C105.779 116.668 105.291 116.85 104.781 116.931L104.939 117.919ZM98.6661 114.322C98.8874 115.732 99.842 116.742 101.02 117.335C102.194 117.926 103.631 118.129 104.94 117.918L104.78 116.931C103.669 117.11 102.446 116.934 101.47 116.442C100.498 115.953 99.8126 115.178 99.654 114.167L98.6661 114.322ZM100.248 109.948C99.1476 111.119 98.4194 112.752 98.6661 114.322L99.654 114.167C99.4697 112.994 100.015 111.657 100.976 110.632L100.248 109.948ZM101.075 110.103C101.021 109.968 100.918 109.639 100.995 109.324C101.03 109.179 101.106 109.029 101.261 108.89C101.42 108.747 101.685 108.596 102.126 108.491L101.894 107.518C101.333 107.652 100.905 107.866 100.593 108.146C100.277 108.429 100.103 108.76 100.024 109.085C99.8701 109.712 100.071 110.285 100.149 110.478L101.075 110.103ZM102.126 108.491C103.067 108.266 104.168 108.249 105.168 108.641C106.153 109.027 107.084 109.825 107.689 111.316L108.615 110.94C107.913 109.207 106.786 108.201 105.533 107.71C104.297 107.226 102.98 107.259 101.894 107.518L102.126 108.491ZM109.019 112.214C108.942 111.762 108.801 111.323 108.603 110.911L107.702 111.345C107.86 111.673 107.972 112.023 108.034 112.384L109.019 112.214ZM108.041 112.418C108.045 112.436 108.05 112.453 108.054 112.471L109.026 112.238C109.022 112.219 109.017 112.199 109.012 112.18L108.041 112.418ZM108.663 111.87L108.658 111.869L108.413 112.838L108.417 112.839L108.663 111.87Z"
      fill="#054742"
      mask="url(#path-19-inside-1_9545_77414)"
    />
    <path
      d="M106.08 107.226L126.94 97.546C129.06 96.196 132.57 97.736 133.6 100.846C133.831 101.535 133.923 102.262 133.873 102.987C133.822 103.711 133.629 104.419 133.305 105.069C132.981 105.719 132.532 106.299 131.984 106.775C131.436 107.252 130.799 107.616 130.11 107.846L108.69 115.846L106.08 107.226Z"
      fill="#054742"
    />
    <path
      d="M156 74.9922L143.77 72.9922L130.6 76.2622C130.6 76.2622 130.14 93.7422 132.27 103.202C132.446 104.004 132.904 104.716 133.561 105.208C134.219 105.7 135.031 105.94 135.85 105.882L154.46 106.422C154.46 106.422 157.03 105.212 157.1 101.422L157.43 76.4222C157.396 76.0542 157.235 75.7097 156.974 75.4484C156.712 75.1872 156.368 75.0257 156 74.9922Z"
      fill="#054742"
    />
    <path
      d="M134.1 105.602C134.1 105.602 132.05 105.152 131.52 99.3024C130.9 92.3924 130.43 82.6523 130.43 82.6523"
      stroke="white"
      stroke-width="0.63"
      stroke-linecap="round"
      stroke-linejoin="round"
    />
    <path
      d="M145.984 132.138C145.728 132.124 145.53 132.111 145.396 132.101L142.275 103.417L168.505 99.5858L174.418 126.833C168.774 130.195 161.516 131.516 155.629 131.99C152.662 132.23 150.051 132.253 148.182 132.217C147.247 132.199 146.498 132.166 145.984 132.138Z"
      fill="white"
      stroke="#054742"
      stroke-width="0.5"
    />
    <mask id="path-25-inside-2_9545_77414" fill="white">
      <path
        fill-rule="evenodd"
        clip-rule="evenodd"
        d="M149.439 121.235C149.207 121.097 147.811 120.163 149.21 118.543C150.73 116.783 153.66 115.343 157.05 118.253L156.993 118.276C157.404 118.686 157.732 119.175 157.957 119.716C158.293 120.526 158.381 121.416 158.21 122.275C158.04 123.134 157.619 123.924 157 124.543C156.166 125.371 155.039 125.835 153.865 125.835C152.69 125.835 151.564 125.371 150.73 124.543C150.111 123.924 149.69 123.134 149.52 122.275C149.451 121.931 149.425 121.582 149.439 121.235Z"
      />
    </mask>
    <path
      fill-rule="evenodd"
      clip-rule="evenodd"
      d="M149.439 121.235C149.207 121.097 147.811 120.163 149.21 118.543C150.73 116.783 153.66 115.343 157.05 118.253L156.993 118.276C157.404 118.686 157.732 119.175 157.957 119.716C158.293 120.526 158.381 121.416 158.21 122.275C158.04 123.134 157.619 123.924 157 124.543C156.166 125.371 155.039 125.835 153.865 125.835C152.69 125.835 151.564 125.371 150.73 124.543C150.111 123.924 149.69 123.134 149.52 122.275C149.451 121.931 149.425 121.582 149.439 121.235Z"
      fill="white"
    />
    <path
      d="M149.439 121.235L149.938 121.255L149.95 120.959L149.695 120.806L149.439 121.235ZM149.21 118.543L149.588 118.87L149.21 118.543ZM157.05 118.253L157.234 118.718L158.004 118.413L157.376 117.874L157.05 118.253ZM156.993 118.276L156.809 117.811L156.099 118.092L156.64 118.63L156.993 118.276ZM157.957 119.716L157.495 119.908V119.908L157.957 119.716ZM158.21 122.275L158.701 122.372V122.372L158.21 122.275ZM157 124.543L157.352 124.898L157.354 124.897L157 124.543ZM150.73 124.543L150.376 124.897L150.378 124.898L150.73 124.543ZM149.52 122.275L150.01 122.178L149.52 122.275ZM149.695 120.806C149.604 120.751 149.308 120.55 149.169 120.24C149.106 120.099 149.073 119.93 149.114 119.724C149.155 119.512 149.28 119.227 149.588 118.87L148.831 118.217C148.44 118.67 148.215 119.109 148.132 119.532C148.048 119.96 148.117 120.338 148.257 120.649C148.524 121.246 149.042 121.581 149.182 121.664L149.695 120.806ZM149.588 118.87C150.295 118.052 151.309 117.333 152.508 117.141C153.686 116.952 155.122 117.257 156.724 118.633L157.376 117.874C155.588 116.34 153.864 115.91 152.349 116.153C150.855 116.393 149.645 117.275 148.831 118.217L149.588 118.87ZM156.866 117.788L156.809 117.811L157.177 118.741L157.234 118.718L156.866 117.788ZM158.419 119.525C158.169 118.922 157.803 118.378 157.346 117.922L156.64 118.63C157.004 118.994 157.296 119.428 157.495 119.908L158.419 119.525ZM158.701 122.372C158.89 121.416 158.792 120.425 158.419 119.525L157.495 119.908C157.793 120.626 157.871 121.416 157.72 122.178L158.701 122.372ZM157.354 124.897C158.042 124.207 158.511 123.328 158.701 122.372L157.72 122.178C157.569 122.94 157.195 123.64 156.646 124.19L157.354 124.897ZM153.865 126.335C155.171 126.335 156.425 125.819 157.352 124.898L156.648 124.189C155.908 124.923 154.908 125.335 153.865 125.335V126.335ZM150.378 124.898C151.305 125.819 152.558 126.335 153.865 126.335V125.335C152.822 125.335 151.822 124.923 151.082 124.189L150.378 124.898ZM149.029 122.372C149.219 123.328 149.687 124.207 150.376 124.897L151.084 124.19C150.535 123.64 150.161 122.94 150.01 122.178L149.029 122.372ZM148.939 121.215C148.923 121.601 148.953 121.989 149.029 122.372L150.01 122.178C149.949 121.873 149.926 121.563 149.938 121.255L148.939 121.215Z"
      fill="#054742"
      mask="url(#path-25-inside-2_9545_77414)"
    />
    <path
      d="M151.34 116.042L162.63 96.0418C163.017 95.3756 163.539 94.7976 164.162 94.3448C164.785 93.8921 165.496 93.5745 166.249 93.4126C167.003 93.2507 167.781 93.2479 168.536 93.4045C169.29 93.561 170.003 93.8735 170.63 94.3218C171.811 95.1811 172.606 96.4724 172.84 97.9145C173.074 99.3566 172.729 100.833 171.88 102.022L159.18 121.022L151.34 116.042Z"
      fill="#054742"
    />
    <path
      d="M150.25 85.2345L160.68 101.714C161.182 102.506 161.843 103.185 162.622 103.707C163.401 104.229 164.28 104.582 165.203 104.745C166.126 104.908 167.073 104.876 167.984 104.652C168.894 104.428 169.748 104.017 170.49 103.444C171.845 102.401 172.753 100.882 173.032 99.1951C173.31 97.5079 172.938 95.7778 171.99 94.3545L161.38 77.9845C160.879 77.2343 160.231 76.594 159.474 76.1027C158.718 75.6114 157.869 75.2794 156.98 75.1269C156.091 74.9744 155.181 75.0045 154.304 75.2156C153.427 75.4266 152.602 75.8141 151.88 76.3544C150.539 77.3565 149.626 78.8282 149.323 80.4748C149.021 82.1214 149.352 83.8214 150.25 85.2345Z"
      fill="#054742"
    />
    <path
      d="M155.552 74.9427C154.975 75.2068 154.219 75.6534 153.483 76.3879C151.988 77.8805 150.607 80.5293 150.911 85.1512L150.911 85.1521C151.302 90.7863 152.032 96.3917 153.097 101.938L149.227 102.701L148.419 92.6548L148.418 92.644L148.417 92.6332L148.17 92.6748L148.417 92.6332L148.417 92.6328L148.416 92.6311L148.415 92.6237L148.41 92.5933C148.406 92.5662 148.399 92.5255 148.392 92.4722C148.376 92.3654 148.353 92.2077 148.328 92.0053C148.276 91.6006 148.212 91.0174 148.16 90.3064C148.057 88.8834 148.004 86.9522 148.205 84.9144C148.608 80.8376 150.015 76.4432 153.936 74.722L155.552 74.9427Z"
      fill="white"
      stroke="#054742"
      stroke-width="0.5"
    />
    <path
      d="M157.12 96.0822L153.9 90.9922"
      stroke="white"
      stroke-width="0.63"
      stroke-linecap="round"
      stroke-linejoin="round"
    />
    <path
      d="M52.4383 91.2737C52.4385 91.245 52.4387 91.2199 52.4389 91.1986L57.1057 85.6693C57.1505 85.7002 57.2029 85.7365 57.2623 85.7779C57.4803 85.9301 57.7919 86.1519 58.1653 86.4295C58.9127 86.9851 59.9057 87.7628 60.8912 88.6527C61.8779 89.5439 62.8498 90.5411 63.5601 91.5352C64.2761 92.5372 64.6978 93.4968 64.6504 94.3216C64.5458 96.1397 64.1873 99.6506 63.1448 102.537C62.6231 103.982 61.9388 105.245 61.0515 106.065C60.1762 106.874 59.0999 107.257 57.7449 106.952C56.4095 106.651 55.392 105.563 54.6199 104.021C53.8499 102.484 53.3478 100.541 53.0227 98.6217C52.6981 96.705 52.5522 94.8264 52.4877 93.4257C52.4554 92.7257 52.4435 92.146 52.4396 91.7416C52.4377 91.5394 52.4378 91.3811 52.4383 91.2737Z"
      fill="white"
      stroke="black"
      stroke-width="0.5"
    />
    <path
      d="M102.934 172.757L112.079 187.471L103.416 192.317L94.2705 177.602L102.934 172.757Z"
      fill="white"
      stroke="#054742"
      stroke-width="0.5"
    />
    <path
      d="M112.16 184.004L99.9999 190.824C99.9999 190.824 101.27 193.584 97.6399 196.154C94.0099 198.724 92.9999 201.944 94.2299 204.864L118.42 191.324C116.582 188.682 114.485 186.23 112.16 184.004Z"
      fill="#054742"
    />
    <path
      d="M94.721 206.843L94.9652 207.279L95.4015 207.035L119.592 193.499L120.028 193.255L119.784 192.818L118.817 191.09L118.573 190.654L118.137 190.898L93.9463 204.434L93.51 204.679L93.7541 205.115L94.721 206.843Z"
      fill="#054742"
      stroke="white"
    />
    <path
      d="M115.36 187.434C115.36 187.434 111.04 190.434 113.16 194.254"
      stroke="white"
      stroke-width="0.42"
      stroke-miterlimit="10"
    />
    <path
      d="M100 193.542C100.935 193.208 101.948 193.159 102.91 193.402"
      stroke="white"
      stroke-width="0.42"
      stroke-linecap="round"
      stroke-linejoin="round"
    />
    <path
      d="M98.8701 195.145C99.7831 194.734 100.821 194.698 101.76 195.045"
      stroke="white"
      stroke-width="0.42"
      stroke-linecap="round"
      stroke-linejoin="round"
    />
    <path
      d="M67.9199 108.705C68.4651 123.423 70.8434 138.016 74.9999 152.145L95.7799 188.005L111.02 179.005L92.0199 146.815L84.9999 107.195L67.9199 108.705Z"
      fill="#054742"
    />
    <path
      d="M47.7596 177.189L56.4607 181.958L48.8505 197.519L40.1495 192.749L47.7596 177.189Z"
      fill="white"
      stroke="#054742"
      stroke-width="0.5"
    />
    <path
      d="M51.8301 195.744L39.5701 189.024C39.5701 189.024 37.9101 191.574 33.8101 189.854C29.7101 188.134 26.4401 189.014 24.6201 191.604L48.9301 204.914C50.1951 201.959 51.1665 198.888 51.8301 195.744Z"
      fill="#054742"
    />
    <path
      d="M23.265 193.093L23.0249 193.531L23.4635 193.771L47.778 207.083L48.2165 207.323L48.4566 206.885L49.4075 205.148L49.6476 204.709L49.209 204.469L24.8945 191.157L24.456 190.917L24.2158 191.356L23.265 193.093Z"
      fill="#054742"
      stroke="white"
    />
    <path
      d="M50.6299 200.283C50.6299 200.283 45.7599 198.233 43.6799 202.033"
      stroke="white"
      stroke-width="0.42"
      stroke-miterlimit="10"
    />
    <path
      d="M37.3101 190.473C37.3101 190.473 38.0801 190.883 38.9701 192.863"
      stroke="white"
      stroke-width="0.42"
      stroke-linecap="round"
      stroke-linejoin="round"
    />
    <path
      d="M35.3398 190.402C36.1679 190.958 36.7458 191.816 36.9499 192.792"
      stroke="white"
      stroke-width="0.42"
      stroke-linecap="round"
      stroke-linejoin="round"
    />
    <path
      d="M91.6401 103.465C91.6401 103.465 97.0801 113.795 88.1901 128.055L54.5601 192.545L41.3301 185.455L75.6101 106.695L91.6401 103.465Z"
      fill="#054742"
    />
    <path
      d="M88.5898 127.395L75.3398 152.675"
      stroke="white"
      stroke-width="0.63"
      stroke-linecap="round"
      stroke-linejoin="round"
    />
    <path
      d="M69.04 121.753L71.78 115.453"
      stroke="white"
      stroke-width="0.63"
      stroke-linecap="round"
      stroke-linejoin="round"
    />
    <mask id="path-48-inside-3_9545_77414" fill="white">
      <path
        fill-rule="evenodd"
        clip-rule="evenodd"
        d="M104.36 28.8945L111.45 41.2845C111.946 42.325 112.266 43.4399 112.4 44.5845L113.341 57.447C113.378 57.4637 113.415 57.481 113.451 57.4988C115.937 58.4352 116.44 60.6363 116.21 62.3148C115.964 64.1127 114.593 63.7616 114.355 63.6866C114.154 63.8725 113.932 64.037 113.693 64.1764C113.045 64.5543 112.299 64.7314 111.55 64.6851C111.054 64.6558 110.569 64.529 110.122 64.3121C109.675 64.0951 109.276 63.7923 108.946 63.4208C108.616 63.0493 108.363 62.6165 108.201 62.1471C108.039 61.6777 107.97 61.1809 108 60.6851C108.043 59.936 108.307 59.2166 108.76 58.6179L108.784 58.5866L106.2 43.9045L98.3501 32.2845L104.36 28.8945Z"
      />
    </mask>
    <path
      fill-rule="evenodd"
      clip-rule="evenodd"
      d="M104.36 28.8945L111.45 41.2845C111.946 42.325 112.266 43.4399 112.4 44.5845L113.341 57.447C113.378 57.4637 113.415 57.481 113.451 57.4988C115.937 58.4352 116.44 60.6363 116.21 62.3148C115.964 64.1127 114.593 63.7616 114.355 63.6866C114.154 63.8725 113.932 64.037 113.693 64.1764C113.045 64.5543 112.299 64.7314 111.55 64.6851C111.054 64.6558 110.569 64.529 110.122 64.3121C109.675 64.0951 109.276 63.7923 108.946 63.4208C108.616 63.0493 108.363 62.6165 108.201 62.1471C108.039 61.6777 107.97 61.1809 108 60.6851C108.043 59.936 108.307 59.2166 108.76 58.6179L108.784 58.5866L106.2 43.9045L98.3501 32.2845L104.36 28.8945Z"
      fill="white"
    />
    <path
      d="M111.45 41.2845L111.902 41.0696L111.893 41.0525L111.884 41.0362L111.45 41.2845ZM104.36 28.8945L104.794 28.6462L104.547 28.2149L104.114 28.459L104.36 28.8945ZM112.4 44.5845L112.899 44.5481L112.898 44.5373L112.897 44.5266L112.4 44.5845ZM113.341 57.447L112.842 57.4835L112.864 57.7805L113.136 57.9028L113.341 57.447ZM113.451 57.4988L113.231 57.9478L113.253 57.9583L113.275 57.9667L113.451 57.4988ZM116.21 62.3148L115.715 62.2469L116.21 62.3148ZM114.355 63.6866L114.506 63.2098L114.229 63.1224L114.016 63.3193L114.355 63.6866ZM113.693 64.1764L113.945 64.6083L113.945 64.6083L113.693 64.1764ZM111.55 64.6851L111.581 64.1861L111.58 64.186L111.55 64.6851ZM108.946 63.4208L108.572 63.7527L108.572 63.7527L108.946 63.4208ZM108.201 62.1471L108.673 61.9837H108.673L108.201 62.1471ZM108 60.6851L108.499 60.7151L108.499 60.7138L108 60.6851ZM108.76 58.6179L108.362 58.3145L108.361 58.3165L108.76 58.6179ZM108.784 58.5866L109.181 58.89L109.314 58.7158L109.276 58.5L108.784 58.5866ZM106.2 43.9045L106.693 43.8179L106.674 43.7129L106.614 43.6246L106.2 43.9045ZM98.3501 32.2845L98.1045 31.849L97.6324 32.1153L97.9358 32.5644L98.3501 32.2845ZM111.884 41.0362L104.794 28.6462L103.926 29.1429L111.016 41.5329L111.884 41.0362ZM112.897 44.5266C112.757 43.3275 112.421 42.1595 111.902 41.0696L110.999 41.4995C111.471 42.4904 111.776 43.5523 111.903 44.6425L112.897 44.5266ZM113.84 57.4105L112.899 44.5481L111.901 44.621L112.842 57.4835L113.84 57.4105ZM113.671 57.0498C113.63 57.0296 113.588 57.01 113.546 56.9911L113.136 57.9028C113.168 57.9173 113.2 57.9323 113.231 57.9478L113.671 57.0498ZM116.705 62.3827C116.83 61.4721 116.76 60.4012 116.303 59.4177C115.839 58.4215 114.992 57.5451 113.628 57.0309L113.275 57.9667C114.396 58.3889 115.043 59.0813 115.396 59.8393C115.754 60.6101 115.82 61.4789 115.715 62.2469L116.705 62.3827ZM114.205 64.1634C114.351 64.2095 114.876 64.3551 115.43 64.1798C115.72 64.0879 116.012 63.9095 116.247 63.6015C116.479 63.2977 116.635 62.8949 116.705 62.3827L115.715 62.2469C115.662 62.6337 115.554 62.8611 115.452 62.9949C115.353 63.1243 115.241 63.1906 115.128 63.2264C114.876 63.3062 114.597 63.2387 114.506 63.2098L114.205 64.1634ZM113.945 64.6083C114.215 64.4505 114.467 64.2644 114.694 64.0539L114.016 63.3193C113.841 63.4807 113.649 63.6234 113.441 63.7445L113.945 64.6083ZM111.519 65.1842C112.367 65.2365 113.211 65.0361 113.945 64.6083L113.441 63.7445C112.878 64.0725 112.231 64.2262 111.581 64.1861L111.519 65.1842ZM109.904 64.7618C110.41 65.0075 110.959 65.151 111.521 65.1842L111.58 64.186C111.149 64.1605 110.728 64.0505 110.341 63.8623L109.904 64.7618ZM108.572 63.7527C108.945 64.1733 109.398 64.5162 109.904 64.7618L110.341 63.8623C109.953 63.674 109.606 63.4112 109.32 63.0889L108.572 63.7527ZM107.728 62.3105C107.912 62.842 108.199 63.3321 108.572 63.7527L109.32 63.0889C109.034 62.7666 108.814 62.391 108.673 61.9837L107.728 62.3105ZM107.501 60.6551C107.467 61.2165 107.545 61.779 107.728 62.3105L108.673 61.9837C108.533 61.5764 108.473 61.1453 108.499 60.7151L107.501 60.6551ZM108.361 58.3165C107.849 58.9942 107.55 59.8086 107.501 60.6564L108.499 60.7138C108.537 60.0635 108.766 59.439 109.159 58.9193L108.361 58.3165ZM108.386 58.2832L108.362 58.3145L109.157 58.9213L109.181 58.89L108.386 58.2832ZM105.708 43.9912L108.291 58.6733L109.276 58.5L106.693 43.8179L105.708 43.9912ZM97.9358 32.5644L105.786 44.1844L106.614 43.6246L98.7644 32.0046L97.9358 32.5644ZM104.114 28.459L98.1045 31.849L98.5957 32.72L104.606 29.33L104.114 28.459Z"
      fill="#054742"
      mask="url(#path-48-inside-3_9545_77414)"
    />
    <path
      d="M97.2 24.6719C97.2 24.6719 101.83 24.9419 103.66 27.7319C105.99 31.2619 110.66 36.9819 110.66 36.9819L99.0899 43.2619L97.2 24.6719Z"
      fill="#054742"
    />
    <path
      d="M50.7715 91.0642L55.2409 74.9095L55.2411 74.9089C55.9424 72.3499 57.3993 70.0619 59.4212 68.3438C59.4214 68.3437 59.4216 68.3435 59.4218 68.3433L62.2303 65.9842L68.0209 72.8079L63.0643 77.1956L63.0222 77.2329L63.0001 77.2846L56.581 92.315L50.7715 91.0642Z"
      fill="white"
      stroke="#054742"
      stroke-width="0.5"
    />
    <mask id="path-52-inside-4_9545_77414" fill="white">
      <path
        fill-rule="evenodd"
        clip-rule="evenodd"
        d="M60.79 5.69284C61.0681 6.38656 61.1343 7.14717 60.9803 7.87851C60.9729 7.91347 60.9651 7.94828 60.9568 7.98295L69.57 20.1331L81.64 27.2831L77.66 32.8731L66 24.7131C65.1021 23.9894 64.3315 23.1208 63.72 22.1431L57.2747 10.8794C57.2594 10.8794 57.244 10.8793 57.2287 10.8791C54.5575 11.0978 53.1529 9.30302 52.64 7.71289C52.04 5.85289 53.76 5.71289 53.76 5.71289L53.7636 5.71643C53.8667 5.45402 53.9995 5.20266 54.1601 4.96744C54.5817 4.35027 55.1767 3.87193 55.87 3.59285C56.3308 3.40597 56.8239 3.31206 57.3211 3.31656C57.8183 3.32106 58.3097 3.42386 58.767 3.61905C59.2243 3.81424 59.6385 4.09795 59.9857 4.45386C60.3329 4.80977 60.6062 5.23085 60.79 5.69284Z"
      />
    </mask>
    <path
      fill-rule="evenodd"
      clip-rule="evenodd"
      d="M60.79 5.69284C61.0681 6.38656 61.1343 7.14717 60.9803 7.87851C60.9729 7.91347 60.9651 7.94828 60.9568 7.98295L69.57 20.1331L81.64 27.2831L77.66 32.8731L66 24.7131C65.1021 23.9894 64.3315 23.1208 63.72 22.1431L57.2747 10.8794C57.2594 10.8794 57.244 10.8793 57.2287 10.8791C54.5575 11.0978 53.1529 9.30302 52.64 7.71289C52.04 5.85289 53.76 5.71289 53.76 5.71289L53.7636 5.71643C53.8667 5.45402 53.9995 5.20266 54.1601 4.96744C54.5817 4.35027 55.1767 3.87193 55.87 3.59285C56.3308 3.40597 56.8239 3.31206 57.3211 3.31656C57.8183 3.32106 58.3097 3.42386 58.767 3.61905C59.2243 3.81424 59.6385 4.09795 59.9857 4.45386C60.3329 4.80977 60.6062 5.23085 60.79 5.69284Z"
      fill="white"
    />
    <path
      d="M60.9803 7.87851L60.491 7.77546L60.491 7.77547L60.9803 7.87851ZM60.79 5.69284L60.3254 5.87767L60.3259 5.8789L60.79 5.69284ZM60.9568 7.98295L60.4706 7.86609L60.4175 8.08687L60.5489 8.27211L60.9568 7.98295ZM69.57 20.1331L69.1621 20.4223L69.2236 20.509L69.3152 20.5633L69.57 20.1331ZM81.64 27.2831L82.0473 27.5731L82.3627 27.1301L81.8948 26.8529L81.64 27.2831ZM77.66 32.8731L77.3733 33.2827L77.7797 33.5671L78.0673 33.1631L77.66 32.8731ZM66 24.7131L65.6862 25.1024L65.6994 25.113L65.7133 25.1228L66 24.7131ZM63.72 22.1431L63.286 22.3914L63.2909 22.3999L63.2961 22.4082L63.72 22.1431ZM57.2747 10.8794L57.7087 10.6311L57.565 10.38L57.2756 10.3794L57.2747 10.8794ZM57.2287 10.8791L57.2356 10.3791L57.2117 10.3788L57.1879 10.3807L57.2287 10.8791ZM52.64 7.71289L52.1641 7.86639L52.64 7.71289ZM53.76 5.71289L54.111 5.35683L53.9478 5.19595L53.7194 5.21454L53.76 5.71289ZM53.7636 5.71643L53.4125 6.07249L53.9518 6.60414L54.2289 5.89937L53.7636 5.71643ZM54.1601 4.96744L54.573 5.24945V5.24945L54.1601 4.96744ZM55.87 3.59285L56.0567 4.05669L56.0579 4.05619L55.87 3.59285ZM57.3211 3.31656L57.3166 3.81654L57.3211 3.31656ZM58.767 3.61905L58.9633 3.15919L58.9633 3.15919L58.767 3.61905ZM59.9857 4.45386L60.3436 4.10472L60.3436 4.10472L59.9857 4.45386ZM61.4696 7.98156C61.644 7.15349 61.569 6.29227 61.2541 5.50678L60.3259 5.8789C60.5673 6.48085 60.6247 7.14084 60.491 7.77546L61.4696 7.98156ZM61.4429 8.0998C61.4523 8.06056 61.4612 8.02114 61.4696 7.98156L60.491 7.77547C60.4847 7.80579 60.4778 7.836 60.4706 7.86609L61.4429 8.0998ZM69.9779 19.8439L61.3647 7.69378L60.5489 8.27211L69.1621 20.4223L69.9779 19.8439ZM81.8948 26.8529L69.8248 19.7029L69.3152 20.5633L81.3852 27.7133L81.8948 26.8529ZM78.0673 33.1631L82.0473 27.5731L81.2327 26.9931L77.2527 32.5831L78.0673 33.1631ZM65.7133 25.1228L77.3733 33.2827L77.9467 32.4634L66.2867 24.3035L65.7133 25.1228ZM63.2961 22.4082C63.9372 23.4332 64.745 24.3438 65.6862 25.1024L66.3138 24.3238C65.4593 23.6351 64.7259 22.8084 64.1439 21.878L63.2961 22.4082ZM56.8407 11.1278L63.286 22.3914L64.154 21.8948L57.7087 10.6311L56.8407 11.1278ZM57.2217 11.379C57.2391 11.3793 57.2564 11.3794 57.2738 11.3794L57.2756 10.3794C57.2623 10.3794 57.249 10.3793 57.2356 10.3791L57.2217 11.379ZM52.1641 7.86639C52.4426 8.72975 52.9675 9.66525 53.8062 10.3595C54.6557 11.0626 55.8036 11.4974 57.2695 11.3774L57.1879 10.3807C55.9826 10.4794 55.0927 10.1262 54.4438 9.58913C53.7842 9.0431 53.3503 8.28616 53.1158 7.55939L52.1641 7.86639ZM53.76 5.71289C53.7194 5.21454 53.7191 5.21456 53.7189 5.21458C53.7188 5.21459 53.7185 5.21462 53.7183 5.21463C53.7178 5.21467 53.7174 5.21471 53.7169 5.21475C53.716 5.21483 53.715 5.21492 53.7138 5.21502C53.7115 5.21523 53.7088 5.21549 53.7056 5.2158C53.6993 5.21643 53.6913 5.21728 53.6818 5.21841C53.6628 5.22067 53.6375 5.22406 53.607 5.22903C53.5461 5.23892 53.4631 5.25531 53.3668 5.28207C53.1778 5.33455 52.9179 5.43238 52.6741 5.61607C52.4244 5.80424 52.1916 6.08352 52.0804 6.48095C51.9704 6.87376 51.9925 7.33434 52.1641 7.86639L53.1158 7.55939C52.9875 7.16145 52.9995 6.90702 53.0434 6.75046C53.0859 6.59851 53.1706 6.49404 53.2759 6.41471C53.3871 6.3309 53.5196 6.27748 53.6344 6.24559C53.69 6.23016 53.7366 6.22108 53.7675 6.21605C53.7829 6.21356 53.7939 6.21212 53.7998 6.21142C53.8027 6.21108 53.8044 6.21091 53.8045 6.2109C53.8046 6.21089 53.8043 6.21092 53.8037 6.21098C53.8033 6.21101 53.8029 6.21104 53.8024 6.21109C53.8021 6.21111 53.8019 6.21113 53.8015 6.21116C53.8014 6.21117 53.8011 6.21119 53.8011 6.2112C53.8008 6.21122 53.8005 6.21124 53.76 5.71289ZM54.1146 5.36037L54.111 5.35683L53.409 6.06895L53.4125 6.07249L54.1146 5.36037ZM53.7472 4.68543C53.5653 4.95176 53.415 5.23637 53.2982 5.53349L54.2289 5.89937C54.3184 5.67168 54.4336 5.45357 54.573 5.24945L53.7472 4.68543ZM55.6833 3.12902C54.8983 3.44501 54.2245 3.98663 53.7472 4.68543L54.573 5.24945C54.9388 4.71392 55.4551 4.29885 56.0567 4.05669L55.6833 3.12902ZM57.3256 2.81658C56.7625 2.81149 56.2039 2.91785 55.6821 3.12951L56.0579 4.05619C56.4576 3.89409 56.8854 3.81264 57.3166 3.81654L57.3256 2.81658ZM58.9633 3.15919C58.4454 2.93811 57.8888 2.82167 57.3256 2.81658L57.3166 3.81654C57.7479 3.82044 58.1741 3.90961 58.5707 4.07891L58.9633 3.15919ZM60.3436 4.10472C59.9503 3.7016 59.4812 3.38026 58.9633 3.15919L58.5707 4.07891C58.9674 4.24821 59.3266 4.4943 59.6278 4.803L60.3436 4.10472ZM61.2546 5.50802C61.0464 4.98475 60.7368 4.50783 60.3436 4.10472L59.6278 4.803C59.9289 5.11171 60.166 5.47694 60.3254 5.87766L61.2546 5.50802Z"
      fill="#054742"
      mask="url(#path-52-inside-4_9545_77414)"
    />
    <path
      d="M79.6999 38.3322C76.3599 35.7422 65.3999 28.8422 65.3999 28.8422L71.6599 20.7422L83.6599 26.0822C83.6599 26.0822 82.3399 40.3822 79.6999 38.3322Z"
      fill="#054742"
    />
    <path
      d="M69.7574 73.8355C69.7504 73.8365 69.7436 73.8375 69.737 73.8385L60.8862 65.1423L72.4334 57.5577L88.9457 56.2899C88.95 56.3146 88.9545 56.3414 88.9593 56.3702C88.9912 56.564 89.0325 56.8474 89.0695 57.2027C89.1434 57.9137 89.1994 58.9108 89.128 60.0528C88.9849 62.3405 88.3318 65.1859 86.3121 67.4886C85.3102 68.6307 83.7755 69.6061 82.0151 70.4258C80.2582 71.2439 78.2956 71.8984 76.4558 72.4075C74.6169 72.9164 72.9059 73.2786 71.6545 73.5137C71.0289 73.6311 70.5186 73.7168 70.165 73.773C69.9882 73.8011 69.8506 73.8218 69.7574 73.8355Z"
      fill="white"
      stroke="#054742"
      stroke-width="0.5"
    />
    <path
      d="M98 24.755L88 23.125L77.54 23.945C77.54 23.945 79.64 50.945 81.97 56.945C81.97 56.945 92.54 60.945 102.97 55.945L99.2 25.945C99.1853 25.6325 99.0538 25.3368 98.8316 25.1165C98.6094 24.8962 98.3127 24.7672 98 24.755Z"
      fill="#054742"
    />
    <path
      d="M79.7 42.2842L79.1899 34.5742"
      stroke="#49797F"
      stroke-width="0.7"
      stroke-linecap="round"
      stroke-linejoin="round"
    />
    <path
      d="M101.16 42.0938L96.29 34.0938"
      stroke="white"
      stroke-width="0.63"
      stroke-linecap="round"
      stroke-linejoin="round"
    />
    <path
      d="M81 5.89453C81 5.89453 75 9.54453 80.42 11.5045L81 5.89453Z"
      fill="#054742"
    />
    <path
      d="M83.11 14.0019C83.1061 14.4455 82.9719 14.8781 82.7239 15.2458C82.4757 15.6138 82.1247 15.9006 81.7145 16.0704C81.3044 16.2402 80.8534 16.2854 80.4177 16.2005C79.982 16.1156 79.581 15.9042 79.2646 15.5928C78.9483 15.2814 78.7307 14.8837 78.6389 14.4494C78.5471 14.0151 78.5853 13.5634 78.7486 13.1507C78.912 12.7379 79.1932 12.3824 79.5573 12.1285C79.9211 11.8748 80.3516 11.7337 80.795 11.7229C81.0971 11.7183 81.3971 11.7737 81.6776 11.8861C81.9584 11.9985 82.214 12.1657 82.4295 12.3779C82.6451 12.5901 82.8163 12.843 82.9331 13.122C83.0498 13.4007 83.1099 13.6998 83.11 14.0019Z"
      stroke="#054742"
      stroke-width="0.5"
    />
    <path
      d="M84.5697 25.8631L84.5697 25.8625L84.8528 18.9208L92.253 16.2672L91.5206 26.4244L91.5199 26.4334V26.4424C91.5199 27.3595 91.0581 27.9468 90.3624 28.3123C89.6515 28.6858 88.7 28.8218 87.7778 28.7925L87.7778 28.7925C86.6921 28.7581 85.8731 28.5442 85.3387 28.099C84.818 27.6653 84.5219 26.9723 84.5697 25.8631Z"
      fill="white"
      stroke="black"
      stroke-width="0.5"
    />
    <path
      d="M80.25 9.67735L80.25 9.67735L80.25 9.67244C80.2383 7.96061 80.8902 6.3108 82.0688 5.06928C83.2469 3.82832 84.8597 3.09175 86.569 3.014C90.1609 2.91845 93.75 5.82792 93.8399 9.49408L93.7201 14.358L93.7201 14.358L93.72 14.3609C93.6947 16.3355 92.8958 18.2213 91.4949 19.6131C90.0954 21.0036 88.2068 21.7901 86.2342 21.8041C82.8319 21.6661 80.1515 18.76 80.17 15.9266C80.17 15.9263 80.17 15.9261 80.17 15.9258L80.25 9.67735Z"
      fill="white"
      stroke="#054742"
      stroke-width="0.5"
    />
    <path
      d="M83.3398 17.4648L86.6898 17.6548C86.6898 17.6548 86.5598 18.8448 84.9698 18.8448C84.7717 18.864 84.5717 18.8433 84.3817 18.7839C84.1916 18.7245 84.0155 18.6276 83.8635 18.4989C83.7116 18.3703 83.587 18.2125 83.497 18.0349C83.4071 17.8573 83.3536 17.6635 83.3398 17.4648Z"
      fill="#054742"
    />
    <path
      d="M92 14.4836C92 14.4836 90.57 14.2536 91.5 11.3836C92.43 8.51362 91.11 7.73362 89.96 8.07362C88.81 8.41362 82.39 10.6336 78.17 8.07362C73.03 4.93362 78.43 4.12362 79.17 4.13362C79.17 4.13362 76.26 2.87362 76.86 2.02362C77.46 1.17362 82.3 1.54362 82.3 1.54362C82.3 1.54362 81.43 0.393622 83.3 0.103622C85.17 -0.186378 92.45 -0.196371 95.56 4.67363C98.67 9.54363 94.29 15.9836 94.29 15.9836L92 14.4836Z"
      fill="#054742"
    />
    <path
      d="M61.7101 69.6133L53.3501 85.4533L64.2001 92.2133L61.7101 69.6133Z"
      fill="#B8D6C8"
    />
    <path
      d="M57.69 90.7618L51.18 86.7618C51.18 86.7618 50.18 88.1018 48.01 87.0518C45.84 86.0018 44.01 86.3918 42.96 87.7618L55.86 95.6718C56.6245 94.097 57.2372 92.4529 57.69 90.7618Z"
      fill="#054742"
    />
    <path
      d="M42.3649 88.6972L55.2612 96.6094L55.826 95.6888L42.9297 87.7767L42.3649 88.6972Z"
      fill="#070924"
    />
    <path
      d="M56.9001 93.2027C56.9001 93.2027 54.3101 91.9527 53.0701 93.9727"
      stroke="white"
      stroke-width="0.39"
      stroke-miterlimit="10"
    />
    <path
      d="M49.9099 87.543C49.9099 87.543 50.3199 87.783 50.7499 88.883"
      stroke="white"
      stroke-width="0.39"
      stroke-linecap="round"
      stroke-linejoin="round"
    />
    <path
      d="M48.8301 87.4023C49.0489 87.5624 49.2339 87.764 49.3746 87.9956C49.5153 88.2273 49.6089 88.4844 49.6501 88.7523"
      stroke="white"
      stroke-width="0.39"
      stroke-linecap="round"
      stroke-linejoin="round"
    />
    <path
      d="M74.08 64.1738C74.08 64.1738 67.91 63.9538 61.71 69.6138L65.1 113.764H96.5L98.76 77.5438V66.7638C96.01 65.4738 79.29 62.5938 79.29 62.5938L74.08 64.1738Z"
      fill="#B8D6C8"
    />
    <path
      d="M100.32 66.2148C102.693 68.1876 104.84 70.418 106.72 72.8648C108.74 75.4581 110.499 78.245 111.97 81.1848L97.97 89.2648L92 73.9348L100.32 66.2148Z"
      fill="#B8D6C8"
    />
    <path
      d="M76.6299 32.3829C76.6299 32.3829 85.2299 31.5629 85.9999 40.5329C86.7499 49.3429 76.4299 51.8429 76.4299 51.8429L76.6299 32.3829Z"
      fill="#054742"
    />
    <path
      d="M81.6093 51.6625L82.8609 63.8388C82.8609 63.8392 82.861 63.8396 82.861 63.8399C82.9661 64.9723 82.466 65.8222 81.6564 66.4194C80.8373 67.0238 79.7047 67.3634 78.5935 67.4362L78.5935 67.4362L78.5902 67.4364C77.3016 67.5378 76.2658 67.2486 75.5369 66.6278C74.8093 66.0081 74.3518 65.0274 74.2795 63.6723L74.2795 63.6719L73.8482 55.8307L81.6093 51.6625Z"
      fill="white"
      stroke="#054742"
      stroke-width="0.5"
    />
    <path
      d="M70.7519 48.4045L70.7519 48.4045L70.7522 48.4067C70.8604 49.2093 70.647 50.0222 70.1586 50.6682C69.6702 51.3143 68.9463 51.7411 68.1446 51.8558L68.1446 51.8558L68.1424 51.8561C67.5329 51.9489 66.9095 51.8577 66.3521 51.5944C65.7946 51.331 65.3283 50.9075 65.0128 50.3778C64.6973 49.8481 64.5469 49.2363 64.5809 48.6207C64.6148 48.0052 64.8315 47.4137 65.2033 46.9219C65.5752 46.4301 66.0852 46.0603 66.6682 45.8599C67.2512 45.6594 67.8808 45.6373 68.4765 45.7965C69.0721 45.9556 69.6067 46.2888 70.0121 46.7533C70.4174 47.2179 70.675 47.7928 70.7519 48.4045Z"
      fill="white"
      stroke="#054742"
      stroke-width="0.5"
    />
    <path
      d="M76.12 57.8822C71.55 58.1422 67.58 54.6422 67.23 50.7922L66.55 42.7922C66.3093 40.5128 66.9614 38.2288 68.3693 36.42C69.7772 34.6112 71.8312 33.4184 74.1 33.0922C78.86 32.4922 84.04 35.8822 84.64 40.7922L85.09 47.0622C85.3055 49.6802 84.4874 52.2786 82.8109 54.3009C81.1343 56.3233 78.7326 57.6088 76.12 57.8822Z"
      fill="white"
    />
    <path
      d="M88.9999 46.6647C89.117 47.5248 88.8895 48.3962 88.3669 49.0893C87.8443 49.7823 87.069 50.2407 86.2099 50.3647C85.7842 50.4119 85.3534 50.3744 84.9423 50.2545C84.5311 50.1346 84.1477 49.9347 83.8141 49.6661C83.4805 49.3975 83.2032 49.0657 82.9983 48.6896C82.7933 48.3135 82.6648 47.9006 82.6199 47.4747C82.5029 46.6147 82.7304 45.7432 83.253 45.0502C83.7756 44.3572 84.5508 43.8987 85.4099 43.7747C85.8358 43.7262 86.2671 43.7627 86.6788 43.882C87.0906 44.0014 87.4745 44.2013 87.8084 44.4701C88.1423 44.7389 88.4196 45.0713 88.6241 45.448C88.8286 45.8247 88.9564 46.2383 88.9999 46.6647Z"
      fill="white"
    />
    <path
      d="M67.0901 49.1362C67.0901 49.1362 67.4301 51.9962 69.0901 52.2862C70.7501 52.5762 71.2301 51.7562 73.3501 51.4062C75.7201 51.0162 76.8101 51.3262 79.5901 51.7862C83.4801 52.4262 83.6801 45.6962 84.3701 43.8762C84.5101 43.5162 84.9401 44.2962 84.9401 44.2962V49.9462C84.9401 49.9462 84.7401 58.0062 75.6701 58.6062C66.6001 59.2062 67.0901 49.1362 67.0901 49.1362Z"
      fill="#054742"
    />
    <path
      d="M65.8112 41.2606C65.8113 41.261 65.8113 41.2613 66.31 41.2249L65.8113 41.2613L65.8119 41.2701L65.8129 41.2789L66.2829 45.6089L67.2783 45.596L67.6357 41.2569C67.8998 40.0031 68.2524 39.4868 68.4662 39.2831C68.5193 39.2325 68.5646 39.2004 68.5996 39.1799C69.3432 39.621 70.2657 39.809 71.2171 39.86C72.2594 39.9159 73.3901 39.8097 74.4667 39.6454C75.5452 39.4808 76.5879 39.2547 77.4529 39.0643C77.4889 39.0564 77.5244 39.0486 77.5596 39.0408C78.3931 38.8572 79.0103 38.7213 79.3591 38.6934C80.5774 38.5995 81.3772 39.1679 81.8949 39.7879C82.1566 40.1012 82.3412 40.4236 82.4604 40.6689C82.5196 40.7909 82.5617 40.892 82.5885 40.9607C82.6018 40.995 82.6112 41.0211 82.617 41.0375L82.6229 41.0547L82.6233 41.0559L82.6235 41.0566L82.6236 41.0569L84.2121 46.2219L85.1867 46.1323L85.3867 44.4023L85.3909 44.3654L85.3897 44.3283L85.2305 39.5217C85.2746 38.7166 84.9736 36.5925 83.4746 34.7879C81.926 32.9237 79.1648 31.477 74.4316 32.0483C69.8844 32.5691 67.6927 34.8513 66.6692 37.0488C66.1644 38.1326 65.9506 39.1792 65.8623 39.9525C65.818 40.3401 65.8049 40.6617 65.803 40.8888C65.802 41.0024 65.8039 41.0926 65.8061 41.1558C65.8072 41.1874 65.8084 41.2123 65.8094 41.23L65.8106 41.2512L65.811 41.2576L65.8112 41.2598L65.8112 41.2606Z"
      fill="#054742"
      stroke="white"
    />
    <path
      d="M74.3398 65.2622L76.7398 73.9322L83.0099 64.9922L74.3398 65.2622Z"
      fill="#E0A396"
    />
    <path
      d="M73.4299 52.8953L77.3199 52.4453C77.4076 52.7111 77.4386 52.9923 77.4107 53.2708C77.3829 53.5493 77.2969 53.8189 77.1584 54.062C77.0198 54.3052 76.8318 54.5166 76.6064 54.6825C76.381 54.8485 76.1233 54.9653 75.8499 55.0253C73.7999 55.6253 73.4299 52.8953 73.4299 52.8953Z"
      fill="white"
    />
    <path
      d="M61.7017 93.4962L66.5011 76.1515L66.5012 76.1511C67.2573 73.4006 68.8298 70.9441 71.0112 69.106L71.0113 69.1059L74.0212 66.5663L80.2807 73.9103L74.9544 78.6277L74.9124 78.6648L74.8904 78.7163L67.9715 94.8471L61.7017 93.4962Z"
      fill="white"
      stroke="#054742"
      stroke-width="0.5"
    />
    <path
      d="M82.1174 75.023C82.1069 75.0245 82.0968 75.026 82.0874 75.0274L72.5755 65.6414L84.9732 57.4869L102.696 56.1682C102.701 56.1995 102.707 56.234 102.713 56.2717C102.748 56.4801 102.792 56.7847 102.832 57.1666C102.911 57.9308 102.971 59.0022 102.894 60.2292C102.74 62.6868 102.037 65.7446 99.8622 68.2173C98.7828 69.4446 97.1342 70.4913 95.2467 71.3701C93.3628 72.2472 91.2599 72.9486 89.2895 73.4939C87.3199 74.039 85.4881 74.4269 84.1483 74.6785C83.4786 74.8043 82.9323 74.8959 82.5538 74.9561C82.3645 74.9862 82.2172 75.0083 82.1174 75.023Z"
      fill="white"
      stroke="#054742"
      stroke-width="0.5"
    />
    <path
      d="M69.1501 93.1614L62.1501 88.8814C62.1501 88.8814 61.1501 90.3214 58.7601 89.1914C56.3701 88.0614 54.4701 88.4814 53.3301 89.9514L67.1701 98.4414C67.9983 96.7491 68.6613 94.9809 69.1501 93.1614Z"
      fill="#054742"
    />
    <path
      d="M52.7179 90.9423L66.5518 99.4297L67.1584 98.4409L53.3245 89.9536L52.7179 90.9423Z"
      fill="#070924"
    />
    <path
      d="M68.3099 95.7858C68.3099 95.7858 65.53 94.4459 64.2 96.6059"
      stroke="white"
      stroke-width="0.39"
      stroke-miterlimit="10"
    />
    <path
      d="M60.8101 89.6641C61.2456 90.0447 61.5588 90.5457 61.7101 91.1041"
      stroke="white"
      stroke-width="0.39"
      stroke-linecap="round"
      stroke-linejoin="round"
    />
    <path
      d="M59.6499 89.543C59.8841 89.7133 60.0825 89.9281 60.2335 90.1752C60.3845 90.4223 60.4852 90.6968 60.5299 90.983"
      stroke="white"
      stroke-width="0.39"
      stroke-linecap="round"
      stroke-linejoin="round"
    />
    <mask id="path-89-inside-5_9545_77414" fill="white">
      <path
        fill-rule="evenodd"
        clip-rule="evenodd"
        d="M91.3499 63.6525L85.4499 61.3325C85.2091 61.214 84.9324 61.1904 84.6749 61.2664C84.4175 61.3423 84.1979 61.5123 84.0599 61.7425C83.9827 61.8599 83.931 61.9923 83.9084 62.1309C83.8857 62.2696 83.8925 62.4115 83.9284 62.5474C83.9642 62.6832 84.0283 62.81 84.1165 62.9195C84.2046 63.0289 84.3148 63.1185 84.4399 63.1825L85.4399 63.8825L84.4399 63.4725C84.2207 63.3827 83.9768 63.3736 83.7515 63.4469C83.5263 63.5201 83.3344 63.671 83.2099 63.8725C83.0937 64.1064 83.0736 64.3766 83.154 64.6251C83.2343 64.8737 83.4088 65.0809 83.6399 65.2025L84.2999 65.5325C83.6899 65.3725 83.1299 65.5325 82.9699 65.9525C82.8721 66.1727 82.8657 66.4226 82.9519 66.6476C83.0381 66.8725 83.21 67.0541 83.4299 67.1525L84.3699 67.5325C83.4299 67.1525 83.0999 67.5225 82.9699 67.8425C82.8871 68.0542 82.8874 68.2895 82.9709 68.501C83.0544 68.7124 83.2148 68.8845 83.4199 68.9825L87.5499 71.6025L87.9099 71.8125C88.2875 72.9742 89.4991 74.4265 93.2053 75.017C94.6137 77.7612 102.959 93.5426 108.62 93.5426C114.82 93.5426 114.87 87.1926 113.46 83.3326C112.05 79.4726 95.93 68.8926 95.93 68.8926L95.914 68.9237L94.0099 62.7925C93.9937 62.5478 93.8961 62.3156 93.7327 62.1327C93.5693 61.9498 93.3495 61.8267 93.1082 61.783C92.8669 61.7394 92.6179 61.7776 92.4008 61.8916C92.1837 62.0057 92.0109 62.189 91.9099 62.4125L91.3499 63.6525Z"
      />
    </mask>
    <path
      fill-rule="evenodd"
      clip-rule="evenodd"
      d="M91.3499 63.6525L85.4499 61.3325C85.2091 61.214 84.9324 61.1904 84.6749 61.2664C84.4175 61.3423 84.1979 61.5123 84.0599 61.7425C83.9827 61.8599 83.931 61.9923 83.9084 62.1309C83.8857 62.2696 83.8925 62.4115 83.9284 62.5474C83.9642 62.6832 84.0283 62.81 84.1165 62.9195C84.2046 63.0289 84.3148 63.1185 84.4399 63.1825L85.4399 63.8825L84.4399 63.4725C84.2207 63.3827 83.9768 63.3736 83.7515 63.4469C83.5263 63.5201 83.3344 63.671 83.2099 63.8725C83.0937 64.1064 83.0736 64.3766 83.154 64.6251C83.2343 64.8737 83.4088 65.0809 83.6399 65.2025L84.2999 65.5325C83.6899 65.3725 83.1299 65.5325 82.9699 65.9525C82.8721 66.1727 82.8657 66.4226 82.9519 66.6476C83.0381 66.8725 83.21 67.0541 83.4299 67.1525L84.3699 67.5325C83.4299 67.1525 83.0999 67.5225 82.9699 67.8425C82.8871 68.0542 82.8874 68.2895 82.9709 68.501C83.0544 68.7124 83.2148 68.8845 83.4199 68.9825L87.5499 71.6025L87.9099 71.8125C88.2875 72.9742 89.4991 74.4265 93.2053 75.017C94.6137 77.7612 102.959 93.5426 108.62 93.5426C114.82 93.5426 114.87 87.1926 113.46 83.3326C112.05 79.4726 95.93 68.8926 95.93 68.8926L95.914 68.9237L94.0099 62.7925C93.9937 62.5478 93.8961 62.3156 93.7327 62.1327C93.5693 61.9498 93.3495 61.8267 93.1082 61.783C92.8669 61.7394 92.6179 61.7776 92.4008 61.8916C92.1837 62.0057 92.0109 62.189 91.9099 62.4125L91.3499 63.6525Z"
      fill="white"
    />
    <path
      d="M85.4499 61.3325L85.2293 61.7812L85.2478 61.7903L85.267 61.7978L85.4499 61.3325ZM91.3499 63.6525L91.167 64.1178L91.6098 64.2919L91.8056 63.8583L91.3499 63.6525ZM84.6749 61.2664L84.8164 61.7459L84.6749 61.2664ZM84.0599 61.7425L84.4776 62.0174L84.4834 62.0086L84.4888 61.9996L84.0599 61.7425ZM83.9084 62.1309L83.4149 62.0503V62.0503L83.9084 62.1309ZM83.9284 62.5474L84.4118 62.4198V62.4198L83.9284 62.5474ZM84.1165 62.9195L83.7271 63.2331L83.7271 63.2331L84.1165 62.9195ZM84.4399 63.1825L84.7267 62.7729L84.6984 62.7531L84.6676 62.7374L84.4399 63.1825ZM85.4399 63.8825L85.2503 64.3451L85.7267 63.4729L85.4399 63.8825ZM84.4399 63.4725L84.6296 63.0099L84.6295 63.0098L84.4399 63.4725ZM83.7515 63.4469L83.5969 62.9714H83.5969L83.7515 63.4469ZM83.2099 63.8725L82.7845 63.6098L82.7724 63.6294L82.7621 63.65L83.2099 63.8725ZM83.154 64.6251L83.6297 64.4713V64.4713L83.154 64.6251ZM83.6399 65.2025L83.4071 65.6451L83.4163 65.6497L83.6399 65.2025ZM84.2999 65.5325L84.1731 66.0161L84.5235 65.0853L84.2999 65.5325ZM82.9699 65.9525L83.4269 66.1555L83.4324 66.1431L83.4372 66.1305L82.9699 65.9525ZM82.9519 66.6476L82.485 66.8266L82.485 66.8266L82.9519 66.6476ZM83.4299 67.1525L83.2257 67.6089L83.2341 67.6126L83.2425 67.6161L83.4299 67.1525ZM82.9699 67.8425L82.5067 67.6543L82.5043 67.6603L82.9699 67.8425ZM82.9709 68.501L82.5058 68.6845L82.5058 68.6845L82.9709 68.501ZM83.4199 68.9825L83.6878 68.5603L83.6625 68.5443L83.6356 68.5314L83.4199 68.9825ZM87.5499 71.6025L87.2821 72.0247L87.2899 72.0297L87.298 72.0344L87.5499 71.6025ZM87.9099 71.8125L88.3854 71.658L88.3265 71.4767L88.1619 71.3806L87.9099 71.8125ZM93.2053 75.017L93.6502 74.7887L93.5344 74.5631L93.284 74.5232L93.2053 75.017ZM113.46 83.3326L112.99 83.5041L113.46 83.3326ZM95.93 68.8926L96.2043 68.4746L95.7388 68.169L95.485 68.6646L95.93 68.8926ZM95.914 68.9237L95.4365 69.072L95.8001 70.2428L96.3591 69.1517L95.914 68.9237ZM94.0099 62.7925L93.511 62.8257L93.5149 62.8845L93.5324 62.9408L94.0099 62.7925ZM93.1082 61.783L93.1972 61.291V61.291L93.1082 61.783ZM92.4008 61.8916L92.1683 61.449V61.449L92.4008 61.8916ZM91.9099 62.4125L91.4543 62.2066L91.4542 62.2067L91.9099 62.4125ZM85.267 61.7978L91.167 64.1178L91.5329 63.1872L85.6329 60.8672L85.267 61.7978ZM84.8164 61.7459C84.9535 61.7055 85.1009 61.7181 85.2293 61.7812L85.6706 60.8839C85.3172 60.71 84.9113 60.6754 84.5335 60.7868L84.8164 61.7459ZM84.4888 61.9996C84.5623 61.8769 84.6793 61.7864 84.8164 61.7459L84.5335 60.7868C84.1557 60.8982 83.8336 61.1476 83.6311 61.4855L84.4888 61.9996ZM84.4018 62.2116C84.4132 62.1423 84.439 62.0761 84.4776 62.0174L83.6422 61.4677C83.5264 61.6437 83.4489 61.8422 83.4149 62.0503L84.4018 62.2116ZM84.4118 62.4198C84.3939 62.3518 84.3905 62.2809 84.4018 62.2116L83.4149 62.0503C83.3809 62.2583 83.3912 62.4712 83.4449 62.6749L84.4118 62.4198ZM84.5059 62.6059C84.4618 62.5511 84.4298 62.4877 84.4118 62.4198L83.4449 62.6749C83.4987 62.8787 83.5949 63.0689 83.7271 63.2331L84.5059 62.6059ZM84.6676 62.7374C84.6051 62.7054 84.55 62.6606 84.5059 62.6059L83.7271 63.2331C83.8593 63.3972 84.0246 63.5317 84.2122 63.6277L84.6676 62.7374ZM85.7267 63.4729L84.7267 62.7729L84.1532 63.5922L85.1532 64.2921L85.7267 63.4729ZM84.2503 63.9351L85.2503 64.3451L85.6296 63.4199L84.6296 63.0099L84.2503 63.9351ZM83.9062 63.9224C84.0188 63.8857 84.1408 63.8903 84.2504 63.9352L84.6295 63.0098C84.3007 62.8751 83.9348 62.8615 83.5969 62.9714L83.9062 63.9224ZM83.6354 64.1352C83.6976 64.0344 83.7936 63.959 83.9062 63.9224L83.5969 62.9714C83.259 63.0813 82.9711 63.3075 82.7845 63.6098L83.6354 64.1352ZM83.6297 64.4713C83.5895 64.347 83.5996 64.212 83.6577 64.095L82.7621 63.65C82.5878 64.0009 82.5577 64.4061 82.6782 64.7789L83.6297 64.4713ZM83.8727 64.76C83.7571 64.6992 83.6699 64.5956 83.6297 64.4713L82.6782 64.7789C82.7987 65.1518 83.0604 65.4626 83.4072 65.645L83.8727 64.76ZM84.5235 65.0853L83.8636 64.7553L83.4163 65.6497L84.0763 65.9797L84.5235 65.0853ZM83.4372 66.1305C83.4498 66.0973 83.4869 66.0417 83.6129 66.003C83.743 65.9631 83.9388 65.9547 84.1731 66.0161L84.4268 65.0489C84.051 64.9503 83.6618 64.942 83.3195 65.047C82.9729 65.1534 82.65 65.3877 82.5027 65.7745L83.4372 66.1305ZM83.4188 66.4686C83.3799 66.3673 83.3828 66.2547 83.4269 66.1555L82.513 65.7496C82.3615 66.0907 82.3514 66.478 82.485 66.8266L83.4188 66.4686ZM83.6341 66.6961C83.5351 66.6518 83.4576 66.57 83.4188 66.4686L82.485 66.8266C82.6186 67.1751 82.885 67.4564 83.2257 67.6089L83.6341 66.6961ZM84.5573 67.069L83.6173 66.689L83.2425 67.6161L84.1825 67.9961L84.5573 67.069ZM83.4332 68.0307C83.4695 67.9412 83.5076 67.9067 83.5491 67.8904C83.5991 67.8707 83.7741 67.8309 84.1825 67.9961L84.5573 67.069C84.0258 66.8541 83.5657 66.8093 83.1833 66.9597C82.7923 67.1134 82.6003 67.4238 82.5067 67.6543L83.4332 68.0307ZM83.436 68.3174C83.3989 68.2234 83.3987 68.1188 83.4355 68.0247L82.5043 67.6603C82.3754 67.9896 82.376 68.3556 82.5058 68.6845L83.436 68.3174ZM83.6356 68.5314C83.5444 68.4878 83.4731 68.4114 83.436 68.3174L82.5058 68.6845C82.6357 69.0135 82.8852 69.2811 83.2043 69.4336L83.6356 68.5314ZM87.8178 71.1803L83.6878 68.5603L83.1521 69.4047L87.2821 72.0247L87.8178 71.1803ZM88.1619 71.3806L87.8018 71.1706L87.298 72.0344L87.658 72.2444L88.1619 71.3806ZM93.284 74.5232C89.6922 73.9509 88.6856 72.5816 88.3854 71.658L87.4344 71.9671C87.8894 73.3669 89.3061 74.902 93.1266 75.5108L93.284 74.5232ZM92.7605 75.2453C93.4678 76.6235 95.918 81.278 98.9069 85.5935C100.4 87.7497 102.04 89.8397 103.677 91.3961C105.289 92.9295 106.996 94.0426 108.62 94.0426V93.0426C107.413 93.0426 105.955 92.183 104.366 90.6716C102.801 89.1832 101.206 87.1564 99.729 85.0242C96.7778 80.763 94.3512 76.1547 93.6502 74.7887L92.7605 75.2453ZM108.62 94.0426C110.258 94.0426 111.537 93.6218 112.495 92.8868C113.451 92.1532 114.045 91.1394 114.373 90.0267C115.025 87.821 114.658 85.1537 113.93 83.161L112.99 83.5041C113.672 85.3714 113.985 87.8092 113.414 89.7435C113.132 90.7007 112.639 91.5157 111.886 92.0934C111.135 92.6696 110.082 93.0426 108.62 93.0426V94.0426ZM113.93 83.161C113.721 82.5888 113.264 81.9445 112.678 81.2748C112.084 80.5952 111.323 79.8504 110.46 79.0758C108.734 77.5262 106.573 75.8313 104.465 74.2638C102.355 72.6951 100.29 71.2482 98.7537 70.1938C97.9852 69.6664 97.3484 69.237 96.9035 68.9392C96.681 68.7903 96.5065 68.6743 96.3875 68.5955C96.328 68.5561 96.2823 68.5259 96.2515 68.5056C96.2361 68.4954 96.2243 68.4877 96.2165 68.4825C96.2125 68.4799 96.2095 68.478 96.2075 68.4766C96.2065 68.476 96.2057 68.4755 96.2052 68.4751C96.2049 68.4749 96.2047 68.4748 96.2046 68.4747C96.2044 68.4746 96.2043 68.4746 95.93 68.8926C95.6556 69.3106 95.6557 69.3106 95.6558 69.3107C95.6559 69.3107 95.656 69.3109 95.6563 69.311C95.6567 69.3113 95.6574 69.3118 95.6584 69.3124C95.6603 69.3136 95.6631 69.3155 95.6669 69.318C95.6745 69.323 95.6859 69.3305 95.7011 69.3405C95.7313 69.3604 95.7764 69.3902 95.8353 69.4292C95.9531 69.5072 96.1262 69.6223 96.3473 69.7703C96.7895 70.0662 97.423 70.4934 98.1879 71.0183C99.7179 72.0682 101.771 73.5075 103.868 75.0663C105.966 76.6264 108.099 78.3002 109.792 79.82C110.639 80.5801 111.368 81.2951 111.925 81.9329C112.492 82.5807 112.847 83.1113 112.99 83.5041L113.93 83.161ZM95.485 68.6646L95.469 68.6958L96.3591 69.1517L96.375 69.1205L95.485 68.6646ZM93.5324 62.9408L95.4365 69.072L96.3915 68.7754L94.4874 62.6442L93.5324 62.9408ZM93.3598 62.4658C93.449 62.5655 93.5022 62.6922 93.511 62.8257L94.5088 62.7594C94.4852 62.4034 94.3432 62.0656 94.1056 61.7996L93.3598 62.4658ZM93.0192 62.275C93.1508 62.2989 93.2707 62.366 93.3598 62.4658L94.1056 61.7996C93.868 61.5336 93.5483 61.3545 93.1972 61.291L93.0192 62.275ZM92.6333 62.3343C92.7517 62.2721 92.8875 62.2512 93.0192 62.275L93.1972 61.291C92.8462 61.2275 92.484 61.2831 92.1683 61.449L92.6333 62.3343ZM92.3656 62.6184C92.4207 62.4965 92.5149 62.3965 92.6333 62.3343L92.1683 61.449C91.8524 61.6149 91.6012 61.8816 91.4543 62.2066L92.3656 62.6184ZM91.8056 63.8583L92.3656 62.6183L91.4542 62.2067L90.8942 63.4467L91.8056 63.8583Z"
      fill="#054742"
      mask="url(#path-89-inside-5_9545_77414)"
    />
    <path
      d="M62.4028 76.2309L62.4027 76.2308L56.0927 76.8108L55.8575 76.8324L55.8226 76.5988L55.6226 75.2588L55.6225 75.2579C55.5955 75.0731 55.5091 74.902 55.3763 74.7706C55.2438 74.6395 55.0723 74.555 54.8876 74.5298C54.6991 74.5065 54.5082 74.5478 54.3461 74.647C54.1837 74.7464 54.0598 74.8981 53.9949 75.0771L53.9843 75.1062L53.967 75.1319L53.7177 75.5009C53.7176 75.501 53.7175 75.5012 53.7173 75.5014C51.5167 78.7925 50.5348 82.7467 50.9375 86.6812C54.7419 87.1912 56.2363 86.1278 56.8525 85.2123L56.9047 85.1347L56.9951 85.1104L57.4024 85.0011L62.0898 83.6319L62.1074 83.6267L62.1256 83.6242C62.2081 83.6128 62.2874 83.5852 62.359 83.543C62.4307 83.5008 62.4933 83.4447 62.5433 83.3782C62.5932 83.3116 62.6294 83.2358 62.6499 83.1552C62.6704 83.0745 62.6747 82.9906 62.6625 82.9083L62.6599 82.8902V82.8719C62.6599 82.7569 62.6208 82.6416 62.508 82.5564C62.3882 82.466 62.1452 82.3788 61.6727 82.4208L62.4028 76.2309ZM62.4028 76.2309L62.4079 76.2303M62.4028 76.2309L62.4079 76.2303M62.4079 76.2303C62.5967 76.209 62.787 76.2539 62.9463 76.3573C63.1055 76.4606 63.2238 76.6159 63.2813 76.7967C63.3126 76.8976 63.3223 77.004 63.3097 77.1088C63.297 77.2139 63.2623 77.315 63.2077 77.4057C63.1532 77.4964 63.0801 77.5745 62.9932 77.6349C62.9063 77.6953 62.8077 77.7366 62.7037 77.7562L62.6866 77.7594L62.6702 77.7649L61.5102 78.1549L61.6143 78.6407L62.7343 78.5307L62.7343 78.5307L62.7362 78.5305C62.9132 78.5117 63.0911 78.5564 63.2381 78.6567C63.3822 78.755 63.4874 78.9004 63.5358 79.0677C63.5679 79.257 63.5261 79.4517 63.4187 79.6113C63.3097 79.7734 63.1418 79.8866 62.9507 79.9267L62.2228 80.0663L62.2659 80.5618C62.5445 80.5663 62.7869 80.6374 62.9515 80.7425C63.115 80.847 63.1799 80.9673 63.1799 81.0819V81.0929L63.1808 81.1038C63.1959 81.2753 63.1455 81.446 63.0396 81.5817C62.9354 81.7153 62.7851 81.8051 62.6183 81.8337M62.4079 76.2303L62.6183 81.8337M62.6183 81.8337L61.6277 81.9229L61.6274 81.9229L61.672 82.4209C61.6721 82.4209 61.6722 82.4209 61.6723 82.4209L62.6183 81.8337Z"
      fill="white"
      stroke="#054742"
      stroke-width="0.5"
    />
    <path
      d="M33.1978 107.543H1.77668C0.795439 107.543 0 108.338 0 109.32V130.349C0 131.331 0.795439 132.126 1.77668 132.126H33.1978C34.179 132.126 34.9744 131.331 34.9744 130.349V109.32C34.9744 108.338 34.179 107.543 33.1978 107.543Z"
      fill="#054742"
    />
    <path
      d="M25.3441 121.596L17.2962 128.005L9.43734 121.403C3.58767 115.339 11.5338 107.531 17.4924 113.49C23.5783 107.596 31.4154 115.63 25.3441 121.596Z"
      fill="white"
    />
    <path
      d="M14.3536 125.63L12.3843 119.166H6.31299V118.614H12.7949L14.2882 123.522L16.5081 114.305L17.9142 118.614H27.3718V119.166H17.5109L16.5881 116.336L14.3536 125.63Z"
      fill="#054742"
    />
    <path
      d="M48.1978 35.543H16.7767C15.7955 35.543 15 36.3384 15 37.3197V58.3494C15 59.3307 15.7955 60.1261 16.7767 60.1261H48.1978C49.179 60.1261 49.9745 59.3307 49.9745 58.3494V37.3197C49.9745 36.3384 49.179 35.543 48.1978 35.543Z"
      fill="#054742"
    />
    <path
      d="M37.2296 40.8359H35.2422V43.4774H37.2296V40.8359Z"
      fill="#DBECE4"
    />
    <path d="M37.7601 39.293H34.7153V40.1177H37.7601V39.293Z" fill="#DBECE4" />
    <path
      d="M37.5094 40.1406H34.9624V40.9182H37.5094V40.1406Z"
      fill="#DBECE4"
    />
    <path
      d="M23.343 45.8919V44.0352L31.6961 40.3438L39.9909 44.0352V45.8919H23.343Z"
      fill="#DBECE4"
    />
    <path
      d="M31.696 41.8906L24.6582 44.9317V55.0651H38.7664V44.9172L31.696 41.8906ZM28.6149 50.8722H25.7591V47.0863H28.6149V50.8722ZM37.6655 50.8722H34.8134V47.0863H37.6655V50.8722Z"
      fill="white"
    />
    <path
      d="M33.8178 47.5156H29.6104V55.0584H33.8178V47.5156Z"
      fill="#054742"
    />
    <path d="M30.8277 51.4023H30.0283V51.7039H30.8277V51.4023Z" fill="white" />
    <path
      d="M201.198 39H169.777C168.795 39 168 39.7955 168 40.7767V61.8064C168 62.7877 168.795 63.5831 169.777 63.5831H201.198C202.179 63.5831 202.974 62.7877 202.974 61.8064V40.7767C202.974 39.7955 202.179 39 201.198 39Z"
      fill="#054742"
    />
    <path
      d="M172.77 56.79V53.6254L172.124 52.4772C172.087 52.4082 172.069 52.3306 172.071 52.2523C172.073 52.174 172.096 52.0978 172.138 52.0312C172.179 51.9646 172.237 51.91 172.306 51.8728C172.375 51.8357 172.452 51.8173 172.531 51.8196L175.597 51.7978L178.464 49.0474C178.777 48.7504 179.192 48.5851 179.623 48.5859H185.178C185.524 48.5861 185.862 48.6927 186.145 48.8911L186.712 49.2872L191.264 52.4918L194.672 53.0695C195.007 53.1182 195.321 53.2607 195.579 53.4806C195.836 53.7005 196.025 53.9888 196.126 54.3121L196.594 56.79H172.77Z"
      fill="white"
    />
    <path
      d="M190.5 52.4884H178.379C178.299 52.4522 178.228 52.3998 178.169 52.3346C178.11 52.2694 178.066 52.1928 178.038 52.1095C178.01 52.0262 178 51.9382 178.008 51.8508C178.016 51.7634 178.042 51.6787 178.085 51.6019L179.175 49.629C179.233 49.5201 179.319 49.429 179.425 49.365C179.53 49.3011 179.651 49.2668 179.774 49.2656H185.951L190.5 52.4884Z"
      fill="#054742"
    />
    <path d="M184.263 49.2852H183.536V52.4898H184.263V49.2852Z" fill="white" />
    <path
      d="M184.263 53.6641H183.536V57.1303H184.263V53.6641Z"
      fill="#054742"
    />
    <path
      d="M196.743 57.8049H172.484L172.236 56.9511C172.217 56.8809 172.214 56.8072 172.227 56.7357C172.241 56.6641 172.271 56.5967 172.315 56.5387C172.359 56.4806 172.416 56.4335 172.481 56.4011C172.546 56.3686 172.618 56.3517 172.691 56.3516H196.583C196.659 56.3516 196.733 56.3695 196.799 56.4039C196.866 56.4382 196.924 56.488 196.967 56.5491C197.011 56.6103 197.04 56.6809 197.051 56.7552C197.062 56.8295 197.055 56.9054 197.03 56.9765L196.743 57.8049Z"
      fill="white"
    />
    <path
      d="M177.298 60.0565C178.698 60.0565 179.834 58.9211 179.834 57.5204C179.834 56.1198 178.698 54.9844 177.298 54.9844C175.897 54.9844 174.762 56.1198 174.762 57.5204C174.762 58.9211 175.897 60.0565 177.298 60.0565Z"
      fill="white"
    />
    <path
      d="M178.878 57.518C178.879 57.8316 178.787 58.1384 178.613 58.3995C178.439 58.6605 178.192 58.8641 177.902 58.9845C177.612 59.1048 177.294 59.1365 176.986 59.0755C176.678 59.0145 176.396 58.8635 176.174 58.6418C175.952 58.42 175.801 58.1374 175.74 57.8298C175.679 57.5222 175.711 57.2033 175.831 56.9137C175.952 56.6241 176.155 56.3768 176.416 56.203C176.677 56.0292 176.984 55.9368 177.298 55.9375C177.717 55.9385 178.118 56.1053 178.414 56.4015C178.71 56.6977 178.877 57.0991 178.878 57.518Z"
      fill="#054742"
    />
    <path
      d="M191.962 60.0096C193.362 60.0096 194.498 58.8742 194.498 57.4736C194.498 56.0729 193.362 54.9375 191.962 54.9375C190.561 54.9375 189.426 56.0729 189.426 57.4736C189.426 58.8742 190.561 60.0096 191.962 60.0096Z"
      fill="white"
    />
    <path
      d="M191.962 59.0555C192.835 59.0555 193.542 58.3479 193.542 57.475C193.542 56.6021 192.835 55.8945 191.962 55.8945C191.089 55.8945 190.381 56.6021 190.381 57.475C190.381 58.3479 191.089 59.0555 191.962 59.0555Z"
      fill="#054742"
    />
    <mask id="path-113-inside-6_9545_77414" fill="white">
      <path
        fill-rule="evenodd"
        clip-rule="evenodd"
        d="M138.672 74.0752L138.25 67.8144L144.86 64.2344L146.049 73.3862L149.38 73.9448C149.38 73.9448 147.75 77.3348 141.65 77.7048C135.55 78.0748 136.13 74.7648 136.13 74.7648L138.672 74.0752Z"
      />
    </mask>
    <path
      fill-rule="evenodd"
      clip-rule="evenodd"
      d="M138.672 74.0752L138.25 67.8144L144.86 64.2344L146.049 73.3862L149.38 73.9448C149.38 73.9448 147.75 77.3348 141.65 77.7048C135.55 78.0748 136.13 74.7648 136.13 74.7648L138.672 74.0752Z"
      fill="white"
    />
    <path
      d="M138.25 67.8144L138.012 67.3747L137.73 67.5276L137.751 67.848L138.25 67.8144ZM138.672 74.0752L138.803 74.5578L139.198 74.4505L139.171 74.0416L138.672 74.0752ZM144.86 64.2344L145.356 64.1699L145.262 63.448L144.622 63.7947L144.86 64.2344ZM146.049 73.3862L145.554 73.4506L145.601 73.818L145.967 73.8793L146.049 73.3862ZM149.38 73.9448L149.831 74.1614L150.119 73.5617L149.463 73.4517L149.38 73.9448ZM141.65 77.7048L141.62 77.2057L141.65 77.7048ZM136.13 74.7648L135.999 74.2822L135.692 74.3654L135.638 74.6785L136.13 74.7648ZM137.751 67.848L138.173 74.1088L139.171 74.0416L138.749 67.7807L137.751 67.848ZM144.622 63.7947L138.012 67.3747L138.488 68.254L145.098 64.674L144.622 63.7947ZM146.545 73.3217L145.356 64.1699L144.364 64.2988L145.554 73.4506L146.545 73.3217ZM149.463 73.4517L146.132 72.893L145.967 73.8793L149.297 74.4379L149.463 73.4517ZM141.68 78.2039C144.826 78.0131 146.854 77.0398 148.106 76.0834C148.73 75.607 149.155 75.1394 149.427 74.7845C149.563 74.6071 149.661 74.4579 149.726 74.3499C149.759 74.2958 149.783 74.252 149.8 74.2201C149.809 74.2041 149.816 74.1911 149.821 74.1813C149.823 74.1764 149.825 74.1722 149.827 74.1689C149.828 74.1673 149.829 74.1658 149.829 74.1646C149.829 74.1639 149.83 74.1634 149.83 74.1628C149.83 74.1626 149.83 74.1622 149.83 74.1621C149.831 74.1618 149.831 74.1614 149.38 73.9448C148.929 73.7281 148.93 73.7278 148.93 73.7275C148.93 73.7274 148.93 73.7272 148.93 73.727C148.93 73.7267 148.93 73.7264 148.93 73.7262C148.931 73.7258 148.931 73.7256 148.931 73.7255C148.931 73.7255 148.93 73.7262 148.93 73.7277C148.928 73.7307 148.925 73.7368 148.92 73.7457C148.91 73.7637 148.894 73.7931 148.87 73.8324C148.823 73.9112 148.745 74.0298 148.633 74.176C148.409 74.4683 148.045 74.8713 147.499 75.2887C146.411 76.1198 144.575 77.0265 141.62 77.2057L141.68 78.2039ZM136.13 74.7648C135.638 74.6785 135.637 74.6789 135.637 74.6794C135.637 74.6795 135.637 74.68 135.637 74.6803C135.637 74.681 135.637 74.6817 135.637 74.6825C135.637 74.6841 135.636 74.6858 135.636 74.6878C135.635 74.6918 135.635 74.6965 135.634 74.7021C135.632 74.7133 135.63 74.7277 135.628 74.7451C135.624 74.7799 135.62 74.8269 135.618 74.8843C135.612 74.9988 135.614 75.1567 135.639 75.3428C135.689 75.7155 135.834 76.2078 136.21 76.6836C136.975 77.6509 138.558 78.3933 141.68 78.2039L141.62 77.2057C138.642 77.3863 137.465 76.6586 136.995 76.0635C136.753 75.758 136.662 75.4459 136.63 75.2096C136.614 75.0911 136.614 74.9933 136.617 74.9282C136.618 74.8959 136.62 74.8721 136.622 74.8586C136.623 74.8519 136.623 74.8477 136.623 74.8464C136.623 74.8457 136.623 74.8458 136.623 74.8465C136.623 74.8469 136.623 74.8475 136.623 74.8482C136.623 74.8486 136.623 74.849 136.623 74.8495C136.623 74.8497 136.623 74.8501 136.623 74.8503C136.623 74.8507 136.623 74.8511 136.13 74.7648ZM138.541 73.5926L135.999 74.2822L136.261 75.2473L138.803 74.5578L138.541 73.5926Z"
      fill="#054742"
      mask="url(#path-113-inside-6_9545_77414)"
    />
    <path
      d="M139 46.8245C139 46.8245 147.75 44.6645 151.5 51.2945C154.21 56.1145 152.21 64.3545 146 66.8145C140.1 69.1545 141.77 49.9045 141.77 49.9045L139 46.8245Z"
      fill="#054742"
    />
    <path
      d="M133.1 55.792L133.1 55.792L133.1 55.7888C132.998 54.0261 133.592 52.2939 134.753 50.9636C135.913 49.6333 137.549 48.8108 139.31 48.6724L139.31 48.6723C141.186 48.5177 143.126 49.1224 144.634 50.2391C146.139 51.3541 147.195 52.9657 147.34 54.817L147.53 60.561C147.593 62.5924 146.856 64.5675 145.477 66.0606C144.099 67.5528 142.19 68.4443 140.162 68.5433C136.573 68.6091 133.602 65.8197 133.42 62.9397L133.1 55.792Z"
      fill="white"
      stroke="#054742"
      stroke-width="0.5"
    />
    <path
      d="M144.71 55.2539L145.88 60.5039L150.92 54.0039L144.71 55.2539Z"
      fill="#054742"
    />
    <path
      d="M151.27 59.6852C151.317 60.2544 151.195 60.8247 150.918 61.3244C150.642 61.824 150.223 62.2305 149.716 62.4924C149.208 62.7544 148.634 62.8601 148.067 62.7962C147.499 62.7323 146.963 62.5017 146.527 62.1335C146.09 61.7652 145.772 61.2759 145.614 60.7273C145.455 60.1786 145.463 59.5953 145.635 59.0509C145.808 58.5064 146.138 58.0254 146.584 57.6684C147.03 57.3114 147.571 57.0946 148.14 57.0452C148.905 56.9814 149.664 57.2235 150.251 57.7184C150.837 58.2133 151.204 58.9205 151.27 59.6852Z"
      fill="white"
    />
    <path
      d="M147.45 60.8645C147.45 60.8645 147.28 58.7745 149.3 58.9345"
      stroke="#054742"
      stroke-width="0.48"
      stroke-linecap="round"
      stroke-linejoin="round"
    />
    <path
      d="M137.25 63.8745L140.68 63.1445C140.68 63.1445 140.95 64.6745 138.98 64.8545C137.46 64.9945 137.25 63.8745 137.25 63.8745Z"
      fill="#054742"
    />
    <path
      d="M145.73 57.4535C144.396 56.4066 143.4 54.9899 142.867 53.3804C142.333 51.7709 142.286 50.0399 142.73 48.4035C142.73 48.4035 146.88 46.8235 148.81 52.1335C150.74 57.4435 145.73 57.4535 145.73 57.4535Z"
      fill="#054742"
    />
    <path
      d="M143.06 52.3634C143.06 52.3634 132.47 51.5434 133 58.1834C132.066 57.504 131.39 56.5276 131.083 55.414C130.776 54.3004 130.856 53.1155 131.31 52.0534C132.54 48.7534 137.19 46.7734 140.71 46.6134C141.952 46.4749 143.209 46.6717 144.35 47.1834C145.83 47.8634 143.06 52.3634 143.06 52.3634Z"
      fill="#054742"
    />
    <path
      d="M147.79 42.5447C145.4 45.2547 145.44 49.1947 147.88 51.3547C150.32 53.5147 154.24 53.0647 156.63 50.3547C159.02 47.6447 158.99 43.7047 156.55 41.5447C154.11 39.3847 150.19 39.8647 147.79 42.5447Z"
      fill="#054742"
    />
    <circle cx="94.5" cy="14.5" r="2.5" fill="white" />
    <path
      d="M93.1827 16.781C93.4843 16.9455 93.8154 17.0486 94.157 17.0845C94.4987 17.1204 94.844 17.0882 95.1732 16.99C95.8342 16.7705 96.382 16.299 96.6974 15.6779C97.0127 15.0568 97.0703 14.3364 96.8574 13.6731C96.7618 13.3432 96.6019 13.0354 96.3867 12.7676C96.1716 12.4998 95.9056 12.2772 95.604 12.1128"
      stroke="#054742"
      stroke-width="0.5"
    />
    <path
      d="M93.89 15.2347C93.89 15.2347 93.84 13.3747 95.58 13.6247"
      stroke="#054742"
      stroke-width="0.42"
      stroke-linecap="round"
      stroke-linejoin="round"
    />
    <path
      d="M86 48C86 48 86.5 45.747 88 46.0235"
      stroke="#054742"
      stroke-width="0.41"
      stroke-linecap="round"
      stroke-linejoin="round"
    />
  </svg>