<svg xmlns="http://www.w3.org/2000/svg" width="28" height="28" viewBox="0 0 28 28"><title>icon_dollar-coins</title><path d="M19.988,17.052a4.471,4.471,0,0,0-3.06,1.738A4.894,4.894,0,0,1,17,19.5a4.966,4.966,0,0,1-.913,2.864,4.5,4.5,0,1,0,7.72-3.895c-.1.006-.2.031-.307.031A4.983,4.983,0,0,1,19.988,17.052Z" fill="#054742"/><path d="M12,14.5a4.986,4.986,0,0,1,4.3,2.493h3.631A4.993,4.993,0,0,1,23.5,8.5a4.865,4.865,0,0,1,.5.051V6.493l0,.25A3.775,3.775,0,0,1,20.25,3l.266,0H3.484L3.75,3A3.775,3.775,0,0,1,0,6.743l0-.25v7l0-.25A3.775,3.775,0,0,1,3.75,16.991l-.234,0H7.7A4.986,4.986,0,0,1,12,14.5Zm0-7.757a3.25,3.25,0,1,1-3.25,3.25A3.254,3.254,0,0,1,12,6.743Z" fill="#054742"/><path d="M3.25,2.993H0v3.25A3.278,3.278,0,0,0,3.25,2.993Z" fill="#054742"/><circle cx="12" cy="9.993" r="2.75" fill="#054742"/><path d="M24,6.243V2.993H20.75A3.278,3.278,0,0,0,24,6.243Z" fill="#054742"/><path d="M0,13.744v3.249H3.25A3.277,3.277,0,0,0,0,13.744Z" fill="#054742"/><circle cx="23.5" cy="13.5" r="4.5" fill="#054742"/><circle cx="12" cy="19.5" r="4.5" fill="#054742"/></svg>