<svg width="204" height="210" viewBox="0 0 204 210" fill="none" xmlns="http://www.w3.org/2000/svg">
  <title>Clip art of a Family standing in front of a house and underneath an umbrella.</title>
  <path d="M21.5168 119.527C21.5168 119.527 38.876 94.5183 77.5172 92.6549C116.158 90.7915 142.05 127.275 170.884 131.296C199.718 135.317 218.156 191.318 127.731 189.945C37.2087 188.473 -5.7478 168.859 21.5168 119.527Z" fill="#E5EAE7"/>
  <path d="M103.296 7.25756C103.296 6.23159 103.296 5.20562 103.296 4.17965L104.707 1.29411C105.049 0.887995 105.797 0.90937 106.118 1.31548L107.293 4.17965V7.25756C108.405 7.25756 110.221 8.13391 110.221 9.20263C110.221 10.2713 109.324 11.1477 108.212 11.1477H107.293V115.241C107.293 121.119 110.392 125.992 114.86 125.885C118.322 125.8 121.336 122.872 121.828 118.062C121.935 116.994 122.854 116.181 123.944 116.181H124.029C125.312 116.181 126.316 117.25 126.145 118.49C125.269 125.308 119.84 130.182 114.71 130.182C110.692 130.182 107.4 128.322 105.476 124.966C103.104 120.82 103.253 116.246 103.253 111.693C103.253 107.375 103.253 103.058 103.253 98.7399C103.253 92.7123 103.253 86.6847 103.253 80.6572C103.253 73.7746 103.253 66.9134 103.253 60.0309C103.253 53.1697 103.253 46.3299 103.253 39.4687C103.253 33.5053 103.253 27.5418 103.253 21.5784C103.253 18.0944 103.253 14.6103 103.253 11.1049H102.676C101.565 11.1049 100.667 10.2286 100.667 9.15988C100.646 8.13391 102.185 7.25756 103.296 7.25756Z" fill="#FEFEFE" stroke="#054742" stroke-width="0.377193" stroke-linecap="round" stroke-linejoin="round"/>
  <path d="M103.296 65.6103L107.357 61.3782V54.4102H103.296V65.6103Z" fill="#054742" stroke="#054742" stroke-width="0.377193" stroke-linecap="round" stroke-linejoin="round"/>
  <path d="M131.404 64.4556L130.784 60.6296C128.625 47.3561 123.516 34.7238 115.843 23.6733L106.139 9.71582C129.758 10.7204 149.999 24.7206 159.917 44.7484C162.931 50.8615 165.004 57.5303 165.902 64.5838C160.793 63.0449 154.873 62.1685 148.546 62.1685C142.347 62.1472 136.512 62.9808 131.404 64.4556Z" fill="#054742"/>
  <path d="M80.6607 56.739L78.9935 64.9681H78.3737C72.9659 63.1727 66.575 62.1467 59.6711 62.1467C52.8099 62.1467 46.3548 63.1727 40.883 64.9468C41.9731 55.9695 44.9655 47.548 49.4114 40.1525C60.4619 21.856 80.5111 9.62988 103.424 9.62988C104.108 9.62988 104.771 9.65126 105.434 9.67263L97.6747 21.001C88.2059 32.6715 83.8455 44.5129 80.6607 56.739Z" fill="#054742"/>
  <path d="M130.784 60.6292L131.403 64.4553C131.339 64.4766 131.297 64.498 131.232 64.498C124.692 61.5911 115.736 59.9239 105.84 59.9239C95.4089 59.9239 86.0042 61.7621 79.3781 64.9682H79.0148L80.682 56.7391C83.8454 44.513 88.2058 32.6716 97.7174 20.9798L105.476 9.65137C105.711 9.65137 105.946 9.67274 106.16 9.67274L115.864 23.6302C123.516 34.7021 128.625 47.3344 130.784 60.6292Z" fill="#DBEDE5" stroke="#054742" stroke-width="0.377193" stroke-linecap="round" stroke-linejoin="round"/>
  <path d="M131.404 64.4551L131.425 64.5834C131.361 64.562 131.297 64.5193 131.232 64.4979C131.297 64.4979 131.361 64.4765 131.404 64.4551Z" fill="white"/>
  <path d="M132.258 64.9687H131.489L131.425 64.584C131.703 64.7122 131.981 64.8405 132.258 64.9687Z" fill="white"/>
  <path d="M131.425 64.5835L131.489 64.9683H129.715C130.228 64.7973 130.719 64.6477 131.254 64.498C131.297 64.5408 131.361 64.5622 131.425 64.5835Z" fill="white"/>
  <path d="M55.1417 195.888C55.1417 195.888 51.2662 191.951 50.7169 187.313C50.1676 182.674 50.1676 177.822 46.3837 177.365C42.5998 176.907 43.7899 184.597 42.3862 184.688C40.9824 184.81 40.3416 163.907 34.7267 163.572C29.1119 163.236 30.241 172.269 31.0649 177.121C31.5836 180.142 31.7057 181.637 30.0884 181.637C27.342 181.637 27.4946 173.276 26.5486 166.501C25.5721 159.727 23.7411 154.539 16.7226 154.539C9.70399 154.539 13.7931 164.701 16.0817 168.973C18.3094 173.306 21.1168 178.402 18.6145 179.074C16.1123 179.745 14.3118 172.757 10.1922 173.184C6.07264 173.611 4.36377 181.637 8.36131 185.94C12.3588 190.242 2.0751 187.648 2.6549 195.888H55.1417Z" fill="#DBEDE5" stroke="#054742" stroke-width="0.377193" stroke-miterlimit="10"/>
  <path d="M4.57764e-05 195.918H59.5664" stroke="#22253E" stroke-width="0.377193" stroke-miterlimit="10"/>
  <path d="M147.999 195.549C147.999 195.549 151.874 191.612 152.423 186.974C152.973 182.335 152.973 177.483 156.757 177.026C160.54 176.568 159.35 184.258 160.754 184.349C162.158 184.471 162.799 163.568 168.413 163.233C174.028 162.897 172.899 171.929 172.075 176.781C171.557 179.803 171.434 181.298 173.052 181.298C175.798 181.298 175.646 172.937 176.592 166.162C177.599 159.449 179.43 154.23 186.448 154.23C193.467 154.23 189.378 164.392 187.119 168.695C184.861 172.998 182.023 178.063 184.526 178.734C187.028 179.406 188.828 172.418 192.948 172.845C197.068 173.303 198.776 181.298 194.779 185.6C190.781 189.903 201.065 187.309 200.485 195.549H147.999Z" fill="#DBEDE5" stroke="#054742" stroke-width="0.377193" stroke-miterlimit="10"/>
  <path d="M185.258 154.047C185.258 154.047 177.782 179.314 175.005 195.518L185.258 154.047Z" fill="#DBEDE5"/>
  <path d="M185.258 154.047C185.258 154.047 177.782 179.314 175.005 195.518" stroke="#054742" stroke-width="0.377193" stroke-miterlimit="10"/>
  <path d="M194.718 173.638C194.718 173.638 189.683 185.417 179.643 195.548L194.718 173.638Z" fill="#DBEDE5"/>
  <path d="M194.718 173.638C194.718 173.638 189.683 185.417 179.643 195.548" stroke="#054742" stroke-width="0.377193" stroke-miterlimit="10"/>
  <path d="M169.543 163.323C169.543 163.323 166.094 178.612 166.827 195.548L169.543 163.323Z" fill="#DBEDE5"/>
  <path d="M169.543 163.323C169.543 163.323 166.094 178.612 166.827 195.548" stroke="#054742" stroke-width="0.377193" stroke-miterlimit="10"/>
  <path d="M156.024 177.452C156.024 177.452 156.574 185.905 157.825 195.548L156.024 177.452Z" fill="#DBEDE5"/>
  <path d="M156.024 177.452C156.024 177.452 156.574 185.905 157.825 195.548" stroke="#054742" stroke-width="0.377193" stroke-miterlimit="10"/>
  <path d="M203.14 195.579H143.574" stroke="#054742" stroke-width="0.377193" stroke-miterlimit="10"/>
  <path d="M169.416 121.677V120.535H167.883L114.506 80.2363L58.0967 122.819H106.671V195.612H169.416V122.819H170.915L169.416 121.677Z" fill="#054742" stroke="white" stroke-width="0.377193" stroke-linecap="round" stroke-linejoin="round"/>
  <path d="M175.82 127.279C175.309 127.279 174.798 127.143 174.424 126.844L114.847 85.4574C95.8732 99.2437 73.8341 112.541 73.1528 112.894C72.199 113.411 70.9046 113.193 70.2915 112.432C69.6783 111.698 69.8827 110.719 70.7683 110.202C72.1309 109.305 96.9972 91.2493 113.45 79.3121C114.233 78.741 115.46 78.741 116.243 79.3121L177.217 124.423C178.068 125.049 178.102 126.082 177.319 126.762C176.944 127.088 176.399 127.279 175.82 127.279Z" fill="#FEFEFE" stroke="#054742" stroke-width="0.377193" stroke-linecap="round" stroke-linejoin="round"/>
  <path d="M73.6245 96.3252L36.0865 122.388V195.723H111.162V122.388L73.6245 96.3252Z" fill="#054742" stroke="white" stroke-width="0.377193" stroke-linecap="round" stroke-linejoin="round"/>
  <path d="M30.7727 126.365C30.0914 126.365 29.4442 126.115 29.0354 125.69C28.4223 125.014 28.6267 124.114 29.5123 123.639C30.8749 122.813 55.7412 106.205 72.1939 95.225C72.9774 94.6997 74.2037 94.6997 74.9871 95.225L116.885 123.739C117.737 124.314 117.771 125.264 116.987 125.89C116.204 126.515 114.91 126.54 114.058 125.965L73.1477 101.553C55.3665 112.758 32.5781 125.79 31.9308 126.115C31.5902 126.265 31.1814 126.365 30.7727 126.365Z" fill="#FEFEFE" stroke="#054742" stroke-width="0.377193" stroke-linecap="round" stroke-linejoin="round"/>
  <path d="M149.104 195.154H127.983V167.796C127.983 161.426 132.733 156.267 138.598 156.267C144.391 156.267 149.104 161.386 149.104 167.679V195.154Z" fill="#FEFEFE"/>
  <path d="M98.6575 209.858C129.349 209.858 154.23 208.727 154.23 207.331C154.23 205.935 129.349 204.804 98.6575 204.804C67.9658 204.804 43.0853 205.935 43.0853 207.331C43.0853 208.727 67.9658 209.858 98.6575 209.858Z" fill="#DBEDE5"/>
  <path d="M131.733 204.462V195.491L127.156 195.186L127.98 204.706L131.733 204.462Z" fill="#FEFEFE" stroke="#054742" stroke-width="0.377193" stroke-linecap="round" stroke-linejoin="round"/>
  <path d="M127.156 202.723C127.156 202.723 130.39 204.127 131.916 201.93L139.789 206.202L126.149 206.11L127.156 202.723Z" fill="#054742" stroke="white" stroke-width="0.377193" stroke-linecap="round" stroke-linejoin="round"/>
  <path d="M139.795 206.19L126.155 206.099L126.147 207.319L139.787 207.411L139.795 206.19Z" fill="#054742" stroke="white" stroke-width="0.377193" stroke-linecap="round" stroke-linejoin="round"/>
  <path d="M114.522 161.222C114.522 161.222 110.952 166.776 114.614 168.82C114.858 168.942 115.194 168.851 115.377 168.606L115.407 168.576C115.621 168.301 115.651 167.905 115.438 167.66C114.949 167.081 114.309 165.86 115.59 164.09C115.59 164.09 116.201 164.212 115.987 165.585C115.926 165.952 116.17 166.226 116.506 166.165C116.719 166.135 116.902 165.952 116.963 165.707C117.238 164.792 117.726 162.534 116.536 161.435L114.522 161.222Z" fill="#FEFEFE" stroke="#054742" stroke-width="0.377193" stroke-linecap="round" stroke-linejoin="round"/>
  <path d="M118.886 130.31C118.886 130.31 113.057 131.011 113.149 141.967C113.271 152.922 110.555 153.41 112.325 161.222C112.325 161.222 116.597 162.809 118.886 161.039V137.542V130.31Z" fill="#DBEDE5" stroke="#054742" stroke-width="0.377193" stroke-linecap="round" stroke-linejoin="round"/>
  <path d="M112.813 204.584L113.973 195.643L118.215 195.43L116.597 204.828L112.813 204.584Z" fill="#FEFEFE" stroke="#054742" stroke-width="0.377193" stroke-linecap="round" stroke-linejoin="round"/>
  <path d="M117.421 202.846C117.421 202.846 114.186 204.25 112.661 202.053L104.788 206.325L118.428 206.233L117.421 202.846Z" fill="#054742" stroke="white" stroke-width="0.377193" stroke-linecap="round" stroke-linejoin="round"/>
  <path d="M104.785 207.528L118.425 207.437L118.417 206.216L104.777 206.307L104.785 207.528Z" fill="#054742" stroke="white" stroke-width="0.377193" stroke-linecap="round" stroke-linejoin="round"/>
  <path d="M119.405 148.619C119.405 148.619 117.391 151.396 115.865 158.628C114.278 166.257 111.288 198.878 111.288 198.878L120.656 199.306L124.47 162.809L124.501 199.306H133.533C133.533 199.306 137.195 155.699 129.139 148.223L119.405 148.619Z" fill="#FEFEFE" stroke="#054742" stroke-width="0.377193" stroke-linecap="round" stroke-linejoin="round"/>
  <path d="M121.205 160.794L124.47 162.808" stroke="#054742" stroke-width="0.377193" stroke-linecap="round" stroke-linejoin="round"/>
  <path d="M118.886 130.309C118.886 130.309 116.231 131.072 116.597 136.626C116.963 142.18 113.942 149.076 118.275 149.87H131.245L132.191 130.157L129.688 129.729L118.886 130.309Z" fill="#DBEDE5" stroke="#054742" stroke-width="0.377193" stroke-linecap="round" stroke-linejoin="round"/>
  <path d="M131.764 155.485C131.764 155.485 129.292 155.149 131.672 161.863C134.052 168.576 134.296 171.567 137.195 170.926C140.094 170.285 142.902 168.851 141.651 165.067C140.399 161.252 139.209 155.21 136.89 154.661C134.54 154.051 131.764 155.485 131.764 155.485Z" fill="#054742" stroke="white" stroke-width="0.377193" stroke-linecap="round" stroke-linejoin="round"/>
  <path d="M139.148 163.785C138.813 161.985 137.47 159.849 137.012 159.147V152.342L133.411 153.227L134.113 159.788L133.808 160.734C133.625 161.283 133.594 161.863 133.778 162.381L134.51 164.609C134.601 164.853 134.846 164.975 135.12 164.914C135.425 164.823 135.669 164.518 135.608 164.243L135.303 162.565C135.303 162.565 136.158 163.541 136.89 165.525C137.043 165.921 137.561 166.043 137.928 165.738C138.599 165.25 139.301 164.548 139.148 163.785Z" fill="#FEFEFE" stroke="#054742" stroke-width="0.377193" stroke-linecap="round" stroke-linejoin="round"/>
  <path d="M131.428 130.188C131.428 130.188 134.815 129.791 136.066 134.612C137.317 139.434 137.165 141.234 137.104 144.316C137.043 147.398 140.705 153.44 137.378 157.346C137.378 157.346 134.571 155.973 131.947 155.454C131.947 155.454 131.489 154.966 131.764 149.901C132.038 144.835 131.428 130.188 131.428 130.188Z" fill="#DBEDE5" stroke="#054742" stroke-width="0.377193" stroke-linecap="round" stroke-linejoin="round"/>
  <path d="M131.916 158.048C131.55 158.048 131.245 157.774 131.214 157.377C129.627 137.298 131.336 130.523 131.397 130.249C131.489 129.852 131.886 129.638 132.282 129.73C132.679 129.822 132.893 130.218 132.801 130.615C132.771 130.676 131.092 137.511 132.648 157.255C132.679 157.652 132.374 157.987 131.977 158.018C131.947 158.048 131.916 158.048 131.916 158.048Z" fill="#FEFEFE" stroke="#054742" stroke-width="0.377193" stroke-linecap="round" stroke-linejoin="round"/>
  <path d="M132.526 122.65C132.099 120.972 131.916 121.277 130.451 117.951C129.566 115.967 128.864 115.174 128.468 114.838C128.468 114.838 126.972 113.221 124.287 113.221C121.724 113.221 120.229 114.746 120.229 114.746C119.832 115.021 119.099 115.753 118.123 117.951C116.628 121.277 116.475 120.972 116.048 122.65C115.621 124.328 116.17 127.41 119.618 128.021C119.618 128.021 119.191 127.594 119.008 126.861C119.008 126.861 120.442 128.814 122.426 128.723H126.149C128.102 128.845 129.566 126.861 129.566 126.861C129.414 127.594 128.956 128.021 128.956 128.021C132.404 127.41 132.984 124.328 132.526 122.65Z" fill="#054742" stroke="white" stroke-width="0.377193" stroke-linecap="round" stroke-linejoin="round"/>
  <path d="M126.24 128.936L125.965 124.176L122.548 125.732L122.487 129.18L118.916 130.309C118.916 130.309 120.106 133.147 124.135 133.33C128.163 133.514 129.719 129.73 129.719 129.73L126.24 128.936Z" fill="#FEFEFE" stroke="#054742" stroke-width="0.377193" stroke-linecap="round" stroke-linejoin="round"/>
  <path d="M122.426 126.129C122.426 126.129 123.494 127.471 124.775 127.288C126.118 127.075 126.149 125.915 126.149 125.915L122.426 126.129Z" fill="#054742"/>
  <path d="M129.048 122.924C129.84 122.924 130.482 122.282 130.482 121.49C130.482 120.698 129.84 120.056 129.048 120.056C128.255 120.056 127.613 120.698 127.613 121.49C127.613 122.282 128.255 122.924 129.048 122.924Z" fill="#FEFEFE" stroke="#054742" stroke-width="0.377193" stroke-linecap="round" stroke-linejoin="round"/>
  <path d="M119.496 122.924C120.288 122.924 120.931 122.282 120.931 121.49C120.931 120.698 120.288 120.056 119.496 120.056C118.704 120.056 118.062 120.698 118.062 121.49C118.062 122.282 118.704 122.924 119.496 122.924Z" fill="#FEFEFE" stroke="#054742" stroke-width="0.377193" stroke-linecap="round" stroke-linejoin="round"/>
  <path d="M128.651 118.866C128.651 120.666 128.376 122.223 128.132 123.321C127.888 124.389 127.156 125.152 126.149 125.762L125.966 125.884C124.897 126.525 123.524 126.525 122.426 125.915C121.327 125.305 120.564 124.481 120.32 123.321C119.893 121.215 119.832 118.896 119.832 118.896C119.832 118.896 119.435 114.38 124.165 114.441C128.956 114.533 128.651 118.866 128.651 118.866Z" fill="#FEFEFE" stroke="#054742" stroke-width="0.377193" stroke-linecap="round" stroke-linejoin="round"/>
  <path d="M126.942 115.021C125.63 114.075 122.914 114.472 122.914 114.472C119.679 114.899 119.069 119.904 119.069 119.904C119.313 119.934 119.557 119.934 119.801 119.934L120.015 121.247L120.473 119.934C123.494 119.782 125.233 118.378 126.21 117.158C126.576 117.981 127.125 118.897 127.98 119.69L128.529 121.094L128.681 120.026L129.048 118.592C129.048 118.531 129.383 115.937 126.942 115.021Z" fill="#054742"/>
  <path d="M122.578 123.322H125.935C125.935 123.322 125.66 124.177 124.257 124.177C123.067 124.177 122.578 123.322 122.578 123.322Z" fill="#054742"/>
  <path d="M90.5369 203.394H85.3798L84.4643 193.751H89.6215L90.5369 203.394Z" fill="#FEFEFE" stroke="#054742" stroke-width="0.377193" stroke-linecap="round" stroke-linejoin="round"/>
  <path d="M84.1286 201.654L91.666 201.685C91.666 201.685 91.788 203.333 94.1682 203.577C96.5485 203.821 97.8606 205.103 98.0437 206.781L83.0911 206.72C83.0911 206.72 83.2437 204.706 84.1286 201.654Z" fill="#054742" stroke="white" stroke-width="0.377193" stroke-linecap="round" stroke-linejoin="round"/>
  <path d="M98.0458 206.776L83.0931 206.728L83.0897 207.796L98.0423 207.844L98.0458 206.776Z" fill="#054742" stroke="white" stroke-width="0.377193" stroke-linecap="round" stroke-linejoin="round"/>
  <path d="M83.5183 204.096C83.5183 204.096 86.3562 204.401 86.3562 206.72" stroke="white" stroke-width="0.377193" stroke-linecap="round" stroke-linejoin="round"/>
  <path d="M92.3678 202.937C92.3678 202.937 91.9101 202.937 90.9641 203.638L92.3678 202.937Z" fill="#054742"/>
  <path d="M92.3678 202.937C92.3678 202.937 91.9101 202.937 90.9641 203.638" stroke="white" stroke-width="0.377193" stroke-linecap="round" stroke-linejoin="round"/>
  <path d="M93.3138 203.425C93.3138 203.425 92.4594 203.455 91.9406 204.127L93.3138 203.425Z" fill="#054742"/>
  <path d="M93.3138 203.425C93.3138 203.425 92.4594 203.455 91.9406 204.127" stroke="white" stroke-width="0.377193" stroke-linecap="round" stroke-linejoin="round"/>
  <path d="M68.2911 203.089L73.4482 203.211L74.6383 193.599L69.4812 193.477L68.2911 203.089Z" fill="#FEFEFE" stroke="#054742" stroke-width="0.377193" stroke-linecap="round" stroke-linejoin="round"/>
  <path d="M74.7909 201.501L67.2536 201.318C67.2536 201.318 67.101 202.936 64.6903 203.149C62.3101 203.332 60.9369 204.584 60.7233 206.262L75.6759 206.628C75.6454 206.628 75.5843 204.614 74.7909 201.501Z" fill="#054742" stroke="white" stroke-width="0.377193" stroke-linecap="round" stroke-linejoin="round"/>
  <path d="M60.6898 207.334L75.6379 207.687L75.6631 206.619L60.715 206.267L60.6898 207.334Z" fill="#054742" stroke="white" stroke-width="0.377193" stroke-linecap="round" stroke-linejoin="round"/>
  <path d="M75.3097 203.974C75.3097 203.974 72.4718 204.187 72.4107 206.537" stroke="white" stroke-width="0.377193" stroke-linecap="round" stroke-linejoin="round"/>
  <path d="M66.5212 202.57C66.5212 202.57 66.979 202.57 67.9249 203.303L66.5212 202.57Z" fill="#054742"/>
  <path d="M66.5212 202.57C66.5212 202.57 66.979 202.57 67.9249 203.303" stroke="white" stroke-width="0.377193" stroke-linecap="round" stroke-linejoin="round"/>
  <path d="M65.5447 203.028C65.5447 203.028 66.3992 203.089 66.9179 203.761L65.5447 203.028Z" fill="#054742"/>
  <path d="M65.5447 203.028C65.5447 203.028 66.3992 203.089 66.9179 203.761" stroke="white" stroke-width="0.377193" stroke-linecap="round" stroke-linejoin="round"/>
  <path d="M91.1778 198.054C91.1778 198.054 90.3539 166.287 88.4314 151.426C88.2483 150.053 84.7695 151.456 82.2062 152.708C79.704 151.731 74.2722 149.778 73.9365 151.426C71.2512 164.12 67.925 198.054 67.925 198.054L76.1336 198.206L80.7415 169.888L82.9691 198.206L91.1778 198.054Z" fill="#FEFEFE" stroke="#054742" stroke-width="0.377193" stroke-linecap="round" stroke-linejoin="round"/>
  <path d="M76.2252 160.978L71.8614 164.09" stroke="#054742" stroke-width="0.377193" stroke-linecap="round" stroke-linejoin="round"/>
  <path d="M79.5515 160.703L80.1618 169.858H81.3824L82.2979 160.703H79.5515Z" fill="#FEFEFE" stroke="#054742" stroke-width="0.377193" stroke-linecap="round" stroke-linejoin="round"/>
  <path d="M93.2529 137.145L97.0368 147.093L98.1659 147.184L97.3419 152.433L96.2129 152.372C94.443 152.28 92.8867 151.243 92.1238 149.656L87.638 139.799L93.2529 137.145Z" fill="#FEFEFE" stroke="#054742" stroke-width="0.377193" stroke-linecap="round" stroke-linejoin="round"/>
  <path d="M85.2883 160.978L89.652 164.09" stroke="#054742" stroke-width="0.377193" stroke-linecap="round" stroke-linejoin="round"/>
  <path d="M74.0891 140.532L69.8474 139.067C67.8639 147.337 66.5212 159.025 66.216 161.985C65.9414 162.412 62.3406 168.301 66.3381 170.529C66.6128 170.682 66.9789 170.59 67.2231 170.285L67.2536 170.254C67.4977 169.919 67.5282 169.491 67.2841 169.217C66.7043 168.576 66.0024 167.203 67.4367 165.189C67.4367 165.189 68.108 165.341 67.8944 166.867C67.8334 167.264 68.108 167.569 68.4742 167.508C68.7183 167.447 68.9319 167.264 68.993 166.989C69.2676 166.013 69.7864 163.602 68.6573 162.351L74.0891 140.532Z" fill="#FEFEFE" stroke="#054742" stroke-width="0.377193" stroke-linecap="round" stroke-linejoin="round"/>
  <path d="M95.2669 136.931C95.2669 136.931 92.7036 130.462 84.8001 129.15L78.9106 128.723L76.0421 129.882C76.0421 129.882 75.798 129.974 75.3708 130.157L74.6689 130.432C74.5774 130.462 74.5163 130.523 74.4248 130.615C72.1056 131.835 68.0776 134.795 67.2536 140.593L72.96 142.729L71.3732 159.788C71.3732 159.788 84.3423 163.663 90.0488 159.025V141.478L95.2669 136.931Z" fill="#DBEDE5" stroke="#054742" stroke-width="0.377193" stroke-linecap="round" stroke-linejoin="round"/>
  <path d="M77.2627 122.558C76.4083 123.32 74.5773 120.33 75.4013 119.536C76.2252 118.743 76.8355 120.025 76.8355 120.025L77.0186 120.971L77.2627 122.222L77.3237 122.496L77.2627 122.558Z" fill="#FEFEFE" stroke="#054742" stroke-width="0.377193" stroke-linecap="round" stroke-linejoin="round"/>
  <path d="M85.1968 129.394L83.5489 128.936L83.4574 124.878C83.4574 124.878 82.5114 125.549 81.6569 125.702C80.8025 125.854 79.9786 125.366 79.9481 125.366L78.9411 124.786L78.9716 128.906L77.1712 129.608C77.1712 129.608 77.4458 131.713 80.9856 131.744C85.5935 131.774 85.1968 129.394 85.1968 129.394Z" fill="#FEFEFE" stroke="#054742" stroke-width="0.377193" stroke-linecap="round" stroke-linejoin="round"/>
  <path d="M78.7275 124.969C78.7275 124.969 80.1312 128.021 81.779 127.654C83.5184 127.288 83.5794 124.572 83.5794 124.572L78.7275 124.969Z" fill="#054742"/>
  <path d="M85.3188 122.558C86.2037 123.291 87.9736 120.3 87.1192 119.507C86.2647 118.713 85.685 120.026 85.685 120.026L85.5324 120.972L85.2882 122.223L85.2272 122.497L85.3188 122.558Z" fill="#FEFEFE" stroke="#054742" stroke-width="0.377193" stroke-linecap="round" stroke-linejoin="round"/>
  <path d="M85.8375 117.951C85.8375 119.904 85.5629 121.551 85.2882 122.742C85.0136 123.901 84.2812 124.725 83.2437 125.366L83.0606 125.488C81.962 126.19 80.5278 126.19 79.3987 125.519C78.2696 124.847 77.4762 123.962 77.2321 122.711C76.7744 120.453 76.7439 117.92 76.7439 117.92C76.7439 117.92 76.3166 113.038 81.2296 113.129C86.1427 113.251 85.8375 117.951 85.8375 117.951Z" fill="#FEFEFE" stroke="#054742" stroke-width="0.377193" stroke-linecap="round" stroke-linejoin="round"/>
  <path d="M79.4598 122.314H82.8776C82.8776 122.314 82.6029 123.535 81.1687 123.535C79.9481 123.505 79.4598 122.314 79.4598 122.314Z" fill="#054742"/>
  <path d="M85.7461 112.152C84.0067 110.901 80.5279 112.275 78.9716 113.007C78.7885 112.549 78.2087 112.244 77.6899 112.58C76.3473 113.465 76.6219 114.594 76.7745 115.021C76.1947 115.631 75.4318 117.096 76.8965 120.239C76.8965 120.239 77.7205 117.554 77.3848 115.418C78.758 116.028 82.5114 117.523 84.8916 116.577C84.9832 118.408 85.685 120.209 85.685 120.209C86.6005 117.92 86.4479 116.516 86.1122 115.692C86.4784 115.265 87.699 113.526 85.7461 112.152Z" fill="#054742" stroke="white" stroke-width="0.377193" stroke-linecap="round" stroke-linejoin="round"/>
  <path d="M111.166 204.402L106.771 204.493L103.964 180.844L108.541 179.623L111.166 204.402Z" fill="#FEFEFE" stroke="#054742" stroke-width="0.377193" stroke-linecap="round" stroke-linejoin="round"/>
  <path d="M106.344 204.462L111.776 204.34C111.776 204.34 111.898 205.499 113.607 205.652C115.316 205.805 116.292 206.69 116.475 207.88L105.703 208.124C105.703 208.154 105.764 206.69 106.344 204.462Z" fill="#054742" stroke="white" stroke-width="0.377193" stroke-linecap="round" stroke-linejoin="round"/>
  <path d="M116.463 207.872L105.694 208.126L105.712 208.889L116.481 208.635L116.463 207.872Z" fill="#054742" stroke="white" stroke-width="0.377193" stroke-linecap="round" stroke-linejoin="round"/>
  <path d="M105.948 206.231C105.948 206.231 107.992 206.384 108.023 208.062" stroke="white" stroke-width="0.377193" stroke-linecap="round" stroke-linejoin="round"/>
  <path d="M112.295 205.225C112.295 205.225 111.959 205.225 111.288 205.743L112.295 205.225Z" fill="#054742"/>
  <path d="M112.295 205.225C112.295 205.225 111.959 205.225 111.288 205.743" stroke="white" stroke-width="0.377193" stroke-linecap="round" stroke-linejoin="round"/>
  <path d="M112.997 205.561C112.997 205.561 112.386 205.622 112.02 206.11L112.997 205.561Z" fill="#054742"/>
  <path d="M112.997 205.561C112.997 205.561 112.386 205.622 112.02 206.11" stroke="white" stroke-width="0.377193" stroke-linecap="round" stroke-linejoin="round"/>
  <path d="M113.668 169.187C113.424 166.868 112.386 157.682 110.799 151.183L107.473 152.342L111.776 169.461C110.86 170.468 111.288 172.33 111.501 173.123C111.562 173.337 111.715 173.489 111.928 173.52C112.203 173.581 112.417 173.337 112.386 173.032C112.203 171.811 112.752 171.72 112.752 171.72C113.881 173.276 113.332 174.374 112.874 174.863C112.691 175.076 112.691 175.412 112.905 175.687L112.936 175.717C113.119 175.961 113.393 176.022 113.607 175.9C116.689 174.161 113.881 169.522 113.668 169.187Z" fill="#FEFEFE" stroke="#054742" stroke-width="0.377193" stroke-linecap="round" stroke-linejoin="round"/>
  <path d="M96.6707 155.301L93.1614 154.142C92.8562 155.332 92.6426 156.369 92.4901 157.254L86.2039 150.846L86.3564 150.602C86.6006 150.236 86.6921 149.808 86.6616 149.351L86.509 148.13C86.509 148.13 86.448 147.642 85.6241 147.794L85.563 144.438C85.563 144.224 85.3799 144.041 85.1663 144.041C84.9527 144.041 84.7696 144.224 84.7696 144.438L84.7391 147.215L84.4645 147.337L82.8777 144.895C82.7556 144.712 82.542 144.682 82.3589 144.804C82.2063 144.895 82.1758 145.109 82.2368 145.262L83.5185 147.764C83.1828 147.947 82.9082 148.222 82.7556 148.374C82.5725 148.557 82.5115 148.832 82.5725 149.076C82.9997 150.877 84.0372 151.456 84.3729 151.609L91.5441 161.893C92.1239 163.052 93.6191 163.357 94.6261 162.533C94.9618 162.259 95.1754 161.893 95.2975 161.496L96.6707 155.301Z" fill="#FEFEFE" stroke="#054742" stroke-width="0.377193" stroke-linecap="round" stroke-linejoin="round"/>
  <path d="M91.9104 204.402L96.3351 204.493L99.4172 181.149L95.145 179.867L91.9104 204.402Z" fill="#FEFEFE" stroke="#054742" stroke-width="0.377193" stroke-linecap="round" stroke-linejoin="round"/>
  <path d="M96.7622 204.463L91.3305 204.341C91.3305 204.341 91.2084 205.5 89.4995 205.653C87.7907 205.806 86.8142 206.691 86.6311 207.881L97.4031 208.125C97.3725 208.155 97.342 206.691 96.7622 204.463Z" fill="#054742" stroke="white" stroke-width="0.377193" stroke-linecap="round" stroke-linejoin="round"/>
  <path d="M86.6037 208.678L97.3724 208.932L97.3904 208.169L86.6216 207.915L86.6037 208.678Z" fill="#054742" stroke="white" stroke-width="0.377193" stroke-linecap="round" stroke-linejoin="round"/>
  <path d="M97.1285 206.232C97.1285 206.232 95.084 206.385 95.0535 208.063" stroke="white" stroke-width="0.377193" stroke-linecap="round" stroke-linejoin="round"/>
  <path d="M90.7812 205.226C90.7812 205.226 91.1169 205.226 91.7882 205.744L90.7812 205.226Z" fill="#054742"/>
  <path d="M90.7812 205.226C90.7812 205.226 91.1169 205.226 91.7882 205.744" stroke="white" stroke-width="0.377193" stroke-linecap="round" stroke-linejoin="round"/>
  <path d="M90.1099 205.562C90.1099 205.562 90.7202 205.623 91.0864 206.111L90.1099 205.562Z" fill="#054742"/>
  <path d="M90.1099 205.562C90.1099 205.562 90.7202 205.623 91.0864 206.111" stroke="white" stroke-width="0.377193" stroke-linecap="round" stroke-linejoin="round"/>
  <path d="M107.717 163.846C107.565 162.778 104.849 163.877 102.835 164.853C100.882 164.09 96.6096 162.565 96.335 163.846C94.2294 173.825 93.3139 181.24 93.3139 181.24L100.912 183.041L101.675 178.341L102.011 182.766L109.182 181.942C109.213 181.911 109.243 175.503 107.717 163.846Z" fill="#054742" stroke="white" stroke-width="0.377193" stroke-linecap="round" stroke-linejoin="round"/>
  <path d="M113.485 155.608C113.454 155.302 113.393 154.997 113.332 154.692C112.508 150.939 109.396 148.07 105.612 147.399L104.208 147.155L100.546 146.972L97.0368 147.765C97.0368 147.765 92.1849 149.047 91.2694 155.394L95.6941 157.042L94.443 170.286C94.443 170.286 104.513 173.276 108.938 169.675V157.347L113.485 155.608Z" fill="#FEFEFE" stroke="#054742" stroke-width="0.377193" stroke-linecap="round" stroke-linejoin="round"/>
  <path d="M104.178 147.123C104.117 146.177 104.086 145.353 104.086 145.353C104.086 145.353 103.354 145.872 102.682 145.994C102.011 146.116 101.37 145.719 101.37 145.719L100.607 145.262C100.607 145.262 100.607 145.445 100.577 145.719C100.546 146.421 100.455 147.764 100.394 148.771C100.882 149.473 101.645 150.022 102.774 150.144C102.804 150.144 102.865 150.144 102.896 150.144C103.171 150.175 103.415 150.144 103.598 150.144C103.903 150.114 104.147 150.053 104.33 149.961C104.3 149.503 104.239 148.222 104.178 147.123Z" fill="#FEFEFE" stroke="#054742" stroke-width="0.377193" stroke-linecap="round" stroke-linejoin="round"/>
  <path d="M99.295 143.585C98.6236 144.165 97.2199 141.876 97.8608 141.266C98.5016 140.655 98.9593 141.662 98.9593 141.662L99.0814 142.395L99.2645 143.371L99.3255 143.585H99.295Z" fill="#FEFEFE" stroke="#054742" stroke-width="0.377193" stroke-linecap="round" stroke-linejoin="round"/>
  <path d="M105.52 143.584C106.192 144.164 107.565 141.845 106.924 141.234C106.283 140.624 105.825 141.631 105.825 141.631L105.703 142.364L105.52 143.34L105.459 143.554L105.52 143.584Z" fill="#FEFEFE" stroke="#054742" stroke-width="0.377193" stroke-linecap="round" stroke-linejoin="round"/>
  <path d="M100.455 145.445C100.455 145.445 101.523 147.398 102.804 147.123C104.147 146.818 104.178 145.109 104.178 145.109L100.455 145.445Z" fill="#054742"/>
  <path d="M105.947 140.014C105.947 141.509 105.734 142.791 105.52 143.737C105.307 144.622 104.757 145.262 103.933 145.781L103.781 145.842C102.926 146.391 101.828 146.391 100.943 145.873C100.058 145.354 99.4476 144.683 99.2645 143.706C98.9289 141.967 98.8678 140.014 98.8678 140.014C98.8678 140.014 98.5322 136.23 102.347 136.291C106.161 136.382 105.947 140.014 105.947 140.014Z" fill="#FEFEFE" stroke="#054742" stroke-width="0.377193" stroke-linecap="round" stroke-linejoin="round"/>
  <path d="M101.096 143.004C101.096 143.004 101.492 143.736 103.049 143.492" stroke="#054742" stroke-width="0.377193" stroke-linecap="round" stroke-linejoin="round"/>
  <path d="M99.0204 141.784C99.0204 141.784 99.8443 139.16 99.234 137.481C99.234 137.481 97.4031 138.397 99.0204 141.784Z" fill="#054742" stroke="white" stroke-width="0.377193" stroke-linecap="round" stroke-linejoin="round"/>
  <path d="M105.795 141.784C105.795 141.784 104.757 139.16 105.368 137.481C105.368 137.481 107.199 138.183 105.795 141.784Z" fill="#054742" stroke="white" stroke-width="0.377193" stroke-linecap="round" stroke-linejoin="round"/>
  <path d="M102.316 134.979C98.7458 135.009 98.3185 137.664 98.288 138.763H95.0534V139.22H98.3186H98.4101H106.314C106.314 139.19 106.802 134.948 102.316 134.979Z" fill="#FEFEFE" stroke="#054742" stroke-width="0.377193" stroke-linecap="round" stroke-linejoin="round"/>
  <path d="M85.5935 147.826C85.5935 147.826 83.8541 148.04 84.0067 148.772C84.0067 148.772 84.0982 149.321 85.1663 149.169C85.1663 149.169 84.5254 149.505 84.678 150.267" stroke="#054742" stroke-width="0.377193" stroke-linecap="round" stroke-linejoin="round"/>
  <path d="M100.821 138.122H103.781C103.781 138.122 103.659 136.993 102.316 136.963C100.973 136.963 100.821 138.122 100.821 138.122Z" fill="#FEFEFE" stroke="#054742" stroke-width="0.377193" stroke-linecap="round" stroke-linejoin="round"/>
</svg>