<svg xmlns="http://www.w3.org/2000/svg" width="28" height="28" viewBox="0 0 28 28"><title>icon_family</title><circle cx="3.849" cy="4.75" r="2.75" fill="#054742"/><circle cx="18.151" cy="4.763" r="2.75" fill="#054742"/><path d="M14,16.5c0-1.721-.981-4-3-4-1.387,0-2.714-.861-3.85-2.763A3.137,3.137,0,0,0,4,8a3.965,3.965,0,0,0-4,4V26H14Z" fill="#054742"/><circle cx="11" cy="9.171" r="2.75" fill="#054742"/><path d="M22,11.947A3.771,3.771,0,0,0,18,8a3.573,3.573,0,0,0-3.15,1.737A7.126,7.126,0,0,1,12.5,12.25c1.128.555,1.977,2.5,2,4.25.022,1.658,0,9.5,0,9.5H22Z" fill="#054742"/></svg>