  <svg width="375" height="225" fill="none" xmlns="http://www.w3.org/2000/svg">
    <rect width="375" height="225" rx="16" fill="#054742" />
    <path
      d="M52.7554 218.941H357.018"
      stroke="white"
      strokeLinecap="round"
      strokeLinejoin="round"
    />
    <path
      d="M249.227 193.525H249.25V175.866V145.598V88.1779V78.7152C249.25 69.6234 243.928 63.2305 237.555 63.2305H128.857C129.012 63.3199 129.163 63.4151 129.31 63.516C130.533 64.3546 131.46 65.5647 132.153 67.045C133.531 69.9892 134.014 74.0772 134.014 78.7152V177.29C134.014 181.816 135.356 185.894 137.502 188.828C139.648 191.763 142.571 193.525 145.753 193.525H145.794H145.837H145.881H145.928H145.977H146.028H146.081H146.136H146.193H146.251H146.312H146.375H146.44H146.507H146.576H146.646H146.719H146.794H146.87H146.948H147.029H147.111H147.195H147.281H147.369H147.458H147.55H147.643H147.739H147.836H147.934H148.035H148.138H148.242H148.348H148.456H148.565H148.677H148.79H148.905H149.021H149.14H149.26H149.381H149.505H149.63H149.757H149.885H150.016H150.147H150.281H150.416H150.553H150.691H150.831H150.973H151.116H151.261H151.407H151.555H151.705H151.856H152.008H152.163H152.318H152.476H152.634H152.795H152.956H153.12H153.284H153.451H153.618H153.788H153.958H154.13H154.304H154.479H154.655H154.833H155.012H155.192H155.374H155.557H155.742H155.928H156.115H156.304H156.494H156.685H156.878H157.072H157.267H157.464H157.662H157.861H158.061H158.263H158.466H158.67H158.875H159.082H159.29H159.499H159.709H159.92H160.133H160.346H160.561H160.777H160.995H161.213H161.432H161.653H161.875H162.098H162.321H162.546H162.773H163H163.228H163.457H163.688H163.919H164.151H164.385H164.619H164.855H165.091H165.328H165.567H165.806H166.047H166.288H166.53H166.773H167.017H167.262H167.508H167.755H168.003H168.252H168.501H168.751H169.003H169.255H169.508H169.761H170.016H170.272H170.528H170.785H171.043H171.301H171.561H171.821H172.082H172.343H172.606H172.869H173.133H173.398H173.663H173.929H174.196H174.463H174.731H175H175.269H175.539H175.81H176.082H176.353H176.626H176.899H177.173H177.448H177.723H177.998H178.274H178.551H178.828H179.106H179.384H179.663H179.943H180.222H180.503H180.784H181.065H181.347H181.629H181.912H182.195H182.479H182.763H183.048H183.332H183.618H183.904H184.19H184.476H184.763H185.05H185.338H185.626H185.914H186.203H186.492H186.781H187.071H187.361H187.651H187.942H188.232H188.523H188.815H189.106H189.398H189.69H189.982H190.275H190.567H190.86H191.153H191.446H191.74H192.033H192.327H192.621H192.915H193.209H193.503H193.798H194.092H194.387H194.682H194.976H195.271H195.566H195.861H196.156H196.451H196.746H197.041H197.337H197.632H197.927H198.222H198.517H198.812H199.107H199.402H199.697H199.992H200.287H200.582H200.876H201.171H201.465H201.76H202.054H202.348H202.642H202.936H203.229H203.523H203.816H204.109H204.402H204.695H204.988H205.28H205.572H205.864H206.156H206.447H206.738H207.029H207.32H207.61H207.9H208.19H208.48H208.769H209.058H209.346H209.634H209.922H210.21H210.497H210.783H211.07H211.356H211.641H211.926H212.211H212.496H212.779H213.063H213.346H213.629H213.911H214.192H214.473H214.754H215.034H215.314H215.593H215.872H216.15H216.427H216.704H216.981H217.257H217.532H217.807H218.081H218.355H218.627H218.9H219.172H219.443H219.713H219.983H220.252H220.52H220.788H221.055H221.322H221.587H221.853H222.117H222.38H222.643H222.905H223.167H223.427H223.687H223.946H224.204H224.462H224.719H224.975H225.23H225.484H225.737H225.99H226.242H226.492H226.742H226.992H227.24H227.487H227.734H227.979H228.224H228.467H228.71H228.952H229.193H229.433H229.672H229.91H230.147H230.383H230.618H230.852H231.085H231.317H231.548H231.777H232.006H232.234H232.461H232.686H232.911H233.134H233.357H233.578H233.798H234.017H234.235H234.452H234.667H234.881H235.095H235.307H235.518H235.727H235.936H236.143H236.349H236.554H236.757H236.96H237.161H237.361H237.559H237.757H237.952H238.147H238.341H238.533H238.723H238.913H239.101H239.288H239.473H239.657H239.84H240.021H240.201H240.38H240.557H240.732H240.907H241.079H241.251H241.421H241.589H241.756H241.922H242.086H242.249H242.41H242.569H242.728H242.884H243.039H243.193H243.345H243.495H243.644H243.791H243.937H244.081H244.224H244.364H244.504H244.641H244.778H244.912H245.045H245.176H245.305H245.433H245.559H245.684H245.806H245.927H246.047H246.164H246.28H246.394H246.506H246.617H246.726H246.833H246.938H247.042H247.143H247.243H247.341H247.438H247.532H247.625H247.715H247.804H247.891H247.976H248.06H248.141H248.22H248.298H248.374H248.447H248.519H248.589H248.657H248.723H248.787H248.849H248.909H248.967H249.023H249.077H249.129H249.179H249.227Z"
      fill="white"
      stroke="#054742"
    />
    <path
      d="M119.507 79.7365H134.486L134.486 72.6985C134.486 67.3604 131.036 63.2305 126.996 63.2305C122.957 63.2305 119.506 67.3604 119.506 72.6985L119.507 79.7365Z"
      fill="white"
      stroke="#054742"
    />
    <path
      d="M169.352 180.393V103.331C169.352 97.9932 165.901 93.8633 161.862 93.8633C157.823 93.8633 154.372 97.9932 154.372 103.331L154.372 180.393H169.352Z"
      fill="white"
      stroke="#054742"
    />
    <path
      d="M154.825 136.903V184.059C154.825 189.248 150.214 193.527 144.429 193.527C138.645 193.527 134.034 189.248 134.034 184.059L134.034 136.903H154.825Z"
      fill="white"
      stroke="#054742"
    />
    <path
      d="M284.091 224.158H284.115V206.498V176.231V118.811V109.348C284.115 100.256 278.792 93.8633 272.419 93.8633H163.722C163.876 93.9527 164.027 94.0479 164.174 94.1489C165.397 94.9874 166.325 96.1975 167.017 97.6779C168.395 100.622 168.878 104.71 168.878 109.348V207.923C168.878 212.449 170.221 216.527 172.366 219.461C174.513 222.396 177.436 224.158 180.617 224.158H180.658H180.701H180.746H180.792H180.841H180.892H180.945H181H181.057H181.116H181.177H181.239H181.304H181.371H181.44H181.511H181.583H181.658H181.734H181.813H181.893H181.975H182.059H182.145H182.233H182.323H182.414H182.508H182.603H182.7H182.799H182.899H183.002H183.106H183.212H183.32H183.43H183.541H183.654H183.769H183.886H184.004H184.124H184.246H184.369H184.494H184.621H184.75H184.88H185.012H185.145H185.28H185.417H185.555H185.695H185.837H185.98H186.125H186.271H186.419H186.569H186.72H186.873H187.027H187.183H187.34H187.499H187.659H187.821H187.984H188.149H188.315H188.483H188.652H188.822H188.994H189.168H189.343H189.519H189.697H189.876H190.056H190.238H190.422H190.606H190.792H190.98H191.168H191.358H191.55H191.742H191.936H192.132H192.328H192.526H192.725H192.925H193.127H193.33H193.534H193.739H193.946H194.154H194.363H194.573H194.784H194.997H195.211H195.426H195.642H195.859H196.077H196.297H196.517H196.739H196.962H197.186H197.411H197.637H197.864H198.092H198.321H198.552H198.783H199.016H199.249H199.483H199.719H199.955H200.193H200.431H200.67H200.911H201.152H201.394H201.638H201.882H202.127H202.373H202.619H202.867H203.116H203.365H203.616H203.867H204.119H204.372H204.626H204.88H205.136H205.392H205.649H205.907H206.166H206.425H206.685H206.946H207.208H207.47H207.733H207.997H208.262H208.527H208.793H209.06H209.327H209.595H209.864H210.134H210.404H210.674H210.946H211.218H211.49H211.764H212.037H212.312H212.587H212.862H213.138H213.415H213.692H213.97H214.249H214.527H214.807H215.087H215.367H215.648H215.929H216.211H216.493H216.776H217.059H217.343H217.627H217.912H218.197H218.482H218.768H219.054H219.34H219.627H219.915H220.202H220.49H220.779H221.067H221.356H221.646H221.935H222.225H222.515H222.806H223.097H223.388H223.679H223.97H224.262H224.554H224.846H225.139H225.432H225.724H226.017H226.311H226.604H226.898H227.191H227.485H227.779H228.073H228.368H228.662H228.957H229.251H229.546H229.841H230.136H230.43H230.725H231.02H231.315H231.611H231.906H232.201H232.496H232.791H233.086H233.381H233.676H233.971H234.266H234.561H234.856H235.151H235.446H235.74H236.035H236.329H236.624H236.918H237.212H237.506H237.8H238.094H238.387H238.68H238.974H239.267H239.559H239.852H240.144H240.436H240.728H241.02H241.311H241.603H241.893H242.184H242.474H242.765H243.054H243.344H243.633H243.922H244.21H244.498H244.786H245.074H245.361H245.648H245.934H246.22H246.506H246.791H247.076H247.36H247.644H247.927H248.21H248.493H248.775H249.057H249.338H249.618H249.899H250.178H250.457H250.736H251.014H251.292H251.569H251.845H252.121H252.396H252.671H252.945H253.219H253.492H253.764H254.036H254.307H254.577H254.847H255.116H255.385H255.652H255.92H256.186H256.452H256.717H256.981H257.245H257.507H257.77H258.031H258.292H258.551H258.81H259.069H259.326H259.583H259.839H260.094H260.348H260.602H260.854H261.106H261.357H261.607H261.856H262.104H262.351H262.598H262.843H263.088H263.332H263.574H263.816H264.057H264.297H264.536H264.774H265.011H265.247H265.482H265.716H265.949H266.181H266.412H266.642H266.871H267.098H267.325H267.551H267.775H267.999H268.221H268.442H268.662H268.881H269.099H269.316H269.531H269.746H269.959H270.171H270.382H270.592H270.8H271.007H271.213H271.418H271.622H271.824H272.025H272.225H272.423H272.621H272.817H273.011H273.205H273.397H273.588H273.777H273.965H274.152H274.337H274.521H274.704H274.885H275.065H275.244H275.421H275.597H275.771H275.944H276.115H276.285H276.454H276.621H276.786H276.95H277.113H277.274H277.434H277.592H277.748H277.903H278.057H278.209H278.359H278.508H278.655H278.801H278.945H279.088H279.229H279.368H279.506H279.642H279.776H279.909H280.04H280.17H280.297H280.423H280.548H280.67H280.791H280.911H281.028H281.144H281.258H281.371H281.481H281.59H281.697H281.802H281.906H282.008H282.107H282.206H282.302H282.396H282.489H282.58H282.668H282.755H282.841H282.924H283.005H283.085H283.162H283.238H283.312H283.383H283.453H283.521H283.587H283.651H283.713H283.773H283.831H283.887H283.941H283.993H284.043H284.091Z"
      fill="white"
      stroke="#054742"
    />
    <line
      x1="184.878"
      y1="141.012"
      x2="265.23"
      y2="141.012"
      stroke="#054742"
      strokeLinecap="square"
    />
    <line
      x1="184.878"
      y1="148.301"
      x2="231.818"
      y2="148.301"
      stroke="#054742"
      strokeLinecap="square"
    />
    <line
      x1="240.082"
      y1="148.301"
      x2="259.42"
      y2="148.301"
      stroke="#054742"
      strokeLinecap="square"
    />
    <line
      x1="184.878"
      y1="157.059"
      x2="266.683"
      y2="157.059"
      stroke="#054742"
      strokeLinecap="square"
    />
    <line
      x1="184.878"
      y1="164.348"
      x2="224.554"
      y2="164.348"
      stroke="#054742"
      strokeLinecap="square"
    />
    <rect
      x="134.986"
      y="134.211"
      width="18.8853"
      height="8.75299"
      fill="white"
    />
    <rect
      x="155.325"
      y="173.605"
      width="13.0744"
      height="8.75299"
      fill="white"
    />
    <path
      d="M190.374 214.896C190.374 218.981 187.969 222.504 184.491 224.155H289.3C294.464 224.155 298.643 220.006 298.643 214.896V213.484H190.374V214.896Z"
      fill="white"
      stroke="#054742"
    />
    <rect
      x="288.491"
      y="166.051"
      width="9.81493"
      height="30.75"
      fill="#DBECE4"
    />
    <path
      d="M293.222 169.74C306.096 169.74 316.532 159.277 316.532 146.37C316.532 133.463 306.096 123 293.222 123C280.348 123 269.911 133.463 269.911 146.37C269.911 159.277 280.348 169.74 293.222 169.74Z"
      fill="#054742"
      stroke="white"
      strokeMiterlimit="10"
      strokeLinecap="round"
      strokeLinejoin="round"
    />
    <path
      d="M293.105 166.299C303.936 166.299 312.717 157.481 312.717 146.604C312.717 135.728 303.936 126.91 293.105 126.91C282.274 126.91 273.494 135.728 273.494 146.604C273.494 157.481 282.274 166.299 293.105 166.299Z"
      fill="white"
      stroke="white"
      strokeMiterlimit="10"
      strokeLinecap="round"
      strokeLinejoin="round"
    />
    <path
      d="M201.241 111.575C200.623 110.905 199.89 110.373 199.083 110.01C198.276 109.648 197.411 109.461 196.537 109.461C195.664 109.461 194.799 109.648 193.992 110.01C193.185 110.373 192.451 110.905 191.834 111.575C191.458 111.983 190.676 112.937 190.409 113.407C191.679 112.556 193.177 112.194 194.659 112.38C196.142 112.565 197.524 113.287 198.583 114.429C199.641 115.571 200.315 117.067 200.494 118.675C200.674 120.283 200.349 121.91 199.573 123.294L199.676 123.183C200.121 122.889 200.856 122.202 201.241 121.785C201.858 121.114 202.348 120.319 202.683 119.443C203.017 118.567 203.189 117.628 203.189 116.68C203.189 115.732 203.017 114.793 202.683 113.917C202.348 113.042 201.858 112.246 201.241 111.575Z"
      fill="#054742"
    />
    <path
      d="M189.963 123.815C187.349 120.979 185.749 115.761 188.698 110.246L187.319 111.742C185.494 113.724 184.468 116.411 184.468 119.213C184.468 122.015 185.494 124.703 187.32 126.684C189.145 128.665 191.622 129.778 194.204 129.778C196.785 129.778 199.262 128.665 201.087 126.684L202.466 125.187C197.626 128.241 192.81 126.905 189.963 123.815Z"
      fill="#054742"
    />
    <g clipPath="url(#clip0_9804_60504)">
      <path
        d="M78.7814 222.058H119.095L125.707 199.325H91.3797V197.809H129.172V191.747H100.45V185.685H107.576C110.914 185.506 114.061 184.067 116.385 181.657C118.708 179.247 120.036 176.045 120.101 172.694V170.53H111.031C108.826 170.572 106.674 171.219 104.809 172.4C102.944 173.581 101.436 175.25 100.45 177.228V161.436H107.576C110.914 161.257 114.061 159.818 116.385 157.408C118.708 154.998 120.036 151.796 120.101 148.445V146.281H111.031C108.826 146.324 106.674 146.971 104.809 148.151C102.944 149.332 101.436 151.002 100.45 152.98V143.25H97.4264V168.153C96.3713 166.137 94.7888 164.447 92.8485 163.263C90.9082 162.08 88.6833 161.449 86.4123 161.436H77.7746V163.601C77.7858 167.043 79.1546 170.34 81.5823 172.774C84.01 175.208 87.2994 176.581 90.7327 176.592H97.4264V191.747H68.7046V197.809H71.7279L78.7814 222.058ZM86.5061 168.178L87.1833 166.82L97.4264 171.954V173.652L86.5061 168.178Z"
        fill="white"
      />
    </g>
    <path
      d="M93.2056 117.525C94.2354 119.414 95.7825 120.975 97.5258 121.855L98.4486 122.41L97.5095 122.975C95.8072 123.999 94.2496 125.38 93.2056 127.295L92.6493 128.225L92.0878 127.286C91.0666 125.579 89.6901 124.017 87.7804 122.97L86.8501 122.41L87.7891 121.845C89.4915 120.82 91.0491 119.44 92.093 117.525L92.6493 116.595L93.2056 117.525Z"
      fill="white"
      stroke="#054742"
    />
    <path
      d="M311.593 99.4566C311.748 99.5003 311.913 99.5377 312.088 99.5777C312.595 99.6938 313.171 99.8259 313.673 100.181C314.323 100.641 314.638 101.203 314.875 102.325C314.962 102.734 315.227 103.982 316.32 104.945C317.137 105.664 318.379 105.973 318.875 106.074L319.057 106.11C319.601 106.219 320.291 106.35 320.861 106.787C321.485 107.265 321.966 108.24 322.214 109.533C322.216 109.546 322.221 109.558 322.229 109.568C322.236 109.579 322.246 109.587 322.257 109.594C322.268 109.6 322.281 109.604 322.294 109.605C322.307 109.606 322.32 109.604 322.332 109.599C322.344 109.594 322.355 109.587 322.364 109.577L326.508 105.236C326.518 105.226 326.525 105.214 326.529 105.2C326.533 105.187 326.534 105.172 326.531 105.158C326.275 103.824 325.776 102.808 325.113 102.306C324.507 101.842 323.798 101.704 323.229 101.594L323.055 101.56C322.571 101.461 321.364 101.16 320.582 100.475C319.535 99.5536 319.281 98.3454 319.194 97.9497C318.95 96.7955 318.604 96.1851 317.918 95.6992C317.388 95.323 316.792 95.1872 316.265 95.0621C316.095 95.0227 315.934 94.9863 315.786 94.9438C314.872 94.6824 313.849 94.2209 313.193 92.7799C313.188 92.7665 313.179 92.7549 313.167 92.746C313.156 92.7371 313.142 92.7312 313.128 92.729C313.113 92.7275 313.099 92.7293 313.086 92.7344C313.072 92.7394 313.06 92.7475 313.051 92.7581L308.906 97.0988C308.894 97.1116 308.886 97.1278 308.883 97.1453C308.88 97.1628 308.883 97.1808 308.89 97.1968C309.58 98.712 310.698 99.1993 311.593 99.4566Z"
      fill="white"
    />
    <path
      d="M61.6913 123.368L64.0669 124.63L61.6913 125.891C59.3156 127.152 57.4989 129.114 56.2411 131.357L54.9834 133.74L53.7257 131.357C52.468 128.974 50.5115 127.152 48.2756 125.891L45.8999 124.63L48.2756 123.368C50.6513 122.107 52.468 120.145 53.7257 117.902L54.9834 115.52L56.2411 117.902C57.4989 120.145 59.3156 122.107 61.6913 123.368Z"
      fill="white"
    />
    <path
      d="M351.762 202.384L354.138 203.645L351.762 204.907C349.386 206.168 347.57 208.13 346.312 210.373L345.054 212.755L343.796 210.373C342.539 207.99 340.582 206.168 338.346 204.907L335.971 203.645L338.346 202.384C340.722 201.122 342.539 199.16 343.796 196.918L345.054 194.535L346.312 196.918C347.57 199.16 349.386 201.122 351.762 202.384Z"
      fill="#054742"
    />
    <path
      d="M39.5065 114.374L40.904 115.215L39.5065 116.056C38.1091 116.897 36.8513 118.018 36.0129 119.56L35.1744 120.961L34.3359 119.56C33.4975 118.158 32.3795 116.897 30.8423 116.056L29.4448 115.215L30.8423 114.374C32.2397 113.533 33.4975 112.412 34.3359 110.87L35.1744 109.469L36.0129 110.87C36.8513 112.412 38.1091 113.673 39.5065 114.374Z"
      fill="#054742"
    />
    <path
      d="M157.282 37.9581C158.159 39.5677 159.478 40.8999 160.968 41.6521L161.637 42.0549L160.952 42.4674C159.503 43.3392 158.174 44.5165 157.282 46.1516L156.878 46.8273L156.468 46.143C155.599 44.6903 154.425 43.3569 152.795 42.4622L152.118 42.0549L152.803 41.6424C154.252 40.7706 155.581 39.5933 156.473 37.9582L156.878 37.2825L157.282 37.9581Z"
      fill="white"
      stroke="#054742"
    />
    <path
      d="M347.925 103.845C348.955 105.734 350.502 107.295 352.245 108.175L353.168 108.73L352.229 109.295C350.527 110.32 348.969 111.7 347.925 113.615L347.369 114.545L346.808 113.606C345.786 111.899 344.41 110.337 342.5 109.29L341.57 108.73L342.509 108.165C344.211 107.141 345.769 105.76 346.813 103.845L347.369 102.915L347.925 103.845Z"
      fill="white"
      stroke="#054742"
    />
    <path
      d="M361.158 187.948L362.556 188.789L361.158 189.63C359.761 190.471 358.503 191.592 357.665 193.134L356.826 194.536L355.988 193.134C355.149 191.733 354.031 190.471 352.494 189.63L351.097 188.789L352.494 187.948C353.892 187.107 355.149 185.986 355.988 184.445L356.826 183.043L357.665 184.445C358.503 185.986 359.761 187.248 361.158 187.948Z"
      fill="#054742"
    />
    <path
      d="M57.6626 70.3327C60.3481 75.0168 64.8944 78.5569 70.1436 80.0517C71.1141 80.3295 72.1047 80.5312 73.1064 80.6549C75.5782 80.9561 77.8977 80.7337 79.8127 80.0005C81.7276 79.2673 83.1713 77.6108 83.7745 75.4473C84.3927 73.2286 84.0102 70.8625 82.7739 69.2715C80.1339 65.8725 75.7581 65.7621 73.053 67.6157C70.3667 69.4607 68.9364 73.3571 69.4877 77.3198C69.9637 77.4964 70.4578 77.6581 70.9558 77.7992C71.321 77.9009 71.7114 77.9931 72.1159 78.0736C71.6085 76.1498 71.5818 74.4113 72.0374 72.9038C72.3394 71.8835 72.8889 70.9543 73.6366 70.1994C74.5501 69.2793 75.9458 68.7219 77.2803 68.744C77.8927 68.7508 78.4971 68.8844 79.0557 69.1365C79.6143 69.3886 80.1151 69.7537 80.5267 70.2089C81.3208 71.062 81.7881 72.3164 81.7881 73.5511C81.7881 73.6701 81.7881 73.7876 81.7748 73.9059C81.708 74.8126 81.3506 76.1135 80.0334 77.1637C77.7013 79.0228 73.767 78.5135 72.1835 78.2084C71.7436 78.1232 71.3194 78.0239 70.9267 77.9127C70.4138 77.7676 69.9056 77.5973 69.4155 77.4184C65.3162 75.8912 61.9347 73.0465 59.6333 69.1902L57.6626 70.3327Z"
      fill="#054742"
    />
    <path
      d="M83.8631 92.4087C84.861 92.6946 85.8794 92.9028 86.9091 93.0315C89.4163 93.339 91.6313 93.0946 93.4929 92.3054C94.4907 91.8853 95.3777 91.2385 96.0842 90.4158C96.7906 89.5931 97.2972 88.6171 97.564 87.5645C98.1193 85.4215 97.7053 83.1831 96.4572 81.5763C93.8165 78.1773 89.4407 78.0662 86.7356 79.9206C85.4066 80.8336 84.3627 82.2189 83.7162 83.929C83.0604 85.6636 82.8624 87.6142 83.1421 89.5719C83.6281 89.7601 84.1239 89.9217 84.6274 90.0559C84.991 90.1506 85.3806 90.2365 85.7844 90.3138C85.2785 88.3939 85.2542 86.6586 85.7113 85.155C86.0147 84.1369 86.5643 83.21 87.3113 82.457C88.224 81.5377 89.6206 80.9802 90.9551 81.0023C91.5674 81.0092 92.1717 81.1427 92.7303 81.3947C93.2889 81.6466 93.7897 82.0114 94.2014 82.4664C94.9947 83.3203 95.462 84.5747 95.462 85.8094C95.462 85.9285 95.4581 86.046 95.4487 86.165C95.3819 87.0709 95.0245 88.3726 93.7081 89.4213C91.5088 91.1755 87.8423 90.8168 85.8535 90.4462C85.4144 90.3674 84.9895 90.272 84.5967 90.1703C84.0778 90.0313 83.5668 89.8642 83.0659 89.6696C81.3041 88.9955 78.6963 87.7064 77.1443 86.2896C75.0785 84.4052 73.9678 82.9048 73.0599 80.7705C72.1008 80.65 71.152 80.4584 70.2212 80.1973C71.1158 82.7897 72.2634 84.8199 75.6189 87.991C77.588 89.8517 80.6702 91.5035 83.8631 92.4087Z"
      fill="white"
    />
    <path
      d="M92.3293 98.0892C89.8748 96.9924 88.0368 95.3296 86.8641 93.1425C85.878 93.0175 84.9025 92.8198 83.9453 92.5512C85.0183 95.2572 86.9083 97.5582 89.3501 99.1315C92.1126 100.924 95.5034 101.838 99.4299 101.848L99.4299 99.5044C96.8411 99.4973 94.3865 99.0061 92.3293 98.0892Z"
      fill="white"
    />
    <path
      d="M369.347 127.757C367.201 131.5 363.568 134.329 359.373 135.523C358.598 135.745 357.806 135.906 357.006 136.005C355.031 136.246 353.177 136.068 351.647 135.482C350.117 134.896 348.963 133.573 348.481 131.844C347.987 130.071 348.293 128.18 349.281 126.909C351.39 124.193 354.887 124.105 357.049 125.586C359.195 127.06 360.338 130.174 359.898 133.34C359.517 133.481 359.122 133.611 358.724 133.723C358.433 133.805 358.121 133.878 357.797 133.943C358.203 132.405 358.224 131.016 357.86 129.812C357.619 128.996 357.18 128.254 356.582 127.651C355.852 126.915 354.737 126.47 353.671 126.488C353.181 126.493 352.698 126.6 352.252 126.801C351.806 127.003 351.406 127.294 351.077 127.658C350.442 128.34 350.069 129.342 350.069 130.329C350.069 130.424 350.069 130.518 350.079 130.612C350.133 131.337 350.418 132.376 351.471 133.216C353.334 134.701 356.478 134.294 357.743 134.05C358.095 133.982 358.434 133.903 358.748 133.814C359.158 133.698 359.564 133.562 359.955 133.419C363.231 132.199 365.933 129.926 367.772 126.844L369.347 127.757Z"
      fill="white"
    />
    <path
      d="M348.411 145.399C347.613 145.628 346.8 145.794 345.977 145.897C343.973 146.143 342.203 145.948 340.716 145.317C339.918 144.981 339.21 144.464 338.645 143.807C338.081 143.15 337.676 142.37 337.463 141.529C337.019 139.816 337.35 138.028 338.347 136.744C340.457 134.028 343.954 133.939 346.115 135.421C347.177 136.15 348.011 137.257 348.528 138.624C349.052 140.01 349.21 141.568 348.987 143.133C348.598 143.283 348.202 143.412 347.8 143.52C347.509 143.595 347.198 143.664 346.875 143.726C347.28 142.191 347.299 140.805 346.934 139.603C346.691 138.79 346.252 138.049 345.655 137.447C344.926 136.713 343.81 136.267 342.744 136.285C342.254 136.291 341.771 136.397 341.325 136.599C340.879 136.8 340.479 137.091 340.15 137.455C339.516 138.137 339.142 139.14 339.142 140.126C339.142 140.221 339.145 140.315 339.153 140.41C339.206 141.134 339.492 142.174 340.544 143.012C342.301 144.414 345.231 144.127 346.82 143.831C347.171 143.768 347.511 143.692 347.824 143.611C348.239 143.5 348.647 143.366 349.048 143.211C350.456 142.672 352.539 141.642 353.779 140.51C355.43 139.004 356.318 137.805 357.043 136.1C357.81 136.003 358.568 135.85 359.312 135.642C358.597 137.713 357.68 139.336 354.998 141.87C353.425 143.356 350.962 144.676 348.411 145.399Z"
      fill="white"
    />
    <path
      d="M341.645 149.938C343.607 149.062 345.075 147.733 346.012 145.985C346.8 145.885 347.58 145.728 348.345 145.513C347.487 147.675 345.977 149.514 344.026 150.771C341.819 152.204 339.109 152.934 335.971 152.941L335.971 151.069C338.04 151.063 340.001 150.671 341.645 149.938Z"
      fill="white"
    />
    <path
      d="M247.578 21.5039C244.344 23.3673 241.901 26.5217 240.869 30.164C240.677 30.8374 240.538 31.5247 240.452 32.2198C240.244 33.9349 240.398 35.5443 240.904 36.873C241.41 38.2017 242.554 39.2034 244.047 39.622C245.579 40.0509 247.212 39.7855 248.311 38.9277C250.657 37.0959 250.733 34.0597 249.454 32.1827C248.18 30.3188 245.49 29.3263 242.755 29.7089C242.633 30.0392 242.521 30.382 242.424 30.7275C242.353 30.981 242.29 31.2518 242.234 31.5325C243.562 31.1804 244.762 31.1619 245.803 31.478C246.507 31.6876 247.149 32.0688 247.67 32.5876C248.305 33.2215 248.69 34.1899 248.675 35.1159C248.67 35.5408 248.578 35.9602 248.404 36.3478C248.23 36.7354 247.978 37.0828 247.663 37.3684C247.074 37.9194 246.209 38.2437 245.356 38.2437C245.274 38.2437 245.193 38.2437 245.111 38.2344C244.485 38.1881 243.587 37.9401 242.862 37.0261C241.579 35.408 241.93 32.6781 242.141 31.5794C242.2 31.2742 242.268 30.9799 242.345 30.7074C242.445 30.3515 242.563 29.9989 242.686 29.6588C243.741 26.8144 245.705 24.4682 248.367 22.8713L247.578 21.5039Z"
      fill="white"
    />
    <path
      d="M232.339 39.6844C232.141 40.3768 231.997 41.0834 231.909 41.7979C231.696 43.5375 231.865 45.0744 232.41 46.3661C232.7 47.0584 233.146 47.6739 233.714 48.1641C234.282 48.6543 234.956 49.0057 235.683 49.1908C237.162 49.5762 238.707 49.2889 239.817 48.4229C242.163 46.5906 242.24 43.5544 240.96 41.6774C240.329 40.7553 239.373 40.031 238.192 39.5824C236.995 39.1274 235.648 38.99 234.297 39.184C234.167 39.5213 234.055 39.8653 233.963 40.2146C233.897 40.467 233.838 40.7373 233.785 41.0174C235.11 40.6665 236.308 40.6496 237.346 40.9668C238.049 41.1772 238.689 41.5586 239.209 42.0769C239.843 42.7102 240.228 43.6792 240.213 44.6052C240.208 45.0301 240.116 45.4494 239.942 45.837C239.768 46.2245 239.516 46.572 239.202 46.8577C238.613 47.4081 237.747 47.7324 236.894 47.7324C236.812 47.7324 236.731 47.7297 236.649 47.7232C236.023 47.6768 235.125 47.4289 234.401 46.5154C233.19 44.9894 233.438 42.4453 233.693 41.0654C233.748 40.7607 233.814 40.4659 233.884 40.1934C233.98 39.8333 234.095 39.4787 234.229 39.1312C234.695 37.9087 235.585 36.0993 236.563 35.0224C237.864 33.589 238.899 32.8184 240.373 32.1884C240.456 31.523 240.588 30.8646 240.768 30.2188C238.979 30.8395 237.577 31.6358 235.388 33.964C234.104 35.3303 232.963 37.4689 232.339 39.6844Z"
      fill="white"
    />
    <path
      d="M228.416 45.5556C229.173 43.8525 230.321 42.5772 231.831 41.7635C231.917 41.0793 232.053 40.4024 232.239 39.7383C230.371 40.4828 228.782 41.7942 227.696 43.4884C226.459 45.4052 225.828 47.758 225.821 50.4825H227.439C227.444 48.6861 227.783 46.983 228.416 45.5556Z"
      fill="white"
    />
    <path
      d="M371.674 90.2284C371.91 90.1913 372.156 90.1394 372.417 90.0849C373.175 89.9265 374.034 89.7478 374.931 89.916C376.094 90.1339 376.866 90.697 377.879 92.065C378.249 92.5642 379.378 94.0853 381.449 94.707C382.996 95.1711 384.865 94.818 385.597 94.646L385.865 94.5816C386.667 94.3907 387.68 94.1406 388.72 94.3764C389.858 94.6341 391.109 95.6538 392.243 97.2456C392.254 97.2613 392.268 97.2744 392.285 97.2839C392.301 97.2934 392.32 97.2991 392.339 97.3007C392.358 97.3023 392.377 97.2996 392.395 97.293C392.413 97.2863 392.429 97.2757 392.443 97.262C392.456 97.248 392.467 97.231 392.472 97.2123L395.389 88.7767C395.396 88.7569 395.399 88.7355 395.396 88.7146C395.393 88.6936 395.385 88.6737 395.373 88.6565C394.202 87.0128 392.902 85.9512 391.695 85.6852C390.59 85.4336 389.548 85.6875 388.71 85.8922L388.455 85.9541C387.74 86.121 385.923 86.464 384.445 86.0243C382.461 85.4295 381.372 83.9553 381.01 83.4747C379.968 82.0672 379.124 81.4573 377.896 81.2273C376.948 81.0481 376.06 81.2344 375.27 81.393C375.017 81.4449 374.777 81.4956 374.551 81.5301C373.154 81.7448 371.488 81.756 369.712 80.2168C369.696 80.2023 369.677 80.1922 369.656 80.1873C369.635 80.1824 369.613 80.1829 369.592 80.1888C369.572 80.1956 369.554 80.207 369.539 80.2221C369.524 80.2373 369.512 80.2557 369.506 80.276L366.589 88.7116C366.58 88.7365 366.579 88.7634 366.586 88.7889C366.593 88.8143 366.608 88.837 366.628 88.854C368.496 90.4722 370.306 90.4367 371.674 90.2284Z"
      fill="#054742"
    />
    <path
      d="M120.41 30.4805C120.26 30.6672 120.113 30.8715 119.957 31.0877C119.503 31.716 118.987 32.4277 118.211 32.9085C117.204 33.5321 116.255 33.6366 114.588 33.3078C113.979 33.1882 112.123 32.8248 110.174 33.7622C108.717 34.4628 107.572 35.9848 107.146 36.6056L106.991 36.8341C106.526 37.5164 105.945 38.385 105.017 38.9119C104.002 39.4895 102.392 39.5793 100.486 39.1663C100.467 39.1622 100.448 39.1622 100.429 39.1664C100.41 39.1705 100.393 39.1788 100.377 39.1905C100.362 39.2022 100.35 39.2172 100.341 39.2342C100.332 39.2513 100.327 39.2701 100.326 39.2893C100.326 39.3089 100.33 39.3283 100.338 39.346L103.842 47.5537C103.85 47.5733 103.863 47.5906 103.879 47.6042C103.895 47.6177 103.915 47.6271 103.935 47.6315C105.904 48.0578 107.579 47.9654 108.65 47.3482C109.637 46.7887 110.237 45.8981 110.719 45.1814L110.867 44.9631C111.283 44.3577 112.397 42.8783 113.785 42.2063C115.652 41.3075 117.448 41.663 118.038 41.7747C119.753 42.1127 120.787 41.9943 121.849 41.3362C122.671 40.8293 123.203 40.092 123.681 39.4419C123.833 39.2326 123.977 39.0333 124.121 38.8552C125.01 37.7541 126.234 36.6219 128.581 36.5623C128.603 36.5622 128.624 36.5566 128.643 36.5461C128.662 36.5355 128.678 36.5204 128.689 36.502C128.699 36.4834 128.705 36.4626 128.706 36.4413C128.707 36.42 128.703 36.3988 128.694 36.3793L125.19 28.1717C125.179 28.1473 125.162 28.1267 125.14 28.1126C125.118 28.0985 125.092 28.0915 125.065 28.0925C122.598 28.1556 121.282 29.4033 120.41 30.4805Z"
      fill="white"
    />
    <path
      d="M190.343 27.0405C190.343 29.4588 188.388 31.417 185.979 31.417C183.57 31.417 181.615 29.4588 181.615 27.0405C181.615 24.6223 183.57 22.6641 185.979 22.6641C188.388 22.6641 190.343 24.6223 190.343 27.0405Z"
      fill="white"
      stroke="#054742"
    />
    <path
      d="M343.251 76.3747C343.251 78.2009 341.774 79.6791 339.956 79.6791C338.137 79.6791 336.661 78.2009 336.661 76.3747C336.661 74.5485 338.137 73.0703 339.956 73.0703C341.774 73.0703 343.251 74.5485 343.251 76.3747Z"
      fill="white"
      stroke="#054742"
    />
    <path
      d="M299.968 72.2969V71.7719H299.443H297.143C290.445 71.7719 285.158 67.1325 285.158 61.5682V37.7873C285.158 32.223 290.445 27.5836 297.143 27.5836H324.878C331.576 27.5836 336.863 32.223 336.863 37.7873V61.5682C336.863 67.1325 331.576 71.7719 324.878 71.7719H311.998H311.851L311.725 71.8486L299.968 79.0138V72.2969Z"
      fill="#FEFEFE"
      stroke="#054742"
      strokeWidth="1.05006"
    />
    <path
      d="M312.836 36.7503L315.606 42.162C315.858 42.7633 316.487 43.1241 317.117 43.2443L323.412 44.0862C325.048 44.3267 325.678 46.2508 324.545 47.3332L320.012 51.5423C319.509 52.0233 319.383 52.6246 319.383 53.2259L320.516 59.2389C320.768 60.8023 319.131 62.0049 317.62 61.2833L311.955 58.3971C311.325 58.1566 310.696 58.1566 310.066 58.3971L304.4 61.2833C302.89 62.0049 301.253 60.8023 301.505 59.2389L302.638 53.2259C302.764 52.6246 302.512 52.0233 302.008 51.5423L297.476 47.3332C296.343 46.2508 296.972 44.3267 298.609 44.0862L304.904 43.2443C305.534 43.1241 306.163 42.7633 306.415 42.162L309.185 36.7503C309.94 35.3072 312.08 35.3072 312.836 36.7503Z"
      fill="#DBECE4"
      stroke="#064944"
      strokeMiterlimit="10"
      strokeLinecap="round"
      strokeLinejoin="round"
    />
    <defs>
      <clipPath id="clip0_9804_60504">
        <rect
          width="84.6537"
          height="84.87"
          fill="white"
          transform="translate(68.7046 140.219)"
        />
      </clipPath>
    </defs>
  </svg>