<svg width="100" height="41" viewBox="0 0 100 41" fill="none" xmlns="http://www.w3.org/2000/svg">
<path fill-rule="evenodd" clip-rule="evenodd" d="M92.8062 18.8025H88.8821V3.53283H92.5757V5.24203C93.0373 4.21678 94.1917 3.3053 95.6918 3.19086C98.2317 3.07709 99.9629 4.55876 99.9629 7.74894V18.8025H95.9229V7.29388C95.9229 5.92598 95.9229 4.78629 94.9997 4.55876C94.6533 4.44499 94.0765 4.55876 93.6142 4.90005C93.0373 5.47024 92.8062 6.15351 92.8062 7.29388C92.8062 7.52141 92.8062 18.8025 92.8062 18.8025ZM26.0917 4.55876C27.8229 5.92598 28.7462 8.43289 28.7462 11.168C28.7462 14.0169 27.8229 16.4094 26.0917 17.7773C25.1685 18.575 24.0141 19.1445 22.6286 19.1445C21.2437 19.1445 20.2046 18.575 19.1661 17.7773C17.5501 16.4094 16.5117 14.0169 16.5117 11.168C16.5117 8.43289 17.5501 5.92598 19.1661 4.55876C20.2046 3.76104 21.2437 3.19086 22.6286 3.19086C24.0141 3.19086 25.1685 3.76104 26.0917 4.55876ZM24.5909 11.168C24.5909 8.43289 24.7069 6.03974 24.1293 4.90005C23.783 4.33055 23.4366 3.98857 22.6286 3.98857C21.9365 3.98857 21.4749 4.33055 21.2437 4.90005C20.6669 6.03974 20.6669 8.43289 20.6669 11.168C20.6669 14.0169 20.6669 16.2956 21.2437 17.4353C21.4749 18.0055 21.9365 18.3474 22.6286 18.3474C23.4366 18.3474 23.783 18.0055 24.1293 17.4353C24.5909 16.2956 24.5909 14.0169 24.5909 11.168ZM66.3749 24.6147V28.7171H65.5669C65.1053 27.0079 64.4125 25.5269 62.5654 25.4124C61.4117 25.2987 60.3725 25.9819 60.2573 27.0079C60.1421 28.0331 60.4878 28.9446 62.5654 30.0843C65.2205 31.5659 67.2981 32.2499 67.2981 35.3263C67.2981 38.6309 64.4125 40.2264 61.9885 40.2264C60.9494 40.2264 57.3717 40.2264 57.3717 40.2264V34.5286H58.1797C58.7565 37.4919 59.6798 39.3149 61.8733 39.4286C63.2581 39.4286 64.2966 38.6309 64.2966 37.1493C64.2966 35.6683 63.3734 34.7568 61.1805 33.5033C58.7565 32.0217 57.2565 31.1102 57.2565 29.059C57.2565 26.3239 59.2181 24.6147 62.3342 24.6147C63.3734 24.6147 66.3749 24.6147 66.3749 24.6147ZM71.4533 18.8025H67.5286V7.29388C67.5286 5.92598 67.4133 4.78629 66.4901 4.55876C66.1437 4.44499 65.6821 4.55876 65.2205 4.90005C64.643 5.47024 64.4125 6.15351 64.4125 7.18011V18.8025H60.4878V7.29388C60.4878 5.92598 60.4878 4.78629 59.5645 4.55876C59.2181 4.44499 58.7565 4.55876 58.2949 4.90005C57.6022 5.47024 57.4869 6.15351 57.4869 7.29388C57.4869 7.63585 57.4869 18.8025 57.4869 18.8025H53.5629V3.53283H57.1405V5.24203C57.6022 4.21678 58.7565 3.3053 60.2573 3.19086C62.1037 3.07709 63.3734 3.76104 63.9502 5.35647C64.4125 4.44499 65.451 3.3053 67.1822 3.19086C69.7221 3.07709 71.4533 4.55876 71.4533 7.74894V18.8025ZM31.4013 18.8032V0.342652H35.4413V18.8032H31.4013ZM49.754 18.8025H45.9445V17.3215C45.5981 18.1192 44.6749 19.0307 43.0589 19.0307C39.0189 19.0307 37.9805 13.9031 38.0957 10.826C38.211 6.26795 40.5197 3.3053 43.4053 3.3053C44.5597 3.3053 45.3677 3.87481 45.7134 4.67252V0.342652H49.754V18.8025ZM45.0213 4.78629C44.6749 4.44499 44.4438 4.21678 43.8669 4.21678C42.3662 4.21678 42.1357 7.63585 42.1357 10.7123C42.1357 12.5352 42.1357 14.2444 42.2509 15.6123C42.4821 17.094 42.9437 18.0055 43.7517 18.0055C44.3285 18.0055 44.6749 17.7773 45.0213 17.3215C45.9445 16.0681 45.8293 13.1047 45.8293 10.826C45.8293 8.6611 45.8293 5.92598 45.0213 4.78629ZM83.4573 3.98857C84.4965 4.55876 85.1885 5.47024 85.1885 7.52141V18.8025H81.3797V17.094C80.9181 18.3474 79.6485 19.1445 77.9166 19.1445C76.5317 19.1445 74.1078 18.4612 74.1078 14.9284C74.1078 11.6237 76.3013 10.9398 78.7253 9.91455C80.9181 9.00307 81.1486 8.88863 81.1486 7.97715C81.1486 7.18011 81.1486 6.49548 81.1486 5.47024C81.1486 4.44499 80.5717 3.98857 79.4173 3.98857C78.9564 4.10234 78.1477 4.33055 78.1477 4.90005C78.0318 5.584 78.8398 5.584 78.9564 6.60993C79.071 8.20536 77.8013 8.77486 76.6477 8.6611C75.8397 8.6611 74.9158 8.20536 74.8005 6.9519C74.6853 4.90005 76.9934 3.19086 80.2253 3.19086C81.7261 3.19086 82.6493 3.53283 83.4573 3.98857ZM81.1486 9.68634L79.879 10.4841C78.61 11.2818 78.3782 12.3077 78.263 13.4474C78.1477 14.3582 78.1477 15.1566 78.263 16.5238C78.3782 17.7773 79.1869 18.0055 79.879 17.7773C80.6876 17.4353 81.1486 15.9543 81.1486 14.3582C81.1486 14.3582 81.1486 10.2565 81.1486 9.68634ZM26.3222 25.2987C27.3613 25.9819 27.9388 26.7797 27.9388 28.8308V40.2264H24.2453V38.5172C23.783 39.6569 22.514 40.4546 20.7821 40.4546C19.2814 40.4546 16.9726 39.8844 16.9726 36.3522C16.9726 33.0476 19.1661 32.3637 21.4749 31.3377C23.783 30.3125 24.0141 30.1987 24.0141 29.401C24.0141 28.6033 24.0141 27.9193 24.0141 26.8941C24.0141 25.7544 23.4366 25.2987 22.2829 25.4124C21.8206 25.4124 21.0133 25.6406 21.0133 26.2101C20.8974 27.0079 21.7053 27.0079 21.8206 28.0331C21.9365 29.5148 20.6669 30.0843 19.5125 30.0843C18.7045 29.9705 17.7813 29.5148 17.6654 28.2606C17.5501 26.3239 19.8589 24.6147 23.0902 24.6147C24.5909 24.6147 25.5142 24.8429 26.3222 25.2987ZM24.0141 30.9958L22.7445 31.7935C21.4749 32.5919 21.2437 33.6171 21.1285 34.7568C21.0133 35.6683 21.0133 36.5798 21.1285 37.8332C21.1285 39.2011 21.9365 39.4286 22.6286 39.0867C23.5525 38.7454 24.0141 37.3782 24.0141 35.6683C24.0141 35.6683 24.0141 31.5659 24.0141 30.9958ZM54.2549 29.1728V40.2264H50.2156V28.7171C50.2156 27.3492 50.2156 26.2101 49.2917 25.9819C48.9454 25.8682 48.3685 25.9819 47.9062 26.3239C47.3294 26.8941 47.0989 27.5774 47.0989 28.7171V40.2264H43.1742V36.124C42.4821 38.0614 40.0581 40.4546 37.2877 40.4546C34.8637 40.4546 30.5933 39.3149 30.5933 32.7056C30.5933 26.5514 34.7485 24.6147 36.9413 24.6147C38.6733 24.6147 39.8269 25.0705 40.5197 26.2101C41.0966 27.1216 41.2125 28.6033 40.4045 29.5148C39.3653 30.54 37.1718 30.3125 36.8261 28.9446C36.4797 27.6911 37.1718 27.1216 37.6341 26.5514C38.0957 26.0957 37.9805 25.4124 36.9413 25.4124C35.5565 25.4124 35.0949 26.8941 34.8637 28.7171C34.6333 31.5659 34.6333 34.1866 34.979 36.466C35.2101 38.0614 35.6717 39.5424 37.6341 39.5424C40.4045 39.6569 43.1742 36.0103 43.1742 32.1361V21.6521H47.0989V26.0957C47.6757 25.2987 48.7149 24.7285 49.9845 24.6147C52.5237 24.3865 54.2549 25.9819 54.2549 29.1728ZM13.8565 0V6.49548H13.0485C12.3558 3.3053 10.8557 0.911481 8.77811 0.797715C7.39327 0.683949 6.58527 1.48166 5.89251 2.62135C5.20043 3.98857 4.85337 6.83746 4.85337 10.2565C4.85337 13.4474 4.96928 15.8399 5.31498 17.549C5.54613 18.3474 6.12366 19.6009 7.62373 19.6009C8.43173 19.6009 9.00926 19.3727 9.35496 18.9169C9.93249 18.233 10.0477 16.8658 10.0477 15.9543C10.0477 14.4726 10.0477 14.0169 10.0477 12.8772C10.0477 11.7382 9.70202 11.0542 9.12449 10.7123C8.66288 10.4841 7.97011 10.4841 7.62373 10.3703V9.57258H14.0877V25.8682H13.279C12.9333 24.6147 12.7029 23.7026 12.1253 22.6773C11.5485 21.6521 10.5093 20.5124 8.77811 20.5124C6.93097 20.3986 5.54613 21.5383 5.54613 23.2468C5.54613 25.5269 6.93097 26.0957 9.47019 27.4636C11.8949 28.8308 15.0109 29.9705 15.0109 33.9591C15.0109 37.8332 11.6637 40.2264 7.85488 40.2264C7.04689 40.2264 1.7373 40.2264 1.7373 40.2264V32.3637H2.5453C3.58376 38.289 6.12366 39.3149 7.85488 39.3149C10.0477 39.3149 11.0862 37.9477 11.0862 36.0103C10.9709 33.5033 9.23972 32.5919 6.81574 31.3377C3.35329 29.401 1.7373 28.4888 1.7373 25.2987C1.85253 22.5635 4.04606 20.8544 6.46936 20.1704C1.39092 19.6009 -0.109153 15.0428 0.00607897 10.1421C0.00607897 5.24203 2.89168 0 8.54696 0C11.0862 0 13.8565 0 13.8565 0Z" fill="#272727"/>
</svg>
