<svg width="52" height="32" viewBox="0 0 52 32" fill="none" xmlns="http://www.w3.org/2000/svg">
<g clip-path="url(#clip0)">
<path fill-rule="evenodd" clip-rule="evenodd" d="M16.0143 32C7.17254 32 0.00488281 24.8367 0.00488281 15.9999C0.00488281 7.16307 7.17254 0 16.0143 0C17.1658 0 18.2884 0.123712 19.371 0.35456L22.9435 7.4583C21.0886 6.21485 18.8674 5.44723 16.4445 5.36352C16.2978 5.35808 16.1504 5.3552 16.0022 5.3552V5.35661C10.1227 5.3632 5.35847 10.1527 5.35847 16.0303C5.35847 21.9121 10.1293 26.7113 16.0143 26.7113C20.9883 26.7113 25.166 23.0615 26.3404 18.7617H14.9778V13.2333H25.8971L30.5832 22.5946C28.0592 28.1165 22.4854 32 16.0143 32Z" fill="#272727"/>
<path fill-rule="evenodd" clip-rule="evenodd" d="M35.7614 31.9101L32.6528 25.7433L45.3607 0.333984H51.6071L35.7614 31.9101Z" fill="#272727"/>
</g>
<defs>
<clipPath id="clip0">
<rect width="51.6129" height="32" fill="white"/>
</clipPath>
</defs>
</svg>
