<svg width="58" height="40" fill="none" xmlns="http://www.w3.org/2000/svg">
  <path
    d="m32 26 2 2v4M15 20V7h12M17 22l1-1h3v4h-4v-3ZM20 25h5v3l-1 1h-4v-4Z"
    stroke="#054742"
    stroke-miterlimit="10"
    stroke-linecap="round"
    stroke-linejoin="round"
  />
  <path
    d="M24 29v-1h4v4h-4v-3ZM27 32h4v3h-4v-3ZM35 23l3 2v4h-3M38 25h4v-3l-10-9"
    stroke="#054742"
    stroke-miterlimit="10"
    stroke-linecap="round"
    stroke-linejoin="round"
  />
  <path
    d="m32 13-6 5h-3a2 2 0 0 1 0-4l5-5c2-2 3-2 5-2h10v13"
    stroke="#054742"
    stroke-miterlimit="10"
    stroke-linecap="round"
    stroke-linejoin="round"
  />
  <path
    d="M49 24c-2 0-3-1-3-2V7c0-2 1-3 3-3 1 0 2 1 2 3v15l-2 2ZM11 24H7V4h4l1 1v18l-1 1Z"
    fill="#DBECE4"
    stroke="#054742"
    stroke-miterlimit="10"
    stroke-linecap="round"
    stroke-linejoin="round"
  />
</svg>