<svg width="36" height="42" fill="none" xmlns="http://www.w3.org/2000/svg">
  <path d="M12 19v4h22V10L23 1l-11 9v4" fill="#DBECE4" />
  <path
    d="M12 19v4h22V10L23 1l-11 9v4"
    stroke="#064944"
    stroke-miterlimit="10"
    stroke-linecap="round"
    stroke-linejoin="round"
  />
  <path
    d="M25 21v2h-4v-7h4v2M28 31l3-2c1-1 3-1 3 1h0v3l-6 5h-2l-11 3h-3l-7-5-2-1H1v-9l6-1 3 1 4 1 1 1 8 1 2 2c0 2-1 3-2 3h-9"
    stroke="#064944"
    stroke-miterlimit="10"
    stroke-linecap="round"
    stroke-linejoin="round"
  />
</svg>