<svg xmlns="http://www.w3.org/2000/svg" width="28" height="28" viewBox="0 0 28 28"><title>icon_tree</title><path d="M9.335,19.8l.4-5.606-3.8-.948A.25.25,0,0,1,5.75,13V10h.5v2.805l3.811.952a.252.252,0,0,1,.189.261L9.251,28h5.5l-1-18.984.5-.026.3,5.738,3.2-.913V11h.5v3a.249.249,0,0,1-.181.24l-3.49,1,.239,4.541C20.494,18.873,24,15.25,24,11c0-2.676-1.051-6-5-6a2.711,2.711,0,0,1-3-2.5C15.6.661,13.729,0,12,0,4.449,0,0,5.154,0,11,0,15.277,3.672,18.921,9.335,19.8ZM10.25,9v3h-.5V9Z" fill="#054742"/></svg>