<svg xmlns="http://www.w3.org/2000/svg" width="28" height="28" viewBox="0 0 28 28"><title>icon_giving-money</title><path d="M13.25,0H10V3.25A3.279,3.279,0,0,0,13.25,0Z" fill="#054742"/><path d="M20.25,0l.25,0h-7l.25,0A3.775,3.775,0,0,1,10,3.75l0-.25V9.381c-1.495,1.4-5.157,4.84-6.478,6.282C2.157,17.152.01,20.219,0,23v5H10.747l3.674-3.916c0-.027,0-.057,0-.084-.01-.173-.028-.331-.043-.5a11.973,11.973,0,0,0-1.07-4.264,5.075,5.075,0,0,0-3.286-2.982l-.019,0-.056-.01.056-.3.036-.191.075.014a1.855,1.855,0,0,0,1.4-.4,4.349,4.349,0,0,0,1.2-3.13c.012-.158.019-.323.024-.491,0-.128.011-.252.011-.385s.02-.226.026-.342C12.911,8.417,14.529,6.75,17,6.75a4.25,4.25,0,0,1,0,8.5,4,4,0,0,1-2.352-.742c-.05-.034-.1-.058-.15-.095l.148-.2h0l.148-.2A3.552,3.552,0,0,0,17,14.75a3.75,3.75,0,0,0,0-7.5c-2.765,0-3.75,2.121-3.75,4.105a11.689,11.689,0,0,1-.08,1.389,6.215,6.215,0,0,1-.487,1.869c-.013.027-.029.05-.042.077a3.072,3.072,0,0,1-.825,1.069,2.412,2.412,0,0,1-.69.384,5.954,5.954,0,0,1,2.314,2.29,10.457,10.457,0,0,1,1.25,3.576A17.264,17.264,0,0,1,14.918,24H20.5l-.25,0A3.775,3.775,0,0,1,24,20.25l0,.25V3.5l0,.25A3.775,3.775,0,0,1,20.25,0Z" fill="#054742"/><path d="M20.75,0A3.279,3.279,0,0,0,24,3.25V0Z" fill="#054742"/><path d="M20.75,24H24V20.75A3.279,3.279,0,0,0,20.75,24Z" fill="#054742"/></svg>