<svg xmlns="http://www.w3.org/2000/svg" viewBox="0 0 28 28"><defs><style>.a{fill:#054742;}</style></defs><title>icon_person-not-risk</title><path class="a" d="M24,8.61a1.51,1.51,0,0,0-1.45,1.24c-.31,1.45-1.22,5.82-1.22,5.82s-5.64-10-7.49-13.32A1.49,1.49,0,0,0,11,3a1.81,1.81,0,0,0,.21.73c.06.12.2.48.21.49l.22-.12,4.59,8.54-.44.24L11.2,4.38l.22-.12S9.64,1.63,9.07.74A1.55,1.55,0,0,0,7.8,0,1.52,1.52,0,0,0,6.29,1.52a1.82,1.82,0,0,0,.19.7c.13.31.48,1.23.48,1.23L5.76,2A1.66,1.66,0,0,0,4.49,1.2,1.52,1.52,0,0,0,3,2.72a1.55,1.55,0,0,0,.17.67L5.63,8.24l-.36-.41A1.67,1.67,0,0,0,4,7.09,1.51,1.51,0,0,0,2.5,8.61a1.49,1.49,0,0,0,.19.7c1.74,3.46,5.14,10.31,6.9,13.86a8.34,8.34,0,0,0,15.9-3.58c0-.16,0-7.09,0-9.46A1.51,1.51,0,0,0,24,8.61Zm-14.14,8L5.44,8.36l.44-.24,4.41,8.2ZM12.4,14,6.76,3.56l.44-.23L12.85,13.8Zm8.43,4a3.88,3.88,0,0,0-3,.55,4,4,0,0,0-1.73,2.53l-.49-.1a4.49,4.49,0,0,1,1.95-2.85,4.4,4.4,0,0,1,3.35-.62Z"/></svg>