<svg viewBox="0 0 26.92 15.7" xmlns="http://www.w3.org/2000/svg"><g fill="#054742"><path d="m26.91 4.18a4.21 4.21 0 0 1 -4.17-4.18h-18.56a4.22 4.22 0 0 1 -4.18 4.18v7.35a4.2 4.2 0 0 1 4.18 4.17h18.56a4.2 4.2 0 0 1 4.17-4.17zm-13.45 8.41a4.74 4.74 0 1 1 4.73-4.74 4.75 4.75 0 0 1 -4.73 4.74z"/><path d="m3.68 0h-3.68v3.67a3.7 3.7 0 0 0 3.68-3.67z"/><path d="m26.92 3.67v-3.67h-3.68a3.7 3.7 0 0 0 3.68 3.67z"/><path d="m23.24 15.7h3.68v-3.7a3.71 3.71 0 0 0 -3.68 3.7z"/><path d="m0 12v3.7h3.68a3.71 3.71 0 0 0 -3.68-3.7z"/><path d="m13.46 3.61a4.24 4.24 0 1 0 4.23 4.24 4.24 4.24 0 0 0 -4.23-4.24zm2 4.49h-3.33l1.54 1.43-.34.37-2.2-2.05 2.2-2 .34.36-1.53 1.39h3.31z"/></g></svg>