<svg xmlns="http://www.w3.org/2000/svg" width="28" height="28" viewBox="0 0 28 28"><title>icon_hand</title><path d="M7.094,23.174A8.334,8.334,0,0,0,22.987,19.59c0-.162.011-7.093.013-9.457a1.49,1.49,0,0,0-2.958-.283c-.312,1.453-1.222,5.824-1.222,5.824S13.18,5.7,11.332,2.353A1.493,1.493,0,0,0,8.5,3.039a1.785,1.785,0,0,0,.213.733c.055.123.2.478.207.489l.217-.117,4.6,8.537-.441.237L8.7,4.381l.223-.12C8.894,4.227,7.143,1.625,6.565.745a1.486,1.486,0,0,0-2.773.774,1.844,1.844,0,0,0,.19.7c.127.312.476,1.226.476,1.226s-.884-1.112-1.2-1.5A1.677,1.677,0,0,0,1.991,1.2,1.514,1.514,0,0,0,.483,2.72a1.448,1.448,0,0,0,.169.665C1.271,4.6,3.131,8.244,3.131,8.244s-.279-.311-.363-.414a1.656,1.656,0,0,0-1.26-.736A1.513,1.513,0,0,0,0,8.613a1.533,1.533,0,0,0,.188.7C1.927,12.765,5.327,19.623,7.094,23.174Zm7.989-5a4.415,4.415,0,0,1,3.351-.623l-.1.489a3.9,3.9,0,0,0-2.975.553,3.979,3.979,0,0,0-1.732,2.536l-.489-.1A4.471,4.471,0,0,1,15.083,18.169ZM4.7,3.327,10.345,13.8l-.44.238L4.263,3.564Zm-1.327,4.8,4.416,8.2-.441.238-4.415-8.2Z" fill="#054742"/></svg>