  <svg
    width="48"
    height="48"
    viewBox="0 0 48 48"
    fill="none"
    xmlns="http://www.w3.org/2000/svg"
  >
    <path
      d="M30.6939 29.423V10.2033C30.6939 8.44148 29.2524 7 27.4906 7H7.20312C8.96493 7 10.4064 8.44148 10.4064 10.2033V35.8296C10.4064 37.5914 11.8479 39.0329 13.6097 39.0329"
      stroke="#064944"
      stroke-width="1.5"
      stroke-miterlimit="10"
      stroke-linecap="round"
      stroke-linejoin="round"
    />
    <path
      d="M17.172 16.362C17.186 16.418 17.2 16.4787 17.214 16.544C17.228 16.6093 17.2397 16.6747 17.249 16.74C17.263 16.8053 17.2747 16.866 17.284 16.922C17.2933 16.978 17.298 17.0223 17.298 17.055L17.431 16.32L18.054 13.24H18.922L17.865 18H16.773L16.22 15.508C16.1593 15.1767 16.1197 14.962 16.101 14.864C16.087 14.766 16.0707 14.654 16.052 14.528C16.024 14.6447 15.9983 14.7567 15.975 14.864C15.9563 14.9713 15.9167 15.186 15.856 15.508L15.324 18H14.218L13.182 13.24H14.078L14.666 16.355C14.68 16.425 14.6917 16.4997 14.701 16.579C14.715 16.6537 14.7267 16.726 14.736 16.796C14.75 16.8613 14.7663 16.936 14.785 17.02C14.8037 16.9453 14.8247 16.8427 14.848 16.712C14.876 16.5767 14.9017 16.4577 14.925 16.355L15.576 13.24H16.514L17.172 16.362ZM20.5152 18H19.6752V13.24H20.5152V18ZM22.4882 13.24V17.23H24.5322V18H21.6412V13.24H22.4882ZM26.0812 13.24V17.23H28.1252V18H25.2342V13.24H26.0812Z"
      fill="#064944"
    />
    <path
      d="M25.943 33.6953H16.8136V35.8308C16.8136 37.5926 15.3722 39.0341 13.6104 39.0341H24.7151"
      stroke="#064944"
      stroke-width="1.5"
      stroke-miterlimit="10"
      stroke-linecap="round"
      stroke-linejoin="round"
    />
    <path
      d="M28.9851 39.0341H32.829C34.5908 39.0341 36.0323 37.5926 36.0323 35.8308V33.6953H28.6113"
      stroke="#064944"
      stroke-width="1.5"
      stroke-miterlimit="10"
      stroke-linecap="round"
      stroke-linejoin="round"
    />
    <path
      d="M4 10.2033C4 8.44148 5.44148 7 7.20329 7C8.9651 7 10.4066 8.44148 10.4066 10.2033V12.3388H4V10.2033Z"
      fill="#DBECE4"
      stroke="#064944"
      stroke-width="1.5"
      stroke-miterlimit="10"
      stroke-linecap="round"
      stroke-linejoin="round"
    />
    <path
      d="M13.876 21.9531H27.5967"
      stroke="#064944"
      stroke-width="1.5"
      stroke-miterlimit="10"
      stroke-linecap="round"
      stroke-linejoin="round"
    />
    <path
      d="M13.8232 26.1641H22.7391"
      stroke="#064944"
      stroke-width="1.5"
      stroke-miterlimit="10"
      stroke-linecap="round"
      stroke-linejoin="round"
    />
    <path
      d="M43.9867 20.4065L41.9046 21.2073L43.7198 22.809C43.5596 23.6632 43.2393 24.5174 42.8656 25.3716C41.6377 27.8809 39.075 29.4825 36.2988 29.4825C34.6972 27.1868 34.537 24.2505 35.765 21.7412C37.9539 17.4702 43.5062 15.2812 43.5062 15.2812C43.5062 15.2812 44.0935 17.6303 43.9867 20.4065Z"
      stroke="#064944"
      stroke-width="1.5"
      stroke-miterlimit="10"
      stroke-linecap="round"
      stroke-linejoin="round"
    />
    <path
      d="M39.2891 23.6094L34.4841 33.0591"
      stroke="#064944"
      stroke-width="1.5"
      stroke-miterlimit="10"
      stroke-linecap="round"
      stroke-linejoin="round"
    />
    <path
      d="M39.5021 41.3338H27.65C27.1161 41.3338 26.689 40.7999 26.7958 40.266L28.3974 33.6459C28.611 32.8451 29.305 32.2578 30.1592 32.2578H36.9929C37.8471 32.2578 38.5412 32.8451 38.7547 33.6459L40.3564 40.266C40.4631 40.7999 40.036 41.3338 39.5021 41.3338Z"
      fill="#DBECE4"
      stroke="#064944"
      stroke-width="1.5"
      stroke-miterlimit="10"
      stroke-linecap="round"
      stroke-linejoin="round"
    />
  </svg>