  <svg
    width="106"
    height="106"
    viewBox="0 0 106 106"
    fill="none"
    xmlns="http://www.w3.org/2000/svg"
  >
    <circle cx="53" cy="53" r="52.5" fill="#DBECE4" stroke="black" />
    <path
      d="M60.6502 28.25H30.9502L32.7502 30.95V34.55V72.8L36.3502 76.4H57.5002L60.6502 66.5L62.4502 65.15V30.95L60.6502 28.25Z"
      fill="white"
    />
    <path
      d="M63.0409 61.1345V32.3049C63.0409 29.6622 60.8786 27.5 58.2359 27.5H27.8047C30.4474 27.5 32.6096 29.6622 32.6096 32.3049V70.7444C32.6096 73.3871 34.7718 75.5493 37.4146 75.5493"
      stroke="#064944"
      stroke-width="1.5"
      stroke-miterlimit="10"
      stroke-linecap="round"
      stroke-linejoin="round"
    />
    <path
      d="M42.7579 41.5424C42.7789 41.6264 42.7999 41.7174 42.821 41.8154C42.8419 41.9134 42.8594 42.0114 42.8734 42.1094C42.8944 42.2074 42.9119 42.2984 42.9259 42.3824C42.9399 42.4664 42.9469 42.5329 42.9469 42.5819L43.1464 41.4794L44.0809 36.8594H45.3829L43.7975 43.9994H42.1594L41.3299 40.2614C41.2389 39.7644 41.1794 39.4424 41.1514 39.2954C41.1304 39.1484 41.1059 38.9804 41.0779 38.7914C41.0359 38.9664 40.9974 39.1344 40.9624 39.2954C40.9344 39.4564 40.8749 39.7784 40.7839 40.2614L39.9859 43.9994H38.3269L36.7729 36.8594H38.1169L38.9989 41.5319C39.0199 41.6369 39.0374 41.7489 39.0514 41.8679C39.0724 41.9799 39.0899 42.0884 39.1039 42.1934C39.1249 42.2914 39.1494 42.4034 39.1774 42.5294C39.2054 42.4174 39.2369 42.2634 39.2719 42.0674C39.3139 41.8644 39.3524 41.6859 39.3874 41.5319L40.3639 36.8594H41.7709L42.7579 41.5424Z"
      fill="#064944"
    />
    <path
      d="M47.7727 43.9994H46.5127V36.8594H47.7727V43.9994Z"
      fill="#064944"
    />
    <path
      d="M50.7323 36.8594V42.8444H53.7983V43.9994H49.4618V36.8594H50.7323Z"
      fill="#064944"
    />
    <path
      d="M56.1218 36.8594V42.8444H59.1878V43.9994H54.8513V36.8594H56.1218Z"
      fill="#064944"
    />
    <path
      d="M55.9145 67.543H42.2205V70.7463C42.2205 73.389 40.0582 75.5512 37.4155 75.5512H54.0726"
      stroke="#064944"
      stroke-width="1.5"
      stroke-miterlimit="10"
      stroke-linecap="round"
      stroke-linejoin="round"
    />
    <path
      d="M60.4776 75.5512H66.2435C68.8862 75.5512 71.0484 73.389 71.0484 70.7463V67.543H59.917"
      stroke="#064944"
      stroke-width="1.5"
      stroke-miterlimit="10"
      stroke-linecap="round"
      stroke-linejoin="round"
    />
    <path
      d="M23 32.3049C23 29.6622 25.1622 27.5 27.8049 27.5C30.4476 27.5 32.6099 29.6622 32.6099 32.3049V35.5082H23V32.3049Z"
      fill="#DBECE4"
      stroke="#064944"
      stroke-width="1.5"
      stroke-miterlimit="10"
      stroke-linecap="round"
      stroke-linejoin="round"
    />
    <path
      d="M37.814 49.9297H58.3951"
      stroke="#064944"
      stroke-width="1.5"
      stroke-miterlimit="10"
      stroke-linecap="round"
      stroke-linejoin="round"
    />
    <path
      d="M37.7349 56.2461H51.1086"
      stroke="#064944"
      stroke-width="1.5"
      stroke-miterlimit="10"
      stroke-linecap="round"
      stroke-linejoin="round"
    />
    <path
      d="M82.98 47.6098L79.8568 48.811L82.5796 51.2135C82.3393 52.4948 81.8588 53.7761 81.2983 55.0574C79.4564 58.8213 75.6124 61.2238 71.4481 61.2238C69.0457 57.7802 68.8054 53.3757 70.6473 49.6118C73.9307 43.2052 82.2592 39.9219 82.2592 39.9219C82.2592 39.9219 83.1402 43.4455 82.98 47.6098Z"
      fill="white"
      stroke="#064944"
      stroke-width="1.5"
      stroke-miterlimit="10"
      stroke-linecap="round"
      stroke-linejoin="round"
    />
    <path
      d="M75.9335 52.4141L68.7261 66.5886"
      stroke="#064944"
      stroke-width="1.5"
      stroke-miterlimit="10"
      stroke-linecap="round"
      stroke-linejoin="round"
    />
    <path
      d="M76.2532 79.0007H58.475C57.6742 79.0007 57.0335 78.1999 57.1937 77.3991L59.5961 67.4689C59.9164 66.2676 60.9575 65.3867 62.2388 65.3867H72.4894C73.7707 65.3867 74.8117 66.2676 75.1321 67.4689L77.5345 77.3991C77.6947 78.1999 77.054 79.0007 76.2532 79.0007Z"
      fill="#DBECE4"
      stroke="#064944"
      stroke-width="1.5"
      stroke-miterlimit="10"
      stroke-linecap="round"
      stroke-linejoin="round"
    />
  </svg>