<?xml version="1.0" encoding="utf-8"?>
<!-- Generator: Adobe Illustrator 23.0.6, SVG Export Plug-In . SVG Version: 6.00 Build 0)  -->
<svg version="1.1" id="Layer_1" xmlns="http://www.w3.org/2000/svg" xmlns:xlink="http://www.w3.org/1999/xlink" x="0px" y="0px"
	 viewBox="0 0 179.6 60" style="enable-background:new 0 0 179.6 60;" xml:space="preserve">
<g>
	<g transform="translate(1009.8 -337.49)">
		<g transform="matrix(.5 0 0 .5 -379.18 197.8)">
			<g>
				<path d="M-906.8,280.1c2.8,0.5,4.8,2.3,4.8,5c0,0.8-0.3,2.3-0.5,3.3c-2,8-9.3,37-12,56l-2.8-2.8l8.8-59L-906.8,280.1z"/>
				<path d="M-1086.4,288.1c-3.5,0.8-7.5,0.8-10.8,0l5.8,5.8L-1086.4,288.1z"/>
				<path d="M-1143.4,288.1c3.5,0.8,7.5,0.8,10.8,0l-5.8,5.8L-1143.4,288.1z"/>
				<path d="M-1175.7,287.9c8.3,21.5,21.8,53.5,28.3,65.8l-9.8-3l-24.3-60.3L-1175.7,287.9z"/>
				<path d="M-1183.5,287.9c2.8,0.8,5,0.8,7.5,0l-5.5,3.3L-1183.5,287.9z"/>
				<path d="M-1179.5,290.4l24.8,60.3c-1.3,1.8-2.3,2.5-3.5,3c-7.3-18.3-14.8-36.8-21.5-54.8l-3.3-5.5L-1179.5,290.4z"/>
				<path d="M-1200.7,353.9l-7.3-2.5l25.5-60l2.8-0.8v8.8C-1183.5,310.6-1193.5,335.9-1200.7,353.9L-1200.7,353.9z"/>
				<path d="M-1206.7,279.4l2.5,5.5l6.3-2.8l2.5-2.5C-1199.5,280.1-1203.2,280.1-1206.7,279.4L-1206.7,279.4z"/>
				<path d="M-1224,327.1l-4.3,1.8l-2.5-4.8l26-41.8l2-0.5c2.5-0.5,5.3-1,7.3-2.5C-1200,284.9-1215,310.9-1224,327.1L-1224,327.1z"
					/>
				<path d="M-1229.5,326.6l1-1l25.8-43.8l-4-2.5c-3,5.8-14.8,24.5-22,36.8l-3.5,6.8L-1229.5,326.6z"/>
				<path d="M-1250.5,279.4c5.8,10,14.5,24.5,22,36.8v9.5l-1.8,1.8l-25.5-45.5L-1250.5,279.4z"/>
				<path d="M-1254.7,282.1l4.3-2.8c-4.5,0.8-6.5,1-10.8,0l1.8,2L-1254.7,282.1z"/>
				<path d="M-1228.5,325.4l-2,2.8l-2.5-1c-5-8.3-19.3-34.3-28.3-47.8c2,1.3,4.3,2,7.3,2.5L-1228.5,325.4z"/>
				<path d="M-1223.2,362.4l-7.5-3.5l0.5-31.3l1.8-2.5l4.8,1.8L-1223.2,362.4z"/>
				<path d="M-1228.5,359.9l-5.3,2.5l0.5-35.3l4.8-1.8V359.9z"/>
				<path d="M-1211.5,353.9c9.3-18.5,19.3-43.8,28-65.8l4,2.3l-25,61.3l-5,1.8L-1211.5,353.9z"/>
				<path d="M-1155.2,350.4l7.8,3.3c-3-0.8-7-1-10.8,0l1.3-3.5L-1155.2,350.4z"/>
				<path d="M-1196.5,332.4l5.3-2.3c7.8,0.3,15.5,0.3,23.3,0l5.5,2.5l-5,1h-25.3L-1196.5,332.4z"/>
				<path d="M-1193,334.7l-3.5-2.3c11.5-0.3,22.8-0.3,34.3,0l-3.5,2.3C-1175.2,334.4-1184,334.4-1193,334.7L-1193,334.7z"/>
				<path d="M-1132.4,353.9l-7.8-2.5v-59l2.3-1l5.5-3C-1133.7,309.9-1133.7,331.9-1132.4,353.9L-1132.4,353.9z"/>
				<path d="M-1138.2,350.7v1.8l-5.5,1.8c0.8-22,0.8-44,0-65.8l5.5,3V350.7z"/>
				<path d="M-1097.4,353.9l7.8-2.5v-59l-2.3-1l-5.5-3C-1096.4,309.9-1096.4,331.9-1097.4,353.9L-1097.4,353.9z"/>
				<path d="M-1138.2,320.6l4.8-2c12.3,0.3,24.5,0.3,36.8,0l4.8,2l-5.8,1.3h-35.5L-1138.2,320.6z"/>
			</g>
			<path d="M-1047.7,287.9c-21.5,0-32.3,13.3-32.3,33c0,24.5,16,33,32,33c18.5,0,32-10.5,32-33
				C-1016.1,299.6-1028.6,287.9-1047.7,287.9L-1047.7,287.9z M-1048.7,291.4c0.2,0,0.2,0,0.5,0c14.3,0,24.8,9.8,24.8,30
				c0,20.3-10.5,30-24.8,30c-15.5,0-24.8-11-24.8-29.8C-1072.4,299.9-1061.2,291.6-1048.7,291.4L-1048.7,291.4z"/>
			<path d="M-1047.7,287.1c-23.3,0-35.5,14.8-35.5,34c0,20.8,13.3,33.5,35.3,33.5c24,0,35.5-14.5,35.5-33.3
				C-1012.4,299.9-1026.4,287.1-1047.7,287.1L-1047.7,287.1z M-1047.7,289.4c18.3,0,30.5,11,30.5,31.8c0,21.5-12.8,31.8-30.8,31.8
				c-15,0-30.8-8-30.8-31.8C-1078.9,302.4-1068.7,289.4-1047.7,289.4z"/>
			<path d="M-967.4,284.6c-22,0-36.8,12.3-36.8,36.5c0,23.5,14,36.8,37,36.8c17.5,0,36.5-8.8,36.5-36.5
				C-930.9,291.9-951.9,284.6-967.4,284.6L-967.4,284.6z M-967.6,287.4c17.5,0,30.3,10.5,30.3,34c0,25.3-15.5,33.5-30.3,33.5
				c-15.5,0-30-9.3-30-34C-997.4,294.9-981.6,287.4-967.6,287.4z"/>
			<path d="M-967.6,283.1c-23,0-40.8,13-40.8,37.5c0,20,11.8,37.8,41,37.8c24.8,0,40.8-13.8,40.8-37.5
				C-926.6,298.9-941.6,283.1-967.6,283.1L-967.6,283.1z M-967.4,285.6c15.3,0,35.5,7,35.5,35.8c0,26.8-18.5,35.5-35.5,35.5
				c-22.3,0-35.8-12.8-35.8-35.8C-1003.1,297.6-988.9,285.6-967.4,285.6z"/>
			<path d="M-924.6,357.7c0-2.8,1.8-5.5,5.3-5.5c3.3,0,5.8,2,5.8,5c0,4-2.5,5.3-5,5.3C-922.1,362.7-924.6,361.2-924.6,357.7
				L-924.6,357.7z"/>
			<path d="M-919.1,344.2c2.8-19,4.3-38.8,5.8-58.8c0-4,2.5-5.5,5.3-5.5c0.5,0,1,0,1,0l-0.8,4.8l-9.5,58.8L-919.1,344.2z"/>
			<g>
				<path d="M-1233.7,362.4l5.3-4l5.3,4c0,0-2.8-0.5-5.3-0.5C-1230.7,361.9-1233.7,362.4-1233.7,362.4L-1233.7,362.4z"/>
				<path d="M-1211.5,353.9l7.3-3c1,1.3,2.3,2.5,3.5,3C-1203.2,353.2-1207.5,352.7-1211.5,353.9L-1211.5,353.9z"/>
				<path d="M-1143.4,353.9c3.5-0.8,7.3-0.8,10.8,0l-5.5-3L-1143.4,353.9z"/>
				<path d="M-1133.4,323.1l-4.8-2.5c15.3,0.3,30.5,0.3,46,0l-4.8,2.5C-1108.9,322.9-1121.2,323.1-1133.4,323.1L-1133.4,323.1z"/>
			</g>
			<g>
				<path d="M-1091.9,350.7v1.8l5.5,1.8c-0.8-22-0.8-44,0-65.8l-5.5,3V350.7z"/>
				<path d="M-1086.4,353.9c-3.5-0.8-7.3-0.8-10.8,0l5.5-3L-1086.4,353.9z"/>
				<path d="M-916.8,342.2l-2.5,2.3c1.8-0.3,2.8,0,4.3,0.5L-916.8,342.2z"/>
				<ellipse cx="-907.8" cy="284.9" rx="5.3" ry="4.8"/>
			</g>
		</g>
	</g>
	<g>
		<path d="M57.7,47.7v1h-5.5v4h5v1h-5v5.8h-3v-12L57.7,47.7L57.7,47.7z"/>
		<path d="M60.5,47.7h3v12h-3V47.7z"/>
		<path d="M66.5,47.7h1.8l7,7.5v-7.5h2V60H76l-7.5-8.3V60h-2V47.7L66.5,47.7z"/>
		<path d="M85.7,47.5l5.5,12.3h-3L87,56.5h-4.8l-1.8,3.3h-2l5.8-12.3H85.7z M82.7,55.2h3.5l-1.8-4L82.7,55.2z"/>
		<path d="M92.7,47.7h2l7,7.5v-7.5h2V60h-1.3L95,51.7V60h-2L92.7,47.7L92.7,47.7z"/>
		<path d="M109.5,53.5c0,0.8,0,1.3,0.3,2c0.3,0.5,0.5,1,0.8,1.3s0.8,0.8,1.3,0.8c0.5,0,1,0.3,1.8,0.3c0.5,0,0.8,0,1-0.3
			c0.3-0.3,0.8-0.3,1-0.5c0.3-0.3,0.5-0.5,0.8-0.8c0.3-0.3,0.5-0.5,0.8-1l1,0.8c-0.3,0.5-0.5,0.8-0.8,1c-0.3,0.3-0.8,0.8-1.3,1
			c-0.5,0.3-0.8,0.5-1.3,0.8c-0.5,0.3-1,0.3-1.8,0.3c-1,0-2-0.3-2.8-0.5c-0.8-0.3-1.8-0.8-2.3-1.3c-0.5-0.5-1-1-1.3-2
			c-0.3-0.8-0.5-1.8-0.5-2.5s0.3-1.8,0.5-2.5c0.3-0.8,0.8-1.3,1.3-2c0.5-0.5,1.3-1,2.3-1.3c0.8-0.3,1.8-0.5,2.8-0.5
			c0.5,0,1.3,0,2,0.3c0.5,0.3,1,0.3,1.8,0.5c0.8,0.3,0.8,0.5,1.3,1c0.3,0.3,0.5,0.8,1,1.3l-1,0.8c-0.3-0.3-0.5-0.5-0.8-1
			c-0.3-0.3-0.5-0.5-0.8-0.8c-1.3,0.5-1.8,0.3-2,0.3s-0.8-0.3-1-0.3c-0.5,0-1,0-1.8,0.3c-0.5,0.3-0.8,0.5-1.3,0.8
			c-0.3,0.3-0.5,0.8-0.8,1.3C109.5,52,109.5,53,109.5,53.5z"/>
		<path d="M130.3,47.7v1H124v4h5v1h-5v4.8h6.3v1h-8.8v-12L130.3,47.7L130.3,47.7z"/>
	</g>
</g>
</svg>
