<?xml version="1.0" encoding="utf-8"?>
<!-- Generator: Adobe Illustrator 23.0.6, SVG Export Plug-In . SVG Version: 6.00 Build 0)  -->
<svg version="1.1" id="Layer_1" xmlns="http://www.w3.org/2000/svg" xmlns:xlink="http://www.w3.org/1999/xlink" x="0px" y="0px"
	 viewBox="0 0 242.2 60" style="enable-background:new 0 0 242.2 60;" xml:space="preserve">
<path d="M240.2,29.6l-2.2,0.5c-2-7.2-5.7-10.2-10.7-10.2c-3.5,0-6,2.2-6,6c0,3.5,2.7,5.5,10.7,8.5c7.2,2.7,10.2,6,10.2,11.7
	c0,8.7-6.7,13.9-17.9,13.9c-5.5,0-11.5-1.2-14.7-2.5l-0.5-12l2-0.5c3.2,8.2,7.2,11.5,12.4,11.5c4.7,0,7-3.2,7-6.5s-1.7-5-9-7.7
	c-6.7-2.2-11.5-5-11.5-12.4c0-7.2,6.2-13.2,16.9-13.2c5,0,9.5,1,12.4,2.2L240.2,29.6z M194.4,33.4c0.2-5.7-1-13.7-5.5-13.7
	c-4.7,0-7.2,7.7-7.5,14.2L194.4,33.4z M190,16.7c11.7,0,17.4,8.5,17.4,19.7h-26.1c-0.2,10,5.2,17.4,15.2,17.4c4.2,0,6.7-1.2,9.5-3.2
	l1.2,1.2c-2.7,4-9,7.7-16.9,7.7c-12.9,0-21.9-8.7-21.9-21.2C168.3,27.4,175.5,16.7,190,16.7 M152.1,37.6c-0.2-9-3.5-15.9-9.7-15.9
	c-1.5,0-2.7,0.2-4.2,1l0.5,34.1c0.5,0.2,2,0.5,3.2,0.5C147.6,57,152.1,48.5,152.1,37.6 M165.1,36.8c0,13.9-9,23.2-23.9,23.2
	c-5.5,0-11-1-15.7-2c0.5-5.7,0.5-40.6,0-47.3c-0.5-3.5-1.2-5-4-5.5h-1.7V3.5L138.2,0c-0.2,2.7-0.2,10.7-0.2,19.7
	c3.2-1.7,6.2-2.5,10.2-2.5C157.8,17.2,165.1,25.4,165.1,36.8 M118,29.1c-5.7-3.7-12-2-13.2,0c-0.5,6.5-0.5,16.7,0.2,21.9
	c0.2,3.5,1.2,5,4,5l3.5,0.2v2.2H85.9v-2.2l2-0.2c2.5-0.2,3.5-1.7,3.5-5c0.5-5.5,0.7-17.2,0-23.7c-0.2-3.7-1-5-3.5-5.5l-2-0.2v-1.5
	l18.9-3.7l-0.2,9.5c4.2-10,13.2-11,17.9-8.5L118,29.1z M56.3,38.3c0,10.5,2.7,18.9,8.5,18.9c6.2,0,8-8.5,8-18.9S70,19.4,64.2,19.4
	C58.3,19.4,56.3,27.6,56.3,38.3 M86.1,38.1c0,12-8,21.9-22.2,21.9C50,60,43.1,50.8,43.1,38.6c0-12,8-21.9,22.2-21.9
	C79.2,16.7,86.1,26.1,86.1,38.1 M49.5,17.7l-2.7,1c-2.5-8.5-6.7-13.2-14.2-13.2h-9.7c-0.5,5.5-0.7,14.2-0.5,23.7l6.5-0.2
	c4.2,0,6.2-3.2,7.2-7.7h2.5v19.4h-2.5c-1-4.7-2.7-8-7.2-8.2l-6.5-0.2c0,7,0.2,12.9,0.5,16.4c0.5,5,1.7,7.5,5.7,8l3.5,0.2V59H0v-2.2
	l2.7-0.2c3.7-0.5,5.2-2.7,5.7-8c0.7-8.5,0.7-26.4,0-36.6C8,6.5,6.5,4.5,2.7,4L0,3.7V1.2h49.5C49.5,1.2,49.5,17.7,49.5,17.7z"/>
</svg>
