<?xml version="1.0" encoding="utf-8"?>
<!-- Generator: Adobe Illustrator 23.0.6, SVG Export Plug-In . SVG Version: 6.00 Build 0)  -->
<svg version="1.1" id="Layer_1" xmlns="http://www.w3.org/2000/svg" xmlns:xlink="http://www.w3.org/1999/xlink" x="0px" y="0px"
	 viewBox="0 0 324.5 60" style="enable-background:new 0 0 324.5 60;" xml:space="preserve">
<g>
	<path d="M0,0h23.8c4.5,0,8,1.2,10.5,3.2c2.5,2.3,4.2,5.5,4.2,9.8c0,4.5-2,7.5-5.8,9.5v0.2c4.8,1.5,7.7,6.2,7.7,11.8
		c0,5.2-2,9-5.2,11.8c-2.5,2-6.5,3-11,3H0V0L0,0z M21.2,19c2.5,0,4.5-1.5,4.5-4.5c0-2.5-2-4.3-4.5-4.3h-8v8.5L21.2,19L21.2,19z
		 M22.8,37.5c3,0,4.7-1.5,4.7-4.8c0-3.2-2.2-4.8-5.2-4.8h-9v10L22.8,37.5z M42.8,0H55v48.8H42.8V0z"/>
	<g>
		<path id="A" d="M57.8,31c0-10.7,7.2-18.2,18.2-18.2S93.7,20.2,93.7,31c0,11-6.8,18.2-17.8,18.2S57.8,42,57.8,31z M81.2,31
			c0-6.2-2-9.8-5.5-9.8c-3.5,0-5.5,4-5.5,9.8c0,5.7,2,9.8,5.5,9.8C79.5,41.2,81.2,37.2,81.2,31z"/>
	</g>
	<g>
		<path d="M95,31c0-11,7.3-18.2,17.8-18.2s17.7,7.5,17.7,18.2c0,11-6.8,18.2-17.7,18.2S95,42,95,31z M118.7,31c0-6.2-2-9.8-5.5-9.8
			c-3.5,0-5.5,4-5.5,9.8c0,5.7,2,9.8,5.5,9.8C116.8,41.2,118.7,37.2,118.7,31z"/>
	</g>
	<path d="M133.2,14H145v5h0.2c2.2-4.3,5.2-6.2,10.5-6.2c4.2,0,7.5,2.3,9.5,5.7h0.2c3-4.5,6.5-5.7,10.8-5.7c8,0,11.2,5.7,11.2,14
		v21.8h-12.2V29c0-3.5-1-5.7-4.2-5.7c-3,0-4.5,3-4.5,6.5v18.7h-12V29c0-3.5-1-5.7-4.2-5.7c-3,0-4.5,3-4.5,6.5v18.7h-12V14H133.2z
		 M202.7,43.8L202.7,43.8v4.5H191V0h12v17.5h0.2c2.2-3,5.5-4.5,9.8-4.5c8.8,0,13.5,7.7,13.5,18.2c0,11.8-5.5,18.5-14.5,18.5
		C208.5,49.5,204.5,47.5,202.7,43.8L202.7,43.8z M214.2,31c0-5.5-2-9-5.8-9c-3.5,0-6.2,3.5-6.2,9s2.2,9,6.2,9
		C212.2,40.2,214.2,36.5,214.2,31z M228,31c0-10.7,7.3-18.2,17.5-18.2c5.2,0,9,1.5,12,4.5c4,4,5.8,10,5.5,16.8h-23
		c0.2,4.3,2.5,6.5,6.2,6.5c2,0,4-1,4.8-3.2h11.7c-2,7.8-8,12-16.7,12C235.5,49.2,228,42,228,31L228,31z M240.2,27.5h11
		c-0.2-4.3-2.5-6.5-5.5-6.5C242.5,21,240.5,23.5,240.2,27.5z M277.2,19.7L277.2,19.7c2.5-4.8,6.2-6.5,10-6.5c1,0,1.5,0,2,0.2v10.7
		H289c-7.2-1.2-11.2,2-11.2,10v14.2h-12V14h11.8v5.7H277.2z"/>
	<path d="M290.5,48.2h11.8c0.2,1.5,2,3,4.8,3c4,0,5.2-2.5,5.2-6.2v-2.5H312c-2,2.3-4.5,4-8.5,4c-7.5,0-14-5.5-14-16.2
		C289.8,20.7,295,13,303,13c4.5,0,7.5,2,9.5,4.8h0.2V14h11.8v29.8c0,5.5-2,9.8-4.8,12.3c-3,2.5-7.5,4-12.2,4
		C298,60,291.8,56,290.5,48.2L290.5,48.2z M313,29.7c0-4.3-2-7.7-5.5-7.7c-3.5,0-5.5,3-5.5,7.7c0,4.5,2.2,8,5.5,8
		C311,38,313,34.2,313,29.7z"/>
</g>
</svg>
