<?xml version="1.0" encoding="utf-8"?>
<!-- Generator: Adobe Illustrator 23.0.6, SVG Export Plug-In . SVG Version: 6.00 Build 0)  -->
<svg version="1.1" id="Layer_1" xmlns="http://www.w3.org/2000/svg" xmlns:xlink="http://www.w3.org/1999/xlink" x="0px" y="0px"
	 viewBox="0 0 357.8 60" style="enable-background:new 0 0 357.8 60;" xml:space="preserve">
<g>
	<polygon points="186.3,58.4 186.3,58.4 186.3,58.4 	"/>
	<path d="M186.7,58.4h-0.4C186.5,58.4,186.6,58.5,186.7,58.4L186.7,58.4z"/>
	<path d="M74.7,0.7C57.8,0.2,43.8,13.4,43.3,30.4C43.6,46.6,57.3,60,74.7,60c17.4,0,30.6-13.4,30.9-29.6
		C106.1,14.2,91.1,0.5,74.7,0.7z M74.7,56c-11.2-0.2-20.4-11.7-20.4-25.6c0-13.9,9.2-25.9,20.4-25.9S94.9,16,94.9,30.1
		C94.9,44.2,85.9,56,74.7,56z"/>
	<path d="M186.3,57.9h-1.2c0.4,0.2,0.8,0.4,1.2,0.5V57.9z"/>
	<path d="M191.2,1.4h-29.6c-1.5,0-5.7-0.5-6-1.5l-3.2,13.9h0.7c1.2-4,7.2-8,9.5-7.7h9.2v44.1c0,3.5-2.2,6.7-5.7,7.7h19
		c-1.8-0.9-4.1-3.1-4.1-7.1V6.7h9.2c4.2,1,7.7,4,9.5,7.7h0.7l-3.2-14.2C196.7,0.9,192.7,1.4,191.2,1.4z"/>
	<path d="M5.7,9.5v41.3C6,54.3,3.5,57.5,0,58.5h20.4c-1-0.2-5.5-2.2-5.7-7.7V30.9h15.2c5.5,0,8.2,5,8.5,6.5V20.2
		c-0.2,1-3.2,6.2-8.5,6H14.7V6.7h19.2c4-0.2,7.5,3.7,9.2,7.7V1.7H0C1.2,2,5.7,4.2,5.7,9.5z"/>
	<path d="M340.5,54.3h-4.7c-8.5,0.5-8.5-3-8.7-5V30.9h15.2c5.5,0,8.2,5.3,9.7,6.5V20.2c-0.3,1-3,6.2-8.5,6h-15.7V6.8H347
		c3.7-0.3,7.5,3.7,8.7,7.7V1.8h-42.6c0,0.2,5,2.2,5,7.7v41.3c0,5.5-4.5,7.5-5.7,7.7h42.1l3.2-14.7C353.7,50.6,350.5,54.5,340.5,54.3
		z"/>
	<path d="M148.2,51.7l0.7,0.3l-12.2-20.7c7.2-2,12.4-7.5,12.4-13.9C149.4,9,144.6,2,130.5,2h-28.1c1.2,0.2,5.7,2.5,5.7,7.7V51
		c0.2,3.7-2.2,6.7-5.7,7.7h20.4c-1-0.2-6.2-2.2-5.7-7.7V32.6h9.7l13.9,25.6h14.7C151.7,57.2,149.4,54.2,148.2,51.7z M118,28.4V5.5
		h10.5c6.5,0.2,12.2,5.2,12.2,11.7s-5.3,11.4-12.2,11.2H118z"/>
	<path d="M244,9.2v31.6c-0.2,8.2-6.2,13.9-14.7,13.7c-8.7-0.2-13.9-4.5-13.9-12.4l-1-32.9c0.2-5.5,4.7-7.2,5.7-7.7h-20.2
		c1,0.2,6.2,2.5,5.5,7.7v33.1c0.2,12,10,17.2,21.9,17.2c11.9,0,21.7-5.2,21.7-17.2l-0.2-33.1c0.2-5.5,4.7-7.2,5.7-7.7h-16.2
		C239.5,1.7,244,4,244,9.2z"/>
	<path d="M300.5,9.5l0.5,30.6L268.8,1.8h-12.4c3.3,1,5,5,5,7.7l-0.2,41.3c0,5.5-4.5,7.5-5.7,7.7h16.2c-1,0-5.5-2.2-5.7-7.7l0.2-36.6
		L303,58.5h2.5l-0.2-49C304.8,4.3,310,2,311,1.8h-16.2C296,2,300.7,4,300.5,9.5z"/>
</g>
</svg>
