<?xml version="1.0" encoding="utf-8"?>
<!-- Generator: Adobe Illustrator 23.0.6, SVG Export Plug-In . SVG Version: 6.00 Build 0)  -->
<svg version="1.1" id="Layer_1" xmlns="http://www.w3.org/2000/svg" xmlns:xlink="http://www.w3.org/1999/xlink" x="0px" y="0px"
	 viewBox="0 0 469.9 60" style="enable-background:new 0 0 469.9 60;" xml:space="preserve">
<path d="M56.2,0v11.7h-2.5C52.5,11.2,52,12.2,52,13c-3.5,12.2-7.5,24-11.5,36.5c-0.7,2.7-1.7,5.5-2.7,8.2c0,0.5-0.7,0.7-1.2,0.7
	H18.7l-0.5-1.2L4.5,13c-0.5-1.2-0.7-1.2-2-1.2H0V0h25.2v11.7h-5l8.2,33H29L38.2,12h-5V0H56.2z M96.2,15.7h17l0.5,6
	c1.2-1.2,2-2.5,2.7-3.2c4.7-4,10.2-4.7,16.2-2.7c4.2,1.7,6.2,5,6.2,10v21h3.5v11.7h-19V32c0-2.5-0.7-3.5-2.5-4c-2-0.5-3.5,0-4.7,1.7
	l-0.7,1.2l-0.5,1.2V47h2.7v11.7H96.2V47h3.2V27.7h-3.2V15.7z M199.6,27.2h-2.7V15.5h18.7v31.2h3.5v11.7h-17.2v-4.2
	c-0.7,0.7-1.2,1.7-2,2c-4.2,4-11.7,4.7-17,2.5c-4-2-6-5-6-9.5l-0.5-20v-1.7h-3.5V15.7h19V41c0,1.2,0,2.5,0.5,3.2
	c0.5,1.7,2,2.5,3.5,2.5s2.7-0.7,3.5-2.5c0.5-0.5,0.5-1.2,0.5-2L199.6,27.2z M93.4,40H67c0,2.5,0,4.7,1.2,6.7
	c0.7,1.7,2.7,2.5,4.2,2.5c1.5,0,3.5-0.7,4.2-2.7c0.5-0.7,0.5-1.7,0.7-2.7h14.7c-0.5,4.7-2.5,8.7-6.2,11.5c-2.7,2-5.7,3.2-9.2,3.5
	c-4.2,0.7-9.2,0.5-13.5-0.7c-6-2-10-6-11.5-11.5c-2-6.2-2-12.7,0-19c2.5-7.5,8-11.7,15.7-13c3.5-0.5,7.2-0.5,10.7,0.7
	c8,2.5,12.2,7.5,13.7,15.7C93.2,34,93.2,36.7,93.4,40L93.4,40z M67.5,31.7h10.2c0-2.5,0-4.2-2.5-5.5c-2-1.2-4-1.2-5.5,0
	C67.5,27.2,67.5,29.2,67.5,31.7z M299.3,40h-26.5c0,2.5,0,4.7,1.2,6.7s2.7,2.5,4.7,2.5c2,0,3.5-1.2,4.2-2.7l0.7-2.5h14.7
	c-0.7,8.7-7.2,14.7-15.7,15.5c-4.2,0.5-8.5,0.5-12.2-1.2c-6-2-10-6-11.7-11.7c-2-6.2-2-12.2,0-18.5c2.5-8,8.5-11.7,16.2-13
	c3.5-0.5,7.5-0.5,11,0.7c7.5,2.5,11.5,7.5,13,14.7C299.3,33.7,299.3,36.7,299.3,40L299.3,40z M273.5,31.7h10.2c0-4.2-2-6.7-5.5-6.2
	C275.3,25.7,273.3,28.2,273.5,31.7z M144.4,15.5h4.7V7.2c0-1.7,0.5-2,2-2.5L163.4,2v13.5h6.7v11.7h-6.7v16.5c0.5,2.7,2.5,4,4.7,3.5
	c0.5,0,0.7,0,1.7-0.5v7.5c0,3.5,0,3.5-3.5,4c-3.5,0.2-7.2,0.7-11,0c-5-1.2-7.5-4.2-7.5-9.5V27h-3.5
	C144.4,23.7,144.4,19.7,144.4,15.5L144.4,15.5z M222.3,58.5V46.7h3.5v-19h-3.5V16h16.5c0,2,0.5,4.2,0.5,6.7c0.5-0.5,0.5-0.7,0.5-1.2
	c1.2-3.5,4-5.5,7.5-6h5.5c0.5,0,0.7,0.2,0.7,0.7v13c-2,0-4.2-0.5-6.2,0c-4.2,0.7-6.2,3.2-6.7,7.5v9.5h4.7V58
	C238.1,58.5,230.3,58.5,222.3,58.5L222.3,58.5z M333.5,0.5c2.5,0.5,4.7,0.5,6.7,1.2c9.2,2.5,13.7,13.5,9.2,21.7
	c-1.2,2-2.7,3.2-4.7,4.2c-0.7,0.5-1.7,0.7-2.7,1.7c0.5,0.5,0.7,0.5,1.2,0.5c6.2,2,9.2,6.7,9.5,12.7c0.7,8.7-4.7,15-13.5,15.7
	c-2.7,0.5-5.5,0.5-8,0.5h-27.5V47.2h5V11.7h-5V0C314.3,0.5,323.5,0.5,333.5,0.5L333.5,0.5z M324.8,35.2v11.5c0,0.5,0.2,0.7,0.7,0.7
	h6.7c1.7,0,3.2-0.7,4-2.5c2-3.5,0-8.2-4-9.2C330,35.2,327.5,35.2,324.8,35.2z M324.8,24c2.5,0,4.2,0,6.7-0.5
	c2.7-0.5,4.2-2.7,4.2-5.5s-1.7-5-4-5.5c-2.2-0.5-4.7-0.5-7.2-0.5L324.8,24z M469.4,28.2h-6c-0.5,0-0.7,0.2-0.7,0.7v15
	c0,3.2,2,4.7,5.5,4h0.7v9.5c0,0.7,0,1.2-0.7,1.2c-4.2,0.7-8.7,1.2-13.5,0.5c-5-1.2-7.5-4-7.5-9.2V28h-1.5c-2.5,0-2,0.5-2-2V16h4.7V8
	c0-2.7-0.5-2.5,2.5-2.7c4-0.7,8-1.7,11.7-2.7V16h7.2C469.7,20.2,469.7,24,469.4,28.2L469.4,28.2z M422.9,32.5v-4c0-2.5-1.7-4-3.5-4
	s-4,1.7-4,3.5v1.7h-14.2c-0.5-5.5,2.5-10.2,7.5-12.7c7.5-3.2,15.5-3.2,23,0.5c4.7,2.5,7.2,6,7.2,11v17.7h3.5V58h-17.7
	c0-1.7-0.5-2.7-0.5-4.7c-0.5,0.5-0.7,0.7-0.7,1.2c-4.7,5.5-13.5,5.5-18.2,3.2c-3.5-2-5-5.5-5.5-9.5c-0.5-8.7,4-14.2,13-15.7l9.5-0.7
	C421.7,32.5,421.9,32.5,422.9,32.5L422.9,32.5z M422.9,40h-3.5c-3.5,0.5-5,3.2-4.7,6.2c0.5,2.7,2.7,4.2,5.5,3.2
	c1.7-0.5,2.5-1.7,2.7-3.2L422.9,40L422.9,40z M397.7,40.5h-26.5c0,2.7,0,5,1.7,7.2c1.2,1.7,2.7,2,4.7,2c2,0,3.2-1.2,4-2.7l0.7-2.5
	h14.7c-0.5,4.7-2.5,8.7-6.2,11.5c-4.7,3.5-10,4.2-15.5,4c-2.5,0-4.2-0.5-6.7-1.2c-6-1.7-9.5-5.5-11.5-11c-2-6.7-2.5-13.5,0.5-20.2
	c2.7-7.2,8.5-11,15.7-11.7c3.5-0.5,7.5,0,11,0.7c7.5,2.5,11.5,8,13,15.5C397.2,34.5,397.7,37.2,397.7,40.5L397.7,40.5z M382,32.5
	c0-2.5-0.5-4.7-2.5-6s-4-1.2-6,0.5c-1.7,1.2-2,3.2-2,5.5H382z"/>
</svg>
