<?xml version="1.0" encoding="utf-8"?>
<!-- Generator: Adobe Illustrator 23.0.6, SVG Export Plug-In . SVG Version: 6.00 Build 0)  -->
<svg version="1.1" id="Layer_1" xmlns="http://www.w3.org/2000/svg" xmlns:xlink="http://www.w3.org/1999/xlink" x="0px" y="0px"
	 viewBox="0 0 191.7 60" style="enable-background:new 0 0 191.7 60;" xml:space="preserve">
<g>
	<path d="M0,0.3c0.3,0,0.5,0,0.8,0c2.5,0,4.8,0,7.3,0c1.5,0,2.8,0.3,4.3,0.8c3.5,1.3,5,5.3,3.3,8.6c-0.5,0.8-1,1.5-1.8,2
		c-0.3,0-0.3,0.3-0.5,0.3c0.3,0.3,0.3,0.3,0.5,0.3c2,1,3.3,2.8,3.3,5c0,1.3-0.3,2.3-0.8,3.3c-1,1.8-2.5,2.8-4.3,3
		c-0.8,0.3-1.8,0.3-2.5,0.3c-2.8,0-5.8,0-8.6,0c-0.3,0-0.5,0-0.8,0C0,16.1,0,8.1,0,0.3z M3.8,20.6c0.3,0,0.3,0,0.5,0
		c1.8,0,3.3,0,5,0c0.8,0,1.5-0.3,2-0.5c1.3-0.8,1.8-1.8,1.8-3.3c0-1.3-0.8-2.5-2-2.8c-0.8-0.3-1.5-0.5-2.3-0.5c-1.5,0-3,0-4.5,0
		c-0.3,0-0.5,0-0.8,0C3.8,15.9,3.8,18.1,3.8,20.6z M3.8,10.1c0.3,0,0.3,0,0.5,0c1.5,0,3,0,4.5,0c0.5,0,1.3-0.3,1.8-0.3
		c1-0.3,1.8-1,1.8-2.3c0.3-1.8-0.3-3.3-1.8-3.5c-0.5-0.3-1-0.3-1.8-0.3c-1.5,0-3,0-4.5,0c-0.3,0-0.3,0-0.5,0
		C3.8,5.8,3.8,8.1,3.8,10.1z"/>
	<path d="M104.2,36.5c0.3,0,0.5,0,0.5,0c2.8,0,5.8,0,8.6,0c1.3,0,2.5,0.3,4,0.5c3,1,5,3,6.3,6c1.3,3.3,1.3,6.8,0,10.3
		c-1.3,3.5-4,5.5-7.5,6.3c-1,0.3-2,0.3-3,0.3c-2.8,0-5.5,0-8.1,0c-0.3,0-0.5,0-0.8,0C103.9,59.1,103.9,37.2,104.2,36.5z M107.9,56.4
		c2,0,4,0.3,6,0c3.3-0.3,5.3-2.3,6-5c0.5-2,0.5-4,0-5.8c-0.5-2.8-2.5-5-6.3-5.5c-1.8-0.3-3.5,0-5.5,0c-0.3,0-0.3,0-0.5,0
		C107.9,45.5,107.9,50.8,107.9,56.4z"/>
	<path d="M170.4,50.3c2.8,3,5.5,6.3,8.3,9.6c-0.3,0-0.3,0-0.5,0c-1,0-2,0-3,0c-0.5,0-1-0.3-1.5-0.5c-2.3-2.8-4.8-5.5-7-8.3
		c-0.5-0.5-0.8-0.8-1.5-0.8c-0.5,0-1.3,0-2,0c0,3.3,0,6.3,0,9.6c-0.8,0.3-1.3,0-2,0c-0.5,0-1.3,0-1.8,0c-0.3-0.5-0.3-22.4,0-23.4
		c0.3,0,0.3,0,0.5,0c2.8,0,5.5,0,8.3,0c1.3,0,2.8,0.3,4,0.8c2,1,3.3,2.5,3.5,4.8c0.3,1.3,0.3,2.5-0.3,3.8c-0.5,2.3-2.3,3.5-4.3,4.3
		C170.9,50.1,170.6,50.1,170.4,50.3C170.6,50.1,170.6,50.3,170.4,50.3z M163.3,40c0,2.5,0,4.8,0,7.3c0.3,0,0.5,0,0.8,0
		c1,0,2.3,0,3.3,0c0.5,0,1,0,1.5-0.3c1.8-0.3,2.8-1.8,2.8-3.3c0-1.8-1-3.3-2.8-3.5c-0.5,0-1-0.3-1.3-0.3c-1.3,0-2.5,0-4,0
		C163.8,39.8,163.6,39.8,163.3,40z"/>
	<path d="M116.5,24.2c-2.8-2.5-5.3-5.3-8.1-7.8s-5.3-5-8.1-7.8c0,0,0,0-0.3,0c0,0.3,0,0.5,0,0.8c0,4.5,0,9.1,0,13.6c0,0.3,0,0.5,0,1
		c-1.3,0-2.5,0-3.5,0c-0.3-0.5-0.3-23.2,0-23.9c5.5,5,10.8,10.3,16.1,15.3c0,0,0,0,0.3,0c0-1.8,0-3.3,0-5s0-3.3,0-5s0-3.3,0-5
		c0.8-0.3,3-0.3,3.5,0C116.8,1,116.8,23.4,116.5,24.2z"/>
	<path d="M31.7,36.2c5.5,5,10.6,10.1,16.1,15.1c0,0,0,0,0.3,0c0-0.8,0-1.8,0-2.5s0-1.5,0-2.5c0-0.8,0-1.8,0-2.5c0-0.8,0-1.8,0-2.5
		s0-1.5,0-2.5s0-1.8,0-2.5c1.3,0,2.5,0,3.5,0c0.3,0.5,0.3,22.4,0,23.7c-5.3-5-10.6-10.3-16.1-15.3c-0.3,0.3-0.3,0.8-0.3,1
		c0,4.3,0,8.8,0,13.3c0,0.3,0,0.5,0,1c-1.3,0-2.5,0-3.5,0C31.5,59.1,31.5,37.7,31.7,36.2z"/>
	<path d="M25.9,0.3c1.3,0,2.5,0,4,0c0,0.3,0,0.5,0,1c0,4.3,0,8.6,0,12.8c0,1,0,1.8,0.3,2.8c0.8,3.3,3,4.3,5.8,4c0.3,0,0.8,0,1-0.3
		c1.5-0.3,2.5-1.3,3.3-2.8c0.5-1.3,0.8-2.5,0.8-3.8c0-4.3,0-8.6,0-13.1c0-0.3,0-0.5,0-0.8c0.5-0.3,3.3-0.3,4,0c0,0.3,0,0.5,0,0.8
		c0,4.5,0,9.3,0,13.8c0,1.3-0.3,2.8-0.8,4c-1,2.5-2.8,4.3-5.5,5c-2.3,0.8-4.5,0.8-6.8,0c-3.3-1-5-3.3-5.8-6.3
		c-0.3-0.8-0.3-1.8-0.3-2.8c0-4.8,0-9.3,0-14.1C25.9,0.8,25.9,0.5,25.9,0.3z"/>
	<path d="M141.9,0.3c0,1,0,2.3,0,3.3c-0.3,0-0.5,0-0.8,0c-2.8,0-5.8,0-8.6,0c-1,0-1,0-1,1c0,1.3,0,2.8,0,4c0,0.3,0,0.5,0,0.8
		c3,0,6.3,0,9.3,0c0,1.3,0,2.3,0,3.5c-1,0-2,0-3,0s-2,0-3,0s-2,0-3,0c-0.3,0.5-0.3,6.8,0,7.5c3.3,0,6.8,0,10.3,0c0,1.3,0,2.3,0,3.5
		c-4.8,0-9.6,0-14.3,0c0-7.8,0-15.6,0-23.7C132.4,0.3,137.1,0.3,141.9,0.3z"/>
	<path d="M133.1,36.5c4.8,0,9.3,0,14.1,0c0,1,0,2.3,0,3.3c-0.3,0-0.5,0-0.8,0c-2.8,0-5.8,0-8.6,0c-0.3,0-0.5,0-0.8,0
		c0,1.8,0,3.8,0,5.5c0.3,0,0.5,0,1,0c2.5,0,5,0,7.3,0c0.3,0,0.5,0,0.8,0c0.3,0.5,0.3,2.5,0,3.3c-0.3,0-0.5,0-0.8,0c-2.5,0-5,0-7.5,0
		c-0.3,0-0.5,0-1,0c0,2.5,0,4.8,0,7.3c1.8,0,3.3,0,5,0c1.8,0,3.3,0,5,0c0.3,0.5,0.3,2.5,0,3.5c-4.8,0-9.3,0-14.1,0
		C133.1,59.1,132.9,37.7,133.1,36.5z"/>
	<path d="M69.2,5.8c-0.3-0.3-0.5-0.3-0.5-0.3c-1.8-1.3-3.5-1.8-5.5-2c-1,0-2.3,0-3.3,0.5c-1.3,0.5-1.8,1.8-1.5,3.3
		c0.3,0.5,0.5,1,1,1.5c0.5,0.3,1,0.5,1.5,0.8c1.5,0.5,2.8,1,4.3,1.5c0.8,0.3,1.8,0.8,2.5,1.3c1.8,1.3,2.8,2.8,2.8,5
		c0,0.8,0,1.5-0.3,2.5c-0.5,2-1.8,3.3-3.5,4c-1,0.5-2.3,0.8-3.5,0.8c-2.5,0.3-5-0.3-7.3-1.5c-1-0.5-1-0.5-1-1.8c0-1,0-1.8,0-3
		c0.3,0.3,0.5,0.3,0.8,0.5c2.3,1.5,4.8,2.3,7.3,2.3c0.8,0,1.8-0.3,2.5-0.5c2-1,2.3-3.5,0.5-5c-0.5-0.5-1.3-0.8-2-1
		c-1.3-0.5-2.8-1-4.3-1.5c-1-0.3-1.8-0.8-2.5-1.5c-1.5-1-2.3-2.5-2.3-4.3c-0.3-4,2.3-6,5-6.5C63.2,0,66.2,0.5,69.2,2
		C69.7,2.3,70,2.5,70,3c0,0.8,0,1.8,0,2.5C69.2,5,69.2,5.3,69.2,5.8z"/>
	<path d="M175.6,18.1c0.5,0.3,0.8,0.5,1,0.8c2,1.3,4.3,2,7,2c1,0,1.8-0.3,2.5-0.5c2.3-1,2.5-3.8,0.5-5c-0.8-0.5-1.5-0.8-2.3-1
		c-1.3-0.5-2.5-1-4-1.5c-0.8-0.3-1.5-0.8-2-1c-1.5-1-2.5-2.3-2.8-4c-0.5-3,0.8-5.5,3.5-6.8c0.8-0.3,1.3-0.5,2-0.8
		c3-0.5,5.8-0.3,8.6,1.3c0.5,0.3,0.8,0.5,0.8,1c0,1,0,2,0,3.3c-0.3-0.3-0.5-0.3-0.8-0.5c-1.8-1.3-4-2-6.3-2c-1,0-1.8,0.3-2.5,0.5
		c-1,0.5-1.5,1.3-1.5,2.3s0.3,2,1.3,2.5c0.5,0.3,1,0.5,1.5,0.8c1.5,0.5,2.8,1,4.3,1.5c1,0.3,2,1,3,1.5c1.5,1,2,2.5,2.3,4.3
		c0,1,0,1.8-0.3,2.8c-0.5,1.5-1.5,2.8-2.8,3.5s-3,1.3-4.8,1.3c-2.3,0.3-4.8-0.3-6.8-1.3c-1.5-0.8-1.5-0.8-1.5-2.3
		C175.6,20.1,175.6,19.1,175.6,18.1z"/>
	<path d="M166.1,5.8c-0.5-0.3-1-0.5-1.3-0.8c-1.8-1-3.5-1.8-5.8-1.8c-0.8,0-1.5,0.3-2.3,0.5c-1,0.3-1.8,1-1.8,2.3c0,1,0.5,2,1.5,2.5
		c0.5,0.3,1,0.5,1.8,0.8c1.3,0.5,2.5,1,4,1.5c0.8,0.3,1.5,0.5,2,1c2.5,1.5,3.5,3.5,3.3,6.3c-0.3,3-2,4.8-4.8,5.8
		c-1.8,0.5-3.3,0.8-5,0.5s-3.3-0.5-4.8-1.3c-1.3-0.5-1.3-0.5-1.3-2c0-0.8,0-1.3,0-2c0-0.3,0-0.5,0-0.8c0.3,0.3,0.5,0.3,0.8,0.5
		c2.3,1.5,4.5,2.3,7.3,2.3c1,0,1.8-0.3,2.5-0.5c1-0.5,1.8-1.3,1.8-2.3c0-1.3-0.3-2.3-1.3-2.8c-0.5-0.3-1.3-0.8-2-1
		c-1.3-0.5-2.5-1-3.8-1.5c-1-0.3-1.8-0.8-2.5-1.3c-3.5-2.3-3.8-8.3,0.5-10.6c1.3-0.5,2.5-1,3.8-1c2.5-0.3,4.8,0.3,7,1.3
		c1,0.5,1,0.5,1,1.5C166.1,3.8,166.1,4.5,166.1,5.8z"/>
	<path d="M76.5,41.8c-0.3-0.3-0.5-0.3-0.8-0.5c-1.8-1-3.5-1.8-5.5-2c-1,0-2,0-3.3,0.5c-1.3,0.5-1.8,1.5-1.8,3c0,0.8,0.5,1.3,1,1.8
		c0.5,0.3,1.3,0.5,1.8,0.8c1.3,0.5,2.8,1,4,1.5c0.8,0.3,1.5,0.8,2.3,1c2.5,1.5,3.3,3.5,3,6.3c-0.3,2.5-1.8,4.3-4,5
		c-1.5,0.5-3,0.8-4.5,0.8c-2.3,0-4.3-0.5-6.3-1.5c-0.5-0.3-1-0.8-0.8-1.3c0-0.8,0-1.8,0-2.5c0-0.3,0-0.3,0-0.8
		c0.3,0.3,0.5,0.3,0.8,0.5c2.3,1.5,4.5,2.3,7.3,2c0.8,0,1.5-0.3,2.3-0.5c1-0.3,1.8-1.3,1.8-2.3c0-1.3-0.3-2.3-1.5-2.8
		c-0.8-0.3-1.5-0.8-2-1c-1.5-0.5-2.8-1-4.3-1.5c-1-0.3-1.8-0.8-2.5-1.5c-1.5-1.3-2-3-2-5c0-2.3,1.3-3.8,3-4.8c1.3-0.8,2.5-1,3.8-1
		c2.5-0.3,4.8,0.3,7,1.5c0.5,0.3,0.8,0.5,0.8,1.3C76.5,39.8,76.5,40.8,76.5,41.8z"/>
	<path d="M81,0.3c1.3,0,2.5,0,3.8,0c0.3,0.5,0.3,22.6,0,23.7c-0.5,0.3-2.8,0.3-3.8,0C81,23.4,81,1.3,81,0.3z"/>
	<path d="M19.9,59.9c-1.3,0-2.5,0-3.8,0c0-0.3,0-0.5,0-1c0-6.5,0-12.8,0-19.4c0-0.8,0-1.5,0-2.5c0-0.3,0-0.5,0-0.8
		c1.3,0,2.5,0,3.8,0c0,0.3,0,0.5,0,0.8c0,7.3,0,14.6,0,21.9C19.9,59.4,19.9,59.6,19.9,59.9z"/>
	<path d="M88.3,36.5c1.3,0,2.5,0,3.5,0c0.3,0.5,0.3,22.1,0,23.2c-0.5,0.3-2.8,0.3-3.8,0C88.3,59.1,88.3,37.2,88.3,36.5z"/>
</g>
</svg>
