<svg xmlns="http://www.w3.org/2000/svg" width="28" height="28" viewBox="0 0 28 28"><title>icon_money</title><polygon points="24 4.003 0 4.003 0 18.003 3.75 18.003 3.75 9.75 24 9.75 24 4.003" fill="#054742"/><path d="M27.571,10.25H24.777a3.222,3.222,0,0,0,.434,1.377A3.293,3.293,0,0,0,28,13.25v-3Z" fill="#054742"/><path d="M24.75,24H28V20.751A3.276,3.276,0,0,0,24.75,24Z" fill="#054742"/><path d="M24.78,11.878a3.733,3.733,0,0,1-.5-1.628H7.724A3.751,3.751,0,0,1,4.25,13.722v6.556a3.773,3.773,0,0,1,2.97,1.844A3.73,3.73,0,0,1,7.75,24l-.227,0H24.477l-.227,0A3.775,3.775,0,0,1,28,20.25l0,.25v-7l0,.25A3.788,3.788,0,0,1,24.78,11.878ZM16,20.25A3.228,3.228,0,1,1,19.25,17,3.239,3.239,0,0,1,16,20.25Z" fill="#054742"/><path d="M4.25,20.779V24h3a3.244,3.244,0,0,0-.461-1.627A3.278,3.278,0,0,0,4.25,20.779Z" fill="#054742"/><path d="M7.223,10.25H4.25v2.971A3.253,3.253,0,0,0,7.223,10.25Z" fill="#054742"/><path d="M16,14.25A2.753,2.753,0,0,0,13.25,17,2.783,2.783,0,0,0,16,19.75a2.75,2.75,0,0,0,0-5.5Z" fill="#054742"/></svg>