<svg
    width="290"
    height="151"
    viewBox="0 0 290 151"
    fill="none"
    xmlns="http://www.w3.org/2000/svg"
  >
    <path
      fill-rule="evenodd"
      clip-rule="evenodd"
      d="M263.839 77.4453C241.828 70.9632 229.251 70.5404 228.652 48.2758C228.053 26.5748 208.888 1.91464 156.182 0.0827401C127.135 -0.903668 103.777 6.98759 91.1993 20.6564C70.0873 43.4847 83.7128 58.9854 68.1408 68.1449C57.9591 74.0633 35.7989 54.1942 17.6815 67.4403C-3.13107 82.6592 -8.67111 126.625 18.1307 146.917H280.459C297.678 123.806 290.191 85.1956 263.839 77.4453Z"
      fill="white"
    />
    <path
      d="M92.5201 146.493H92.5198V130.106V101.542V47.3546V38.4247C92.5198 29.9396 97.5459 24.0898 103.447 24.0898H206.604C205.549 24.8976 204.738 25.9925 204.122 27.2898C202.775 30.1272 202.313 34.0377 202.313 38.4247V131.45C202.313 135.666 201.043 139.454 199.028 142.17C197.012 144.887 194.287 146.493 191.344 146.493H191.305H191.264H191.221H191.176H191.13H191.081H191.03H190.978H190.923H190.867H190.808H190.748H190.686H190.622H190.556H190.489H190.419H190.348H190.275H190.199H190.123H190.044H189.963H189.881H189.797H189.711H189.623H189.534H189.443H189.35H189.255H189.159H189.061H188.961H188.859H188.756H188.651H188.545H188.436H188.326H188.215H188.101H187.986H187.87H187.752H187.632H187.51H187.387H187.263H187.137H187.009H186.879H186.748H186.616H186.482H186.346H186.209H186.07H185.93H185.789H185.645H185.501H185.355H185.207H185.058H184.907H184.755H184.602H184.447H184.291H184.133H183.974H183.813H183.651H183.488H183.323H183.157H182.99H182.821H182.651H182.479H182.306H182.132H181.957H181.78H181.602H181.422H181.242H181.06H180.877H180.692H180.506H180.319H180.131H179.942H179.751H179.559H179.366H179.172H178.977H178.78H178.582H178.383H178.183H177.982H177.779H177.576H177.371H177.166H176.959H176.751H176.542H176.331H176.12H175.908H175.695H175.48H175.265H175.048H174.831H174.612H174.393H174.172H173.951H173.728H173.505H173.28H173.055H172.828H172.601H172.373H172.144H171.914H171.683H171.451H171.218H170.984H170.749H170.514H170.278H170.04H169.802H169.563H169.324H169.083H168.842H168.6H168.357H168.113H167.868H167.623H167.377H167.13H166.882H166.634H166.385H166.135H165.885H165.633H165.381H165.129H164.875H164.621H164.366H164.111H163.855H163.598H163.341H163.083H162.824H162.565H162.305H162.045H161.784H161.522H161.26H160.998H160.734H160.47H160.206H159.941H159.676H159.41H159.143H158.876H158.609H158.341H158.072H157.803H157.534H157.264H156.994H156.723H156.452H156.18H155.908H155.636H155.363H155.09H154.816H154.542H154.268H153.993H153.718H153.443H153.167H152.891H152.614H152.338H152.061H151.783H151.506H151.228H150.95H150.671H150.393H150.114H149.835H149.555H149.276H148.996H148.716H148.436H148.155H147.875H147.594H147.313H147.032H146.751H146.469H146.188H145.906H145.624H145.343H145.061H144.779H144.496H144.214H143.932H143.65H143.367H143.085H142.802H142.52H142.237H141.954H141.672H141.389H141.107H140.824H140.542H140.259H139.977H139.694H139.412H139.13H138.847H138.565H138.283H138.001H137.72H137.438H137.156H136.875H136.593H136.312H136.031H135.75H135.47H135.189H134.909H134.629H134.349H134.069H133.79H133.51H133.231H132.953H132.674H132.396H132.118H131.84H131.563H131.285H131.009H130.732H130.456H130.18H129.904H129.629H129.354H129.08H128.805H128.532H128.258H127.985H127.712H127.44H127.168H126.897H126.626H126.355H126.085H125.816H125.546H125.278H125.009H124.742H124.474H124.208H123.941H123.676H123.41H123.146H122.881H122.618H122.355H122.092H121.83H121.569H121.308H121.048H120.789H120.53H120.271H120.014H119.757H119.5H119.244H118.989H118.735H118.481H118.228H117.976H117.724H117.473H117.223H116.973H116.725H116.477H116.229H115.983H115.737H115.492H115.248H115.004H114.762H114.52H114.279H114.039H113.799H113.561H113.323H113.086H112.85H112.615H112.381H112.148H111.915H111.684H111.453H111.223H110.994H110.767H110.54H110.314H110.089H109.865H109.642H109.42H109.198H108.978H108.759H108.541H108.324H108.108H107.893H107.679H107.466H107.255H107.044H106.834H106.626H106.418H106.212H106.006H105.802H105.599H105.397H105.197H104.997H104.798H104.601H104.405H104.21H104.016H103.824H103.633H103.443H103.254H103.066H102.88H102.694H102.51H102.328H102.146H101.966H101.788H101.61H101.434H101.259H101.085H100.913H100.742H100.573H100.404H100.237H100.072H99.9079H99.7451H99.5838H99.4238H99.2653H99.1082H98.9525H98.7982H98.6454H98.494H98.3441H98.1956H98.0486H97.9031H97.7591H97.6166H97.4756H97.3361H97.1981H97.0616H96.9267H96.7933H96.6615H96.5312H96.4025H96.2754H96.1499H96.026H95.9036H95.7829H95.6638H95.5463H95.4304H95.3162H95.2036H95.0927H94.9835H94.8759H94.77H94.6658H94.5633H94.4625H94.3634H94.266H94.1704H94.0765H93.9844H93.894H93.8053H93.7184H93.6334H93.55H93.4685H93.3888H93.3109H93.2348H93.1606H93.0881H93.0176H92.9488H92.8819H92.8169H92.7538H92.6925H92.6332H92.5757H92.5201Z"
      fill="white"
      stroke="#054742"
      stroke-width="1.5"
    />
    <path
      d="M179.398 46.7475V32.9805H189.134V46.7475L184.266 42.6174L179.398 46.7475Z"
      fill="#054742"
      stroke="#054742"
      stroke-width="1.5"
    />
    <path
      d="M184.847 11.8537L184.266 11.1425L183.685 11.8537L180.929 15.2286L176.692 14.1012L175.799 13.8633L175.75 14.7869L175.525 19.1133L171.433 20.6639L170.559 20.9955L171.073 21.7772L173.458 25.4068L171.073 29.0363L170.559 29.8181L171.433 30.1496L175.525 31.7002L175.75 36.0266L175.799 36.9503L176.692 36.7124L180.929 35.5849L183.685 38.9599L184.266 39.6711L184.847 38.9599L187.604 35.5849L191.84 36.7124L192.734 36.9503L192.782 36.0266L193.007 31.7002L197.099 30.1496L197.974 29.8181L197.46 29.0363L195.074 25.4068L197.46 21.7772L197.974 20.9955L197.099 20.6639L193.007 19.1133L192.782 14.7869L192.734 13.8633L191.84 14.1012L187.604 15.2286L184.847 11.8537Z"
      fill="#054742"
      stroke="white"
      stroke-width="1.5"
    />
    <path
      d="M188.384 25.4083C188.384 27.648 186.548 29.4768 184.266 29.4768C181.984 29.4768 180.148 27.648 180.148 25.4083C180.148 23.1686 181.984 21.3398 184.266 21.3398C186.548 21.3398 188.384 23.1686 188.384 25.4083Z"
      stroke="white"
      stroke-width="1.5"
    />
    <path
      d="M222.361 134.636H183.726C181.321 134.636 179.398 132.603 179.398 130.063V125.659C179.398 123.118 181.321 121.086 183.726 121.086H222.361C224.765 121.086 226.689 123.118 226.689 125.659V130.063C226.689 132.603 224.685 134.636 222.361 134.636Z"
      fill="#FEFEFE"
      stroke="#054742"
      stroke-width="1.5"
    />
    <path
      d="M222.361 146.955H183.726C181.321 146.955 179.398 145.107 179.398 142.797V138.794C179.398 136.484 181.321 134.637 183.726 134.637H222.361C224.765 134.637 226.689 136.484 226.689 138.794V142.797C226.689 145.107 224.685 146.955 222.361 146.955Z"
      fill="#FEFEFE"
      stroke="#054742"
      stroke-width="1.5"
    />
    <path
      d="M222.361 121.087H183.726C181.321 121.087 179.398 119.24 179.398 116.93V112.927C179.398 110.617 181.321 108.77 183.726 108.77H222.361C224.765 108.77 226.689 110.617 226.689 112.927V116.93C226.689 119.24 224.685 121.087 222.361 121.087Z"
      fill="#FEFEFE"
      stroke="#054742"
      stroke-width="1.5"
    />
    <path d="M185.866 108.77V146.616" stroke="#054742" stroke-width="1.5" />
    <path d="M194.684 108.77V146.616" stroke="#054742" stroke-width="1.5" />
    <path d="M203.503 108.77V146.616" stroke="#054742" stroke-width="1.5" />
    <path d="M212.321 108.77V146.616" stroke="#054742" stroke-width="1.5" />
    <path d="M221.139 108.77V146.616" stroke="#054742" stroke-width="1.5" />
    <path
      d="M202.123 107.696C210.833 109.67 219.51 104.282 221.505 95.6617C223.5 87.0411 218.057 78.452 209.347 76.4775C200.638 74.503 191.96 79.8907 189.965 88.5113C187.97 97.132 193.413 105.721 202.123 107.696Z"
      fill="#054742"
    />
    <path
      d="M210.09 86.6112C205.555 81.4864 198.626 88.2289 204.948 91.4874C205.252 91.6431 205.571 91.7731 205.895 91.8824C212.194 94.0025 208.904 103.834 200.084 97.7625"
      stroke="#FEFEFE"
      stroke-width="1.5"
      stroke-miterlimit="10"
      stroke-linecap="round"
    />
    <path
      d="M207.899 82.2422L203.297 101.845"
      stroke="#FEFEFE"
      stroke-width="1.5"
      stroke-miterlimit="10"
      stroke-linecap="round"
    />
    <line
      x1="106.428"
      y1="68.0234"
      x2="182.82"
      y2="68.0234"
      stroke="#054742"
      stroke-width="1.5"
      stroke-linecap="square"
    />
    <line
      x1="106.428"
      y1="74.9062"
      x2="150.829"
      y2="74.9062"
      stroke="#054742"
      stroke-width="1.5"
      stroke-linecap="square"
    />
    <line
      x1="159.284"
      y1="74.9062"
      x2="177.257"
      y2="74.9062"
      stroke="#054742"
      stroke-width="1.5"
      stroke-linecap="square"
    />
    <line
      x1="106.428"
      y1="83.168"
      x2="184.211"
      y2="83.168"
      stroke="#054742"
      stroke-width="1.5"
      stroke-linecap="square"
    />
    <line
      x1="106.428"
      y1="90.0508"
      x2="143.874"
      y2="90.0508"
      stroke="#054742"
      stroke-width="1.5"
      stroke-linecap="square"
    />
    <path
      d="M121.824 37.7767C121.232 37.144 120.53 36.6422 119.758 36.2998C118.985 35.9575 118.157 35.7812 117.32 35.7812C116.484 35.7812 115.656 35.9575 114.883 36.2998C114.11 36.6422 113.408 37.144 112.817 37.7767C112.458 38.1617 111.709 39.0619 111.453 39.5052C112.669 38.7023 114.103 38.3608 115.523 38.5358C116.942 38.7108 118.266 39.3921 119.279 40.4699C120.293 41.5477 120.937 42.9592 121.109 44.4768C121.281 45.9945 120.971 47.5299 120.227 48.8355L120.325 48.7304C120.752 48.4536 121.456 47.8052 121.824 47.4112C122.415 46.7786 122.884 46.0276 123.205 45.201C123.525 44.3745 123.689 43.4886 123.689 42.5939C123.689 41.6993 123.525 40.8134 123.205 39.9868C122.884 39.1603 122.415 38.4093 121.824 37.7767Z"
      fill="#054742"
    />
    <path
      d="M111.027 49.3287C108.524 46.652 106.992 41.7283 109.816 36.5234L108.496 37.9355C106.748 39.8054 105.766 42.3414 105.766 44.9858C105.766 47.6301 106.748 50.1661 108.496 52.0359C110.244 53.9057 112.615 54.9561 115.087 54.9561C117.559 54.956 119.93 53.9055 121.678 52.0356L122.998 50.6235C118.364 53.5053 113.752 52.2445 111.027 49.3287Z"
      fill="#054742"
    />
    <path
      d="M80.015 46.706C86.722 53.3444 90.6918 61.4666 92.9851 67.9537C94.1305 71.1936 94.8541 74.0158 95.291 76.0253C95.4893 76.9378 95.6285 77.682 95.721 78.221C95.1754 78.1294 94.4195 77.9912 93.4916 77.7935C91.4607 77.361 88.6086 76.6445 85.3345 75.5106C78.7786 73.2401 70.5712 69.3099 63.8638 62.6711C57.1568 56.0327 53.187 47.9107 50.8937 41.4238C49.7483 38.184 49.0247 35.3619 48.5878 33.3525C48.3894 32.4401 48.2503 31.6958 48.1578 31.1568C48.7035 31.2485 49.4594 31.3867 50.3873 31.5843C52.4183 32.0169 55.2704 32.7333 58.5446 33.8672C65.1006 36.1376 73.3079 40.0676 80.015 46.706Z"
      fill="white"
      stroke="#054742"
      stroke-width="1.5"
    />
    <path
      d="M59.8726 34.4219L59.9751 41.2166"
      stroke="#054742"
      stroke-width="1.5"
    />
    <path d="M71.4331 39.625V48.9876" stroke="#054742" stroke-width="1.5" />
    <path
      d="M59.8728 58.1523L70.3832 58.1523"
      stroke="#054742"
      stroke-width="1.5"
    />
    <path
      d="M72.4839 69.793L78.5118 70.051"
      stroke="#054742"
      stroke-width="1.5"
    />
    <path
      d="M53.5657 47.75L59.8719 47.75"
      stroke="#054742"
      stroke-width="1.5"
    />
    <path
      d="M84.366 51.25L84.366 60.4242"
      stroke="#054742"
      stroke-width="1.5"
    />
    <line
      y1="-0.75"
      x2="54.0732"
      y2="-0.75"
      transform="matrix(0.710732 0.703463 -0.710732 0.703463 64.9399 49.2461)"
      stroke="#054742"
      stroke-width="1.5"
    />
    <line
      y1="-0.75"
      x2="41.919"
      y2="-0.75"
      transform="matrix(0.710732 0.703463 -0.710732 0.703463 64.9399 49.2461)"
      stroke="#054742"
      stroke-width="1.5"
    />
    <path
      d="M216.202 39.1103H202.402L202.402 32.7467C202.402 27.8131 205.629 24.0898 209.302 24.0898C212.976 24.0898 216.203 27.8131 216.203 32.7467L216.202 39.1103Z"
      fill="white"
      stroke="#054742"
      stroke-width="1.5"
    />
    <path
      d="M92.4647 100.61L118.607 121.777L120.979 117.073L92.4647 93.5547L63.9507 117.177L66.3292 121.777L92.4647 100.61Z"
      fill="#054742"
    />
    <path
      d="M82.9601 134.32C83.0168 131.879 84.0491 129.559 85.8306 127.869C87.6122 126.179 89.9978 125.258 92.4648 125.305C94.9317 125.258 97.3173 126.179 99.0989 127.869C100.88 129.559 101.913 131.879 101.969 134.32V150H116.592L116.226 121.778L92.4648 102.215L68.7031 121.778L68.3372 150H82.9601V134.32Z"
      fill="#054742"
    />
    <path
      d="M92.455 125.805L92.4648 125.806L92.4745 125.805C94.8108 125.76 97.0691 126.633 98.7548 128.232C100.439 129.829 101.414 132.021 101.469 134.326V150V150.5H101.969H116.592H117.099L117.092 149.994L116.726 121.771L116.723 121.539L116.544 121.392L92.7825 101.829L92.4648 101.567L92.147 101.829L68.3853 121.392L68.2061 121.539L68.2031 121.771L67.8372 149.994L67.8306 150.5H68.3372H82.9601H83.4601V150V134.326C83.5152 132.021 84.4906 129.829 86.1747 128.232C87.8604 126.633 90.1187 125.76 92.455 125.805Z"
      fill="#054742"
      stroke="white"
    />
    <path
      d="M100.781 149.999V134.319C100.778 133.28 100.56 132.252 100.141 131.299C99.7225 130.346 99.1115 129.487 98.3458 128.776C96.7501 127.301 94.6482 126.48 92.4648 126.48C90.2814 126.48 88.1794 127.301 86.5838 128.776C85.818 129.487 85.207 130.346 84.7882 131.299C84.3694 132.252 84.1516 133.28 84.1482 134.319V149.999H100.781Z"
      fill="#054742"
    />
    <path
      d="M248.543 63.2635L250.57 64.3373L248.543 65.411C246.515 66.4848 244.965 68.1552 243.892 70.0642L242.818 72.0925L241.745 70.0642C240.672 68.0359 239.002 66.4848 237.094 65.411L235.067 64.3373L237.094 63.2635C239.122 62.1897 240.672 60.5193 241.745 58.6103L242.818 56.582L243.892 58.6103C244.965 60.5193 246.515 62.1897 248.543 63.2635Z"
      fill="#054742"
    />
    <path
      d="M49.7767 74.5135L51.8041 75.5873L49.7767 76.6611C47.7494 77.7349 46.1991 79.4052 45.1258 81.3142L44.0525 83.3425L42.9792 81.3142C41.906 79.2859 40.2364 77.7349 38.3283 76.6611L36.301 75.5873L38.3283 74.5135C40.3557 73.4397 41.906 71.7693 42.9792 69.8603L44.0525 67.832L45.1258 69.8603C46.1991 71.7693 47.7494 73.4397 49.7767 74.5135Z"
      fill="#054742"
    />
    <path
      d="M251.05 25.7462L252.243 26.4621L251.05 27.1779C249.858 27.8938 248.785 28.8483 248.069 30.1607L247.354 31.3538L246.638 30.1607C245.922 28.9676 244.968 27.8938 243.657 27.1779L242.464 26.4621L243.657 25.7462C244.849 25.0303 245.922 24.0758 246.638 22.7634L247.354 21.5703L248.069 22.7634C248.785 24.0758 249.858 25.1496 251.05 25.7462Z"
      fill="#054742"
    />
    <path
      d="M33.2435 55.9415L34.4361 56.6574L33.2435 57.3732C32.051 58.0891 30.9777 59.0436 30.2622 60.356L29.5466 61.5491L28.8311 60.356C28.1156 59.1629 27.1616 58.0891 25.8498 57.3732L24.6572 56.6574L25.8498 55.9415C27.0423 55.2256 28.1156 54.2712 28.8311 52.9587L29.5466 51.7656L30.2622 52.9587C30.9777 54.2712 32.051 55.345 33.2435 55.9415Z"
      fill="#054742"
    />
  </svg>