<svg width="48" height="38" viewBox="0 0 48 38" fill="none" xmlns="http://www.w3.org/2000/svg">
    <circle cx="25.5189" cy="8.31384" r="7.56384" fill="#DBECE4" stroke="#054742" stroke-width="1.5"/>
    <path d="M46.1903 24.009C44.4088 21.9023 41.4871 22.8688 39.9104 23.3854C38.9127 23.715 36.521 24.7216 34.165 25.7192C34.3071 24.9663 34.2105 24.1878 33.8888 23.4923C32.615 20.584 29.4706 21.1407 27.1724 21.5505C26.4633 21.7044 25.7419 21.7954 25.0168 21.8221C23.7883 21.8083 22.5757 21.5431 21.4537 21.0427C19.9965 20.4157 18.4209 20.1118 16.8351 20.1519C13.7987 20.2081 10.8052 20.8777 8.03427 22.1205L7.53544 22.3254C3.39782 23.9733 1.61628 24.3475 1.61628 24.3475C1.45053 24.3805 1.29761 24.4601 1.17537 24.5768C1.05313 24.6935 0.966618 24.8426 0.925939 25.0066C0.894762 25.1358 0.195509 28.1243 2.17747 32.3243C3.87884 35.8874 5.8697 37.2547 7.23703 37.7491C7.37893 37.7999 7.5314 37.8139 7.68018 37.7898C7.82896 37.7656 7.96918 37.7041 8.08772 37.611C8.08772 37.611 9.20563 36.7202 10.0608 36.2214C10.6264 35.8785 12.0026 35.6602 15.3697 36.5955C18.485 37.4245 21.6872 37.8835 24.9099 37.9629C26.1649 38.0038 27.4177 37.8321 28.6155 37.4551C32.1295 36.119 40.6809 31.6651 44.0436 29.8391C45.8251 28.8681 46.796 27.8215 47.0187 26.6367C47.0912 26.1645 47.0542 25.682 46.9106 25.2264C46.7669 24.7708 46.5205 24.3542 46.1903 24.009ZM45.2639 26.3116C45.1526 26.9129 44.4132 27.6121 43.1884 28.2802C40.3647 29.8257 31.4837 34.4799 27.9875 35.7938C25.5334 36.7113 19.3559 35.8562 15.8463 34.9031C14.444 34.4627 12.9901 34.2081 11.5216 34.1459C10.6887 34.1057 9.86087 34.2968 9.12991 34.6982C8.52865 35.0634 7.84275 35.5622 7.41073 35.8829C6.07458 35.2148 4.80523 33.7005 3.78531 31.5538C2.90468 29.8161 2.49323 27.8786 2.59168 25.933C4.49565 25.3772 6.3676 24.717 8.19906 23.9555L8.71125 23.7462C11.2778 22.5867 14.0547 21.9652 16.8707 21.9201C18.2313 21.8848 19.5826 22.1542 20.8257 22.7085C22.1378 23.2838 23.553 23.5868 24.9856 23.5992C25.8256 23.5732 26.6617 23.4734 27.4842 23.3008C29.9383 22.8554 31.5951 22.6906 32.2543 24.1916C32.3668 24.4225 32.4307 24.6741 32.4422 24.9307C32.4537 25.1873 32.4125 25.4436 32.3211 25.6836C32.0716 26.2982 31.4303 26.8594 30.4237 27.3137C29.533 27.6878 28.8649 27.9773 28.5709 28.0931C26.6825 28.8325 25.0568 28.5742 23.4846 28.3247L22.6206 28.1911C22.3843 28.1592 22.1451 28.2225 21.9555 28.367C21.7659 28.5115 21.6415 28.7254 21.6096 28.9616C21.5777 29.1979 21.6409 29.4371 21.7854 29.6267C21.9299 29.8163 22.1438 29.9408 22.3801 29.9727C22.6518 30.0083 22.9279 30.0528 23.2041 30.0974C24.9277 30.3691 26.8785 30.6764 29.2212 29.7633C29.4929 29.6564 30.0362 29.4293 30.7578 29.1175C30.8914 29.0641 31.0205 29.0106 31.1452 28.9527L32.2943 28.4628C35.1938 27.2157 39.1666 25.5055 40.4716 25.0779C42.5426 24.3965 43.9946 24.1871 44.8274 25.1581C45.3664 25.7905 45.2906 26.1824 45.2639 26.3116Z" fill="#064944"/>
    <path d="M24.8955 3.10634V4.07536C24.6771 4.13311 24.4655 4.22152 24.2655 4.33864C23.9445 4.52622 23.6734 4.81128 23.4809 5.16349C23.2884 5.5157 23.1818 5.92189 23.1724 6.33884C23.1283 7.94413 24.3726 8.48166 25.2798 8.87293C26.3383 9.33001 26.6596 9.56404 26.6124 10.1491C26.6028 10.3482 26.5427 10.5395 26.4395 10.699C26.3363 10.8584 26.1948 10.9788 26.0327 11.045C25.7295 11.1793 25.4041 11.2326 25.0807 11.201C24.7573 11.1693 24.4442 11.0535 24.1647 10.8622C24.0995 10.8026 24.0249 10.7586 23.9451 10.7325C23.8652 10.7064 23.7818 10.6988 23.6994 10.7102C23.6171 10.7216 23.5375 10.7517 23.4651 10.7988C23.3928 10.8459 23.3292 10.909 23.2779 10.9847C23.2266 11.0603 23.1886 11.1469 23.1662 11.2396C23.1437 11.3322 23.1372 11.4291 23.147 11.5247C23.1568 11.6203 23.1827 11.7127 23.2233 11.7967C23.2639 11.8806 23.3183 11.9545 23.3834 12.014C23.8271 12.3837 24.3507 12.6027 24.8955 12.6466V13.5206C24.8955 13.7145 24.9619 13.9006 25.0801 14.0377C25.1982 14.1749 25.3585 14.2519 25.5256 14.2519C25.6927 14.2519 25.8529 14.1749 25.9711 14.0377C26.0892 13.9006 26.1556 13.7145 26.1556 13.5206V12.5369C26.2874 12.4981 26.4168 12.4492 26.5431 12.3907C26.913 12.2211 27.2346 11.9346 27.4712 11.5636C27.7079 11.1925 27.8502 10.7519 27.8819 10.2917C28.0331 8.49263 26.6502 7.89659 25.7366 7.50167C24.7569 7.08115 24.4324 6.86175 24.445 6.38638C24.4483 6.22632 24.4902 6.07053 24.5659 5.93672C24.6416 5.80292 24.7482 5.69646 24.8735 5.62945C25.1641 5.48313 25.4814 5.4229 25.7971 5.45417C26.1127 5.48545 26.4167 5.60725 26.6817 5.80863C26.7518 5.86288 26.8306 5.90026 26.9134 5.91854C26.9962 5.93682 27.0813 5.93563 27.1637 5.91504C27.2461 5.89446 27.3241 5.8549 27.3931 5.79869C27.4621 5.74249 27.5206 5.6708 27.5653 5.58785C27.61 5.50491 27.6399 5.4124 27.6532 5.3158C27.6666 5.21921 27.6631 5.12049 27.6429 5.02549C27.6228 4.93049 27.5865 4.84114 27.5361 4.76273C27.4857 4.68432 27.4223 4.61845 27.3495 4.56901C26.9847 4.30467 26.5793 4.12463 26.1556 4.03879V3.10634C26.1556 2.91237 26.0892 2.72636 25.9711 2.5892C25.8529 2.45205 25.6927 2.375 25.5256 2.375C25.3585 2.375 25.1982 2.45205 25.0801 2.5892C24.9619 2.72636 24.8955 2.91237 24.8955 3.10634Z" fill="#064944"/>
    </svg>