<svg width="41" height="43" viewBox="0 0 41 43" fill="none" xmlns="http://www.w3.org/2000/svg">
    <path d="M10.0506 41H1V6.84899H7.0886C7.66455 3.08116 11.2025 0.515827 14.9873 1.07699C18.0316 1.47783 20.5 3.88283 20.9114 6.84899H27V41H17.9494V36.1098C17.9494 33.9453 16.1392 32.1817 13.9177 32.1817C11.6962 32.1817 9.88606 33.9453 9.88606 36.1098V41H10.0506Z" fill="#DBECE4" stroke="#064944" stroke-width="1.5" stroke-miterlimit="10" stroke-linecap="round" stroke-linejoin="round"/>
    <path d="M8 14H11" stroke="#064944" stroke-width="1.5" stroke-miterlimit="10" stroke-linecap="round" stroke-linejoin="round"/>
    <path d="M17 14H20" stroke="#064944" stroke-width="1.5" stroke-miterlimit="10" stroke-linecap="round" stroke-linejoin="round"/>
    <path d="M8 20H11" stroke="#064944" stroke-width="1.5" stroke-miterlimit="10" stroke-linecap="round" stroke-linejoin="round"/>
    <path d="M17 20H20" stroke="#064944" stroke-width="1.5" stroke-miterlimit="10" stroke-linecap="round" stroke-linejoin="round"/>
    <path d="M8 26H11" stroke="#064944" stroke-width="1.5" stroke-miterlimit="10" stroke-linecap="round" stroke-linejoin="round"/>
    <path d="M17 26H20" stroke="#064944" stroke-width="1.5" stroke-miterlimit="10" stroke-linecap="round" stroke-linejoin="round"/>
    <path d="M39.25 41.25L35.75 37.75" stroke="#054742" stroke-width="1.5" stroke-miterlimit="10" stroke-linecap="square"/>
    <path d="M28.75 37.75C32.616 37.75 35.75 34.616 35.75 30.75C35.75 26.884 32.616 23.75 28.75 23.75C24.884 23.75 21.75 26.884 21.75 30.75C21.75 34.616 24.884 37.75 28.75 37.75Z" fill="white" stroke="#054742" stroke-width="1.5" stroke-miterlimit="10" stroke-linecap="square"/>
    <path d="M25.25 30.75C25.25 29.8217 25.6187 28.9315 26.2751 28.2751C26.9315 27.6187 27.8217 27.25 28.75 27.25" stroke="#054742" stroke-width="1.5" stroke-miterlimit="10"/>
    </svg>