<svg width="43" height="47" viewBox="0 0 43 47" fill="none" xmlns="http://www.w3.org/2000/svg">
      <path d="M39.2814 29.2037C39.2814 28.4155 38.7748 27.6837 38.0429 27.4022L31.3999 24.8689C31.0059 24.7 30.5555 24.7 30.1051 24.8689L23.4622 27.4585C22.7303 27.74 22.2236 28.4718 22.2236 29.26V35.1711C22.2236 37.3104 22.8992 39.4496 24.194 41.1385C25.3762 42.6022 28.2473 44.4037 29.7674 45.3045C30.3866 45.6422 31.1185 45.6985 31.7377 45.3608C33.877 44.2911 35.8474 42.8837 37.2548 41.1385C38.6059 39.4496 39.2252 37.3104 39.2252 35.1711L39.2814 29.2037Z" fill="#DBECE4" stroke="#064944" stroke-width="1.5" stroke-miterlimit="10" stroke-linecap="round" stroke-linejoin="round"/>
      <path d="M20.8164 42.0387H1.50668C1.2252 42.0387 1 41.8135 1 41.532V8.93636C1 8.65488 1.2252 8.42969 1.50668 8.42969H6.68594" stroke="#064944" stroke-width="1.5" stroke-miterlimit="10" stroke-linecap="round" stroke-linejoin="round"/>
      <path d="M25.7705 8.48828H33.2016C33.4831 8.48828 33.7083 8.71346 33.7083 8.99495V22.0557" stroke="#064944" stroke-width="1.5" stroke-miterlimit="10" stroke-linecap="round" stroke-linejoin="round"/>
      <path d="M21.8861 5.56001C21.8861 3.08297 19.8594 1 17.3261 1C14.7927 1 12.7661 3.02667 12.7661 5.56001H10.1201C9.61346 5.56001 9.16309 5.95409 9.16309 6.51705V10.12C9.16309 10.6267 9.55717 11.0771 10.1201 11.0771H24.5883C25.095 11.0771 25.5454 10.683 25.5454 10.12V6.51705C25.5454 6.01038 25.1513 5.56001 24.5883 5.56001H21.8861Z" fill="#DBECE4" stroke="#064944" stroke-width="1.5" stroke-miterlimit="10" stroke-linecap="round" stroke-linejoin="round"/>
      <path d="M6.57324 16.3125H27.9659" stroke="#064944" stroke-width="1.5" stroke-miterlimit="10" stroke-linecap="round" stroke-linejoin="round"/>
      <path d="M6.57324 22.6172H27.9659" stroke="#064944" stroke-width="1.5" stroke-miterlimit="10" stroke-linecap="round" stroke-linejoin="round"/>
      <path d="M6.57324 28.9219H17.2696" stroke="#064944" stroke-width="1.5" stroke-miterlimit="10" stroke-linecap="round" stroke-linejoin="round"/>
      <path d="M6.57324 35.2852H17.2696" stroke="#064944" stroke-width="1.5" stroke-miterlimit="10" stroke-linecap="round" stroke-linejoin="round"/>
      <path d="M25.0391 32.6961L30.6687 38.3257L41.365 25.1523" stroke="#064944" stroke-width="1.5" stroke-miterlimit="10" stroke-linecap="round" stroke-linejoin="round"/>
      </svg>