<svg width="410" height="328" viewBox="0 0 410 328" fill="none" xmlns="http://www.w3.org/2000/svg">
<rect width="410" height="328" fill="#F5F3F0"/>
<path d="M81.3149 260.46H89.1579V261.669H85.9184V271H84.5544V261.669H81.3149V260.46ZM95.1617 263.622L92.1392 272.225C92.0255 272.555 91.9067 272.834 91.7827 273.062C91.6587 273.299 91.5192 273.49 91.3642 273.635C91.2092 273.78 91.0284 273.888 90.8217 273.961C90.615 274.033 90.367 274.069 90.0777 274.069C89.84 274.069 89.6489 274.059 89.5042 274.038C89.3595 274.028 89.2149 274.012 89.0702 273.992V272.86C89.3285 272.922 89.6024 272.953 89.8917 272.953C90.15 272.953 90.3619 272.881 90.5272 272.736C90.6925 272.602 90.8475 272.312 90.9922 271.868L91.2557 271.093L88.6207 263.622H90.0002L91.2712 267.481L91.9377 269.574H91.9687C92.0514 269.316 92.1392 269.016 92.2322 268.675C92.3355 268.334 92.4595 267.946 92.6042 267.512L93.8752 263.622H95.1617ZM100.223 271.186C99.655 271.186 99.1796 271.067 98.7973 270.829C98.415 270.581 98.1205 270.277 97.9138 269.915V273.945H96.6273V263.622H97.9138V264.707C98.0998 264.366 98.3891 264.071 98.7818 263.823C99.1848 263.575 99.6601 263.451 100.208 263.451C100.683 263.451 101.117 263.544 101.51 263.73C101.902 263.906 102.238 264.164 102.517 264.505C102.796 264.836 103.013 265.244 103.168 265.73C103.323 266.205 103.401 266.743 103.401 267.342C103.401 267.931 103.323 268.463 103.168 268.938C103.013 269.403 102.796 269.806 102.517 270.147C102.238 270.478 101.902 270.736 101.51 270.922C101.127 271.098 100.699 271.186 100.223 271.186ZM97.8673 267.326C97.8673 268.205 98.0533 268.887 98.4253 269.372C98.8076 269.858 99.3243 270.101 99.9753 270.101C100.626 270.101 101.138 269.858 101.51 269.372C101.892 268.876 102.083 268.189 102.083 267.311C102.083 266.412 101.892 265.725 101.51 265.249C101.127 264.764 100.611 264.521 99.9598 264.521C99.3191 264.521 98.8076 264.764 98.4253 265.249C98.0533 265.735 97.8673 266.427 97.8673 267.326ZM106.521 271H105.234V263.622H106.521V271ZM106.521 262.103H105.234V260.46H106.521V262.103ZM113.759 266.024C113.594 265.559 113.356 265.198 113.046 264.939C112.736 264.671 112.333 264.536 111.837 264.536C111.166 264.536 110.634 264.784 110.241 265.28C109.848 265.766 109.652 266.448 109.652 267.326C109.652 268.194 109.848 268.871 110.241 269.357C110.644 269.843 111.176 270.085 111.837 270.085C112.344 270.085 112.752 269.967 113.062 269.729C113.372 269.481 113.62 269.15 113.806 268.737L114.844 269.31C114.731 269.548 114.581 269.781 114.395 270.008C114.219 270.235 114.007 270.437 113.759 270.612C113.511 270.788 113.227 270.928 112.907 271.031C112.587 271.134 112.225 271.186 111.822 271.186C111.295 271.186 110.814 271.098 110.38 270.922C109.957 270.747 109.595 270.499 109.295 270.178C108.996 269.848 108.763 269.445 108.598 268.969C108.433 268.494 108.35 267.952 108.35 267.342C108.35 266.743 108.433 266.2 108.598 265.714C108.774 265.229 109.016 264.821 109.326 264.49C109.636 264.159 110.003 263.906 110.427 263.73C110.851 263.544 111.316 263.451 111.822 263.451C112.597 263.451 113.238 263.637 113.744 264.009C114.25 264.371 114.617 264.846 114.844 265.435L113.759 266.024ZM118.824 270.225C119.454 270.225 119.956 270.039 120.328 269.667C120.483 269.512 120.607 269.326 120.7 269.109C120.793 268.892 120.839 268.603 120.839 268.241V267.202C120.808 267.223 120.756 267.254 120.684 267.295C120.622 267.337 120.472 267.383 120.235 267.435L118.855 267.714C118.328 267.828 117.93 267.977 117.662 268.163C117.403 268.349 117.274 268.623 117.274 268.985C117.274 269.419 117.424 269.734 117.724 269.93C118.023 270.127 118.39 270.225 118.824 270.225ZM116.205 265.962C116.215 265.156 116.484 264.542 117.011 264.118C117.538 263.694 118.256 263.482 119.165 263.482C119.537 263.482 119.894 263.513 120.235 263.575C120.576 263.637 120.875 263.751 121.134 263.916C121.402 264.082 121.614 264.309 121.769 264.598C121.934 264.877 122.022 265.239 122.033 265.683C122.033 265.89 122.033 266.102 122.033 266.319C122.043 266.526 122.048 266.732 122.048 266.939V269.403C122.048 269.703 122.089 269.91 122.172 270.023C122.255 270.137 122.394 270.194 122.591 270.194C122.642 270.194 122.689 270.194 122.73 270.194C122.782 270.184 122.833 270.173 122.885 270.163V271.016C122.802 271.036 122.699 271.057 122.575 271.078C122.451 271.098 122.291 271.109 122.095 271.109C121.754 271.109 121.475 271.036 121.258 270.891C121.051 270.736 120.937 270.478 120.917 270.116C120.834 270.209 120.731 270.318 120.607 270.442C120.483 270.566 120.322 270.685 120.126 270.798C119.93 270.902 119.697 270.99 119.429 271.062C119.16 271.145 118.845 271.186 118.483 271.186C118.111 271.186 117.77 271.14 117.46 271.047C117.15 270.953 116.876 270.819 116.639 270.643C116.411 270.457 116.23 270.23 116.096 269.961C115.972 269.693 115.91 269.378 115.91 269.016C115.91 268.634 115.982 268.313 116.127 268.055C116.282 267.797 116.489 267.585 116.747 267.419C117.016 267.244 117.326 267.104 117.677 267.001C118.039 266.898 118.426 266.815 118.84 266.753L119.785 266.598C120.136 266.546 120.395 266.474 120.56 266.381C120.736 266.278 120.824 266.086 120.824 265.807C120.824 265.611 120.798 265.435 120.746 265.28C120.694 265.115 120.601 264.976 120.467 264.862C120.343 264.748 120.173 264.66 119.956 264.598C119.749 264.536 119.485 264.505 119.165 264.505C118.514 264.505 118.059 264.65 117.801 264.939C117.543 265.218 117.414 265.59 117.414 266.055L116.205 265.962ZM125.636 271H124.349V260.46H125.636V271ZM133.122 261.684V264.97H138.361V266.195H133.122V269.791H139.244V271H131.773V260.46H138.888V261.684H133.122ZM145.432 271V267.017C145.432 266.634 145.411 266.288 145.37 265.978C145.339 265.668 145.267 265.404 145.153 265.187C145.05 264.97 144.9 264.805 144.704 264.691C144.518 264.567 144.27 264.505 143.96 264.505C143.371 264.505 142.926 264.728 142.627 265.172C142.337 265.606 142.193 266.185 142.193 266.908V271H140.906V263.622H142.193V264.722C142.368 264.35 142.652 264.046 143.045 263.808C143.438 263.57 143.898 263.451 144.425 263.451C144.962 263.451 145.406 263.581 145.758 263.839C146.119 264.087 146.357 264.412 146.471 264.815C146.667 264.433 146.967 264.113 147.37 263.854C147.773 263.586 148.279 263.451 148.889 263.451C149.726 263.451 150.325 263.689 150.687 264.164C151.059 264.64 151.245 265.327 151.245 266.226V271H149.958V267.017C149.958 266.634 149.937 266.288 149.896 265.978C149.865 265.668 149.793 265.404 149.679 265.187C149.576 264.97 149.426 264.805 149.23 264.691C149.044 264.567 148.796 264.505 148.486 264.505C147.897 264.505 147.452 264.728 147.153 265.172C146.863 265.606 146.719 266.185 146.719 266.908V271H145.432ZM157.09 271.186C156.522 271.186 156.046 271.067 155.664 270.829C155.282 270.581 154.987 270.277 154.78 269.915V273.945H153.494V263.622H154.78V264.707C154.966 264.366 155.256 264.071 155.648 263.823C156.051 263.575 156.527 263.451 157.074 263.451C157.55 263.451 157.984 263.544 158.376 263.73C158.769 263.906 159.105 264.164 159.384 264.505C159.663 264.836 159.88 265.244 160.035 265.73C160.19 266.205 160.267 266.743 160.267 267.342C160.267 267.931 160.19 268.463 160.035 268.938C159.88 269.403 159.663 269.806 159.384 270.147C159.105 270.478 158.769 270.736 158.376 270.922C157.994 271.098 157.565 271.186 157.09 271.186ZM154.734 267.326C154.734 268.205 154.92 268.887 155.292 269.372C155.674 269.858 156.191 270.101 156.842 270.101C157.493 270.101 158.004 269.858 158.376 269.372C158.759 268.876 158.95 268.189 158.95 267.311C158.95 266.412 158.759 265.725 158.376 265.249C157.994 264.764 157.477 264.521 156.826 264.521C156.186 264.521 155.674 264.764 155.292 265.249C154.92 265.735 154.734 266.427 154.734 267.326ZM163.387 271H162.101V260.46H163.387V271ZM165.217 267.342C165.217 266.753 165.294 266.221 165.449 265.745C165.614 265.26 165.847 264.852 166.147 264.521C166.457 264.18 166.823 263.916 167.247 263.73C167.681 263.544 168.167 263.451 168.704 263.451C169.241 263.451 169.727 263.544 170.161 263.73C170.595 263.916 170.962 264.18 171.262 264.521C171.561 264.852 171.794 265.26 171.959 265.745C172.124 266.221 172.207 266.753 172.207 267.342C172.207 267.931 172.124 268.463 171.959 268.938C171.804 269.403 171.572 269.806 171.262 270.147C170.962 270.478 170.595 270.736 170.161 270.922C169.727 271.098 169.241 271.186 168.704 271.186C168.156 271.186 167.666 271.098 167.232 270.922C166.808 270.736 166.446 270.478 166.147 270.147C165.847 269.806 165.614 269.403 165.449 268.938C165.294 268.463 165.217 267.931 165.217 267.342ZM166.519 267.326C166.519 268.225 166.72 268.923 167.123 269.419C167.526 269.905 168.053 270.147 168.704 270.147C169.355 270.147 169.882 269.899 170.285 269.403C170.698 268.907 170.905 268.215 170.905 267.326C170.905 266.417 170.704 265.714 170.301 265.218C169.908 264.722 169.376 264.474 168.704 264.474C168.043 264.474 167.511 264.722 167.108 265.218C166.715 265.714 166.519 266.417 166.519 267.326ZM179.614 263.622L176.591 272.225C176.478 272.555 176.359 272.834 176.235 273.062C176.111 273.299 175.971 273.49 175.816 273.635C175.661 273.78 175.481 273.888 175.274 273.961C175.067 274.033 174.819 274.069 174.53 274.069C174.292 274.069 174.101 274.059 173.956 274.038C173.812 274.028 173.667 274.012 173.522 273.992V272.86C173.781 272.922 174.055 272.953 174.344 272.953C174.602 272.953 174.814 272.881 174.979 272.736C175.145 272.602 175.3 272.312 175.444 271.868L175.708 271.093L173.073 263.622H174.452L175.723 267.481L176.39 269.574H176.421C176.504 269.316 176.591 269.016 176.684 268.675C176.788 268.334 176.912 267.946 177.056 267.512L178.327 263.622H179.614ZM181.749 267.543C181.78 268.38 181.997 269.011 182.4 269.434C182.803 269.858 183.346 270.07 184.028 270.07C184.369 270.07 184.663 270.023 184.911 269.93C185.17 269.827 185.392 269.703 185.578 269.558C185.764 269.414 185.919 269.259 186.043 269.093C186.167 268.928 186.27 268.773 186.353 268.628L187.298 269.31C187.185 269.517 187.03 269.729 186.833 269.946C186.647 270.163 186.415 270.364 186.136 270.55C185.867 270.736 185.552 270.886 185.19 271C184.839 271.124 184.441 271.186 183.997 271.186C183.47 271.186 182.989 271.103 182.555 270.938C182.121 270.762 181.744 270.509 181.424 270.178C181.114 269.848 180.871 269.44 180.695 268.954C180.52 268.468 180.432 267.91 180.432 267.28C180.432 266.712 180.514 266.19 180.68 265.714C180.855 265.239 181.098 264.836 181.408 264.505C181.718 264.175 182.085 263.916 182.509 263.73C182.943 263.544 183.418 263.451 183.935 263.451C184.482 263.451 184.963 263.55 185.376 263.746C185.8 263.932 186.151 264.195 186.43 264.536C186.709 264.877 186.916 265.286 187.05 265.761C187.195 266.236 187.267 266.758 187.267 267.326V267.543H181.749ZM185.903 266.567C185.903 266.278 185.857 266.009 185.764 265.761C185.681 265.503 185.557 265.275 185.392 265.079C185.226 264.883 185.02 264.728 184.772 264.614C184.524 264.5 184.24 264.443 183.919 264.443C183.258 264.443 182.741 264.64 182.369 265.032C182.008 265.425 181.806 265.937 181.765 266.567H185.903ZM190.413 263.622V265.017C190.465 264.831 190.552 264.65 190.676 264.474C190.8 264.288 190.95 264.123 191.126 263.978C191.312 263.834 191.524 263.72 191.761 263.637C192.009 263.544 192.283 263.498 192.583 263.498C192.728 263.498 192.872 263.513 193.017 263.544V264.753C192.841 264.722 192.676 264.707 192.521 264.707C191.829 264.707 191.302 264.929 190.94 265.373C190.589 265.818 190.413 266.427 190.413 267.202V271H189.126V263.622H190.413ZM193.612 267.466V266.226H197.952V267.466H193.612ZM89.6911 281.816C89.3707 281.413 88.9729 281.093 88.4976 280.855C88.0326 280.607 87.5004 280.483 86.9011 280.483C86.2294 280.483 85.6817 280.638 85.2581 280.948C84.8447 281.258 84.6381 281.661 84.6381 282.157C84.6381 282.653 84.7982 283.015 85.1186 283.242C85.4389 283.469 85.9246 283.655 86.5756 283.8L87.9706 284.11C88.4459 284.213 88.8747 284.337 89.2571 284.482C89.6394 284.627 89.9649 284.813 90.2336 285.04C90.5126 285.257 90.7244 285.526 90.8691 285.846C91.0241 286.156 91.1016 286.538 91.1016 286.993C91.1016 287.458 91.0086 287.887 90.8226 288.279C90.6366 288.672 90.3679 289.013 90.0166 289.302C89.6652 289.581 89.2416 289.798 88.7456 289.953C88.2496 290.109 87.6864 290.186 87.0561 290.186C86.4774 290.186 85.9504 290.119 85.4751 289.984C85.0101 289.85 84.5967 289.674 84.2351 289.457C83.8837 289.24 83.5789 288.998 83.3206 288.729C83.0622 288.45 82.8556 288.171 82.7006 287.892L83.8786 287.086C83.9819 287.324 84.1317 287.556 84.3281 287.783C84.5244 288.011 84.7569 288.212 85.0256 288.388C85.3046 288.564 85.6146 288.708 85.9556 288.822C86.3069 288.925 86.6892 288.977 87.1026 288.977C87.9292 288.977 88.5596 288.806 88.9936 288.465C89.4276 288.124 89.6446 287.675 89.6446 287.117C89.6446 286.611 89.4637 286.239 89.1021 286.001C88.7404 285.753 88.2289 285.557 87.5676 285.412L86.2036 285.117C85.7902 285.024 85.4027 284.916 85.0411 284.792C84.6794 284.658 84.3591 284.482 84.0801 284.265C83.8114 284.038 83.5944 283.764 83.4291 283.443C83.2741 283.113 83.1966 282.71 83.1966 282.234C83.1966 281.8 83.2896 281.403 83.4756 281.041C83.6719 280.669 83.9354 280.354 84.2661 280.095C84.5967 279.837 84.9894 279.636 85.4441 279.491C85.9091 279.346 86.4102 279.274 86.9476 279.274C87.4436 279.274 87.8879 279.326 88.2806 279.429C88.6836 279.532 89.0401 279.667 89.3501 279.832C89.6601 279.987 89.9287 280.163 90.1561 280.359C90.3937 280.555 90.5901 280.746 90.7451 280.932L89.6911 281.816ZM96.4194 290.186C95.8511 290.186 95.3757 290.067 94.9934 289.829C94.6111 289.581 94.3166 289.277 94.1099 288.915V292.945H92.8234V282.622H94.1099V283.707C94.2959 283.366 94.5852 283.071 94.9779 282.823C95.3809 282.575 95.8562 282.451 96.4039 282.451C96.8792 282.451 97.3132 282.544 97.7059 282.73C98.0986 282.906 98.4344 283.164 98.7134 283.505C98.9924 283.836 99.2094 284.244 99.3644 284.73C99.5194 285.205 99.5969 285.743 99.5969 286.342C99.5969 286.931 99.5194 287.463 99.3644 287.938C99.2094 288.403 98.9924 288.806 98.7134 289.147C98.4344 289.478 98.0986 289.736 97.7059 289.922C97.3236 290.098 96.8947 290.186 96.4194 290.186ZM94.0634 286.326C94.0634 287.205 94.2494 287.887 94.6214 288.372C95.0037 288.858 95.5204 289.101 96.1714 289.101C96.8224 289.101 97.3339 288.858 97.7059 288.372C98.0882 287.876 98.2794 287.189 98.2794 286.311C98.2794 285.412 98.0882 284.725 97.7059 284.249C97.3236 283.764 96.8069 283.521 96.1559 283.521C95.5152 283.521 95.0037 283.764 94.6214 284.249C94.2494 284.735 94.0634 285.427 94.0634 286.326ZM100.934 286.342C100.934 285.753 101.012 285.221 101.167 284.745C101.332 284.26 101.565 283.852 101.864 283.521C102.174 283.18 102.541 282.916 102.965 282.73C103.399 282.544 103.884 282.451 104.422 282.451C104.959 282.451 105.445 282.544 105.879 282.73C106.313 282.916 106.68 283.18 106.979 283.521C107.279 283.852 107.511 284.26 107.677 284.745C107.842 285.221 107.925 285.753 107.925 286.342C107.925 286.931 107.842 287.463 107.677 287.938C107.522 288.403 107.289 288.806 106.979 289.147C106.68 289.478 106.313 289.736 105.879 289.922C105.445 290.098 104.959 290.186 104.422 290.186C103.874 290.186 103.383 290.098 102.949 289.922C102.526 289.736 102.164 289.478 101.864 289.147C101.565 288.806 101.332 288.403 101.167 287.938C101.012 287.463 100.934 286.931 100.934 286.342ZM102.236 286.326C102.236 287.225 102.438 287.923 102.841 288.419C103.244 288.905 103.771 289.147 104.422 289.147C105.073 289.147 105.6 288.899 106.003 288.403C106.416 287.907 106.623 287.215 106.623 286.326C106.623 285.417 106.421 284.714 106.018 284.218C105.626 283.722 105.093 283.474 104.422 283.474C103.76 283.474 103.228 283.722 102.825 284.218C102.433 284.714 102.236 285.417 102.236 286.326ZM115.872 290H114.585V285.939C114.585 285.474 114.549 285.086 114.477 284.776C114.415 284.466 114.311 284.218 114.167 284.032C114.032 283.846 113.862 283.717 113.655 283.645C113.459 283.562 113.221 283.521 112.942 283.521C112.611 283.521 112.327 283.583 112.09 283.707C111.852 283.831 111.656 283.996 111.501 284.203C111.346 284.41 111.232 284.647 111.16 284.916C111.087 285.174 111.051 285.448 111.051 285.737V290H109.765V282.622H111.051V283.722C111.206 283.371 111.475 283.071 111.857 282.823C112.239 282.575 112.741 282.451 113.361 282.451C113.815 282.451 114.198 282.524 114.508 282.668C114.828 282.803 115.086 282.999 115.283 283.257C115.489 283.516 115.639 283.831 115.732 284.203C115.825 284.565 115.872 284.973 115.872 285.427V290ZM122.531 284.435C122.314 284.177 122.04 283.96 121.71 283.784C121.379 283.609 120.981 283.521 120.516 283.521C120.113 283.521 119.767 283.609 119.478 283.784C119.188 283.95 119.044 284.198 119.044 284.528C119.044 284.859 119.168 285.097 119.416 285.241C119.674 285.386 120.056 285.51 120.563 285.613L121.493 285.846C121.782 285.918 122.056 286.001 122.314 286.094C122.583 286.187 122.815 286.311 123.012 286.466C123.218 286.611 123.379 286.797 123.492 287.024C123.606 287.241 123.663 287.515 123.663 287.845C123.663 288.228 123.58 288.564 123.415 288.853C123.26 289.142 123.043 289.385 122.764 289.581C122.495 289.778 122.18 289.928 121.818 290.031C121.457 290.134 121.074 290.186 120.671 290.186C120.258 290.186 119.881 290.14 119.54 290.047C119.199 289.953 118.889 289.835 118.61 289.69C118.341 289.545 118.109 289.385 117.912 289.209C117.716 289.023 117.561 288.843 117.447 288.667L118.393 287.907C118.62 288.238 118.925 288.522 119.307 288.76C119.69 288.987 120.16 289.101 120.718 289.101C121.255 289.101 121.663 288.998 121.942 288.791C122.221 288.584 122.361 288.31 122.361 287.969C122.361 287.628 122.232 287.401 121.973 287.287C121.725 287.174 121.4 287.07 120.997 286.977L119.927 286.729C119.597 286.657 119.297 286.569 119.028 286.466C118.77 286.352 118.543 286.218 118.346 286.063C118.16 285.898 118.016 285.701 117.912 285.474C117.809 285.247 117.757 284.973 117.757 284.652C117.757 284.291 117.835 283.976 117.99 283.707C118.145 283.428 118.351 283.195 118.61 283.009C118.868 282.823 119.163 282.684 119.493 282.591C119.834 282.498 120.18 282.451 120.532 282.451C121.245 282.451 121.834 282.57 122.299 282.808C122.774 283.035 123.141 283.294 123.399 283.583L122.531 284.435ZM124.893 286.342C124.893 285.753 124.971 285.221 125.126 284.745C125.291 284.26 125.523 283.852 125.823 283.521C126.133 283.18 126.5 282.916 126.924 282.73C127.358 282.544 127.843 282.451 128.381 282.451C128.918 282.451 129.404 282.544 129.838 282.73C130.272 282.916 130.638 283.18 130.938 283.521C131.238 283.852 131.47 284.26 131.636 284.745C131.801 285.221 131.884 285.753 131.884 286.342C131.884 286.931 131.801 287.463 131.636 287.938C131.481 288.403 131.248 288.806 130.938 289.147C130.638 289.478 130.272 289.736 129.838 289.922C129.404 290.098 128.918 290.186 128.381 290.186C127.833 290.186 127.342 290.098 126.908 289.922C126.484 289.736 126.123 289.478 125.823 289.147C125.523 288.806 125.291 288.403 125.126 287.938C124.971 287.463 124.893 286.931 124.893 286.342ZM126.195 286.326C126.195 287.225 126.397 287.923 126.8 288.419C127.203 288.905 127.73 289.147 128.381 289.147C129.032 289.147 129.559 288.899 129.962 288.403C130.375 287.907 130.582 287.215 130.582 286.326C130.582 285.417 130.38 284.714 129.977 284.218C129.584 283.722 129.052 283.474 128.381 283.474C127.719 283.474 127.187 283.722 126.784 284.218C126.391 284.714 126.195 285.417 126.195 286.326ZM135.01 282.622V284.017C135.062 283.831 135.149 283.65 135.273 283.474C135.397 283.288 135.547 283.123 135.723 282.978C135.909 282.834 136.121 282.72 136.358 282.637C136.606 282.544 136.88 282.498 137.18 282.498C137.325 282.498 137.469 282.513 137.614 282.544V283.753C137.438 283.722 137.273 283.707 137.118 283.707C136.426 283.707 135.899 283.929 135.537 284.373C135.186 284.818 135.01 285.427 135.01 286.202V290H133.723V282.622H135.01ZM139.7 286.543C139.731 287.38 139.948 288.011 140.351 288.434C140.754 288.858 141.297 289.07 141.979 289.07C142.32 289.07 142.614 289.023 142.862 288.93C143.121 288.827 143.343 288.703 143.529 288.558C143.715 288.414 143.87 288.259 143.994 288.093C144.118 287.928 144.221 287.773 144.304 287.628L145.249 288.31C145.136 288.517 144.981 288.729 144.784 288.946C144.598 289.163 144.366 289.364 144.087 289.55C143.818 289.736 143.503 289.886 143.141 290C142.79 290.124 142.392 290.186 141.948 290.186C141.421 290.186 140.94 290.103 140.506 289.938C140.072 289.762 139.695 289.509 139.375 289.178C139.065 288.848 138.822 288.44 138.646 287.954C138.471 287.468 138.383 286.91 138.383 286.28C138.383 285.712 138.465 285.19 138.631 284.714C138.806 284.239 139.049 283.836 139.359 283.505C139.669 283.175 140.036 282.916 140.46 282.73C140.894 282.544 141.369 282.451 141.886 282.451C142.433 282.451 142.914 282.55 143.327 282.746C143.751 282.932 144.102 283.195 144.381 283.536C144.66 283.877 144.867 284.286 145.001 284.761C145.146 285.236 145.218 285.758 145.218 286.326V286.543H139.7ZM143.854 285.567C143.854 285.278 143.808 285.009 143.715 284.761C143.632 284.503 143.508 284.275 143.343 284.079C143.177 283.883 142.971 283.728 142.723 283.614C142.475 283.5 142.191 283.443 141.87 283.443C141.209 283.443 140.692 283.64 140.32 284.032C139.959 284.425 139.757 284.937 139.716 285.567H143.854ZM149.743 290.186C149.278 290.186 148.849 290.098 148.457 289.922C148.074 289.747 147.744 289.494 147.465 289.163C147.186 288.822 146.969 288.414 146.814 287.938C146.659 287.463 146.581 286.931 146.581 286.342C146.581 285.743 146.659 285.205 146.814 284.73C146.969 284.244 147.186 283.836 147.465 283.505C147.744 283.164 148.08 282.906 148.472 282.73C148.865 282.544 149.299 282.451 149.774 282.451C150.322 282.451 150.792 282.575 151.185 282.823C151.588 283.071 151.882 283.366 152.068 283.707V279.46H153.355V290H152.068V288.915C151.862 289.287 151.567 289.592 151.185 289.829C150.802 290.067 150.322 290.186 149.743 290.186ZM152.115 286.326C152.115 285.427 151.924 284.735 151.541 284.249C151.169 283.764 150.663 283.521 150.022 283.521C149.371 283.521 148.855 283.764 148.472 284.249C148.09 284.725 147.899 285.412 147.899 286.311C147.899 287.189 148.085 287.876 148.457 288.372C148.839 288.858 149.356 289.101 150.007 289.101C150.658 289.101 151.169 288.858 151.541 288.372C151.924 287.887 152.115 287.205 152.115 286.326ZM160.876 290H159.497V279.46H163.418C163.945 279.46 164.369 279.486 164.689 279.537C165.02 279.589 165.309 279.667 165.557 279.77C166.105 280.008 166.534 280.354 166.844 280.808C167.164 281.253 167.324 281.811 167.324 282.482C167.324 283.061 167.2 283.562 166.952 283.986C166.714 284.41 166.384 284.745 165.96 284.993C165.578 285.221 165.175 285.365 164.751 285.427C164.338 285.479 163.837 285.505 163.248 285.505H160.876V290ZM160.876 284.296H163.403C163.785 284.296 164.079 284.28 164.286 284.249C164.503 284.218 164.705 284.172 164.891 284.11C165.263 283.965 165.526 283.759 165.681 283.49C165.846 283.221 165.929 282.885 165.929 282.482C165.929 282.079 165.846 281.744 165.681 281.475C165.526 281.206 165.263 281 164.891 280.855C164.705 280.793 164.503 280.746 164.286 280.715C164.079 280.684 163.785 280.669 163.403 280.669H160.876V284.296ZM168.042 286.342C168.042 285.753 168.12 285.221 168.275 284.745C168.44 284.26 168.673 283.852 168.972 283.521C169.282 283.18 169.649 282.916 170.073 282.73C170.507 282.544 170.993 282.451 171.53 282.451C172.067 282.451 172.553 282.544 172.987 282.73C173.421 282.916 173.788 283.18 174.087 283.521C174.387 283.852 174.62 284.26 174.785 284.745C174.95 285.221 175.033 285.753 175.033 286.342C175.033 286.931 174.95 287.463 174.785 287.938C174.63 288.403 174.397 288.806 174.087 289.147C173.788 289.478 173.421 289.736 172.987 289.922C172.553 290.098 172.067 290.186 171.53 290.186C170.982 290.186 170.491 290.098 170.057 289.922C169.634 289.736 169.272 289.478 168.972 289.147C168.673 288.806 168.44 288.403 168.275 287.938C168.12 287.463 168.042 286.931 168.042 286.342ZM169.344 286.326C169.344 287.225 169.546 287.923 169.949 288.419C170.352 288.905 170.879 289.147 171.53 289.147C172.181 289.147 172.708 288.899 173.111 288.403C173.524 287.907 173.731 287.215 173.731 286.326C173.731 285.417 173.529 284.714 173.126 284.218C172.734 283.722 172.202 283.474 171.53 283.474C170.869 283.474 170.336 283.722 169.933 284.218C169.541 284.714 169.344 285.417 169.344 286.326ZM178.159 290H176.873V279.46H178.159V290ZM181.771 290H180.485V282.622H181.771V290ZM181.771 281.103H180.485V279.46H181.771V281.103ZM189.01 285.024C188.845 284.559 188.607 284.198 188.297 283.939C187.987 283.671 187.584 283.536 187.088 283.536C186.416 283.536 185.884 283.784 185.491 284.28C185.099 284.766 184.902 285.448 184.902 286.326C184.902 287.194 185.099 287.871 185.491 288.357C185.894 288.843 186.427 289.085 187.088 289.085C187.594 289.085 188.002 288.967 188.312 288.729C188.622 288.481 188.87 288.15 189.056 287.737L190.095 288.31C189.981 288.548 189.831 288.781 189.645 289.008C189.47 289.235 189.258 289.437 189.01 289.612C188.762 289.788 188.478 289.928 188.157 290.031C187.837 290.134 187.475 290.186 187.072 290.186C186.545 290.186 186.065 290.098 185.631 289.922C185.207 289.747 184.846 289.499 184.546 289.178C184.246 288.848 184.014 288.445 183.848 287.969C183.683 287.494 183.6 286.952 183.6 286.342C183.6 285.743 183.683 285.2 183.848 284.714C184.024 284.229 184.267 283.821 184.577 283.49C184.887 283.159 185.254 282.906 185.677 282.73C186.101 282.544 186.566 282.451 187.072 282.451C187.847 282.451 188.488 282.637 188.994 283.009C189.501 283.371 189.868 283.846 190.095 284.435L189.01 285.024ZM197.423 282.622L194.4 291.225C194.286 291.555 194.168 291.834 194.044 292.062C193.92 292.299 193.78 292.49 193.625 292.635C193.47 292.78 193.289 292.888 193.083 292.961C192.876 293.033 192.628 293.069 192.339 293.069C192.101 293.069 191.91 293.059 191.765 293.038C191.62 293.028 191.476 293.012 191.331 292.992V291.86C191.589 291.922 191.863 291.953 192.153 291.953C192.411 291.953 192.623 291.881 192.788 291.736C192.953 291.602 193.108 291.312 193.253 290.868L193.517 290.093L190.882 282.622H192.261L193.532 286.481L194.199 288.574H194.23C194.312 288.316 194.4 288.016 194.493 287.675C194.596 287.334 194.72 286.946 194.865 286.512L196.136 282.622H197.423Z" fill="#272727"/>
<path d="M243.451 271H242.087V260.46H246.055C246.582 260.46 247.011 260.491 247.341 260.553C247.682 260.605 247.977 260.677 248.225 260.77C248.762 260.987 249.181 261.328 249.48 261.793C249.79 262.248 249.945 262.811 249.945 263.482C249.945 263.906 249.878 264.288 249.744 264.629C249.609 264.96 249.423 265.249 249.186 265.497C248.948 265.745 248.664 265.947 248.333 266.102C248.013 266.257 247.662 266.365 247.279 266.427L250.255 271H248.55L245.667 266.489H243.451V271ZM245.822 265.28C246.07 265.28 246.282 265.275 246.458 265.265C246.644 265.255 246.804 265.239 246.938 265.218C247.083 265.198 247.207 265.172 247.31 265.141C247.424 265.11 247.532 265.069 247.636 265.017C248.235 264.748 248.535 264.232 248.535 263.467C248.535 263.105 248.452 262.79 248.287 262.521C248.132 262.242 247.904 262.041 247.605 261.917C247.408 261.834 247.181 261.772 246.923 261.731C246.675 261.69 246.303 261.669 245.807 261.669H243.451V265.28H245.822ZM252.479 267.543C252.51 268.38 252.727 269.011 253.13 269.434C253.533 269.858 254.076 270.07 254.758 270.07C255.099 270.07 255.393 270.023 255.641 269.93C255.9 269.827 256.122 269.703 256.308 269.558C256.494 269.414 256.649 269.259 256.773 269.093C256.897 268.928 257 268.773 257.083 268.628L258.028 269.31C257.915 269.517 257.76 269.729 257.563 269.946C257.377 270.163 257.145 270.364 256.866 270.55C256.597 270.736 256.282 270.886 255.92 271C255.569 271.124 255.171 271.186 254.727 271.186C254.2 271.186 253.719 271.103 253.285 270.938C252.851 270.762 252.474 270.509 252.154 270.178C251.844 269.848 251.601 269.44 251.425 268.954C251.25 268.468 251.162 267.91 251.162 267.28C251.162 266.712 251.245 266.19 251.41 265.714C251.586 265.239 251.828 264.836 252.138 264.505C252.448 264.175 252.815 263.916 253.239 263.73C253.673 263.544 254.148 263.451 254.665 263.451C255.213 263.451 255.693 263.55 256.106 263.746C256.53 263.932 256.881 264.195 257.16 264.536C257.439 264.877 257.646 265.286 257.78 265.761C257.925 266.236 257.997 266.758 257.997 267.326V267.543H252.479ZM256.633 266.567C256.633 266.278 256.587 266.009 256.494 265.761C256.411 265.503 256.287 265.275 256.122 265.079C255.957 264.883 255.75 264.728 255.502 264.614C255.254 264.5 254.97 264.443 254.649 264.443C253.988 264.443 253.471 264.64 253.099 265.032C252.738 265.425 252.536 265.937 252.495 266.567H256.633ZM264.77 266.024C264.605 265.559 264.367 265.198 264.057 264.939C263.747 264.671 263.344 264.536 262.848 264.536C262.176 264.536 261.644 264.784 261.252 265.28C260.859 265.766 260.663 266.448 260.663 267.326C260.663 268.194 260.859 268.871 261.252 269.357C261.655 269.843 262.187 270.085 262.848 270.085C263.354 270.085 263.763 269.967 264.073 269.729C264.383 269.481 264.631 269.15 264.817 268.737L265.855 269.31C265.741 269.548 265.592 269.781 265.406 270.008C265.23 270.235 265.018 270.437 264.77 270.612C264.522 270.788 264.238 270.928 263.918 271.031C263.597 271.134 263.236 271.186 262.833 271.186C262.306 271.186 261.825 271.098 261.391 270.922C260.967 270.747 260.606 270.499 260.306 270.178C260.006 269.848 259.774 269.445 259.609 268.969C259.443 268.494 259.361 267.952 259.361 267.342C259.361 266.743 259.443 266.2 259.609 265.714C259.784 265.229 260.027 264.821 260.337 264.49C260.647 264.159 261.014 263.906 261.438 263.73C261.861 263.544 262.326 263.451 262.833 263.451C263.608 263.451 264.248 263.637 264.755 264.009C265.261 264.371 265.628 264.846 265.855 265.435L264.77 266.024ZM267.014 267.342C267.014 266.753 267.091 266.221 267.246 265.745C267.412 265.26 267.644 264.852 267.944 264.521C268.254 264.18 268.621 263.916 269.044 263.73C269.478 263.544 269.964 263.451 270.501 263.451C271.039 263.451 271.524 263.544 271.958 263.73C272.392 263.916 272.759 264.18 273.059 264.521C273.358 264.852 273.591 265.26 273.756 265.745C273.922 266.221 274.004 266.753 274.004 267.342C274.004 267.931 273.922 268.463 273.756 268.938C273.601 269.403 273.369 269.806 273.059 270.147C272.759 270.478 272.392 270.736 271.958 270.922C271.524 271.098 271.039 271.186 270.501 271.186C269.954 271.186 269.463 271.098 269.029 270.922C268.605 270.736 268.243 270.478 267.944 270.147C267.644 269.806 267.412 269.403 267.246 268.938C267.091 268.463 267.014 267.931 267.014 267.342ZM268.316 267.326C268.316 268.225 268.517 268.923 268.92 269.419C269.323 269.905 269.85 270.147 270.501 270.147C271.152 270.147 271.679 269.899 272.082 269.403C272.496 268.907 272.702 268.215 272.702 267.326C272.702 266.417 272.501 265.714 272.098 265.218C271.705 264.722 271.173 264.474 270.501 264.474C269.84 264.474 269.308 264.722 268.905 265.218C268.512 265.714 268.316 266.417 268.316 267.326ZM280.37 271V267.017C280.37 266.634 280.349 266.288 280.308 265.978C280.277 265.668 280.205 265.404 280.091 265.187C279.988 264.97 279.838 264.805 279.642 264.691C279.456 264.567 279.208 264.505 278.898 264.505C278.309 264.505 277.864 264.728 277.565 265.172C277.275 265.606 277.131 266.185 277.131 266.908V271H275.844V263.622H277.131V264.722C277.306 264.35 277.59 264.046 277.983 263.808C278.376 263.57 278.836 263.451 279.363 263.451C279.9 263.451 280.344 263.581 280.696 263.839C281.057 264.087 281.295 264.412 281.409 264.815C281.605 264.433 281.905 264.113 282.308 263.854C282.711 263.586 283.217 263.451 283.827 263.451C284.664 263.451 285.263 263.689 285.625 264.164C285.997 264.64 286.183 265.327 286.183 266.226V271H284.896V267.017C284.896 266.634 284.875 266.288 284.834 265.978C284.803 265.668 284.731 265.404 284.617 265.187C284.514 264.97 284.364 264.805 284.168 264.691C283.982 264.567 283.734 264.505 283.424 264.505C282.835 264.505 282.39 264.728 282.091 265.172C281.801 265.606 281.657 266.185 281.657 266.908V271H280.37ZM292.958 271V267.017C292.958 266.634 292.937 266.288 292.896 265.978C292.865 265.668 292.793 265.404 292.679 265.187C292.576 264.97 292.426 264.805 292.229 264.691C292.043 264.567 291.795 264.505 291.485 264.505C290.896 264.505 290.452 264.728 290.152 265.172C289.863 265.606 289.718 266.185 289.718 266.908V271H288.432V263.622H289.718V264.722C289.894 264.35 290.178 264.046 290.571 263.808C290.964 263.57 291.423 263.451 291.95 263.451C292.488 263.451 292.932 263.581 293.283 263.839C293.645 264.087 293.883 264.412 293.996 264.815C294.193 264.433 294.492 264.113 294.895 263.854C295.298 263.586 295.805 263.451 296.414 263.451C297.251 263.451 297.851 263.689 298.212 264.164C298.584 264.64 298.77 265.327 298.77 266.226V271H297.484V267.017C297.484 266.634 297.463 266.288 297.422 265.978C297.391 265.668 297.319 265.404 297.205 265.187C297.102 264.97 296.952 264.805 296.755 264.691C296.569 264.567 296.321 264.505 296.011 264.505C295.422 264.505 294.978 264.728 294.678 265.172C294.389 265.606 294.244 266.185 294.244 266.908V271H292.958ZM303.686 271.186C303.221 271.186 302.792 271.098 302.399 270.922C302.017 270.747 301.686 270.494 301.407 270.163C301.128 269.822 300.911 269.414 300.756 268.938C300.601 268.463 300.524 267.931 300.524 267.342C300.524 266.743 300.601 266.205 300.756 265.73C300.911 265.244 301.128 264.836 301.407 264.505C301.686 264.164 302.022 263.906 302.415 263.73C302.807 263.544 303.241 263.451 303.717 263.451C304.264 263.451 304.735 263.575 305.127 263.823C305.53 264.071 305.825 264.366 306.011 264.707V260.46H307.297V271H306.011V269.915C305.804 270.287 305.51 270.592 305.127 270.829C304.745 271.067 304.264 271.186 303.686 271.186ZM306.057 267.326C306.057 266.427 305.866 265.735 305.484 265.249C305.112 264.764 304.605 264.521 303.965 264.521C303.314 264.521 302.797 264.764 302.415 265.249C302.032 265.725 301.841 266.412 301.841 267.311C301.841 268.189 302.027 268.876 302.399 269.372C302.782 269.858 303.298 270.101 303.949 270.101C304.6 270.101 305.112 269.858 305.484 269.372C305.866 268.887 306.057 268.205 306.057 267.326ZM310.433 267.543C310.464 268.38 310.681 269.011 311.084 269.434C311.487 269.858 312.029 270.07 312.711 270.07C313.052 270.07 313.347 270.023 313.595 269.93C313.853 269.827 314.075 269.703 314.261 269.558C314.447 269.414 314.602 269.259 314.726 269.093C314.85 268.928 314.953 268.773 315.036 268.628L315.982 269.31C315.868 269.517 315.713 269.729 315.517 269.946C315.331 270.163 315.098 270.364 314.819 270.55C314.55 270.736 314.235 270.886 313.874 271C313.522 271.124 313.124 271.186 312.68 271.186C312.153 271.186 311.673 271.103 311.239 270.938C310.805 270.762 310.427 270.509 310.107 270.178C309.797 269.848 309.554 269.44 309.379 268.954C309.203 268.468 309.115 267.91 309.115 267.28C309.115 266.712 309.198 266.19 309.363 265.714C309.539 265.239 309.782 264.836 310.092 264.505C310.402 264.175 310.768 263.916 311.192 263.73C311.626 263.544 312.101 263.451 312.618 263.451C313.166 263.451 313.646 263.55 314.06 263.746C314.483 263.932 314.835 264.195 315.114 264.536C315.393 264.877 315.599 265.286 315.734 265.761C315.878 266.236 315.951 266.758 315.951 267.326V267.543H310.433ZM314.587 266.567C314.587 266.278 314.54 266.009 314.447 265.761C314.364 265.503 314.24 265.275 314.075 265.079C313.91 264.883 313.703 264.728 313.455 264.614C313.207 264.5 312.923 264.443 312.603 264.443C311.941 264.443 311.425 264.64 311.053 265.032C310.691 265.425 310.489 265.937 310.448 266.567H314.587ZM320.476 271.186C320.011 271.186 319.582 271.098 319.189 270.922C318.807 270.747 318.476 270.494 318.197 270.163C317.918 269.822 317.701 269.414 317.546 268.938C317.391 268.463 317.314 267.931 317.314 267.342C317.314 266.743 317.391 266.205 317.546 265.73C317.701 265.244 317.918 264.836 318.197 264.505C318.476 264.164 318.812 263.906 319.205 263.73C319.597 263.544 320.031 263.451 320.507 263.451C321.054 263.451 321.525 263.575 321.917 263.823C322.32 264.071 322.615 264.366 322.801 264.707V260.46H324.087V271H322.801V269.915C322.594 270.287 322.3 270.592 321.917 270.829C321.535 271.067 321.054 271.186 320.476 271.186ZM322.847 267.326C322.847 266.427 322.656 265.735 322.274 265.249C321.902 264.764 321.395 264.521 320.755 264.521C320.104 264.521 319.587 264.764 319.205 265.249C318.822 265.725 318.631 266.412 318.631 267.311C318.631 268.189 318.817 268.876 319.189 269.372C319.572 269.858 320.088 270.101 320.739 270.101C321.39 270.101 321.902 269.858 322.274 269.372C322.656 268.887 322.847 268.205 322.847 267.326ZM231.78 282.544C231.542 281.924 231.186 281.428 230.71 281.056C230.245 280.674 229.646 280.483 228.912 280.483C228.385 280.483 227.915 280.591 227.502 280.808C227.088 281.015 226.742 281.31 226.463 281.692C226.184 282.064 225.972 282.508 225.828 283.025C225.683 283.542 225.611 284.105 225.611 284.714C225.611 285.345 225.683 285.923 225.828 286.45C225.972 286.967 226.184 287.411 226.463 287.783C226.742 288.155 227.088 288.445 227.502 288.651C227.915 288.858 228.39 288.961 228.928 288.961C229.703 288.961 230.323 288.755 230.788 288.341C231.253 287.928 231.589 287.406 231.795 286.776L233.097 287.225C232.984 287.587 232.813 287.944 232.586 288.295C232.369 288.646 232.09 288.961 231.749 289.24C231.408 289.519 231 289.747 230.524 289.922C230.059 290.098 229.517 290.186 228.897 290.186C228.132 290.186 227.455 290.057 226.866 289.798C226.277 289.53 225.781 289.158 225.378 288.682C224.975 288.197 224.67 287.618 224.464 286.946C224.257 286.275 224.154 285.536 224.154 284.73C224.154 283.924 224.262 283.19 224.479 282.529C224.696 281.857 225.006 281.284 225.409 280.808C225.823 280.323 226.324 279.946 226.913 279.677C227.512 279.408 228.184 279.274 228.928 279.274C229.496 279.274 230.002 279.351 230.447 279.506C230.901 279.661 231.299 279.868 231.64 280.126C231.981 280.374 232.26 280.659 232.477 280.979C232.705 281.299 232.88 281.625 233.004 281.955L231.78 282.544ZM234.227 286.342C234.227 285.753 234.305 285.221 234.46 284.745C234.625 284.26 234.857 283.852 235.157 283.521C235.467 283.18 235.834 282.916 236.258 282.73C236.692 282.544 237.177 282.451 237.715 282.451C238.252 282.451 238.738 282.544 239.172 282.73C239.606 282.916 239.972 283.18 240.272 283.521C240.572 283.852 240.804 284.26 240.97 284.745C241.135 285.221 241.218 285.753 241.218 286.342C241.218 286.931 241.135 287.463 240.97 287.938C240.815 288.403 240.582 288.806 240.272 289.147C239.972 289.478 239.606 289.736 239.172 289.922C238.738 290.098 238.252 290.186 237.715 290.186C237.167 290.186 236.676 290.098 236.242 289.922C235.818 289.736 235.457 289.478 235.157 289.147C234.857 288.806 234.625 288.403 234.46 287.938C234.305 287.463 234.227 286.931 234.227 286.342ZM235.529 286.326C235.529 287.225 235.731 287.923 236.134 288.419C236.537 288.905 237.064 289.147 237.715 289.147C238.366 289.147 238.893 288.899 239.296 288.403C239.709 287.907 239.916 287.215 239.916 286.326C239.916 285.417 239.714 284.714 239.311 284.218C238.918 283.722 238.386 283.474 237.715 283.474C237.053 283.474 236.521 283.722 236.118 284.218C235.725 284.714 235.529 285.417 235.529 286.326ZM248.765 282.622L245.99 290H244.673L242.084 282.622H243.464L244.673 286.373C244.807 286.755 244.921 287.107 245.014 287.427C245.117 287.747 245.236 288.088 245.37 288.45H245.401C245.525 288.088 245.644 287.737 245.758 287.396C245.882 287.055 246.011 286.704 246.145 286.342L247.447 282.622H248.765ZM250.836 286.543C250.867 287.38 251.084 288.011 251.487 288.434C251.89 288.858 252.432 289.07 253.114 289.07C253.455 289.07 253.75 289.023 253.998 288.93C254.256 288.827 254.478 288.703 254.664 288.558C254.85 288.414 255.005 288.259 255.129 288.093C255.253 287.928 255.356 287.773 255.439 287.628L256.385 288.31C256.271 288.517 256.116 288.729 255.92 288.946C255.734 289.163 255.501 289.364 255.222 289.55C254.953 289.736 254.638 289.886 254.277 290C253.925 290.124 253.527 290.186 253.083 290.186C252.556 290.186 252.076 290.103 251.642 289.938C251.208 289.762 250.83 289.509 250.51 289.178C250.2 288.848 249.957 288.44 249.782 287.954C249.606 287.468 249.518 286.91 249.518 286.28C249.518 285.712 249.601 285.19 249.766 284.714C249.942 284.239 250.185 283.836 250.495 283.505C250.805 283.175 251.171 282.916 251.595 282.73C252.029 282.544 252.504 282.451 253.021 282.451C253.569 282.451 254.049 282.55 254.463 282.746C254.886 282.932 255.238 283.195 255.517 283.536C255.796 283.877 256.002 284.286 256.137 284.761C256.281 285.236 256.354 285.758 256.354 286.326V286.543H250.836ZM254.99 285.567C254.99 285.278 254.943 285.009 254.85 284.761C254.767 284.503 254.643 284.275 254.478 284.079C254.313 283.883 254.106 283.728 253.858 283.614C253.61 283.5 253.326 283.443 253.006 283.443C252.344 283.443 251.828 283.64 251.456 284.032C251.094 284.425 250.892 284.937 250.851 285.567H254.99ZM259.499 282.622V284.017C259.551 283.831 259.639 283.65 259.763 283.474C259.887 283.288 260.036 283.123 260.212 282.978C260.398 282.834 260.61 282.72 260.848 282.637C261.096 282.544 261.369 282.498 261.669 282.498C261.814 282.498 261.958 282.513 262.103 282.544V283.753C261.927 283.722 261.762 283.707 261.607 283.707C260.915 283.707 260.388 283.929 260.026 284.373C259.675 284.818 259.499 285.427 259.499 286.202V290H258.213V282.622H259.499ZM265.754 289.225C266.384 289.225 266.885 289.039 267.257 288.667C267.412 288.512 267.536 288.326 267.629 288.109C267.722 287.892 267.769 287.603 267.769 287.241V286.202C267.738 286.223 267.686 286.254 267.614 286.295C267.552 286.337 267.402 286.383 267.164 286.435L265.785 286.714C265.258 286.828 264.86 286.977 264.591 287.163C264.333 287.349 264.204 287.623 264.204 287.985C264.204 288.419 264.354 288.734 264.653 288.93C264.953 289.127 265.32 289.225 265.754 289.225ZM263.134 284.962C263.145 284.156 263.413 283.542 263.94 283.118C264.467 282.694 265.185 282.482 266.095 282.482C266.467 282.482 266.823 282.513 267.164 282.575C267.505 282.637 267.805 282.751 268.063 282.916C268.332 283.082 268.544 283.309 268.699 283.598C268.864 283.877 268.952 284.239 268.962 284.683C268.962 284.89 268.962 285.102 268.962 285.319C268.973 285.526 268.978 285.732 268.978 285.939V288.403C268.978 288.703 269.019 288.91 269.102 289.023C269.184 289.137 269.324 289.194 269.52 289.194C269.572 289.194 269.618 289.194 269.66 289.194C269.711 289.184 269.763 289.173 269.815 289.163V290.016C269.732 290.036 269.629 290.057 269.505 290.078C269.381 290.098 269.221 290.109 269.024 290.109C268.683 290.109 268.404 290.036 268.187 289.891C267.981 289.736 267.867 289.478 267.846 289.116C267.764 289.209 267.66 289.318 267.536 289.442C267.412 289.566 267.252 289.685 267.056 289.798C266.859 289.902 266.627 289.99 266.358 290.062C266.09 290.145 265.774 290.186 265.413 290.186C265.041 290.186 264.7 290.14 264.39 290.047C264.08 289.953 263.806 289.819 263.568 289.643C263.341 289.457 263.16 289.23 263.026 288.961C262.902 288.693 262.84 288.378 262.84 288.016C262.84 287.634 262.912 287.313 263.057 287.055C263.212 286.797 263.418 286.585 263.677 286.419C263.945 286.244 264.255 286.104 264.607 286.001C264.968 285.898 265.356 285.815 265.769 285.753L266.715 285.598C267.066 285.546 267.324 285.474 267.49 285.381C267.665 285.278 267.753 285.086 267.753 284.807C267.753 284.611 267.727 284.435 267.676 284.28C267.624 284.115 267.531 283.976 267.397 283.862C267.273 283.748 267.102 283.66 266.885 283.598C266.679 283.536 266.415 283.505 266.095 283.505C265.444 283.505 264.989 283.65 264.731 283.939C264.472 284.218 264.343 284.59 264.343 285.055L263.134 284.962ZM272.333 290.372C272.353 290.599 272.395 290.811 272.457 291.008C272.529 291.204 272.638 291.374 272.782 291.519C272.927 291.674 273.113 291.793 273.34 291.876C273.578 291.969 273.872 292.015 274.224 292.015C274.658 292.015 275.009 291.953 275.278 291.829C275.546 291.715 275.753 291.55 275.898 291.333C276.053 291.126 276.156 290.868 276.208 290.558C276.27 290.258 276.301 289.922 276.301 289.55V288.775C276.125 289.096 275.851 289.38 275.479 289.628C275.107 289.866 274.606 289.984 273.976 289.984C273.49 289.984 273.051 289.902 272.658 289.736C272.276 289.571 271.945 289.328 271.666 289.008C271.398 288.688 271.186 288.3 271.031 287.845C270.886 287.38 270.814 286.859 270.814 286.28C270.814 285.691 270.886 285.164 271.031 284.699C271.186 284.224 271.403 283.821 271.682 283.49C271.961 283.149 272.291 282.891 272.674 282.715C273.066 282.539 273.5 282.451 273.976 282.451C274.534 282.451 275.009 282.57 275.402 282.808C275.794 283.046 276.094 283.33 276.301 283.66V282.622H277.587V289.659C277.587 290.868 277.313 291.736 276.766 292.263C276.218 292.8 275.366 293.069 274.208 293.069C273.671 293.069 273.206 293.007 272.813 292.883C272.421 292.759 272.095 292.583 271.837 292.356C271.589 292.139 271.398 291.876 271.263 291.566C271.139 291.266 271.067 290.935 271.046 290.574L272.333 290.372ZM276.347 286.233C276.347 285.355 276.161 284.689 275.789 284.234C275.417 283.769 274.906 283.536 274.255 283.536C273.593 283.536 273.072 283.764 272.689 284.218C272.317 284.673 272.131 285.345 272.131 286.233C272.131 287.112 272.312 287.778 272.674 288.233C273.035 288.688 273.557 288.915 274.239 288.915C274.89 288.915 275.402 288.688 275.774 288.233C276.156 287.768 276.347 287.101 276.347 286.233ZM280.722 286.543C280.753 287.38 280.97 288.011 281.373 288.434C281.776 288.858 282.318 289.07 283 289.07C283.341 289.07 283.636 289.023 283.884 288.93C284.142 288.827 284.364 288.703 284.55 288.558C284.736 288.414 284.891 288.259 285.015 288.093C285.139 287.928 285.243 287.773 285.325 287.628L286.271 288.31C286.157 288.517 286.002 288.729 285.806 288.946C285.62 289.163 285.387 289.364 285.108 289.55C284.84 289.736 284.525 289.886 284.163 290C283.812 290.124 283.414 290.186 282.969 290.186C282.442 290.186 281.962 290.103 281.528 289.938C281.094 289.762 280.717 289.509 280.396 289.178C280.086 288.848 279.844 288.44 279.668 287.954C279.492 287.468 279.404 286.91 279.404 286.28C279.404 285.712 279.487 285.19 279.652 284.714C279.828 284.239 280.071 283.836 280.381 283.505C280.691 283.175 281.058 282.916 281.481 282.73C281.915 282.544 282.391 282.451 282.907 282.451C283.455 282.451 283.936 282.55 284.349 282.746C284.773 282.932 285.124 283.195 285.403 283.536C285.682 283.877 285.889 284.286 286.023 284.761C286.168 285.236 286.24 285.758 286.24 286.326V286.543H280.722ZM284.876 285.567C284.876 285.278 284.829 285.009 284.736 284.761C284.654 284.503 284.53 284.275 284.364 284.079C284.199 283.883 283.992 283.728 283.744 283.614C283.496 283.5 283.212 283.443 282.892 283.443C282.231 283.443 281.714 283.64 281.342 284.032C280.98 284.425 280.779 284.937 280.737 285.567H284.876ZM291.75 290H290.339L294.245 279.46H295.733L299.608 290H298.151L297.128 287.132H292.773L291.75 290ZM295.547 282.622C295.423 282.271 295.304 281.93 295.191 281.599C295.087 281.268 295.01 281.005 294.958 280.808H294.943C294.891 280.994 294.808 281.258 294.695 281.599C294.591 281.94 294.467 282.302 294.323 282.684L293.176 285.939H296.694L295.547 282.622ZM305.449 290V286.017C305.449 285.634 305.428 285.288 305.387 284.978C305.356 284.668 305.284 284.404 305.17 284.187C305.067 283.97 304.917 283.805 304.721 283.691C304.535 283.567 304.287 283.505 303.977 283.505C303.388 283.505 302.943 283.728 302.644 284.172C302.354 284.606 302.21 285.185 302.21 285.908V290H300.923V282.622H302.21V283.722C302.385 283.35 302.669 283.046 303.062 282.808C303.455 282.57 303.915 282.451 304.442 282.451C304.979 282.451 305.423 282.581 305.775 282.839C306.136 283.087 306.374 283.412 306.488 283.815C306.684 283.433 306.984 283.113 307.387 282.854C307.79 282.586 308.296 282.451 308.906 282.451C309.743 282.451 310.342 282.689 310.704 283.164C311.076 283.64 311.262 284.327 311.262 285.226V290H309.975V286.017C309.975 285.634 309.954 285.288 309.913 284.978C309.882 284.668 309.81 284.404 309.696 284.187C309.593 283.97 309.443 283.805 309.247 283.691C309.061 283.567 308.813 283.505 308.503 283.505C307.914 283.505 307.469 283.728 307.17 284.172C306.88 284.606 306.736 285.185 306.736 285.908V290H305.449ZM313.015 286.342C313.015 285.753 313.092 285.221 313.247 284.745C313.413 284.26 313.645 283.852 313.945 283.521C314.255 283.18 314.622 282.916 315.045 282.73C315.479 282.544 315.965 282.451 316.502 282.451C317.04 282.451 317.525 282.544 317.959 282.73C318.393 282.916 318.76 283.18 319.06 283.521C319.36 283.852 319.592 284.26 319.757 284.745C319.923 285.221 320.005 285.753 320.005 286.342C320.005 286.931 319.923 287.463 319.757 287.938C319.602 288.403 319.37 288.806 319.06 289.147C318.76 289.478 318.393 289.736 317.959 289.922C317.525 290.098 317.04 290.186 316.502 290.186C315.955 290.186 315.464 290.098 315.03 289.922C314.606 289.736 314.245 289.478 313.945 289.147C313.645 288.806 313.413 288.403 313.247 287.938C313.092 287.463 313.015 286.931 313.015 286.342ZM314.317 286.326C314.317 287.225 314.518 287.923 314.921 288.419C315.324 288.905 315.851 289.147 316.502 289.147C317.153 289.147 317.68 288.899 318.083 288.403C318.497 287.907 318.703 287.215 318.703 286.326C318.703 285.417 318.502 284.714 318.099 284.218C317.706 283.722 317.174 283.474 316.502 283.474C315.841 283.474 315.309 283.722 314.906 284.218C314.513 284.714 314.317 285.417 314.317 286.326ZM321.752 282.622H323.039V286.698C323.039 287.608 323.168 288.238 323.426 288.589C323.685 288.941 324.093 289.116 324.651 289.116C324.981 289.116 325.26 289.054 325.488 288.93C325.725 288.806 325.917 288.646 326.061 288.45C326.206 288.243 326.309 288.011 326.371 287.752C326.444 287.484 326.48 287.205 326.48 286.915V282.622H327.766V290H326.48V288.915C326.325 289.266 326.061 289.566 325.689 289.814C325.317 290.062 324.832 290.186 324.232 290.186C323.778 290.186 323.39 290.119 323.07 289.984C322.76 289.84 322.507 289.638 322.31 289.38C322.114 289.122 321.969 288.812 321.876 288.45C321.794 288.078 321.752 287.665 321.752 287.21V282.622ZM336.211 290H334.924V285.939C334.924 285.474 334.888 285.086 334.816 284.776C334.754 284.466 334.651 284.218 334.506 284.032C334.372 283.846 334.201 283.717 333.994 283.645C333.798 283.562 333.56 283.521 333.281 283.521C332.951 283.521 332.667 283.583 332.429 283.707C332.191 283.831 331.995 283.996 331.84 284.203C331.685 284.41 331.571 284.647 331.499 284.916C331.427 285.174 331.39 285.448 331.39 285.737V290H330.104V282.622H331.39V283.722C331.545 283.371 331.814 283.071 332.196 282.823C332.579 282.575 333.08 282.451 333.7 282.451C334.155 282.451 334.537 282.524 334.847 282.668C335.167 282.803 335.426 282.999 335.622 283.257C335.829 283.516 335.978 283.831 336.071 284.203C336.164 284.565 336.211 284.973 336.211 285.427V290ZM342.082 290.016C341.937 290.067 341.756 290.109 341.539 290.14C341.333 290.171 341.08 290.186 340.78 290.186C340.201 290.186 339.767 290.067 339.478 289.829C339.189 289.592 339.044 289.194 339.044 288.636V283.598H337.509V282.622H339.044V279.956L340.33 279.661V282.622H342.082V283.598H340.33V288.124C340.33 288.507 340.387 288.765 340.501 288.899C340.615 289.034 340.837 289.101 341.167 289.101C341.364 289.101 341.539 289.085 341.694 289.054C341.849 289.013 341.979 288.977 342.082 288.946V290.016Z" fill="#272727"/>
<path d="M250 64H315V235H250V64Z" fill="#EC632B"/>
<path d="M108 219H173V235H108V219Z" fill="#272727"/>
<path d="M275.38 39.25C275.147 38.97 274.867 38.725 274.54 38.515C274.225 38.2933 273.863 38.1242 273.455 38.0075V41.175H273.507C274.044 41.3033 274.54 41.4492 274.995 41.6125C275.462 41.7642 275.858 41.9625 276.185 42.2075C276.523 42.4525 276.786 42.7558 276.972 43.1175C277.159 43.4792 277.252 43.9225 277.252 44.4475C277.252 45.4158 276.92 46.215 276.255 46.845C275.59 47.475 274.657 47.8542 273.455 47.9825V49.7325H271.617V47.965C271.116 47.895 270.649 47.7842 270.217 47.6325C269.797 47.4808 269.412 47.3 269.062 47.09C268.724 46.88 268.421 46.6525 268.152 46.4075C267.896 46.1625 267.68 45.9175 267.505 45.6725L269.22 44.4475C269.418 44.7858 269.722 45.1125 270.13 45.4275C270.55 45.7308 271.046 45.9525 271.617 46.0925V42.855L271.495 42.82C271.017 42.715 270.562 42.5808 270.13 42.4175C269.71 42.2542 269.342 42.05 269.027 41.805C268.712 41.5483 268.462 41.2333 268.275 40.86C268.088 40.4867 267.995 40.0375 267.995 39.5125C267.995 39.0575 268.082 38.6375 268.257 38.2525C268.444 37.8675 268.701 37.5292 269.027 37.2375C269.354 36.9458 269.733 36.7067 270.165 36.52C270.608 36.3333 271.092 36.205 271.617 36.135V34.4375H273.455V36.17C273.898 36.24 274.301 36.345 274.662 36.485C275.024 36.6133 275.351 36.765 275.642 36.94C275.934 37.115 276.185 37.2958 276.395 37.4825C276.605 37.6692 276.786 37.8383 276.937 37.99L275.38 39.25ZM275.047 44.6575C275.047 44.2608 274.902 43.9633 274.61 43.765C274.33 43.555 273.945 43.3858 273.455 43.2575V46.1625C273.98 46.0692 274.377 45.8883 274.645 45.62C274.913 45.3517 275.047 45.0308 275.047 44.6575ZM270.217 39.4075C270.217 39.7808 270.328 40.0667 270.55 40.265C270.772 40.4633 271.127 40.6267 271.617 40.755V37.9375C271.174 38.0308 270.83 38.2117 270.585 38.48C270.34 38.7367 270.217 39.0458 270.217 39.4075ZM283.252 48H281.24V40.23H277.967V38.6375H278.597C279.075 38.6375 279.472 38.5967 279.787 38.515C280.114 38.4217 280.394 38.2933 280.627 38.13C281.199 37.71 281.502 37.0333 281.537 36.1H283.252V48ZM290.626 48L288.876 41.665C288.701 41.0467 288.532 40.3992 288.369 39.7225C288.205 39.0342 288.065 38.41 287.949 37.85H287.914C287.925 37.99 287.937 38.2233 287.949 38.55C287.96 38.8767 287.972 39.2675 287.984 39.7225C287.995 40.1658 288.001 40.6558 288.001 41.1925C288.013 41.7292 288.019 42.2775 288.019 42.8375V48H285.989V36.1H289.104L290.976 42.68C291.139 43.24 291.279 43.7825 291.396 44.3075C291.524 44.8208 291.618 45.2117 291.676 45.48H291.711C291.734 45.3633 291.775 45.2 291.834 44.99C291.892 44.7683 291.956 44.5292 292.026 44.2725C292.096 44.0042 292.166 43.73 292.236 43.45C292.318 43.17 292.394 42.9075 292.464 42.6625L294.249 36.1H297.364V48H295.334V42.96C295.334 42.54 295.339 42.0792 295.351 41.5775C295.363 41.0758 295.374 40.5858 295.386 40.1075C295.398 39.6175 295.409 39.1625 295.421 38.7425C295.444 38.3225 295.462 37.99 295.474 37.745H295.439C295.415 37.8733 295.357 38.1242 295.264 38.4975C295.182 38.8592 295.089 39.2617 294.984 39.705C294.879 40.1483 294.768 40.5917 294.651 41.035C294.546 41.4667 294.459 41.8108 294.389 42.0675L292.726 48H290.626Z" fill="#272727"/>
<path d="M128.219 194.25C127.985 193.97 127.705 193.725 127.379 193.515C127.064 193.293 126.702 193.124 126.294 193.007V196.175H126.346C126.883 196.303 127.379 196.449 127.834 196.612C128.3 196.764 128.697 196.962 129.024 197.207C129.362 197.452 129.625 197.756 129.811 198.117C129.998 198.479 130.091 198.922 130.091 199.447C130.091 200.416 129.759 201.215 129.094 201.845C128.429 202.475 127.495 202.854 126.294 202.982V204.733H124.456V202.965C123.955 202.895 123.488 202.784 123.056 202.632C122.636 202.481 122.251 202.3 121.901 202.09C121.563 201.88 121.26 201.652 120.991 201.407C120.735 201.162 120.519 200.917 120.344 200.672L122.059 199.447C122.257 199.786 122.56 200.112 122.969 200.428C123.389 200.731 123.885 200.952 124.456 201.092V197.855L124.334 197.82C123.855 197.715 123.4 197.581 122.969 197.417C122.549 197.254 122.181 197.05 121.866 196.805C121.551 196.548 121.3 196.233 121.114 195.86C120.927 195.487 120.834 195.037 120.834 194.512C120.834 194.057 120.921 193.637 121.096 193.252C121.283 192.867 121.54 192.529 121.866 192.237C122.193 191.946 122.572 191.707 123.004 191.52C123.447 191.333 123.931 191.205 124.456 191.135V189.437H126.294V191.17C126.737 191.24 127.14 191.345 127.501 191.485C127.863 191.613 128.19 191.765 128.481 191.94C128.773 192.115 129.024 192.296 129.234 192.482C129.444 192.669 129.625 192.838 129.776 192.99L128.219 194.25ZM127.886 199.657C127.886 199.261 127.74 198.963 127.449 198.765C127.169 198.555 126.784 198.386 126.294 198.257V201.162C126.819 201.069 127.215 200.888 127.484 200.62C127.752 200.352 127.886 200.031 127.886 199.657ZM123.056 194.407C123.056 194.781 123.167 195.067 123.389 195.265C123.61 195.463 123.966 195.627 124.456 195.755V192.937C124.013 193.031 123.669 193.212 123.424 193.48C123.179 193.737 123.056 194.046 123.056 194.407ZM131.506 195.755C131.448 195.592 131.395 195.411 131.348 195.212C131.313 195.014 131.296 194.775 131.296 194.495C131.296 193.97 131.395 193.492 131.593 193.06C131.792 192.617 132.072 192.237 132.433 191.922C132.807 191.596 133.25 191.345 133.763 191.17C134.288 190.983 134.866 190.89 135.496 190.89C136.103 190.89 136.651 190.977 137.141 191.152C137.631 191.327 138.051 191.578 138.401 191.905C138.751 192.232 139.019 192.622 139.206 193.077C139.393 193.521 139.486 194.022 139.486 194.582C139.486 195.259 139.346 195.889 139.066 196.472C138.786 197.044 138.424 197.587 137.981 198.1C137.538 198.602 137.048 199.074 136.511 199.517C135.974 199.961 135.443 200.375 134.918 200.76L134.376 201.18V201.197H134.848C135.012 201.197 135.204 201.197 135.426 201.197C135.659 201.186 135.928 201.18 136.231 201.18H139.766V203H131.138V201.372C131.383 201.209 131.628 201.04 131.873 200.865C132.118 200.69 132.381 200.492 132.661 200.27C132.953 200.048 133.268 199.792 133.606 199.5C133.956 199.208 134.347 198.87 134.778 198.485C135.152 198.158 135.49 197.849 135.793 197.557C136.108 197.266 136.371 196.974 136.581 196.682C136.803 196.391 136.972 196.087 137.088 195.772C137.217 195.446 137.281 195.09 137.281 194.705C137.281 194.098 137.106 193.614 136.756 193.252C136.406 192.891 135.928 192.71 135.321 192.71C134.983 192.71 134.691 192.768 134.446 192.885C134.201 193.002 133.997 193.165 133.833 193.375C133.682 193.573 133.565 193.807 133.483 194.075C133.402 194.332 133.361 194.6 133.361 194.88C133.361 195.265 133.425 195.65 133.553 196.035L131.506 195.755ZM141.311 197.75L142.221 191.1H149.098L148.923 192.955H143.831L143.411 195.632C143.469 195.562 143.562 195.487 143.691 195.405C143.831 195.312 144 195.224 144.198 195.142C144.396 195.049 144.63 194.973 144.898 194.915C145.166 194.857 145.464 194.827 145.791 194.827C146.374 194.827 146.905 194.921 147.383 195.107C147.861 195.294 148.27 195.562 148.608 195.912C148.958 196.251 149.226 196.671 149.413 197.172C149.6 197.662 149.693 198.222 149.693 198.852C149.693 199.447 149.6 200.013 149.413 200.55C149.238 201.075 148.97 201.536 148.608 201.932C148.246 202.329 147.791 202.644 147.243 202.877C146.695 203.099 146.053 203.21 145.318 203.21C144.198 203.21 143.253 202.942 142.483 202.405C141.725 201.868 141.246 201.11 141.048 200.13L143.113 199.587C143.218 200.112 143.451 200.55 143.813 200.9C144.186 201.25 144.682 201.425 145.301 201.425C146.059 201.425 146.613 201.197 146.963 200.742C147.313 200.276 147.488 199.681 147.488 198.957C147.488 198.257 147.307 197.68 146.946 197.225C146.596 196.758 146.041 196.525 145.283 196.525C144.711 196.525 144.251 196.677 143.901 196.98C143.551 197.283 143.311 197.68 143.183 198.17L141.311 197.75ZM161.916 203H159.239L155.389 197.557L153.779 199.15V203H151.679V191.1H153.779V196.542L158.976 191.1H161.811L156.964 196.017L161.916 203Z" fill="#272727"/>
<rect x="32" y="240" width="346" height="4" rx="2" fill="#064843"/>
<path d="M106.15 50V47.4275H106.063L103.455 49.3H100.078V43.91H103.193L104.768 45.0825H104.855V42.0375H104.768L103.193 43.21H100.078V38.4325H103.228L105.642 39.9725H105.73V37.75H97.0325V37.8375L97.96 38.765V48.9675L97.0325 49.9125V50H106.15ZM113.11 49.1775L112.445 49.9125V50H116.033V49.9125L115.263 49.1775L112.288 44.995L114.58 42.16L115.525 41.25V41.1625H112.708V41.25L113.688 42.16L111.92 44.47L110.17 42.0025L110.835 41.25V41.1625H107.265V41.25L108.035 42.0025L110.573 45.6075L107.825 49.0025L106.915 49.93V50H109.733V49.93L108.77 49.0025L110.94 46.115L113.11 49.1775ZM125.575 45.1525C125.575 42.685 124.087 40.9 121.987 40.9C121.025 40.9 120.342 41.285 119.45 42.335H119.345L119.24 40.9H119.065L116.457 41.6875V41.775L117.455 42.5975V52.6775L116.615 53.4125V53.5H120.5V53.4125L119.362 52.6775V49.9825C119.677 50.14 120.307 50.28 120.902 50.28C123.527 50.28 125.575 48.0575 125.575 45.1525ZM123.772 46.0975C123.772 48.285 122.635 49.615 120.92 49.615C120.325 49.615 119.73 49.4575 119.362 49.1775V42.965C119.712 42.4925 120.22 42.195 120.902 42.195C122.582 42.195 123.772 43.8225 123.772 46.0975ZM130.715 50.2625C132.745 50.2625 134.18 48.985 134.583 46.9025L134.495 46.85C133.743 48.1625 132.71 48.8275 131.45 48.8275C129.473 48.8275 128.16 47.2525 128.125 44.8375H134.478C134.005 42.265 132.728 40.9 130.803 40.9C128.405 40.9 126.568 42.9825 126.568 45.765C126.568 48.46 128.265 50.2625 130.715 50.2625ZM130.4 41.5125C131.538 41.5125 132.203 42.335 132.605 44.2775H128.143C128.283 42.545 129.123 41.5125 130.4 41.5125ZM136.308 49.1775L135.468 49.9125V50H139.126V49.9125L138.216 49.1775V43.4025C138.478 42.79 139.231 42.2475 139.721 42.2475C139.773 42.2475 139.826 42.2475 139.878 42.265L141.436 43.315H141.523V41.1275C141.348 41.005 140.998 40.9 140.613 40.9C139.738 40.9 139.073 41.4075 138.268 42.6675H138.181L138.058 40.9H137.901L135.311 41.6875V41.775L136.308 42.5975V49.1775ZM145.03 50.2625C146.15 50.2625 147.165 49.6325 147.672 48.5825L147.602 48.53C147.165 48.95 146.64 49.16 146.132 49.16C145.362 49.16 144.89 48.7225 144.89 47.7775V41.9675H147.287L147.41 41.1625H144.89V39.5175H144.592L141.722 41.88V41.9675H142.965V48.7575C143.192 49.7725 144.032 50.2625 145.03 50.2625ZM151.296 50.2625C153.431 50.2625 154.848 49.0725 154.848 47.305C154.848 44.295 150.298 45.2225 150.298 42.9125C150.298 42.0375 150.963 41.4425 151.891 41.4425C152.136 41.4425 152.346 41.4775 152.538 41.5475L154.253 43.035H154.341V41.3725C153.763 41.0925 152.836 40.9 152.031 40.9C150.018 40.9 148.671 42.0375 148.671 43.7C148.671 46.7275 153.203 45.8 153.203 48.0925C153.203 49.0725 152.468 49.7375 151.453 49.7375C151.173 49.7375 150.876 49.6675 150.613 49.5275L148.513 47.8125H148.426V49.615C149.021 49.965 150.351 50.2625 151.296 50.2625ZM97.6275 70.1775L96.7875 70.9125V71H100.445V70.9125L99.535 70.1775V64.4025C99.7975 63.79 100.55 63.2475 101.04 63.2475C101.093 63.2475 101.145 63.2475 101.198 63.265L102.755 64.315H102.843V62.1275C102.668 62.005 102.318 61.9 101.933 61.9C101.058 61.9 100.393 62.4075 99.5875 63.6675H99.5L99.3775 61.9H99.22L96.63 62.6875V62.775L97.6275 63.5975V70.1775ZM107.402 71.2625C109.432 71.2625 110.867 69.985 111.269 67.9025L111.182 67.85C110.429 69.1625 109.397 69.8275 108.137 69.8275C106.159 69.8275 104.847 68.2525 104.812 65.8375H111.164C110.692 63.265 109.414 61.9 107.489 61.9C105.092 61.9 103.254 63.9825 103.254 66.765C103.254 69.46 104.952 71.2625 107.402 71.2625ZM107.087 62.5125C108.224 62.5125 108.889 63.335 109.292 65.2775H104.829C104.969 63.545 105.809 62.5125 107.087 62.5125ZM115.934 71.2625C117.684 71.2625 118.944 70.23 119.364 68.515L119.277 68.4625C118.717 69.355 117.894 69.845 116.879 69.845C114.954 69.845 113.572 68.2175 113.572 65.96C113.572 64.0525 114.604 62.53 115.917 62.53C116.074 62.53 116.267 62.5475 116.459 62.6L118.699 64.385H118.804V62.39C118.192 62.075 117.352 61.9 116.564 61.9C113.887 61.9 112.014 63.9125 112.014 66.7825C112.014 69.46 113.607 71.2625 115.934 71.2625ZM124.068 71.2625C126.64 71.2625 128.443 69.2675 128.443 66.4675C128.443 63.755 126.745 61.9 124.278 61.9C121.705 61.9 119.903 63.9125 119.903 66.695C119.903 69.4075 121.6 71.2625 124.068 71.2625ZM124.383 70.65C122.895 70.65 121.898 68.865 121.898 66.1525C121.898 63.825 122.668 62.5125 123.963 62.5125C125.45 62.5125 126.448 64.2975 126.448 67.01C126.448 69.3375 125.678 70.65 124.383 70.65ZM138.462 70.9825V70.895L137.64 70.1775V64.21C137.64 64.1575 137.64 64.105 137.64 64.0525C138.322 63.405 138.97 63.1075 139.582 63.1075C140.475 63.1075 141.035 63.7025 141.035 64.665V70.1425L140.195 70.9125V71H143.782V70.9125L142.942 70.1775V64.21C142.942 62.845 141.997 61.9 140.58 61.9C139.582 61.9 138.707 62.3725 137.622 63.51H137.552C137.272 62.53 136.432 61.9 135.277 61.9C134.297 61.9 133.37 62.39 132.372 63.4575H132.285L132.162 61.9H132.005L129.415 62.6875V62.775L130.412 63.5975V70.1775L129.572 70.9125V71H133.16V70.9125L132.32 70.1775V64.0525C133.02 63.405 133.65 63.1075 134.28 63.1075C135.172 63.1075 135.715 63.685 135.715 64.6475V70.1425L134.892 70.895V70.9825H138.462ZM153.699 70.9825V70.895L152.877 70.1775V64.21C152.877 64.1575 152.877 64.105 152.877 64.0525C153.559 63.405 154.207 63.1075 154.819 63.1075C155.712 63.1075 156.272 63.7025 156.272 64.665V70.1425L155.432 70.9125V71H159.019V70.9125L158.179 70.1775V64.21C158.179 62.845 157.234 61.9 155.817 61.9C154.819 61.9 153.944 62.3725 152.859 63.51H152.789C152.509 62.53 151.669 61.9 150.514 61.9C149.534 61.9 148.607 62.39 147.609 63.4575H147.522L147.399 61.9H147.242L144.652 62.6875V62.775L145.649 63.5975V70.1775L144.809 70.9125V71H148.397V70.9125L147.557 70.1775V64.0525C148.257 63.405 148.887 63.1075 149.517 63.1075C150.409 63.1075 150.952 63.685 150.952 64.6475V70.1425L150.129 70.895V70.9825H153.699ZM164.054 71.2625C166.084 71.2625 167.519 69.985 167.921 67.9025L167.834 67.85C167.081 69.1625 166.049 69.8275 164.789 69.8275C162.811 69.8275 161.499 68.2525 161.464 65.8375H167.816C167.344 63.265 166.066 61.9 164.141 61.9C161.744 61.9 159.906 63.9825 159.906 66.765C159.906 69.46 161.604 71.2625 164.054 71.2625ZM163.739 62.5125C164.876 62.5125 165.541 63.335 165.944 65.2775H161.481C161.621 63.545 162.461 62.5125 163.739 62.5125ZM171.554 64.0525C172.289 63.4225 172.989 63.1075 173.689 63.1075C174.634 63.1075 175.247 63.7025 175.247 64.665V70.1425L174.407 70.9125V71H177.977V70.9125L177.154 70.1775V64.21C177.154 62.845 176.157 61.9 174.704 61.9C173.619 61.9 172.587 62.425 171.607 63.4575H171.519L171.397 61.9H171.239L168.649 62.6875V62.775L169.647 63.5975V70.1775L168.807 70.9125V71H172.394V70.9125L171.554 70.1775V64.0525ZM178.879 67.0275C178.879 69.5125 180.367 71.28 182.484 71.28C183.447 71.28 184.112 70.895 185.004 69.845H185.109L185.284 71.2625L187.944 70.5625V70.475L187.017 69.67V57.525H186.842L184.112 58.3475V58.4175L185.092 59.2575V62.1975C184.777 62.04 184.147 61.9 183.534 61.9C180.927 61.9 178.879 64.1225 178.879 67.0275ZM180.699 66.0825C180.699 63.895 181.819 62.565 183.534 62.565C184.147 62.565 184.724 62.7225 185.092 63.0025V69.215C184.742 69.6875 184.234 69.985 183.552 69.985C181.872 69.985 180.699 68.3575 180.699 66.0825ZM198.808 71.2625C199.42 71.2625 199.998 70.895 200.225 70.335V70.2475L199.245 69.88V63.965C199.245 62.74 198.143 61.9 196.498 61.9C194.59 61.9 193.295 62.9675 193.05 64.7525L193.12 64.77C193.663 63.755 194.678 63.125 195.763 63.125C196.743 63.125 197.338 63.6325 197.338 64.455V65.6275L195.518 66.31C193.33 67.0975 192.385 67.99 192.385 69.2325C192.385 70.405 193.243 71.2625 194.468 71.2625C195.43 71.2625 196.428 70.7375 197.285 69.8275H197.408C197.478 70.685 198.02 71.2625 198.808 71.2625ZM194.153 68.62C194.153 67.7975 194.73 67.185 195.973 66.7125L197.338 66.1875V69.25C196.865 69.81 196.253 70.1075 195.675 70.1075C194.783 70.1075 194.153 69.495 194.153 68.62ZM105.748 87.1525C105.748 84.685 104.26 82.9 102.16 82.9C101.198 82.9 100.515 83.285 99.6225 84.335H99.5175L99.4125 82.9H99.2375L96.63 83.6875V83.775L97.6275 84.5975V94.6775L96.7875 95.4125V95.5H100.673V95.4125L99.535 94.6775V91.9825C99.85 92.14 100.48 92.28 101.075 92.28C103.7 92.28 105.748 90.0575 105.748 87.1525ZM103.945 88.0975C103.945 90.285 102.808 91.615 101.093 91.615C100.497 91.615 99.9025 91.4575 99.535 91.1775V84.965C99.885 84.4925 100.393 84.195 101.075 84.195C102.755 84.195 103.945 85.8225 103.945 88.0975ZM110.906 92.2625C113.478 92.2625 115.281 90.2675 115.281 87.4675C115.281 84.755 113.583 82.9 111.116 82.9C108.543 82.9 106.741 84.9125 106.741 87.695C106.741 90.4075 108.438 92.2625 110.906 92.2625ZM111.221 91.65C109.733 91.65 108.736 89.865 108.736 87.1525C108.736 84.825 109.506 83.5125 110.801 83.5125C112.288 83.5125 113.286 85.2975 113.286 88.01C113.286 90.3375 112.516 91.65 111.221 91.65ZM119.997 92V91.93L119.157 91.16V78.525H118.982L116.252 79.3475V79.4175L117.25 80.24V91.16L116.41 91.93V92H119.997ZM123.076 80.765C123.758 80.765 124.231 80.345 124.231 79.645C124.231 78.945 123.758 78.525 123.076 78.525C122.376 78.525 121.903 78.945 121.903 79.645C121.903 80.345 122.376 80.765 123.076 80.765ZM124.861 92V91.93L124.021 91.1775V82.9H123.846L121.116 83.7225V83.7925L122.113 84.615V91.1775L121.273 91.93V92H124.861ZM129.917 92.2625C131.667 92.2625 132.927 91.23 133.347 89.515L133.26 89.4625C132.7 90.355 131.877 90.845 130.862 90.845C128.937 90.845 127.555 89.2175 127.555 86.96C127.555 85.0525 128.587 83.53 129.9 83.53C130.057 83.53 130.25 83.5475 130.442 83.6L132.682 85.385H132.787V83.39C132.175 83.075 131.335 82.9 130.547 82.9C127.87 82.9 125.997 84.9125 125.997 87.7825C125.997 90.46 127.59 92.2625 129.917 92.2625ZM134.586 95.5C136.038 95.5 137.106 94.5375 138.016 92.2275L141.183 84.265L141.971 83.25V83.1625H139.486V83.25L140.501 84.265L138.348 89.935L136.021 84.0025L136.791 83.25V83.1625H133.238V83.25L133.921 84.0025L137.316 92.1225C136.598 93.855 136.231 94.2575 135.531 94.2575C135.408 94.2575 135.303 94.24 135.216 94.2225L133.448 93.3125H133.378V95.2725C133.606 95.395 134.131 95.5 134.586 95.5ZM154.462 92L156.93 84.265L157.682 83.25V83.1625H155.232V83.25L156.247 84.2475L154.76 89.41L152.642 83.1625H151.68L149.457 89.5325L147.9 84.0025L148.67 83.25V83.1625H145.187V83.25L145.87 84.0025L148.32 92H149.177L151.47 85.49L153.675 92H154.462ZM161.904 92.2625C164.477 92.2625 166.279 90.2675 166.279 87.4675C166.279 84.755 164.582 82.9 162.114 82.9C159.542 82.9 157.739 84.9125 157.739 87.695C157.739 90.4075 159.437 92.2625 161.904 92.2625ZM162.219 91.65C160.732 91.65 159.734 89.865 159.734 87.1525C159.734 84.825 160.504 83.5125 161.799 83.5125C163.287 83.5125 164.284 85.2975 164.284 88.01C164.284 90.3375 163.514 91.65 162.219 91.65ZM168.248 91.1775L167.408 91.9125V92H171.066V91.9125L170.156 91.1775V85.4025C170.418 84.79 171.171 84.2475 171.661 84.2475C171.713 84.2475 171.766 84.2475 171.818 84.265L173.376 85.315H173.463V83.1275C173.288 83.005 172.938 82.9 172.553 82.9C171.678 82.9 171.013 83.4075 170.208 84.6675H170.121L169.998 82.9H169.841L167.251 83.6875V83.775L168.248 84.5975V91.1775ZM176.97 92.2625C178.09 92.2625 179.105 91.6325 179.613 90.5825L179.543 90.53C179.105 90.95 178.58 91.16 178.073 91.16C177.303 91.16 176.83 90.7225 176.83 89.7775V83.9675H179.228L179.35 83.1625H176.83V81.5175H176.533L173.663 83.88V83.9675H174.905V90.7575C175.133 91.7725 175.973 92.2625 176.97 92.2625ZM183.936 92V91.9125L183.096 91.1775V85.07C183.831 84.4225 184.531 84.125 185.213 84.125C186.176 84.125 186.788 84.72 186.788 85.6825V91.1775L185.948 91.93V92.0175H189.518V91.93L188.696 91.1775V85.21C188.696 83.845 187.698 82.9175 186.228 82.9175C185.161 82.9175 184.181 83.4075 183.201 84.44H183.096V78.525H182.921L180.191 79.33V79.4L181.188 80.2225V91.1775L180.348 91.895V92H183.936Z" fill="#272727"/>
<path d="M101.145 113V112.912L100.288 112.037V100.75H99.185L96.7525 102.43V102.517H98.275V112.037L97.435 112.912V113H101.145ZM107.312 113.263C110.147 113.263 112.264 110.428 112.264 106.665C112.264 103.042 110.322 100.487 107.644 100.487C104.809 100.487 102.674 103.322 102.674 107.085C102.674 110.707 104.634 113.263 107.312 113.263ZM107.574 112.58C105.807 112.58 104.809 110.305 104.809 106.507C104.809 102.99 105.754 101.17 107.347 101.17C109.114 101.17 110.129 103.445 110.129 107.242C110.129 110.76 109.167 112.58 107.574 112.58ZM118.948 112.177L118.283 112.912V113H121.871V112.912L121.101 112.177L118.126 107.995L120.418 105.16L121.363 104.25V104.163H118.546V104.25L119.526 105.16L117.758 107.47L116.008 105.002L116.673 104.25V104.163H113.103V104.25L113.873 105.002L116.411 108.607L113.663 112.002L112.753 112.93V113H115.571V112.93L114.608 112.002L116.778 109.115L118.948 112.177ZM126.526 116.5C127.979 116.5 129.046 115.538 129.956 113.228L133.124 105.265L133.911 104.25V104.163H131.426V104.25L132.441 105.265L130.289 110.935L127.961 105.002L128.731 104.25V104.163H125.179V104.25L125.861 105.002L129.256 113.123C128.539 114.855 128.171 115.258 127.471 115.258C127.349 115.258 127.244 115.24 127.156 115.223L125.389 114.313H125.319V116.273C125.546 116.395 126.071 116.5 126.526 116.5ZM137.948 113.263C140.521 113.263 142.323 111.267 142.323 108.467C142.323 105.755 140.626 103.9 138.158 103.9C135.586 103.9 133.783 105.912 133.783 108.695C133.783 111.407 135.481 113.263 137.948 113.263ZM138.263 112.65C136.776 112.65 135.778 110.865 135.778 108.152C135.778 105.825 136.548 104.512 137.843 104.512C139.331 104.512 140.328 106.297 140.328 109.01C140.328 111.337 139.558 112.65 138.263 112.65ZM146.445 113.263C147.512 113.263 148.527 112.755 149.49 111.705H149.595L149.77 113.263L152.395 112.562V112.475L151.467 111.67V103.9H151.292L148.562 104.722V104.81L149.542 105.65V111.11C148.807 111.757 148.142 112.055 147.46 112.055C146.532 112.055 145.955 111.46 145.955 110.497V103.9H145.78L143.05 104.722V104.81L144.047 105.632V110.97C144.047 112.317 145.01 113.263 146.445 113.263ZM154.402 112.177L153.562 112.912V113H157.22V112.912L156.31 112.177V106.402C156.572 105.79 157.325 105.247 157.815 105.247C157.867 105.247 157.92 105.247 157.972 105.265L159.53 106.315H159.617V104.127C159.442 104.005 159.092 103.9 158.707 103.9C157.832 103.9 157.167 104.407 156.362 105.667H156.275L156.152 103.9H155.995L153.405 104.687V104.775L154.402 105.597V112.177ZM166.673 113.263C168.808 113.263 170.225 112.072 170.225 110.305C170.225 107.295 165.675 108.222 165.675 105.912C165.675 105.037 166.34 104.442 167.268 104.442C167.513 104.442 167.723 104.477 167.915 104.547L169.63 106.035H169.718V104.372C169.14 104.092 168.213 103.9 167.408 103.9C165.395 103.9 164.048 105.037 164.048 106.7C164.048 109.727 168.58 108.8 168.58 111.092C168.58 112.072 167.845 112.737 166.83 112.737C166.55 112.737 166.253 112.667 165.99 112.527L163.89 110.812H163.803V112.615C164.398 112.965 165.728 113.263 166.673 113.263ZM177.685 113.263C178.297 113.263 178.875 112.895 179.102 112.335V112.247L178.122 111.88V105.965C178.122 104.74 177.02 103.9 175.375 103.9C173.467 103.9 172.172 104.967 171.927 106.752L171.997 106.77C172.54 105.755 173.555 105.125 174.64 105.125C175.62 105.125 176.215 105.632 176.215 106.455V107.627L174.395 108.31C172.207 109.097 171.262 109.99 171.262 111.232C171.262 112.405 172.12 113.263 173.345 113.263C174.307 113.263 175.305 112.737 176.162 111.827H176.285C176.355 112.685 176.897 113.263 177.685 113.263ZM173.03 110.62C173.03 109.797 173.607 109.185 174.85 108.712L176.215 108.187V111.25C175.742 111.81 175.13 112.107 174.552 112.107C173.66 112.107 173.03 111.495 173.03 110.62ZM183.492 113V112.93L182.652 112.16V99.525H182.477L179.747 100.347V100.417L180.744 101.24V112.16L179.904 112.93V113H183.492ZM191.052 113.263C191.664 113.263 192.242 112.895 192.469 112.335V112.247L191.489 111.88V105.965C191.489 104.74 190.387 103.9 188.742 103.9C186.834 103.9 185.539 104.967 185.294 106.752L185.364 106.77C185.907 105.755 186.922 105.125 188.007 105.125C188.987 105.125 189.582 105.632 189.582 106.455V107.627L187.762 108.31C185.574 109.097 184.629 109.99 184.629 111.232C184.629 112.405 185.487 113.263 186.712 113.263C187.674 113.263 188.672 112.737 189.529 111.827H189.652C189.722 112.685 190.264 113.263 191.052 113.263ZM186.397 110.62C186.397 109.797 186.974 109.185 188.217 108.712L189.582 108.187V111.25C189.109 111.81 188.497 112.107 187.919 112.107C187.027 112.107 186.397 111.495 186.397 110.62ZM194.112 112.177L193.272 112.912V113H196.929V112.912L196.019 112.177V106.402C196.282 105.79 197.034 105.247 197.524 105.247C197.577 105.247 197.629 105.247 197.682 105.265L199.239 106.315H199.327V104.127C199.152 104.005 198.802 103.9 198.417 103.9C197.542 103.9 196.877 104.407 196.072 105.667H195.984L195.862 103.9H195.704L193.114 104.687V104.775L194.112 105.597V112.177ZM200.541 116.5C201.993 116.5 203.061 115.538 203.971 113.228L207.138 105.265L207.926 104.25V104.163H205.441V104.25L206.456 105.265L204.303 110.935L201.976 105.002L202.746 104.25V104.163H199.193V104.25L199.876 105.002L203.271 113.123C202.553 114.855 202.186 115.258 201.486 115.258C201.363 115.258 201.258 115.24 201.171 115.223L199.403 114.313H199.333V116.273C199.561 116.395 200.086 116.5 200.541 116.5ZM208.246 113.263C208.964 113.263 209.489 112.772 209.489 112.072C209.489 111.372 208.964 110.882 208.246 110.882C207.529 110.882 207.004 111.372 207.004 112.072C207.004 112.772 207.529 113.263 208.246 113.263Z" fill="#EC632B"/>
</svg>
