<svg width="165" height="23" viewBox="0 0 165 23" fill="none" xmlns="http://www.w3.org/2000/svg">
<path d="M58.3214 22.2613L56.2404 18.647C57.2261 16.7851 57.2261 14.5946 57.2261 11.747C57.2261 8.13272 57.2261 5.50415 55.1452 3.31367C53.7214 1.78034 51.8595 1.01367 49.4499 1.01367C47.0404 1.01367 45.1785 1.88986 43.7547 3.31367C41.6738 5.39462 41.6738 8.02319 41.6738 11.747C41.6738 15.3613 41.5642 17.9899 43.7547 20.1803C45.288 21.7137 47.0404 22.4803 49.4499 22.4803C50.1071 22.4803 50.6547 22.3708 51.2023 22.2613H58.3214V22.2613ZM46.7119 17.6613C45.9452 16.7851 45.7261 15.7994 45.7261 11.747C45.7261 7.69462 45.9452 6.70891 46.7119 5.83272C47.2595 5.17557 48.2452 4.73748 49.3404 4.73748C50.4357 4.73748 51.4214 5.17557 51.969 5.83272C52.7357 6.70891 52.9547 7.69462 52.9547 11.747C52.9547 15.7994 52.7357 16.7851 51.969 17.6613C51.4214 18.3184 50.4357 18.7565 49.3404 18.7565C48.2452 18.7565 47.2595 18.3184 46.7119 17.6613Z" fill="#272727"/>
<path d="M106.402 1.23242H110.455V22.261H106.402V1.23242Z" fill="#272727"/>
<path d="M8.48796 22.4802C5.31177 22.4802 2.90224 21.823 0.821289 19.7421L3.44986 17.1135C4.76415 18.4278 6.62605 18.8659 8.48796 18.8659C10.8975 18.8659 12.2118 17.9897 12.2118 16.2373C12.2118 15.4707 11.9927 14.923 11.5546 14.485C11.1165 14.0469 10.6784 13.9373 9.69272 13.7183L7.17367 13.3897C5.42129 13.1707 3.99748 12.5135 3.12129 11.6373C2.13557 10.6516 1.58796 9.22781 1.58796 7.47543C1.58796 3.75162 4.32605 1.12305 8.92605 1.12305C11.7737 1.12305 13.9641 1.78019 15.7165 3.53257L13.088 6.05162C11.7737 4.73733 10.1308 4.62781 8.81653 4.62781C6.62605 4.62781 5.53081 5.83257 5.53081 7.25638C5.53081 7.804 5.74986 8.35162 6.18796 8.78971C6.62605 9.22781 7.2832 9.44686 8.15939 9.6659L10.6784 9.99448C12.6499 10.2135 13.8546 10.7611 14.7308 11.6373C15.8261 12.7326 16.3737 14.2659 16.3737 16.1278C16.3737 20.1802 12.8689 22.4802 8.48796 22.4802Z" fill="#272727"/>
<path d="M22.2881 22.261V1.23242H36.1976V4.84671H26.45V9.77528H34.7738V13.4991H26.45V18.6467H36.1976V22.261H22.2881" fill="#272727"/>
<path d="M71.1356 22.48C66.8641 22.48 63.3594 19.5229 63.3594 15.0324V1.23242H67.5213V14.9229C67.5213 17.3324 68.9451 18.7562 71.1356 18.7562C73.326 18.7562 74.7499 17.3324 74.7499 14.9229V1.23242H78.8022V15.0324C78.8022 19.5229 75.407 22.48 71.1356 22.48Z" fill="#272727"/>
<path d="M98.2975 20.1803C96.8737 21.7137 95.0118 22.4803 92.6023 22.4803C90.1928 22.4803 88.3309 21.6041 86.9071 20.1803C84.8261 18.0994 84.8261 15.4708 84.8261 11.747C84.8261 8.13272 84.7166 5.50415 86.9071 3.31367C88.3309 1.78034 90.1928 1.01367 92.6023 1.01367C95.0118 1.01367 96.7642 1.88986 98.2975 3.31367C100.378 5.39462 100.378 8.02319 100.378 11.747C100.378 15.3613 100.378 17.9899 98.2975 20.1803ZM95.2309 5.83272C94.6832 5.17557 93.6975 4.73748 92.6023 4.73748C91.5071 4.73748 90.5213 5.17557 89.9737 5.83272C89.2071 6.70891 88.988 7.69462 88.988 11.747C88.988 15.7994 89.2071 16.7851 89.9737 17.6613C90.5213 18.3184 91.5071 18.7565 92.6023 18.7565C93.6975 18.7565 94.6832 18.3184 95.2309 17.6613C95.9975 16.7851 96.2166 15.7994 96.2166 11.747C96.2166 7.69462 95.9975 6.70891 95.2309 5.83272Z" fill="#272727"/>
<path d="M129.841 22.261L128.636 18.5372H121.188L119.874 22.261H115.603L123.269 1.23242H126.445L134.112 22.261H129.841ZM124.912 7.36576L122.283 15.0324H127.541L124.912 7.36576Z" fill="#272727"/>
<path d="M158.207 1.23242H163.464V6.48956H158.207V1.23242Z" fill="#272727"/>
<path d="M145.064 17.7705V1.23242H142.436V20.3991L145.064 17.7705Z" fill="#272727"/>
<path d="M146.926 19.6328L144.298 22.2614H163.464V19.6328H146.926Z" fill="#272727"/>
<path d="M150.321 12.5134V1.23242H147.693V15.1419L150.321 12.5134Z" fill="#272727"/>
<path d="M152.183 14.375L149.555 17.0036H163.464V14.375H152.183Z" fill="#272727"/>
<path d="M155.579 7.25623V1.23242H152.95V9.8848L155.579 7.25623Z" fill="#272727"/>
<path d="M157.441 9.11914L154.812 11.7477H163.464V9.11914H157.441Z" fill="#272727"/>
</svg>
