<svg viewBox="0 0 26.77 22.39" xmlns="http://www.w3.org/2000/svg"><g fill="#054742"><path d="m26.65 19-2-1.94a5.87 5.87 0 0 1 -1.1-1.43l-1.17-2.11-2.52 1.18-.21-.46 2.49-1.15-1.13-2-2.53 1.17-.21-.45 2.5-1.16-1.12-2-2.58 1.11-.21-.45 2.51-1.17-2.2-4-5.17.18a5.14 5.14 0 0 1 -5.13-3.6l-.23-.72-4.55 7.21a3.69 3.69 0 0 0 -.54 1.79l24.59 12.2a2.2 2.2 0 0 0 .51-2.2z"/><path d="m1.56 9.54a3.67 3.67 0 0 0 1.67 2.71l3.4 1.9h-4v1h5.78l8.06 4.52.56.21h-5.4v1h8l3.84 1.48a2.88 2.88 0 0 0 2.32-.79z"/><path d="m0 17.78h6.8v1h-6.8z"/></g></svg>