<svg width="46" height="42" fill="none" xmlns="http://www.w3.org/2000/svg">
  <path
    d="M13.123 16.461c.607-1.416 2.293-2.09 3.71-1.484.674.27 1.146.81 1.483 1.484M31.8 16.668c-.607-1.416-2.293-2.09-3.709-1.484-.674.27-1.146.81-1.484 1.484M16.966 23.003c1.55 4.18 9.439 4.18 10.922 0 .27-.742-.27-1.483-1.079-1.483h-8.832c-.741 0-1.28.741-1.011 1.483Z"
    stroke="#064944"
    stroke-miterlimit="10"
    stroke-linecap="round"
    stroke-linejoin="round"
  />
  <path
    d="m21.483 39.722 1.281 1.28 5.326-5.258c1.349-1.349 1.349-3.439 0-4.787-1.415-1.349-3.573-1.281-4.921.067-.135.135-.27.337-.405.472-1.079-1.618-3.236-2.022-4.854-1.011-.202.135-.337.27-.472.405a3.399 3.399 0 0 0-.067 4.786l.067.068 2.023 2.023"
    fill="#DBECE4"
  />
  <path
    d="m21.483 39.722 1.281 1.28 5.326-5.258c1.349-1.349 1.349-3.439 0-4.787-1.415-1.349-3.573-1.281-4.921.067-.135.135-.27.337-.405.472-1.079-1.618-3.236-2.022-4.854-1.011-.202.135-.337.27-.472.405a3.399 3.399 0 0 0-.067 4.786l.067.068 2.023 2.023"
    stroke="#064944"
    stroke-miterlimit="10"
    stroke-linecap="round"
    stroke-linejoin="round"
  />
  <path
    d="M7.325 26.645 1.863 27.79a1.483 1.483 0 0 0-.876 2.427l5.191 6.068c.742.876 2.158.607 2.562-.472l2.023-5.664"
    fill="#DBECE4"
  />
  <path
    d="M7.325 26.645 1.863 27.79a1.483 1.483 0 0 0-.876 2.427l5.191 6.068c.742.876 2.158.607 2.562-.472l2.023-5.664"
    stroke="#064944"
    stroke-miterlimit="10"
    stroke-linecap="round"
    stroke-linejoin="round"
  />
  <path
    d="m38.676 27.117 5.46 1.146a1.483 1.483 0 0 1 .877 2.427l-5.191 6.068c-.742.877-2.158.607-2.562-.472l-2.023-5.663"
    fill="#DBECE4"
  />
  <path
    d="m38.676 27.117 5.46 1.146a1.483 1.483 0 0 1 .877 2.427l-5.191 6.068c-.742.877-2.158.607-2.562-.472l-2.023-5.663M8.269 11.475c5.865-2.832 11.259-6 14.832-10.248 3.91 4.652 8.9 8.09 14.698 10.517"
    stroke="#064944"
    stroke-miterlimit="10"
    stroke-linecap="round"
    stroke-linejoin="round"
  />
  <path
    d="M14.27 30.082c-5.732-3.776-8.563-10.99-6.406-17.867 2.562-8.36 11.462-13.08 19.822-10.518 8.36 2.562 13.08 11.462 10.518 19.822a15.712 15.712 0 0 1-6.675 8.765"
    stroke="#064944"
    stroke-miterlimit="10"
    stroke-linecap="round"
    stroke-linejoin="round"
  />
</svg>