  <svg
    width="106"
    height="106"
    viewBox="0 0 106 106"
    fill="none"
    xmlns="http://www.w3.org/2000/svg"
  >
    <circle cx="53" cy="53" r="52.5" fill="#DBECE4" stroke="black" />
    <path
      d="M65.3938 38.8227C69.7631 38.8227 73.3052 35.2807 73.3052 30.9114C73.3052 26.542 69.7631 23 65.3938 23C61.0245 23 57.4824 26.542 57.4824 30.9114C57.4824 35.2807 61.0245 38.8227 65.3938 38.8227Z"
      fill="white"
      stroke="#064944"
      stroke-width="1.5"
      stroke-miterlimit="10"
      stroke-linecap="round"
      stroke-linejoin="round"
    />
    <path
      d="M52.9619 46.884C55.147 44.3222 58.3115 42.8906 61.6267 42.8906H69.2367C74.8877 42.8906 79.6345 47.0347 80.4633 52.535L82.9498 69.1112C83.3265 71.4469 81.5182 73.4812 79.1824 73.4812H69.6888"
      fill="white"
    />
    <path
      d="M52.9619 46.884C55.147 44.3222 58.3115 42.8906 61.6267 42.8906H69.2367C74.8877 42.8906 79.6345 47.0347 80.4633 52.535L82.9498 69.1112C83.3265 71.4469 81.5182 73.4812 79.1824 73.4812H69.6888"
      stroke="#064944"
      stroke-width="1.5"
      stroke-miterlimit="10"
      stroke-linecap="round"
      stroke-linejoin="round"
    />
    <path
      d="M39.626 73.4812H26.8172C24.4814 73.4812 22.6731 71.3715 23.0498 69.1112L25.5363 52.535C26.3651 46.9593 31.1119 42.8906 36.7629 42.8906H44.2975C49.2704 42.8906 53.6405 46.1305 55.1474 50.802"
      fill="white"
    />
    <path
      d="M39.626 73.4812H26.8172C24.4814 73.4812 22.6731 71.3715 23.0498 69.1112L25.5363 52.535C26.3651 46.9593 31.1119 42.8906 36.7629 42.8906H44.2975C49.2704 42.8906 53.6405 46.1305 55.1474 50.802"
      stroke="#064944"
      stroke-width="1.5"
      stroke-miterlimit="10"
      stroke-linecap="round"
      stroke-linejoin="round"
    />
    <path
      d="M40.4546 38.8227C44.8239 38.8227 48.3659 35.2807 48.3659 30.9114C48.3659 26.542 44.8239 23 40.4546 23C36.0853 23 32.5432 26.542 32.5432 30.9114C32.5432 35.2807 36.0853 38.8227 40.4546 38.8227Z"
      fill="white"
      stroke="#064944"
      stroke-width="1.5"
      stroke-miterlimit="10"
      stroke-linecap="round"
      stroke-linejoin="round"
    />
    <path
      d="M54.5434 68.5066C58.4133 68.5066 61.5506 65.3694 61.5506 61.4994C61.5506 57.6294 58.4133 54.4922 54.5434 54.4922C50.6734 54.4922 47.5361 57.6294 47.5361 61.4994C47.5361 65.3694 50.6734 68.5066 54.5434 68.5066Z"
      fill="white"
      stroke="#064944"
      stroke-width="1.5"
      stroke-miterlimit="10"
      stroke-linecap="round"
      stroke-linejoin="round"
    />
    <path
      d="M58.1608 81.9143H61.5514C62.2295 81.9143 62.757 81.3869 62.757 80.7087V74.7564L72.4766 66.0916C73.4561 65.2627 73.5315 63.7558 72.7027 62.7763C71.8739 61.7968 70.3669 61.7215 69.3874 62.5503L59.5171 71.2904H49.5713L39.701 62.5503C38.7215 61.7215 37.2899 61.7968 36.3857 62.7763C35.5569 63.7558 35.6323 65.1874 36.6118 66.0916L46.3315 74.7564V80.7087C46.3315 81.3869 46.8589 81.9143 47.537 81.9143H51.455"
      fill="white"
    />
    <path
      d="M58.1608 81.9143H61.5514C62.2295 81.9143 62.7569 81.3869 62.7569 80.7087V74.7564L72.4766 66.0916C73.4561 65.2627 73.5315 63.7558 72.7027 62.7763C71.8739 61.7968 70.3669 61.7215 69.3874 62.5503L59.5171 71.2904H49.5713L39.701 62.5503C38.7215 61.7215 37.2899 61.7968 36.3857 62.7763C35.5569 63.7558 35.6323 65.1874 36.6118 66.0916L46.3315 74.7564V80.7087C46.3315 81.3869 46.8589 81.9143 47.537 81.9143H51.455"
      stroke="#064944"
      stroke-width="1.5"
      stroke-miterlimit="10"
      stroke-linecap="round"
      stroke-linejoin="round"
    />
  </svg>