  <svg
    width="48"
    height="48"
    viewBox="0 0 48 48"
    fill="none"
    xmlns="http://www.w3.org/2000/svg"
  >
    <path
      d="M25.0289 34.339C27.6089 34.339 29.7004 32.2475 29.7004 29.6676C29.7004 27.0876 27.6089 24.9961 25.0289 24.9961C22.4489 24.9961 20.3574 27.0876 20.3574 29.6676C20.3574 32.2475 22.4489 34.339 25.0289 34.339Z"
      fill="#DBECE4"
      stroke="#064944"
      stroke-width="1.5"
      stroke-miterlimit="10"
      stroke-linecap="round"
      stroke-linejoin="round"
    />
    <path
      d="M27.4405 43.2775H29.7009C30.153 43.2775 30.5046 42.9259 30.5046 42.4738V38.5056L36.9844 32.729C37.6374 32.1765 37.6877 31.1718 37.1351 30.5188C36.5826 29.8658 35.5779 29.8156 34.9249 30.3682L28.3447 36.1949H21.7142L15.134 30.3682C14.481 29.8156 13.5266 29.8658 12.9238 30.5188C12.3713 31.1718 12.4215 32.1262 13.0745 32.729L19.5543 38.5056V42.4738C19.5543 42.9259 19.9059 43.2775 20.358 43.2775H22.97"
      fill="#DBECE4"
    />
    <path
      d="M27.4405 43.2775H29.7009C30.153 43.2775 30.5046 42.9259 30.5046 42.4738V38.5056L36.9844 32.729C37.6374 32.1765 37.6877 31.1718 37.1351 30.5188C36.5826 29.8658 35.5779 29.8156 34.9249 30.3682L28.3447 36.1949H21.7142L15.134 30.3682C14.481 29.8156 13.5266 29.8658 12.9238 30.5188C12.3713 31.1718 12.4215 32.1262 13.0745 32.729L19.5543 38.5056V42.4738C19.5543 42.9259 19.9059 43.2775 20.358 43.2775H22.97"
      stroke="#064944"
      stroke-width="1.5"
      stroke-miterlimit="10"
      stroke-linecap="round"
      stroke-linejoin="round"
    />
    <path
      d="M15.6363 14.5485C18.5492 14.5485 20.9105 12.1871 20.9105 9.27424C20.9105 6.36136 18.5492 4 15.6363 4C12.7234 4 10.3621 6.36136 10.3621 9.27424C10.3621 12.1871 12.7234 14.5485 15.6363 14.5485Z"
      stroke="#064944"
      stroke-width="1.5"
      stroke-miterlimit="10"
      stroke-linecap="round"
      stroke-linejoin="round"
    />
    <path
      d="M15.084 37.6555H6.54477C4.98761 37.6555 3.78207 36.249 4.03322 34.7421L5.69085 23.6913C6.24339 19.9742 9.40793 17.2617 13.1753 17.2617H18.1983C21.5136 17.2617 24.427 19.4216 25.4316 22.536"
      stroke="#064944"
      stroke-width="1.5"
      stroke-miterlimit="10"
      stroke-linecap="round"
      stroke-linejoin="round"
    />
    <path
      d="M23.9746 19.924C25.4313 18.2161 27.541 17.2617 29.7512 17.2617H34.8245C38.5918 17.2617 41.7563 20.0244 42.3089 23.6913L43.9665 34.7421C44.2177 36.2992 43.0121 37.6555 41.455 37.6555H35.1259"
      stroke="#064944"
      stroke-width="1.5"
      stroke-miterlimit="10"
      stroke-linecap="round"
      stroke-linejoin="round"
    />
    <path
      d="M32.2625 14.5485C35.1754 14.5485 37.5368 12.1871 37.5368 9.27424C37.5368 6.36136 35.1754 4 32.2625 4C29.3496 4 26.9883 6.36136 26.9883 9.27424C26.9883 12.1871 29.3496 14.5485 32.2625 14.5485Z"
      stroke="#064944"
      stroke-width="1.5"
      stroke-miterlimit="10"
      stroke-linecap="round"
      stroke-linejoin="round"
    />
  </svg>