  <svg
    width="106"
    height="106"
    viewBox="0 0 106 106"
    fill="none"
    xmlns="http://www.w3.org/2000/svg"
  >
    <circle cx="53" cy="53" r="52.5" fill="#DBECE4" stroke="black" />
    <path
      d="M61.7 29H32L33.8 31.7V35.3V73.55L37.4 77.15H61V70.5L63.5 70V31.7L61.7 29Z"
      fill="white"
    />
    <path
      d="M74.3189 67.0904V61.0586C74.3189 60.7411 74.557 60.4237 74.8744 60.265L76.6998 59.63C77.176 59.4713 77.5728 58.9951 77.5728 58.4395V57.011C77.5728 56.4554 77.176 56.0586 76.6205 56.0586H67.6522C67.0967 56.0586 66.6998 56.4554 66.6998 57.011V58.4395C66.6998 58.9951 67.0173 59.4713 67.5728 59.63L69.3982 60.265C69.7157 60.3443 69.9538 60.6618 69.9538 61.0586V67.0904C69.9538 67.6459 69.6363 68.1221 69.0808 68.2808L61.6998 70.7411C60.8268 71.0586 60.1919 71.8522 60.1919 72.8046V74.7094C60.1919 75.1856 60.5887 75.5824 61.0649 75.5824H83.1284C83.6046 75.5824 84.0014 75.1856 84.0014 74.7094V72.8046C84.0014 71.8522 83.3665 71.0586 82.4935 70.7411L75.1125 68.2808C74.6363 68.1221 74.3189 67.6459 74.3189 67.0904Z"
      fill="white"
      stroke="#064944"
      stroke-width="1.5"
      stroke-miterlimit="10"
      stroke-linecap="round"
      stroke-linejoin="round"
    />
    <path
      d="M62.4141 78.8359H81.8585"
      stroke="#064944"
      stroke-width="1.5"
      stroke-miterlimit="10"
      stroke-linecap="round"
      stroke-linejoin="round"
    />
    <path
      d="M63.6828 63.9206V33.7619C63.6828 31.1429 61.54 29 58.9209 29H28.7622C31.3813 29 33.5241 31.1429 33.5241 33.7619V71.8571C33.5241 74.4762 35.667 76.619 38.286 76.619"
      stroke="#064944"
      stroke-width="1.5"
      stroke-miterlimit="10"
      stroke-linecap="round"
      stroke-linejoin="round"
    />
    <path
      d="M56.6185 68.6797H43.0471V71.8543C43.0471 74.4733 40.9042 76.6162 38.2852 76.6162H54.7931"
      stroke="#064944"
      stroke-width="1.5"
      stroke-miterlimit="10"
      stroke-linecap="round"
      stroke-linejoin="round"
    />
    <path
      d="M24 33.7619C24 31.1429 26.1429 29 28.7619 29C31.381 29 33.5238 31.1429 33.5238 33.7619V36.9365H24V33.7619Z"
      fill="#DBECE4"
      stroke="#064944"
      stroke-width="1.5"
      stroke-miterlimit="10"
      stroke-linecap="round"
      stroke-linejoin="round"
    />
    <path
      d="M57.9686 50.4277C58.0479 50.8245 58.0479 51.3007 58.0479 51.6975C58.0479 55.6658 54.8733 58.8404 50.9051 58.8404C46.9368 58.8404 43.7622 55.6658 43.7622 51.6975C43.7622 47.7293 46.9368 44.5547 50.9051 44.5547C51.6193 44.5547 52.3336 44.6341 52.9686 44.8722"
      stroke="#064944"
      stroke-width="1.5"
      stroke-miterlimit="10"
      stroke-linecap="round"
      stroke-linejoin="round"
    />
    <path
      d="M47.5708 50.1146L51.1422 54.4797L59.0787 41.7812"
      stroke="#064944"
      stroke-width="1.5"
      stroke-miterlimit="10"
      stroke-linecap="round"
      stroke-linejoin="round"
    />
  </svg>