  <svg
    width="48"
    height="48"
    viewBox="0 0 48 48"
    fill="none"
    xmlns="http://www.w3.org/2000/svg"
  >
    <path
      d="M37.5459 33.3936V29.3724C37.5459 29.1608 37.7046 28.9491 37.9163 28.8433L39.1332 28.42C39.4507 28.3142 39.7152 27.9967 39.7152 27.6264V26.674C39.7152 26.3036 39.4507 26.0391 39.0803 26.0391H33.1015C32.7311 26.0391 32.4665 26.3036 32.4665 26.674V27.6264C32.4665 27.9967 32.6782 28.3142 33.0486 28.42L34.2655 28.8433C34.4771 28.8962 34.6359 29.1079 34.6359 29.3724V33.3936C34.6359 33.7639 34.4242 34.0814 34.0538 34.1872L29.1332 35.8274C28.5512 36.0391 28.1279 36.5682 28.1279 37.2031V38.4729C28.1279 38.7904 28.3925 39.0549 28.7099 39.0549H43.4189C43.7364 39.0549 44.0009 38.7904 44.0009 38.4729V37.2031C44.0009 36.5682 43.5777 36.0391 42.9957 35.8274L38.075 34.1872C37.7576 34.0814 37.5459 33.7639 37.5459 33.3936Z"
      fill="#DBECE4"
      stroke="#064944"
      stroke-width="1.5"
      stroke-miterlimit="10"
      stroke-linecap="round"
      stroke-linejoin="round"
    />
    <path
      d="M29.6094 41.2227H42.5723"
      stroke="#064944"
      stroke-width="1.5"
      stroke-miterlimit="10"
      stroke-linecap="round"
      stroke-linejoin="round"
    />
    <path
      d="M30.4552 31.2804V11.1746C30.4552 9.42857 29.0267 8 27.2806 8H7.1748C8.92084 8 10.3494 9.42857 10.3494 11.1746V36.5714C10.3494 38.3175 11.778 39.746 13.524 39.746"
      stroke="#064944"
      stroke-width="1.5"
      stroke-miterlimit="10"
      stroke-linecap="round"
      stroke-linejoin="round"
    />
    <path
      d="M25.7457 34.4531H16.698V36.5695C16.698 38.3156 15.2695 39.7441 13.5234 39.7441H24.5287"
      stroke="#064944"
      stroke-width="1.5"
      stroke-miterlimit="10"
      stroke-linecap="round"
      stroke-linejoin="round"
    />
    <path
      d="M4 11.1746C4 9.42857 5.42857 8 7.1746 8C8.92063 8 10.3492 9.42857 10.3492 11.1746V13.291H4V11.1746Z"
      fill="#DBECE4"
      stroke="#064944"
      stroke-width="1.5"
      stroke-miterlimit="10"
      stroke-linecap="round"
      stroke-linejoin="round"
    />
    <path
      d="M26.6457 22.2865C26.6986 22.551 26.6986 22.8684 26.6986 23.133C26.6986 25.7785 24.5822 27.8949 21.9367 27.8949C19.2912 27.8949 17.1748 25.7785 17.1748 23.133C17.1748 20.4875 19.2912 18.3711 21.9367 18.3711C22.4129 18.3711 22.8891 18.424 23.3124 18.5827"
      stroke="#064944"
      stroke-width="1.5"
      stroke-miterlimit="10"
      stroke-linecap="round"
      stroke-linejoin="round"
    />
    <path
      d="M19.7139 22.0751L22.0948 24.9851L27.3858 16.5195"
      stroke="#064944"
      stroke-width="1.5"
      stroke-miterlimit="10"
      stroke-linecap="round"
      stroke-linejoin="round"
    />
  </svg>