<svg width="18" height="18" fill="none" xmlns="http://www.w3.org/2000/svg"><path d="M15.75 18H2.25A2.25 2.25 0 0 1 0 15.75V2.25A2.25 2.25 0 0 1 2.25 0h13.5A2.25 2.25 0 0 1 18 2.25v13.5A2.25 2.25 0 0 1 15.75 18Zm-8.838-4.428c4.244 0 6.565-3.519 6.565-6.565 0-.1 0-.198-.004-.297.45-.324.841-.734 1.152-1.197-.414.184-.86.306-1.328.364a2.322 2.322 0 0 0 1.018-1.278 4.59 4.59 0 0 1-1.467.558 2.31 2.31 0 0 0-3.933 2.106 6.553 6.553 0 0 1-4.757-2.412 2.314 2.314 0 0 0 .715 3.083 2.334 2.334 0 0 1-1.043-.288v.031c0 1.116.796 2.052 1.849 2.264a2.25 2.25 0 0 1-.607.08c-.149 0-.293-.013-.433-.04a2.307 2.307 0 0 0 2.156 1.602 4.628 4.628 0 0 1-3.415.958 6.564 6.564 0 0 0 3.532 1.031Z" fill="#fff" fill-opacity=".8"/></svg>