<svg viewBox="0 0 28 28" xmlns="http://www.w3.org/2000/svg"><g fill="#054742"><path d="m13.32 21.2a4.73 4.73 0 0 1 3.68-2.2v-19h-17v21.2zm-9.74-17.2h9.8v.53h-9.8zm0 3.18h9.8v.53h-9.8zm0 3.18h4.9v.53h-4.9z"/><path d="m17.49 19a4.75 4.75 0 0 1 3.71 2v-16.76h-3.71z"/><path d="m12.56 23.76a4.77 4.77 0 0 1 .47-2h-8.79v3.71h8.64a4.69 4.69 0 0 1 -.32-1.71z"/><path d="m17.33 19.52a4.24 4.24 0 1 0 4.24 4.24 4.24 4.24 0 0 0 -4.24-4.24zm1.67 5.55-.38.38-1.31-1.32-1.31 1.32-.38-.38 1.38-1.31-1.32-1.31.38-.38 1.31 1.31 1.31-1.31.38.38-1.36 1.31z"/></g></svg>