<svg width="324" height="191" viewBox="0 0 324 191" fill="none" xmlns="http://www.w3.org/2000/svg">
<g clip-path="url(#clip0_10165_60105)">
<path d="M1.06445 175.102H317.564" stroke="#054742" stroke-width="0.5" stroke-linecap="round" stroke-linejoin="round"/>
<path d="M294.764 97.4009C270.264 90.2009 256.364 89.7009 255.664 65.0009C254.964 40.9009 233.664 13.5009 175.164 11.4009C142.864 10.3009 116.964 19.1009 102.964 34.3009C79.464 59.7009 94.664 76.9009 77.364 87.1009C66.064 93.7009 41.464 71.6009 21.264 86.3009C0.964037 101.101 -6.23596 140.501 12.364 165.201C16.864 171.201 24.064 174.701 31.664 174.701H298.264C309.164 174.701 318.964 167.501 321.764 156.901C327.964 132.601 317.964 104.201 294.764 97.4009Z" fill="#F0F5F3"/>
<path d="M212.365 52.1992V174.599H122.765V54.1992L212.365 52.1992Z" fill="#B3CDC0"/>
<path d="M281.965 52.1992H212.365V174.599H281.965V52.1992Z" fill="white" stroke="#054742" stroke-width="0.5" stroke-linecap="round" stroke-linejoin="round"/>
<path d="M235.065 0L205.665 60.4H119.165C118.065 60.4 117.465 59.2 118.165 58.3L161.165 2.6C162.365 1.1 164.165 0.2 166.065 0.2L235.065 0Z" fill="#054742"/>
<path d="M238.665 0L209.265 61.4L122.765 60.4L169.265 0.2L238.665 0Z" fill="#B3CDC0"/>
<path d="M287.065 63.8H214.265C212.065 63.8 209.865 62.7 208.565 60.9L166.265 4.7C164.865 2.7 166.265 0 168.665 0H189.765H238.265C240.865 0 243.365 1.2 244.965 3.3L288.865 60.2C289.965 61.7 288.965 63.8 287.065 63.8Z" fill="#054742"/>
<path d="M243.964 75.6016H223.564V101.702H243.964V75.6016Z" fill="#D1E4DA"/>
<path d="M235.165 75.6016H233.265V101.702H235.165V75.6016Z" fill="white"/>
<path d="M243.964 87.4023H223.564V89.3023H243.964V87.4023Z" fill="#EAF5EE"/>
<path d="M274.464 75.8008H254.064V101.901H274.464V75.8008Z" fill="#D1E4DA"/>
<path d="M265.764 75.8008H263.864V101.901H265.764V75.8008Z" fill="white"/>
<path d="M274.464 87.6016H254.064V89.5016H274.464V87.6016Z" fill="#EAF5EE"/>
<path d="M244.165 115.102H223.765V141.202H244.165V115.102Z" fill="#D1E4DA"/>
<path d="M235.365 115.102H233.465V141.202H235.365V115.102Z" fill="#EAF5EE"/>
<path d="M244.165 126.902H223.765V128.802H244.165V126.902Z" fill="#EAF5EE"/>
<path d="M274.765 115.301H254.365V141.401H274.765V115.301Z" fill="#D1E4DA"/>
<path d="M265.965 115.301H264.065V141.401H265.965V115.301Z" fill="#EAF5EE"/>
<path d="M274.765 127.199H254.365V129.099H274.765V127.199Z" fill="#EAF5EE"/>
<path d="M176.665 60.1016H151.365V92.5016H176.665V60.1016Z" fill="white"/>
<path d="M164.666 60.1016H162.266V92.5016H164.666V60.1016Z" fill="#DAEBE3"/>
<path d="M176.665 74.8008H151.365V77.2008H176.665V74.8008Z" fill="#DAEBE3"/>
<path d="M140.164 69V174.6H62.8643V70.7L140.164 69Z" fill="#B3CDC0" stroke="#054742" stroke-width="0.5" stroke-linecap="round" stroke-linejoin="round"/>
<path d="M200.165 69H140.165V174.6H200.165V69Z" fill="white" stroke="#054742" stroke-width="0.5" stroke-linecap="round" stroke-linejoin="round"/>
<path d="M159.765 24L134.465 76.1H59.7646C58.8646 76.1 58.2646 75 58.8646 74.3L95.9646 26.2C96.9646 24.9 98.5646 24.1 100.165 24.1L159.765 24Z" fill="#054742"/>
<path d="M162.764 24L137.464 82.7L62.8643 76.1L102.964 24.2L162.764 24Z" fill="#B3CDC0"/>
<path d="M204.564 79H141.764C139.864 79 137.964 78.1 136.864 76.5L100.464 28C99.2644 26.3 100.364 24 102.464 24H120.664H162.464C164.764 24 166.864 25.1 168.264 26.9L206.164 75.9C207.064 77.2 206.164 79 204.564 79Z" fill="#054742"/>
<path d="M167.365 89.1992H149.765V111.699H167.365V89.1992Z" fill="#D1E4DA"/>
<path d="M159.765 89.1992H158.165V111.699H159.765V89.1992Z" fill="white"/>
<path d="M167.365 99.3984H149.765V100.998H167.365V99.3984Z" fill="#EAF5EE"/>
<path d="M193.765 89.3984H176.165V111.898H193.765V89.3984Z" fill="#D1E4DA"/>
<path d="M186.165 89.3984H184.565V111.898H186.165V89.3984Z" fill="white"/>
<path d="M193.765 99.5977H176.165V101.198H193.765V99.5977Z" fill="#EAF5EE"/>
<path d="M167.565 123.301H149.965V145.801H167.565V123.301Z" fill="#D1E4DA"/>
<path d="M159.965 123.301H158.365V145.801H159.965V123.301Z" fill="#EAF5EE"/>
<path d="M167.565 133.5H149.965V135.1H167.565V133.5Z" fill="#EAF5EE"/>
<path d="M193.964 123.5H176.364V146H193.964V123.5Z" fill="#D1E4DA"/>
<path d="M186.365 123.5H184.765V146H186.365V123.5Z" fill="#EAF5EE"/>
<path d="M193.964 133.699H176.364V135.299H193.964V133.699Z" fill="#EAF5EE"/>
<path d="M109.265 75.8984H87.4648V103.798H109.265V75.8984Z" fill="white"/>
<path d="M98.9648 75.8984H96.9648V103.798H98.9648V75.8984Z" fill="#B3CDC0"/>
<path d="M109.265 88.5H87.4648V90.5H109.265V88.5Z" fill="#B3CDC0"/>
<path d="M91.9648 165.102C91.9648 165.102 139.765 173.002 140.265 172.702C140.865 172.402 147.065 145.702 147.065 145.702C147.065 145.702 107.565 138.602 106.965 138.602C106.365 138.602 97.7648 145.502 97.6648 145.902C97.4648 146.302 91.9648 165.102 91.9648 165.102Z" fill="#A6C5C0" stroke="#054843" stroke-width="0.5" stroke-miterlimit="10"/>
<path d="M237.665 171.9C238.765 172 296.665 170.8 296.665 170.8L292.265 157.5C292.265 157.5 284.265 145.4 279.965 145.6C275.765 145.8 250.565 141.7 246.165 144.8C241.865 147.8 237.965 145.4 235.865 152.6C233.765 159.8 232.165 160.6 233.765 165C235.465 169.2 237.665 171.9 237.665 171.9Z" fill="#A6C5C0" stroke="#054843" stroke-width="0.5" stroke-miterlimit="10"/>
<path d="M116.065 189.502C126.945 189.502 135.765 180.682 135.765 169.802C135.765 158.922 126.945 150.102 116.065 150.102C105.185 150.102 96.3652 158.922 96.3652 169.802C96.3652 180.682 105.185 189.502 116.065 189.502Z" fill="#054742"/>
<path d="M116.065 183.502C123.632 183.502 129.765 177.368 129.765 169.802C129.765 162.235 123.632 156.102 116.065 156.102C108.499 156.102 102.365 162.235 102.365 169.802C102.365 177.368 108.499 183.502 116.065 183.502Z" fill="#A6C5C0" stroke="#054843" stroke-width="0.5" stroke-miterlimit="10"/>
<path d="M116.065 179.002C121.146 179.002 125.265 174.883 125.265 169.802C125.265 164.721 121.146 160.602 116.065 160.602C110.984 160.602 106.865 164.721 106.865 169.802C106.865 174.883 110.984 179.002 116.065 179.002Z" fill="white" stroke="#054742" stroke-width="0.5" stroke-linecap="round" stroke-linejoin="round"/>
<path d="M267.665 189.502C278.545 189.502 287.365 180.682 287.365 169.802C287.365 158.922 278.545 150.102 267.665 150.102C256.785 150.102 247.965 158.922 247.965 169.802C247.965 180.682 256.785 189.502 267.665 189.502Z" fill="#054742"/>
<path d="M267.665 183.502C275.231 183.502 281.365 177.368 281.365 169.802C281.365 162.235 275.231 156.102 267.665 156.102C260.099 156.102 253.965 162.235 253.965 169.802C253.965 177.368 260.099 183.502 267.665 183.502Z" fill="#A6C5C0" stroke="#054843" stroke-width="0.5" stroke-miterlimit="10"/>
<path d="M267.665 179.002C272.746 179.002 276.865 174.883 276.865 169.802C276.865 164.721 272.746 160.602 267.665 160.602C262.584 160.602 258.465 164.721 258.465 169.802C258.465 174.883 262.584 179.002 267.665 179.002Z" fill="white" stroke="#054742" stroke-width="0.5" stroke-linecap="round" stroke-linejoin="round"/>
<path d="M312.864 151.101C311.164 140.101 305.864 137.801 289.864 134.601C272.264 131.101 249.964 119.601 249.964 119.601C249.964 119.601 211.964 101.001 202.664 98.8014C193.364 96.7014 170.464 97.3014 151.164 97.4014C131.964 97.6014 120.664 102.901 110.864 110.501C101.064 118.101 84.1645 123.901 84.1645 123.901L81.0645 124.401C77.8645 125.001 75.5645 127.701 75.5645 130.901V158.101C75.5645 161.201 77.6645 163.901 80.6645 164.701L91.7645 167.601C92.6645 167.801 93.4645 167.101 93.5645 166.201C94.7645 155.101 104.464 146.601 115.864 146.601C128.064 146.601 138.064 156.701 138.064 168.901C138.064 170.301 137.964 171.601 137.664 173.001C137.364 174.401 138.464 175.601 139.864 175.601H242.264C244.264 175.601 245.764 173.901 245.564 171.901C245.464 171.001 245.364 170.001 245.364 169.001C245.364 156.901 255.064 146.901 267.164 146.701C279.664 146.401 289.864 156.501 289.864 168.901C289.864 169.701 289.864 170.501 289.764 171.301C289.564 173.601 291.264 175.601 293.564 175.601H308.264C310.964 175.601 313.064 173.401 313.064 170.801V156.501C313.264 154.801 313.064 153.001 312.864 151.101Z" fill="#DAEBE3" stroke="#054742" stroke-width="0.5" stroke-linecap="round" stroke-linejoin="round"/>
<path d="M76.7645 134.402H88.8645C89.8645 134.402 90.5645 135.502 90.1645 136.402L88.7645 139.702C87.4645 142.802 84.4645 144.802 81.0645 144.802H76.6645C75.7645 144.802 75.0645 144.102 75.0645 143.202V136.002C75.1645 135.102 75.8645 134.402 76.7645 134.402Z" fill="#054742"/>
<path d="M293.565 139.403C300.265 140.403 307.965 146.703 307.965 146.703C309.765 148.703 308.265 151.903 305.565 151.703L292.565 150.903C289.865 150.703 287.565 148.903 286.765 146.303C285.465 142.003 286.565 138.403 293.565 139.403Z" fill="white" stroke="#054742" stroke-width="0.5" stroke-linecap="round" stroke-linejoin="round"/>
<path d="M75.6649 159.402C74.8649 159.402 74.2649 160.202 74.5649 161.002C75.4649 163.202 77.2649 164.902 79.6649 165.602L92.1649 168.902C93.1649 169.102 94.1649 168.402 94.2649 167.302C94.4649 165.202 94.9649 163.202 95.7649 161.302C95.9649 160.702 95.5649 160.002 94.8649 159.902L75.6649 159.402Z" fill="#054742"/>
<path d="M290.065 164.5C289.165 164.5 288.365 165.3 288.465 166.2C288.565 167.2 288.665 168.3 288.665 169.4C288.665 170.3 288.665 171.2 288.565 172.1C288.265 174.6 290.265 176.8 292.765 176.8H309.065C312.065 176.8 314.465 174.4 314.465 171.4V167.2C314.465 166 313.465 165 312.265 165L290.065 164.5Z" fill="#054742"/>
<path d="M250.065 126.003C249.865 125.903 228.165 114.003 213.865 107.403C199.665 100.803 183.765 101.503 183.065 101.503C181.265 101.503 143.265 100.603 131.565 104.303C119.765 108.003 104.465 124.703 103.865 125.403L103.665 125.603L107.765 144.903H108.165C120.165 144.203 129.265 147.403 134.665 154.103C138.765 159.203 139.265 164.503 139.265 164.603V165.103L182.465 166.203H182.965H183.465L243.665 167.403V166.903C243.965 147.303 250.165 126.903 250.165 126.703L250.265 126.303L250.065 126.003Z" stroke="#054742" stroke-width="0.5" stroke-linecap="round" stroke-linejoin="round"/>
<path d="M74.5645 161C75.4645 163.2 77.2645 164.9 79.6645 165.6L92.1645 168.9C93.1645 169.1 94.1645 168.4 94.2645 167.3C94.3645 166.5 94.4645 165.7 94.6645 164.9L74.5645 161Z" fill="#A6C5C0" stroke="#054843" stroke-width="0.5" stroke-miterlimit="10"/>
<path d="M288.765 170.6C288.765 171.1 288.665 171.6 288.665 172.1C288.365 174.6 290.365 176.8 292.865 176.8H309.165C312.165 176.8 314.565 174.4 314.565 171.4V170.5H288.765V170.6Z" fill="#A6C5C0" stroke="#054843" stroke-width="0.5" stroke-miterlimit="10"/>
<path d="M246.465 170.603C246.465 169.503 246.565 168.403 246.665 167.303C246.865 166.003 245.865 164.803 244.565 164.803L138.065 162.203C136.865 162.203 136.065 163.303 136.365 164.403C136.965 166.403 137.165 168.403 137.165 170.503C137.165 171.903 137.065 173.303 136.765 174.603C136.465 176.003 137.565 177.303 138.965 177.303H243.265C245.265 177.303 246.865 175.503 246.565 173.503C246.565 172.603 246.465 171.603 246.465 170.603Z" fill="#054742"/>
<path d="M246.465 170.6L137.265 170.5C137.265 171.9 137.165 173.3 136.865 174.6C136.565 176 137.665 177.3 139.065 177.3H243.365C245.365 177.3 246.965 175.5 246.665 173.5C246.565 172.6 246.465 171.6 246.465 170.6Z" fill="#A6C5C0" stroke="#054843" stroke-width="0.5" stroke-miterlimit="10"/>
<path d="M127.165 133.701H115.065C114.465 133.701 113.865 133.201 113.865 132.501C113.865 131.901 114.365 131.301 115.065 131.301H127.165C127.765 131.301 128.365 131.801 128.365 132.501C128.365 133.201 127.865 133.701 127.165 133.701Z" fill="#054742"/>
<path d="M200.465 134.9H188.365C187.765 134.9 187.165 134.4 187.165 133.7C187.165 133.1 187.665 132.5 188.365 132.5H200.465C201.065 132.5 201.665 133 201.665 133.7C201.665 134.3 201.065 134.9 200.465 134.9Z" fill="#054742"/>
<path d="M116.465 127.8L175.365 128.4C175.365 128.4 178.965 128.3 179.465 124.9C179.965 121.5 179.865 107 179.865 107C179.865 107 179.465 104.1 176.665 104C174.965 104 160.765 103 146.865 104.6C135.565 106 125.165 111.1 117.265 119L113.065 123.2C113.065 123.3 110.265 127.7 116.465 127.8Z" fill="white" stroke="#054742" stroke-width="0.5" stroke-linecap="round" stroke-linejoin="round"/>
<path d="M186.465 108.8V124C186.465 126 187.965 127.6 189.865 127.7L236.165 129.6C237.265 129.6 238.265 129.2 238.865 128.3C239.665 127.1 239.765 125.1 235.665 122.4C228.465 117.7 210.065 107.6 203.365 106.6C199.065 106 193.365 105.7 189.865 105.6C187.965 105.4 186.465 106.9 186.465 108.8Z" fill="white" stroke="#054742" stroke-width="0.5" stroke-linecap="round" stroke-linejoin="round"/>
<path d="M183.064 101.5V163.4" stroke="#054742" stroke-width="0.5" stroke-linecap="round" stroke-linejoin="round"/>
<path d="M55.8643 183.702L56.7643 163.902L65.0643 166.202L63.1643 183.602L55.8643 183.702Z" fill="white" stroke="#054742" stroke-width="0.5" stroke-linecap="round" stroke-linejoin="round"/>
<path d="M56.0645 181.102C56.0645 181.102 61.5645 183.702 63.9645 179.902L79.4645 187.902L53.5645 187.802L56.0645 181.102Z" fill="#054742"/>
<path d="M79.4645 189.903L53.5645 189.803L53.6645 187.703L79.5644 187.903L79.4645 189.903Z" fill="#DAEBE3" stroke="#054742" stroke-width="0.5" stroke-linecap="round" stroke-linejoin="round"/>
<path d="M65.4645 183.804C65.5645 183.804 65.5645 183.704 65.6645 183.704C66.7645 182.504 67.7645 181.904 67.7645 181.904C67.9645 181.804 68.0645 181.604 67.8645 181.404C67.7645 181.204 67.4645 181.204 67.2645 181.304C67.2645 181.304 66.0645 182.004 64.8645 183.304C64.7645 183.504 64.7645 183.704 64.9645 183.804C65.1645 183.804 65.2645 183.904 65.4645 183.804Z" fill="white"/>
<path d="M67.6647 184.804C67.7647 184.804 67.7647 184.704 67.8647 184.704C68.9647 183.504 69.9647 182.904 69.9647 182.904C70.1647 182.804 70.2647 182.604 70.0647 182.404C69.9647 182.204 69.6647 182.204 69.4647 182.304C69.4647 182.304 68.2647 183.004 67.0647 184.304C66.9647 184.504 66.9647 184.704 67.1647 184.804C67.3647 184.804 67.5647 184.804 67.6647 184.804Z" fill="white"/>
<path d="M69.8649 185.702C69.9649 185.702 69.9649 185.602 70.0649 185.602C71.1649 184.402 72.1649 183.802 72.1649 183.802C72.3649 183.702 72.4649 183.502 72.2649 183.302C72.1649 183.102 71.8649 183.102 71.6649 183.202C71.6649 183.202 70.4649 183.902 69.2649 185.202C69.1649 185.402 69.1649 185.602 69.3649 185.702C69.5649 185.802 69.7649 185.802 69.8649 185.702Z" fill="white"/>
<path d="M33.9639 183.702L37.3639 163.902L45.6639 166.202L41.2639 183.602L33.9639 183.702Z" fill="white" stroke="#054742" stroke-width="0.5" stroke-linecap="round" stroke-linejoin="round"/>
<path d="M34.1641 181.102C34.1641 181.102 39.6641 183.702 42.0641 179.902L57.5641 187.902L31.6641 187.802L34.1641 181.102Z" fill="#054742"/>
<path d="M57.6637 189.903L31.7637 189.803V187.703L57.6637 187.903V189.903Z" fill="#DAEBE3" stroke="#054742" stroke-width="0.5" stroke-linecap="round" stroke-linejoin="round"/>
<path d="M43.5641 183.804C43.6641 183.804 43.6641 183.704 43.7641 183.704C44.8641 182.504 45.8641 181.904 45.8641 181.904C46.0641 181.804 46.1641 181.604 45.9641 181.404C45.8641 181.204 45.5641 181.204 45.3641 181.304C45.3641 181.304 44.1641 182.004 42.9641 183.304C42.8641 183.504 42.8641 183.704 43.0641 183.804C43.2641 183.804 43.3641 183.904 43.5641 183.804Z" fill="white"/>
<path d="M45.7643 184.804C45.8643 184.804 45.8643 184.704 45.9643 184.704C47.0643 183.504 48.0643 182.904 48.0643 182.904C48.2643 182.804 48.3643 182.604 48.1643 182.404C48.0643 182.204 47.7643 182.204 47.5643 182.304C47.5643 182.304 46.3643 183.004 45.1643 184.304C45.0643 184.504 45.0643 184.704 45.2643 184.804C45.4643 184.804 45.6643 184.804 45.7643 184.804Z" fill="white"/>
<path d="M47.9645 185.702C48.0645 185.702 48.0645 185.602 48.1645 185.602C49.2645 184.402 50.2645 183.802 50.2645 183.802C50.4645 183.702 50.5645 183.502 50.3645 183.302C50.2645 183.102 49.9645 183.102 49.7645 183.202C49.7645 183.202 48.5645 183.902 47.3645 185.202C47.2645 185.402 47.2645 185.602 47.4645 185.702C47.6645 185.802 47.8645 185.802 47.9645 185.702Z" fill="white"/>
<path d="M65.9643 105.699C65.9643 105.699 68.5643 105.599 68.9643 116.099C69.0643 118.199 68.9643 121.199 68.8643 123.299L66.3643 178.399H54.1643L56.4643 124.699L44.9643 178.399L32.3643 178.199L45.8643 105.699L55.1643 104.699L65.9643 105.699Z" fill="white" stroke="#054742" stroke-width="0.5" stroke-linecap="round" stroke-linejoin="round"/>
<path d="M51.1641 71.2023C51.1641 71.2023 56.2641 79.0023 61.5641 81.0023C66.8641 83.0023 75.8641 93.4023 83.5641 94.0023L86.5641 84.0023L61.6641 66.9023L51.1641 71.2023Z" fill="#054742"/>
<path d="M107.763 101.4L108.063 100.9V100.8C108.363 100.7 108.563 100.6 108.663 100.3L108.963 99.8C109.063 99.6 109.163 99.3 109.063 99.1V98.9C109.263 98.8 109.363 98.6 109.463 98.4L109.663 98C109.763 97.7 109.763 97.4 109.663 97.1L109.063 96.2L112.363 97C112.663 97.1 113.063 96.9 113.163 96.6C113.363 96.2 113.163 95.7 112.763 95.6L106.763 93.2C106.463 92.8 106.063 92.5 105.563 92.6L103.663 93.1L97.2635 90.5L94.5635 95.5L101.363 97.5C101.463 98.4 102.063 99.1 102.863 99.6L103.963 100.2C104.263 100.7 104.663 101.1 105.263 101.3L106.563 101.8C106.763 101.9 106.963 101.9 107.163 101.8C107.463 101.8 107.663 101.6 107.763 101.4Z" fill="white" stroke="#054742" stroke-width="0.5" stroke-linecap="round" stroke-linejoin="round"/>
<path d="M106.964 93.6016L108.764 96.4016C108.964 96.8016 108.864 97.3016 108.464 97.6016C108.164 97.8016 107.764 97.8016 107.464 97.6016L105.864 96.0016C105.864 96.0016 105.464 97.9016 103.264 97.0016" fill="white"/>
<path d="M106.964 93.6016L108.764 96.4016C108.964 96.8016 108.864 97.3016 108.464 97.6016C108.164 97.8016 107.764 97.8016 107.464 97.6016L105.864 96.0016C105.864 96.0016 105.464 97.9016 103.264 97.0016" stroke="#054742" stroke-width="0.5" stroke-linecap="round" stroke-linejoin="round"/>
<path d="M84.7638 83.0014L102.264 89.8014L98.9638 98.8014L81.2638 93.8014C78.0638 92.6014 76.4638 89.8014 77.5638 86.9014C78.6638 84.3014 81.8638 81.0014 84.7638 83.0014Z" fill="#054742"/>
<path d="M43.5643 71.0023L53.2643 64.4023L56.8643 65.8023C56.8643 66.1023 63.1643 65.8023 66.7643 70.0023C70.6643 74.6023 69.6643 113.202 69.6643 113.202C69.6643 113.202 65.9643 112.902 65.8643 107.302C65.8643 107.302 64.6643 114.802 57.7643 115.602C50.9643 116.402 39.8643 114.402 39.8643 114.402L47.4643 95.9023L41.3643 79.9023C40.1643 76.8023 41.0643 73.3023 43.5643 71.0023Z" fill="#054742"/>
<path d="M51.1641 69.1016C51.1641 69.1016 61.0641 76.1016 64.4641 88.0016C64.4641 88.0016 67.1641 75.5016 59.4641 66.7016L54.5641 66.6016L51.1641 69.1016Z" fill="#DAEBE3"/>
<path d="M51.1641 69.1016C51.1641 69.1016 61.0641 76.1016 64.4641 88.0016C64.4641 88.0016 67.1641 75.5016 59.4641 66.7016L54.5641 66.6016L51.1641 69.1016Z" stroke="#054742" stroke-width="0.5" stroke-linecap="round" stroke-linejoin="round"/>
<path d="M51.7637 52.9028C51.7637 52.9028 52.5637 51.5028 51.7637 47.9028C50.8637 44.2028 60.6637 44.3028 63.0637 47.0028C63.0637 47.0028 61.4637 42.9028 55.6637 42.7028C49.7637 42.5028 45.0637 46.3028 47.0637 52.9028L48.4637 55.2028L51.7637 52.9028Z" fill="#054742"/>
<path d="M57.8641 64.0998L52.1641 60.8998C52.2641 59.0998 57.7641 59.8998 57.7641 59.8998L57.8641 64.0998Z" fill="#E99D77"/>
<path d="M66.6637 41.6992C66.9637 41.7992 68.1637 42.1992 67.8637 43.6992C67.5637 45.2992 62.3637 48.5992 58.7637 46.5992L60.0637 43.0992L66.6637 41.6992Z" fill="#D9EAE2" stroke="#054742" stroke-width="0.5" stroke-linecap="round" stroke-linejoin="round"/>
<path d="M47.8638 51.7997C48.3638 51.6997 48.8638 51.6997 49.3638 51.8997C49.9638 42.9997 58.7638 41.2997 63.0638 46.9997C63.0638 46.9997 64.3638 55.2997 63.0638 58.4997C62.0638 60.8997 60.3638 62.4997 57.8638 62.6997V65.3997L62.3638 67.1997C62.1638 68.5997 58.4638 70.7997 53.5638 70.5997C48.3638 70.3997 46.7638 69.1997 46.7638 69.1997L51.1638 65.9997L51.3638 60.1997C50.7638 59.4997 50.1638 58.4997 49.7638 57.1997C49.5638 57.2997 49.2638 57.4997 48.9638 57.4997C47.3638 57.8997 45.8638 56.8997 45.4638 55.2997C45.2638 53.6997 46.2638 52.1997 47.8638 51.7997Z" fill="white" stroke="#054742" stroke-width="0.5" stroke-linecap="round" stroke-linejoin="round"/>
<path d="M61.1641 57.3008L58.1641 57.4008C58.1641 57.4008 58.1641 59.1008 59.4641 59.1008C60.7641 59.0008 61.1641 57.3008 61.1641 57.3008Z" fill="#054742"/>
<path d="M51.564 40.6011C47.264 42.3011 45.064 47.0011 46.664 51.1011L61.164 42.9011C58.964 40.2011 55.064 39.1011 51.564 40.6011Z" fill="#D9EAE2" stroke="#054742" stroke-width="0.5" stroke-linecap="round" stroke-linejoin="round"/>
<path d="M51.7637 48.1008C51.7637 48.1008 55.4637 43.1008 60.8637 42.6008L66.6637 41.8008C66.6637 41.8008 62.1637 43.5008 60.4637 45.4008C58.6637 47.2008 53.9637 48.7008 51.7637 48.1008Z" fill="#D9EAE2" stroke="#054742" stroke-width="0.5" stroke-linecap="round" stroke-linejoin="round"/>
<path d="M52.5641 48.2016C53.1641 50.5016 50.9641 51.9016 51.1641 54.0016H49.9641C49.9641 53.6016 49.9641 53.2016 49.8641 52.8016C49.6641 51.8016 48.6641 51.2016 47.6641 51.5016C47.3641 51.6016 47.0641 51.7016 46.8641 51.8016L46.6641 51.0016L51.8641 48.1016L52.5641 48.2016Z" fill="#054742"/>
<path d="M63.1641 46.8023C61.5641 47.0023 60.0641 47.0023 58.6641 46.5023C59.3641 46.1023 60.1641 45.5023 60.7641 44.9023L63.1641 46.8023Z" fill="#054742"/>
<path d="M58.3637 62.3992C56.2637 62.5992 54.1637 61.9992 51.7637 60.1992C53.3637 62.1992 55.4637 63.8992 57.7637 65.4992L58.3637 62.3992Z" fill="#054742"/>
<path d="M68.8643 82.2C68.8643 82.2 68.6643 78.4 67.8643 75.5" stroke="white" stroke-width="0.5" stroke-linecap="round" stroke-linejoin="round"/>
<path d="M47.1637 68.9023C47.1637 68.9023 42.3637 70.4023 39.7637 75.4023C37.1637 80.4023 29.2637 92.3023 27.7637 99.9023L38.7637 98.6023L49.3637 83.0023L47.1637 68.9023Z" fill="#054742"/>
<path d="M58.2641 105.9L59.0641 105.3C59.3641 105.1 59.5641 104.6 59.3641 104.2C59.1641 103.9 58.8641 103.7 58.4641 103.8L56.9641 104.2C56.1641 104.4 55.3641 104.8 54.8641 105.5L54.1641 106.3L43.8641 100.5L42.1641 106.5L52.9641 110.4C59.5641 116.8 60.8641 110.3 61.1641 107.6C61.2641 106.4 59.8641 106 58.2641 105.9Z" fill="white" stroke="#054742" stroke-width="0.5" stroke-linecap="round" stroke-linejoin="round"/>
<path d="M35.9641 95.2003L53.2641 102.3L49.5641 111.6L31.2641 106.4C28.1641 105.1 26.6641 102.4 27.8641 99.4003C28.8641 96.7003 33.1641 93.1003 35.9641 95.2003Z" fill="#054742"/>
<path d="M45.8643 99.1992L53.2643 102.199L49.5643 111.499L41.8643 109.299" stroke="white" stroke-width="0.5" stroke-linecap="round" stroke-linejoin="round"/>
</g>
<defs>
<clipPath id="clip0_10165_60105">
<rect width="322.7" height="190.2" fill="white" transform="translate(0.864258)"/>
</clipPath>
</defs>
</svg>
